<svg width="236" height="205" viewBox="0 0 236 205" fill="none" xmlns="http://www.w3.org/2000/svg">
<path d="M221.25 58.5702H54.8208L172.268 14.1536C176.078 12.6893 177.983 8.47946 176.508 4.69673C175.033 0.913987 170.793 -0.977382 166.982 0.486904L12.1073 59.0583C12.0458 59.0583 12.0458 59.1194 11.9844 59.1194C5.22396 60.4616 0 66.1357 0 73.2131V190.356C0 198.471 6.6375 204.999 14.75 204.999H221.25C229.362 204.999 236 198.41 236 190.356V73.2131C236 65.1595 229.362 58.5702 221.25 58.5702ZM73.75 175.713C49.351 175.713 29.5 156.006 29.5 131.785C29.5 107.563 49.351 87.856 73.75 87.856C98.149 87.856 118 107.563 118 131.785C118 156.006 98.149 175.713 73.75 175.713ZM206.5 175.713H147.5V161.07H206.5V175.713ZM206.5 146.427H147.5V131.785H206.5V146.427ZM206.5 117.142H147.5V102.499H206.5V117.142Z" fill="#0CBD73"/>
</svg>
