<svg width="252" height="252" viewBox="0 0 252 252" fill="none" xmlns="http://www.w3.org/2000/svg">
<path d="M201.6 109.216C201.059 109.216 200.468 109.266 199.927 109.315L182.109 76.0922C188.508 68.6109 192.495 59.0625 193.036 48.6281L219.466 61.3758C218.777 63.1969 218.384 65.1164 218.384 67.1836C218.384 76.4367 225.914 83.9672 235.167 83.9672C244.42 83.9672 251.951 76.4367 251.951 67.1836C251.951 57.9305 244.42 50.4 235.167 50.4C231.033 50.4 227.292 51.975 224.388 54.4359L192.544 39.0797C188.655 14.2242 164.981 -4.13438 138.157 0.836719C119.798 4.23281 105.082 18.9492 101.587 37.2586C101.145 39.6211 100.898 41.9344 100.8 44.2477L75.8953 65.5594C68.857 59.6039 60.0469 55.7156 50.3508 54.8297V33.0258C57.6352 31.1063 63 24.6094 63 16.7836C63 7.53047 55.4695 0 46.2164 0C36.9633 0 29.4328 7.53047 29.4328 16.7836C29.4328 24.6094 34.7977 31.1063 42.0328 32.9766V54.7805C18.5063 56.9461 0 76.732 0 100.8C0 116.993 8.36719 131.217 21.0164 139.486V126.098C21.0164 119.109 26.8734 113.449 34.0102 113.449H58.3734C65.5594 113.449 71.3672 119.109 71.3672 126.098V139.486C81.8508 132.645 89.332 121.62 91.5961 108.823L110.545 123.588C109.659 125.606 109.167 127.87 109.167 130.233C109.167 139.486 116.698 147.016 125.951 147.016C135.204 147.016 142.734 139.486 142.734 130.233C142.734 120.98 135.204 113.449 125.951 113.449C122.062 113.449 118.568 114.827 115.713 116.993L92.2359 98.6836C91.7437 88.3969 87.9539 78.9961 81.8508 71.5148L101.538 54.6328C103.901 67.2328 111.382 78.0609 121.767 84.8531V71.4656C121.767 64.4766 127.624 58.8164 134.761 58.8164H159.124C166.31 58.8164 172.118 64.4766 172.118 71.4656V75.8461C172.118 77.618 173.152 78.9469 174.48 79.6852L191.018 110.447C170.592 115.221 155.334 133.53 155.334 155.384C155.334 160.601 156.27 165.572 157.894 170.248L140.864 182.995C132.891 169.017 117.928 159.567 100.702 159.567C76.6336 159.567 56.8477 178.073 54.7312 201.551H33.0258C31.1062 194.365 24.6094 189 16.7836 189C7.53047 189 0 196.53 0 205.784C0 215.037 7.53047 222.567 16.7836 222.567C24.6094 222.567 31.1063 217.202 32.9766 209.967H54.8297C56.1586 224.388 64.0336 236.89 75.5508 244.42V231.033C75.5508 224.044 81.4078 218.384 88.5445 218.384H112.908C120.094 218.384 125.902 224.044 125.902 231.033V244.42C135.745 237.973 142.98 227.883 145.688 216.021L173.201 229.31C172.512 231.131 172.118 233.051 172.118 235.118C172.118 244.371 179.648 251.902 188.902 251.902C198.155 251.902 205.685 244.371 205.685 235.118C205.685 225.865 198.155 218.334 188.902 218.334C184.767 218.334 181.027 219.909 178.123 222.37L146.82 207.26C146.82 206.768 146.918 206.276 146.918 205.734C146.918 200.517 145.983 195.497 144.408 190.821L161.438 178.172C165.08 184.57 170.198 190.034 176.4 194.07V180.682C176.4 173.693 182.257 168.033 189.394 168.033H213.757C220.943 168.033 226.751 173.693 226.751 180.682V194.07C239.4 185.801 247.767 171.577 247.767 155.384C247.816 129.938 227.095 109.216 201.6 109.216ZM46.2164 104.984C36.9633 104.984 29.4328 97.4531 29.4328 88.2C29.4328 78.9469 36.9633 71.4164 46.2164 71.4164C55.4695 71.4164 63 78.9469 63 88.2C63 97.4531 55.4695 104.984 46.2164 104.984ZM147.016 50.4C137.763 50.4 130.233 42.8695 130.233 33.6164C130.233 24.3633 137.763 16.8328 147.016 16.8328C156.27 16.8328 163.8 24.3633 163.8 33.6164C163.8 42.8695 156.27 50.4 147.016 50.4ZM100.8 210.016C91.5469 210.016 84.0164 202.486 84.0164 193.233C84.0164 183.98 91.5469 176.449 100.8 176.449C110.053 176.449 117.584 183.98 117.584 193.233C117.633 202.486 110.053 210.016 100.8 210.016ZM201.6 159.616C192.347 159.616 184.816 152.086 184.816 142.833C184.816 133.58 192.347 126.049 201.6 126.049C210.853 126.049 218.384 133.58 218.384 142.833C218.433 152.086 210.853 159.616 201.6 159.616Z" fill="#0CBD73"/>
</svg>
