<svg width="57" height="57" viewBox="0 0 57 57" fill="none" xmlns="http://www.w3.org/2000/svg">
<g clip-path="url(#clip0)">
<path d="M57 0H14.2152L0 14.3011H42.6765L42.6783 14.2993V56.9591L56.9608 42.7661V0.0390641L57 0Z" fill="#08E193"/>
<path d="M0 21.2082V57.0009H35.8029V21.2082H0ZM30.4642 33.6606C30.4424 33.686 30.4187 33.7096 30.405 33.7296C30.3968 33.7432 30.3914 33.755 30.3914 33.7714L30.3932 33.785L30.395 33.7914L30.3932 33.7977C30.324 34.1266 30.1529 34.4527 30.1428 34.7598V34.7798L30.1274 34.7898L30.1237 34.7916C30.1201 34.8588 30.1001 34.9315 30.0746 35.006C30.0454 35.0869 30.0072 35.1632 29.9717 35.2268L29.9699 35.2322L29.9662 35.2358C29.907 35.2849 29.8715 35.324 29.826 35.3639C29.7823 35.4012 29.7332 35.4348 29.6549 35.4666L29.6512 35.4702C29.6512 35.472 29.6494 35.4766 29.6494 35.4875C29.6494 35.4938 29.6494 35.5029 29.6494 35.5111C29.6494 35.5211 29.6494 35.5347 29.6458 35.5484C29.6439 35.5583 29.6376 35.5683 29.6303 35.5783C29.6011 35.7337 29.5556 35.9381 29.4309 36.0725C29.4309 36.0744 29.4327 36.0762 29.4327 36.0762L29.4427 36.0844C29.4564 36.0907 29.4837 36.0925 29.5156 36.0925C29.5329 36.0925 29.5529 36.0925 29.5747 36.0925C29.6039 36.0925 29.6376 36.0925 29.6676 36.098C29.6967 36.1043 29.7304 36.1161 29.7541 36.1416L29.7678 36.1552L29.7659 36.1725C29.7641 36.1825 29.7559 36.2633 29.7423 36.3514C29.7286 36.4423 29.7104 36.544 29.6895 36.6049C29.6831 36.6249 29.6758 36.6403 29.6658 36.6521C29.664 36.6558 29.6603 36.6603 29.6558 36.6621C29.5848 36.7957 29.5574 36.8729 29.5593 36.912C29.5593 36.9338 29.5629 36.9392 29.5747 36.9538C29.5848 36.9637 29.6066 36.9774 29.6376 36.991C29.6986 37.0183 29.7878 37.0537 29.8843 37.1345L29.8879 37.1382L29.8897 37.1418C29.9216 37.1945 29.9526 37.2499 29.9808 37.3035L30.0127 37.3662V37.3726V37.3925C30.0127 37.457 29.9808 37.5106 29.9453 37.5579C29.9098 37.6051 29.8706 37.646 29.8406 37.6796L29.8351 37.6878L29.8269 37.6914C29.7896 37.7069 29.7714 37.7232 29.7596 37.7441C29.7459 37.7659 29.7423 37.7914 29.7423 37.825C29.7423 37.8995 29.7714 38.0003 29.7714 38.0902C29.7714 38.1193 29.7677 38.1529 29.7559 38.1811L29.7505 38.1965L29.735 38.2029C29.7113 38.2129 29.684 38.2183 29.6539 38.2183C29.5611 38.2183 29.4564 38.1729 29.3462 38.1202C29.2361 38.0675 29.1232 38.0021 29.0249 37.9612C28.9575 37.934 28.8965 37.9158 28.8537 37.9158C28.8218 37.9158 28.7982 37.924 28.7809 37.9394C28.7372 37.9849 28.6388 38.0675 28.5423 38.1066C28.5105 38.122 28.4795 38.1302 28.4477 38.1302C28.4413 38.1302 28.434 38.1302 28.4276 38.1284L28.4103 38.1266L28.4021 38.1111C28.3867 38.0857 28.3921 38.0621 28.3885 38.0439C28.3885 38.0357 28.3867 38.0285 28.3867 38.0221C28.3666 38.0185 28.3512 38.0121 28.3375 38.0039C28.3175 37.9958 28.3002 37.9885 28.2902 37.9885L28.2801 37.9921C28.1836 38.1911 28.1281 38.3755 28.0671 38.5963C28.0298 38.7162 27.9806 38.8852 27.9151 39.045C27.8504 39.2022 27.7712 39.3521 27.6629 39.4348C27.6629 39.4348 27.6611 39.4348 27.6611 39.4366C27.6237 39.4684 27.58 39.4784 27.5427 39.4784C27.4954 39.4784 27.4498 39.4684 27.4125 39.4702C27.377 39.4702 27.357 39.4766 27.336 39.4956L27.3324 39.4993L27.2341 39.552L27.214 39.5383C27.1849 39.5184 27.1467 39.4947 27.1093 39.4775C27.072 39.4593 27.0347 39.4475 27.001 39.4475C26.9719 39.4475 26.9482 39.4557 26.9245 39.4829C26.9072 39.5102 26.9027 39.5383 26.9009 39.5738C26.9009 39.6446 26.9282 39.7291 26.93 39.8182C26.93 39.869 26.9163 39.9263 26.879 39.9735C26.8317 40.0916 26.8116 40.1779 26.8116 40.2842C26.8116 40.3196 26.8135 40.3569 26.8171 40.3987C26.8408 40.4341 26.8526 40.4713 26.849 40.5086C26.849 40.5794 26.8198 40.6485 26.7898 40.7094C26.7625 40.7702 26.7388 40.8275 26.7388 40.8593C26.7388 40.8765 26.7425 40.8829 26.7543 40.8947L26.7861 40.9201L26.7588 40.9474L26.757 40.951C26.7552 40.9546 26.7534 40.961 26.7534 40.9692C26.7516 40.9846 26.7497 41.0046 26.7497 41.0246C26.7497 41.0464 26.7516 41.07 26.7561 41.0891C26.7598 41.1091 26.7643 41.1245 26.7698 41.1282L26.7716 41.1318L26.7734 41.1382C26.7934 41.2072 26.8007 41.2762 26.8007 41.3444C26.8007 41.4125 26.7925 41.4843 26.7807 41.5551L26.7789 41.5651L26.7707 41.5733C26.7452 41.5987 26.706 41.6224 26.6642 41.6496C26.6232 41.6751 26.5795 41.7023 26.5522 41.7259C26.5321 41.7414 26.5203 41.7559 26.5203 41.7614L26.5185 41.7677L26.4238 41.8622V42.0003L26.5067 42.063C26.5558 42.0612 26.6095 42.0448 26.666 42.0448C26.7033 42.0448 26.7406 42.0512 26.7807 42.0748L26.8007 42.0848L26.7989 42.1066C26.7971 42.1366 26.7971 42.1675 26.7971 42.1992C26.7971 42.3428 26.8144 42.5145 26.8144 42.6798C26.8144 42.8552 26.7943 43.026 26.706 43.1695C26.7079 43.3049 26.7315 43.3857 26.757 43.5292C26.8007 43.6137 26.8162 43.6864 26.8162 43.7536C26.8162 43.8209 26.8007 43.8817 26.7871 43.939C26.7734 43.9944 26.7616 44.0507 26.7597 44.1179C26.7989 44.1942 26.8071 44.2933 26.8071 44.3778C26.8126 44.3796 26.8226 44.3841 26.8308 44.3877C26.8326 44.3877 26.8326 44.3896 26.8344 44.3896H26.8362C26.8444 44.3242 26.8517 44.2833 26.8617 44.256C26.8654 44.246 26.8699 44.236 26.8836 44.226C26.8899 44.2224 26.9009 44.216 26.9109 44.216C26.9282 44.216 26.9382 44.2242 26.9464 44.2315C26.9546 44.2397 26.96 44.2451 26.9637 44.2533C26.9719 44.2687 26.981 44.2851 26.9892 44.3087C27.0065 44.3505 27.0265 44.4014 27.0483 44.4586L27.2277 44.5749L27.2359 44.7502L27.3288 45.0155V45.0219C27.3288 45.0827 27.3151 45.1536 27.3033 45.2226C27.2878 45.2917 27.2741 45.3625 27.2659 45.4216L27.2641 45.4316L27.2587 45.4398C27.2523 45.4461 27.2368 45.467 27.2177 45.4906C27.1977 45.5142 27.174 45.5433 27.153 45.5669C27.1376 45.5824 27.1257 45.5969 27.1093 45.606C27.1012 45.6124 27.0893 45.616 27.072 45.6196H27.0684H27.0666C27.0192 45.6115 26.9901 45.5824 26.9637 45.5569C26.9418 45.5315 26.9245 45.5079 26.9081 45.4961C26.8981 45.4879 26.8863 45.4861 26.869 45.4825C26.8635 45.4825 26.8535 45.4825 26.8435 45.4843H26.8399H26.8362C26.7907 45.4843 26.7716 45.4979 26.7552 45.5197C26.7397 45.5397 26.7315 45.5724 26.7315 45.6124C26.7315 45.656 26.7397 45.7032 26.7534 45.7423L26.7552 45.7486V45.755C26.7552 45.8595 26.7333 45.9221 26.7042 45.9757C26.6751 46.0266 26.6368 46.0666 26.6013 46.1347L26.5931 46.1529L26.5731 46.1547C26.5649 46.1565 26.5558 46.1602 26.5476 46.172C26.5394 46.182 26.5276 46.1974 26.5221 46.2192C26.5067 46.261 26.4966 46.3119 26.4903 46.3573C26.4866 46.3809 26.4821 46.4009 26.4766 46.42C26.4803 46.4354 26.483 46.4472 26.483 46.4618C26.483 46.4972 26.4693 46.5226 26.4611 46.5426C26.4529 46.5626 26.4457 46.5781 26.4457 46.5917C26.4457 46.6053 26.4493 46.6235 26.4675 46.6526L26.4711 46.6589V46.6671C26.4812 46.7888 26.4848 46.9169 26.5185 47.0214L26.5203 47.025V47.0287C26.5358 47.1758 26.5677 47.3394 26.5677 47.5047C26.5677 47.5992 26.5576 47.6973 26.524 47.79L26.5203 47.7981L26.5121 47.8045C26.4447 47.8635 26.4038 47.9308 26.4038 48.0071C26.4038 48.0362 26.4092 48.0716 26.4238 48.1052C26.4274 48.1188 26.4338 48.1252 26.4438 48.1306C26.452 48.137 26.4675 48.1406 26.4848 48.1461C26.5203 48.1515 26.5677 48.1515 26.6132 48.1615C26.6423 48.1679 26.676 48.177 26.7015 48.2006L26.7051 48.2042L26.7069 48.2079C26.7306 48.2487 26.7625 48.3005 26.7898 48.3577C26.8171 48.4132 26.839 48.4758 26.839 48.5385C26.839 48.584 26.8253 48.6312 26.7934 48.6721L26.7834 48.6857L26.7679 48.6875C26.7033 48.6912 26.6632 48.7057 26.6459 48.7148C26.6259 48.7284 26.6223 48.7366 26.6168 48.7557C26.6068 48.7911 26.6114 48.8619 26.5713 48.941L26.6086 49C26.6286 49.01 26.6441 49.0237 26.656 49.0373C26.6714 49.0527 26.6796 49.0691 26.6851 49.0863C26.6987 49.1218 26.6988 49.149 26.7124 49.1845L26.7142 49.1881V49.1917C26.7242 49.268 26.7279 49.3135 26.7343 49.3316L26.7397 49.3416C26.7415 49.3434 26.7479 49.3471 26.7616 49.3552C26.7789 49.3616 26.8071 49.3689 26.8499 49.3789L26.8772 49.3843V49.4143C26.8772 49.4652 26.8672 49.5524 26.8672 49.6369C26.8672 49.6841 26.8708 49.7314 26.8808 49.7686C26.889 49.8077 26.9045 49.8331 26.9218 49.8495C26.9318 49.8576 26.9473 49.8649 26.9691 49.8649H26.9746L26.9801 49.8667C27.0192 49.8803 27.0565 49.8849 27.0966 49.8849C27.1403 49.8849 27.1831 49.8785 27.225 49.8749L27.2386 49.8731L27.2486 49.8794C27.2687 49.8931 27.2805 49.9085 27.2896 49.9285C27.2951 49.9485 27.2978 49.9657 27.2978 49.9812C27.2978 50.0112 27.2923 50.042 27.2942 50.0639C27.2942 50.0738 27.296 50.0857 27.2978 50.0911L27.306 50.1129L27.1266 50.2882L27.1166 50.43L27.1084 50.4381C27.0392 50.509 26.9528 50.5263 26.8699 50.5244C26.7934 50.5244 26.7124 50.5108 26.6396 50.5108C26.6177 50.5108 26.5959 50.5126 26.5749 50.5145L26.5513 50.5181L26.4366 50.3173C26.4147 50.3091 26.3956 50.3019 26.3837 50.3019C26.3683 50.3019 26.3564 50.3055 26.3446 50.3119C26.3346 50.3182 26.3209 50.3318 26.3091 50.3491C26.2872 50.3809 26.2699 50.4318 26.2581 50.4845C26.2344 50.5926 26.2308 50.717 26.2226 50.7779L26.2208 50.7915L26.2126 50.7997C26.1361 50.876 26.0824 50.975 26.0178 51.0732L26.0159 51.075L26.0141 51.0768C26.0005 51.0904 25.9905 51.1004 25.9823 51.1122C25.9768 51.1204 25.9722 51.1277 25.9722 51.1295C25.9759 51.1313 25.9877 51.1377 26.0041 51.1431L26.0178 51.1467L26.026 51.1567C26.0551 51.2022 26.0815 51.2549 26.1106 51.3066C26.1361 51.3539 26.1616 51.3975 26.1871 51.4229C26.2344 51.4384 26.2818 51.462 26.3209 51.4938C26.3619 51.5292 26.3938 51.5765 26.412 51.6355L26.4138 51.6391V51.6428C26.4156 51.6837 26.4174 51.7154 26.4174 51.7454C26.4174 51.7727 26.4156 51.799 26.4092 51.8199C26.4038 51.8417 26.3892 51.8635 26.3737 51.879C26.3446 51.9089 26.3064 51.928 26.2517 51.9598L26.2381 52.2905C26.2836 52.3668 26.2973 52.4495 26.2973 52.5249C26.2973 52.623 26.2772 52.7175 26.2772 52.7947C26.2772 52.8438 26.2827 52.8856 26.3045 52.9246L26.3127 52.9428L26.3045 52.96C26.2872 52.9955 26.2727 53.0191 26.2636 53.0345C26.2554 53.0545 26.2536 53.0636 26.2536 53.08C26.2536 53.0954 26.2572 53.1118 26.2672 53.1426L26.2709 53.1526L26.269 53.1626C26.2608 53.1944 26.2454 53.2217 26.2253 53.2435C26.2053 53.2653 26.1816 53.2789 26.158 53.2907C26.1106 53.3143 26.0596 53.328 26.0196 53.3434C25.9941 53.357 25.9741 53.3689 25.9604 53.387L25.8521 53.5605L25.4597 53.6314C25.4278 53.6805 25.3987 53.7195 25.3686 53.7477C25.3368 53.7768 25.2994 53.7986 25.2585 53.7986C25.2193 53.7986 25.1838 53.7786 25.1501 53.7495C25.121 53.7223 25.0891 53.6805 25.0573 53.6314L24.9726 53.5687C24.9708 53.5724 24.969 53.5769 24.969 53.5842C24.9653 53.6042 24.9626 53.6314 24.9626 53.6587C24.9608 53.7177 24.9608 53.7886 24.9307 53.8558C24.9107 53.9012 24.8752 53.9421 24.8206 53.9721L24.8106 53.9784L24.7969 53.9766C24.7814 53.9748 24.7696 53.973 24.7559 53.973C24.6931 53.973 24.6358 53.9984 24.5729 54.0266C24.5101 54.0538 24.4446 54.0893 24.3699 54.0956H24.3617L24.3535 54.092C24.3098 54.0738 24.2807 54.0466 24.2507 54.0193C24.2233 53.9921 24.1978 53.9639 24.1678 53.9385L24.1541 53.9285V53.9103C24.1541 53.9067 24.1542 53.8967 24.1578 53.8903C24.1596 53.884 24.166 53.8767 24.1714 53.8749L24.1769 53.8258L24.1851 53.8176C24.2106 53.7904 24.217 53.7722 24.217 53.7622C24.217 53.7522 24.2133 53.7386 24.1969 53.7204C24.1833 53.705 24.1651 53.6914 24.146 53.675C24.1205 53.6668 24.0968 53.6614 24.0695 53.6614C23.9812 53.6614 23.8801 53.705 23.7636 53.705C23.7263 53.705 23.6889 53.7014 23.6489 53.6877L23.6334 53.6841L23.6279 53.6687C23.6225 53.6532 23.6197 53.6369 23.6197 53.6232C23.6197 53.5942 23.6252 53.5678 23.6252 53.5469C23.6252 53.5369 23.6234 53.5251 23.6216 53.5197C23.6179 53.5115 23.6134 53.5042 23.5997 53.496L23.5861 53.486L23.5842 53.4688C23.5842 53.4588 23.5788 53.4488 23.5669 53.437C23.5587 53.427 23.5433 53.4116 23.5314 53.3898C23.4996 53.3698 23.4704 53.3643 23.4431 53.3643C23.4021 53.3643 23.3603 53.3798 23.3211 53.4034C23.2802 53.427 23.2383 53.4588 23.1991 53.4879L23.1955 53.4915L22.7148 53.6314L22.6993 53.6078C22.6793 53.5778 22.6738 53.5469 22.6738 53.5215C22.6738 53.4979 22.6775 53.4797 22.6756 53.4661C22.6756 53.4524 22.6738 53.4424 22.6674 53.4306C22.662 53.4206 22.6456 53.4052 22.6165 53.387C22.5691 53.3634 22.54 53.3416 22.5136 53.3316C22.4899 53.318 22.4781 53.3162 22.4726 53.3162C22.4672 53.3162 22.4553 53.318 22.4335 53.3298C22.4162 53.338 22.3925 53.3534 22.3625 53.3734C22.3761 53.4579 22.3998 53.566 22.4016 53.6487V53.6623L22.3934 53.6723C22.3661 53.7014 22.3406 53.7332 22.3206 53.7631C22.3005 53.7904 22.2914 53.8186 22.2914 53.844C22.2914 53.8676 22.2996 53.893 22.3324 53.9285L22.3379 53.9348L22.3397 53.943C22.3433 53.9585 22.3452 53.9703 22.3452 53.9848C22.3452 54.0066 22.337 54.0284 22.3233 54.0438C22.3097 54.0593 22.296 54.0657 22.2796 54.0711C22.2505 54.0811 22.2204 54.0911 22.1986 54.1029C22.1831 54.1111 22.1731 54.1229 22.1613 54.1401L22.1558 54.1501L22.1458 54.1538C22.1048 54.1738 22.0784 54.1974 22.0547 54.2228C22.0311 54.2483 22.0056 54.2782 21.9637 54.2973C21.9364 54.3109 21.9027 54.3173 21.859 54.3173H21.8435L21.8335 54.3073C21.7725 54.2464 21.727 54.231 21.6915 54.231C21.6542 54.231 21.6187 54.2492 21.5749 54.28C21.534 54.3091 21.4903 54.3509 21.4411 54.3918C21.4275 54.4726 21.3819 54.5508 21.3228 54.618C21.2581 54.687 21.1725 54.7397 21.0842 54.7443C21.0779 54.7443 21.0706 54.7443 21.0642 54.7443H21.0624H21.0606C21.0469 54.7406 21.0369 54.7406 21.0287 54.7406C21.0114 54.7406 21.0032 54.7443 20.9968 54.7506C20.9886 54.7561 20.9795 54.7688 20.9713 54.7824C20.9541 54.8142 20.9422 54.8633 20.9158 54.9087C20.8985 54.9387 20.8721 54.9678 20.833 54.985L20.8248 54.9887H20.8166C20.8029 54.9887 20.7929 54.9923 20.7793 55.0041C20.7656 55.0141 20.7519 55.0295 20.7355 55.0495C20.7064 55.0904 20.6764 55.144 20.6409 55.1912C20.6172 55.223 20.5917 55.2521 20.5562 55.2721L20.5343 55.2857L20.2403 55.0377V55.0223C20.2385 54.9905 20.2403 54.9614 20.2385 54.9414C20.2366 54.9214 20.233 54.9096 20.2184 54.896L20.2084 54.886V54.8706C20.2084 54.8269 20.2084 54.7724 20.203 54.7134C20.1975 54.658 20.1857 54.5989 20.1638 54.5599C20.1556 54.5426 20.1438 54.5308 20.1347 54.519C20.1092 54.5408 20.0873 54.5599 20.0655 54.5744C20.04 54.5944 20.0127 54.6098 19.9772 54.6098C19.9317 54.6098 19.8907 54.588 19.8251 54.5544L19.8197 54.5526L19.816 54.549C19.7905 54.5217 19.7751 54.4963 19.7632 54.4726C19.7532 54.449 19.7478 54.4236 19.7478 54.4018C19.7478 54.3564 19.7578 54.3191 19.7614 54.2619L19.6585 54.1638L19.6412 54.0121L19.5329 53.973C19.5293 53.983 19.5229 53.9966 19.5174 54.0102C19.5038 54.0375 19.4919 54.0657 19.4683 54.0911C19.4528 54.1065 19.4309 54.1202 19.4036 54.1202H19.4L19.3963 54.1183C19.3454 54.1029 19.3017 54.0766 19.2625 54.0575C19.2252 54.0375 19.1933 54.0257 19.1578 54.022L19.0358 54.0829C19.0258 54.1047 19.014 54.122 19.0067 54.132C19.003 54.1356 19.0012 54.1374 18.9985 54.142C19.0003 54.1438 19.0003 54.1438 19.0021 54.1456C19.0194 54.1592 19.0513 54.1774 19.0968 54.2101C19.1205 54.2165 19.1614 54.2337 19.2088 54.2573C19.2598 54.2828 19.3171 54.3182 19.359 54.36C19.3845 54.3872 19.4063 54.4209 19.4082 54.4645C19.4082 54.4899 19.4 54.5135 19.3827 54.5353C19.3845 54.5808 19.3927 54.628 19.4045 54.6752C19.4145 54.7261 19.4282 54.7815 19.4282 54.8342C19.4282 54.8778 19.42 54.9223 19.3927 54.9641C19.3672 55.005 19.3235 55.0368 19.2625 55.0622C19.1979 55.0895 19.1323 55.0913 19.0795 55.1013C19.024 55.1095 18.9766 55.1231 18.9393 55.164L18.9311 55.1722L18.9229 55.174C18.9193 55.1776 18.9147 55.1922 18.9011 55.204C18.8929 55.2121 18.881 55.2212 18.8637 55.2258L18.8601 55.2276H18.8565C18.8291 55.2276 18.8009 55.214 18.7854 55.1958C18.7681 55.1758 18.76 55.1549 18.7536 55.1286C18.7399 55.0813 18.7381 55.0241 18.7381 54.9787C18.7381 54.9432 18.7399 54.916 18.7399 54.9024V54.8942L18.7436 54.886C18.7946 54.7897 18.8128 54.7089 18.8128 54.6298C18.8128 54.5353 18.7854 54.4372 18.7518 54.3209C18.7317 54.291 18.7281 54.2582 18.7281 54.2301C18.7281 54.1774 18.7436 54.1256 18.7436 54.0865C18.7436 54.0629 18.7399 54.0429 18.7263 54.0239L18.5451 53.9158C18.5251 53.9058 18.5096 53.8903 18.4996 53.8721C18.4896 53.854 18.4841 53.8349 18.4823 53.8195C18.4786 53.784 18.4805 53.7522 18.4759 53.7268C18.4741 53.7114 18.4704 53.7014 18.4604 53.6895L18.3011 53.5932L18.2993 53.5751C18.2911 53.5297 18.2893 53.5106 18.2774 53.4688L18.2756 53.4652V53.1581L18.2911 53.1481C18.3148 53.1299 18.3421 53.1109 18.3721 53.0927C18.3976 53.0727 18.4213 53.0536 18.4349 53.0336C18.4431 53.02 18.4486 53.01 18.4486 53.0018L18.4468 52.9864L18.4368 52.9564L18.6361 52.8619C18.638 52.8583 18.6398 52.8483 18.6416 52.8383C18.6434 52.8201 18.6452 52.7965 18.6452 52.7738C18.6452 52.7284 18.6416 52.6775 18.6298 52.6321C18.6216 52.5912 18.6097 52.5558 18.6006 52.5376C18.5569 52.5085 18.5196 52.4849 18.4905 52.4495C18.4586 52.4122 18.4413 52.3632 18.4431 52.2996V52.2623H18.4632C18.465 52.256 18.4686 52.2469 18.4732 52.2369C18.4832 52.2115 18.4932 52.176 18.5005 52.1506C18.5041 52.1333 18.5087 52.1234 18.5105 52.1134C18.5324 52.0543 18.5396 52.0152 18.5378 51.9871C18.5378 51.9635 18.5342 51.9553 18.5242 51.9435C18.516 51.9353 18.5005 51.9235 18.4786 51.9135C18.4331 51.8917 18.3621 51.8699 18.2893 51.8108L18.2756 51.8008V51.7827C18.2756 51.7763 18.2756 51.7727 18.2774 51.7645L18.2811 51.7463C18.2829 51.7327 18.2865 51.7209 18.2893 51.7109C18.2893 51.6837 18.2838 51.66 18.2756 51.6419C18.2674 51.6219 18.2538 51.6101 18.2365 51.5964C18.201 51.571 18.1482 51.5528 18.0826 51.531H18.0808H18.079C18.0653 51.5274 18.0535 51.5247 18.0398 51.5247C18.0198 51.5247 17.9961 51.5283 17.9725 51.5328C17.9488 51.5365 17.9233 51.5428 17.896 51.5428C17.8668 51.5428 17.8313 51.5347 17.8049 51.5056L17.8031 51.5038L17.8013 51.5001C17.7858 51.4729 17.7722 51.4447 17.7558 51.4193C17.7403 51.3957 17.7266 51.3757 17.7121 51.3684C17.7039 51.3621 17.6966 51.3602 17.6884 51.3602C17.6784 51.3602 17.6611 51.3639 17.6374 51.382L17.6274 51.3902L17.6137 51.3884C17.5883 51.3866 17.5728 51.3848 17.5527 51.3784C17.5327 51.372 17.5172 51.3584 17.5072 51.343C17.499 51.3348 17.4918 51.323 17.4817 51.3075L17.4717 51.2921L17.4772 51.2721C17.4927 51.2285 17.5209 51.1894 17.5446 51.154C17.5682 51.1186 17.5837 51.0832 17.5837 51.0659C17.5837 51.0595 17.5819 51.0559 17.5801 51.0477C17.5782 51.0441 17.5719 51.0395 17.5646 51.0341C17.5446 51.0441 17.5172 51.0659 17.4954 51.0931C17.4681 51.1249 17.4444 51.164 17.4426 51.184L17.4408 51.1976L17.2887 51.3257C17.2733 51.402 17.2614 51.4574 17.2332 51.5047C17.2041 51.5537 17.1585 51.5892 17.0812 51.6328L17.0657 51.641L17.0502 51.6346C16.9573 51.6028 16.8881 51.5837 16.8372 51.5637C16.7862 51.5437 16.7489 51.5265 16.7206 51.4965C16.7033 51.4765 16.6915 51.4511 16.6851 51.4256C16.6769 51.3884 16.6769 51.3493 16.6769 51.2939C16.6769 51.2721 16.6769 51.2503 16.6769 51.2249C16.6769 51.184 16.6769 51.134 16.6751 51.0777V51.0695L16.6788 51.0613C16.6842 51.0459 16.6988 51.0341 16.7106 51.0259C16.7243 51.0196 16.7343 51.0159 16.7461 51.0123C16.768 51.0087 16.7898 51.0087 16.8017 51.0041C16.8099 51.0023 16.8153 51.0005 16.8153 51.0005L16.8253 50.9905H16.8408H16.8426L16.8481 50.9887C16.8536 50.9869 16.8617 50.9832 16.8718 50.975C16.8918 50.9614 16.9127 50.9451 16.9391 50.926C16.9883 50.8851 17.0438 50.8333 17.0812 50.7924C17.1048 50.7688 17.1221 50.7516 17.134 50.7416L17.2204 50.5744L17.4435 50.4981L17.4945 50.2755C17.4945 50.2755 17.4945 50.2755 17.4927 50.2737C17.4863 50.2673 17.479 50.2537 17.479 50.2419V50.2401V50.2383C17.4854 50.201 17.4872 50.1692 17.4872 50.1338C17.4872 50.0057 17.4499 49.894 17.4062 49.7777C17.3652 49.6632 17.3233 49.5478 17.3151 49.4116C17.2878 49.3353 17.2323 49.2544 17.1831 49.1817L17.1731 49.1663L17.2141 49.0518L17.2296 49.0455C17.2687 49.0273 17.2887 49.0046 17.3024 48.9728C17.3179 48.941 17.3279 48.9001 17.3479 48.8565L17.3515 48.8483L17.3579 48.842C17.378 48.8265 17.3989 48.8147 17.4171 48.7965C17.4344 48.7811 17.4426 48.7693 17.4462 48.7529V48.7493C17.4444 48.7429 17.4444 48.7339 17.4426 48.7257C17.4389 48.7084 17.4362 48.6903 17.4362 48.6903L17.4326 48.6721L17.4426 48.6585C17.4745 48.6194 17.4899 48.5821 17.4899 48.5503C17.4899 48.5267 17.4845 48.5067 17.4663 48.4895C17.4508 48.4713 17.4289 48.4577 17.3971 48.4459C17.3698 48.464 17.3342 48.4849 17.2987 48.5086C17.2532 48.5358 17.2077 48.5676 17.1786 48.5949C17.1567 48.6148 17.1467 48.6321 17.1412 48.6403L17.1376 48.6539L17.1239 48.6603C17.1021 48.6703 17.0866 48.6902 17.0711 48.7111C17.0538 48.7348 17.0356 48.7602 17.0101 48.7838C16.9928 48.7993 16.971 48.8129 16.9455 48.8211L16.9282 48.8247L16.9127 48.8147C16.8099 48.732 16.6505 48.6648 16.5267 48.6176L16.5131 48.6139L16.5076 48.6039C16.4839 48.5585 16.4839 48.5158 16.4821 48.4758C16.4803 48.4459 16.4785 48.4168 16.4648 48.3868L16.3501 48.4341C16.3182 48.4713 16.2736 48.4895 16.2281 48.5086C16.1844 48.5258 16.1416 48.5403 16.1079 48.5558L16.0761 48.8002H16.056C16.056 48.802 16.0542 48.8038 16.0542 48.8065C16.0506 48.822 16.0478 48.842 16.046 48.852V48.8538V48.8556C16.0424 48.871 16.0305 48.881 16.0205 48.891C16.0105 48.901 15.9987 48.9046 15.985 48.9092C15.9613 48.9146 15.9359 48.9174 15.9104 48.9174C15.8749 48.9174 15.8375 48.9137 15.8038 48.9092C15.7784 48.9074 15.7565 48.9028 15.7428 48.901L15.7392 48.9074C15.7356 48.9155 15.7256 48.931 15.7119 48.9446C15.68 49.0564 15.6527 49.1299 15.5781 49.2281L15.5681 49.2435H15.5508C15.5426 49.2435 15.5289 49.2417 15.5216 49.2335C15.5134 49.2272 15.508 49.2181 15.5043 49.2117C15.4989 49.1963 15.4979 49.1863 15.4979 49.1726C15.4979 49.1336 15.5061 49.0845 15.5061 49.0373C15.5061 49.0137 15.5043 48.9919 15.4979 48.9746C15.4925 48.9592 15.4843 48.951 15.4725 48.9446C15.4643 48.941 15.4524 48.9383 15.437 48.9383C15.4051 48.9446 15.3841 48.9537 15.3723 48.9601C15.3623 48.9682 15.3587 48.9701 15.355 48.9819C15.3532 48.9882 15.3514 49 15.3514 49.0137C15.3496 49.0337 15.3496 49.0591 15.3477 49.0882V49.0945L15.3459 49.1009C15.3168 49.1617 15.2612 49.3016 15.2612 49.3943C15.2612 49.4161 15.2631 49.4361 15.2694 49.4479C15.2731 49.4615 15.2831 49.4715 15.2913 49.477L15.3086 49.4906L15.3068 49.5124C15.2967 49.6832 15.2421 49.8467 15.192 50.0021L15.1839 50.0275L14.9945 50.0311C14.9845 50.0566 14.9708 50.0802 14.9535 50.0956C14.9317 50.1175 14.9025 50.1256 14.877 50.1256C14.8397 50.1256 14.8079 50.112 14.7723 50.1002C14.7368 50.0884 14.7032 50.0748 14.6677 50.0684L14.6613 50.0666L14.6576 50.0648C14.6185 50.043 14.5884 50.0375 14.5593 50.0375C14.5102 50.0375 14.4528 50.0593 14.3818 50.0593C14.3581 50.0593 14.3344 50.0575 14.3089 50.0511L14.2935 50.0475L14.2853 50.0339C14.248 49.9748 14.2088 49.9512 14.1587 49.9376C14.1114 49.9221 14.0559 49.9194 14.0049 49.9076C13.9694 49.8994 13.9357 49.8858 13.9084 49.8585L13.902 49.8522L13.9002 49.8422C13.8984 49.8286 13.8965 49.8167 13.8965 49.8031C13.8965 49.7559 13.9166 49.7186 13.9284 49.685C13.9439 49.6496 13.9557 49.6205 13.9557 49.5905C13.9557 49.5751 13.9521 49.5587 13.9457 49.5415C13.932 49.5351 13.922 49.5279 13.9138 49.5197C13.9002 49.5042 13.8938 49.4842 13.8938 49.4706C13.8938 49.4488 13.9002 49.4316 13.9093 49.4152C13.9175 49.397 13.9266 49.3798 13.9348 49.3661C13.9521 49.3344 13.9666 49.2989 13.9666 49.2735C13.9666 49.2499 13.9612 49.2281 13.9229 49.2008L13.9093 49.1908V49.1726C13.9093 49.1663 13.9056 49.1527 13.9056 49.129C13.9056 49.119 13.9075 49.1036 13.9138 49.09L13.9175 49.0818L13.9238 49.0782C13.9512 49.0582 13.973 49.0427 13.9867 49.0327C14.0003 49.0227 14.004 49.0173 14.004 49.0128C14.0058 49.0091 14.0058 49.0046 14.0058 48.9928C14.0058 48.9791 14.004 48.961 13.9994 48.9319C13.9794 48.9219 13.9621 48.9137 13.9466 48.9065C13.9248 48.8983 13.8993 48.8865 13.872 48.8674L13.8565 48.8574V48.8374V48.7838L13.8783 48.7738C13.9038 48.7602 13.9257 48.752 13.9393 48.7448C13.9548 48.7366 13.9594 48.7293 13.963 48.7211C13.9648 48.7175 13.9666 48.7111 13.9666 48.6993C13.9666 48.6839 13.963 48.6621 13.953 48.6348C13.9329 48.6076 13.912 48.5894 13.892 48.5758C13.8701 48.5658 13.8465 48.5576 13.821 48.5576C13.77 48.5576 13.7063 48.5794 13.6352 48.6049L13.6098 48.6148L13.5925 48.5912C13.5651 48.5494 13.5606 48.5031 13.5606 48.4559C13.5606 48.3868 13.5742 48.3141 13.5742 48.2469C13.5742 48.2097 13.5706 48.1779 13.5588 48.1524C13.4823 48.097 13.4268 48.0779 13.4013 48.0779C13.3812 48.0779 13.374 48.0834 13.3603 48.0997C13.3466 48.1161 13.3348 48.1415 13.323 48.1724C13.2993 48.2369 13.2756 48.3223 13.2128 48.3886L13.2028 48.3986H13.1873C13.1464 48.3986 13.1045 48.395 13.069 48.3786C13.0316 48.3632 12.998 48.3314 12.9779 48.2878L12.9743 48.2778L12.9761 48.2642C12.9843 48.2224 12.9898 48.1915 12.9898 48.1615C12.9898 48.1106 12.9761 48.0752 12.9543 48.0398C12.9324 48.0025 12.8987 47.9653 12.8596 47.9117L12.8559 47.9081L12.8541 47.9017C12.8341 47.849 12.8268 47.8054 12.8268 47.7682C12.8268 47.7482 12.8286 47.7309 12.835 47.7173C12.8405 47.7037 12.8505 47.6873 12.8623 47.6755C12.8878 47.6537 12.9215 47.6501 12.9533 47.6501C12.9852 47.6501 13.0207 47.6537 13.0599 47.6637L13.0735 47.6655L13.0817 47.6755C13.1108 47.7146 13.1372 47.7518 13.1664 47.78C13.1919 47.8036 13.2174 47.8172 13.2547 47.819C13.2602 47.8154 13.2683 47.8109 13.2765 47.8009C13.2938 47.7872 13.3157 47.7709 13.3293 47.7573C13.3375 47.7518 13.3448 47.7436 13.3466 47.7418C13.3548 47.7336 13.3567 47.7218 13.3567 47.7027C13.3567 47.6737 13.343 47.6301 13.3348 47.5883C13.3093 47.561 13.2875 47.5347 13.2738 47.5074C13.2583 47.4802 13.252 47.4547 13.252 47.4248C13.252 47.3739 13.2738 47.3321 13.2929 47.2749L13.2966 47.2594L13.4796 47.1831C13.4696 47.1241 13.4623 47.0804 13.4541 47.0514C13.4459 47.0141 13.434 47.0005 13.4268 46.9905C13.4213 46.9869 13.4113 46.9823 13.3913 46.9769C13.3676 46.9732 13.3303 46.9732 13.2793 46.9732C13.2574 46.9732 13.2338 46.9732 13.2064 46.9732H13.2001L13.1946 46.9714C13.1354 46.9478 13.0999 46.9242 13.0681 46.9024C13.0407 46.8806 13.0207 46.8651 13.0034 46.8588C12.9934 46.8551 12.9816 46.8506 12.9643 46.8506C12.9406 46.8506 12.9051 46.8561 12.8559 46.8724L12.8505 46.886C12.8468 46.896 12.8405 46.9115 12.835 46.9296C12.825 46.9651 12.8113 47.0041 12.7877 47.0396C12.7704 47.0632 12.7467 47.085 12.713 47.0923H12.7094H12.7057C12.6666 47.0923 12.6292 47.1059 12.5792 47.1077C12.5573 47.1077 12.5355 47.1041 12.5118 47.0923L12.4963 47.0868L12.4927 47.0714C12.4772 47.0223 12.4635 46.9732 12.4435 46.9315L12.4417 46.9278V46.9242C12.4244 46.8533 12.428 46.7825 12.4262 46.718C12.4244 46.6535 12.4198 46.5962 12.3944 46.5472L12.2369 46.3428C12.205 46.3191 12.1813 46.2919 12.164 46.2601C12.1467 46.2283 12.1367 46.1911 12.1322 46.1556C12.1221 46.0866 12.124 46.0175 12.1103 45.9585C12.0948 45.9049 12.0575 45.8322 12.012 45.7641C11.9665 45.6932 11.9173 45.6242 11.8836 45.5669L11.8818 45.5633L11.7971 45.3098C11.7735 45.2899 11.7562 45.2662 11.748 45.2408C11.7379 45.2117 11.7343 45.1781 11.7343 45.1481C11.7343 45.1009 11.7398 45.0537 11.7398 45.0128C11.7398 44.9692 11.7343 44.9365 11.7143 44.9083L11.7106 44.9028L11.7088 44.8965C11.6988 44.8611 11.6952 44.8274 11.6952 44.792C11.6952 44.7275 11.7052 44.6639 11.7052 44.6094C11.7052 44.5722 11.7015 44.5404 11.6879 44.5113C11.6014 44.4813 11.5404 44.4559 11.4612 44.405L11.4457 44.3968L11.4302 44.2669C11.4066 44.226 11.3893 44.1942 11.3747 44.1706C11.3592 44.147 11.3474 44.1352 11.3392 44.1316L11.3292 44.1297C11.3237 44.1297 11.3091 44.1334 11.2882 44.1434C11.2682 44.1515 11.2445 44.1652 11.2135 44.1806L11.016 44.4513L11.0078 44.455C10.9823 44.465 10.9568 44.4722 10.9313 44.4722C10.8858 44.4722 10.8467 44.455 10.8148 44.4432C10.7829 44.4277 10.7538 44.4177 10.7338 44.4195C10.7237 44.4195 10.7119 44.4214 10.6983 44.4295C10.6846 44.4377 10.6709 44.4513 10.6509 44.475L10.6455 44.4831L10.6373 44.4868C10.5999 44.5022 10.5562 44.514 10.5107 44.514C10.4716 44.514 10.4297 44.5058 10.3942 44.4786L10.3787 44.4686V44.4486C10.3787 44.425 10.3869 44.405 10.3987 44.3877C10.4087 44.3696 10.4224 44.356 10.4361 44.3423C10.4615 44.3151 10.4916 44.2914 10.5071 44.2696C10.5171 44.2542 10.5225 44.2442 10.5225 44.2342C10.5225 44.2279 10.5207 44.2188 10.5089 44.2042V44.2024C10.5071 44.1988 10.5007 44.1942 10.4852 44.187C10.4716 44.1806 10.4534 44.177 10.4324 44.1715C10.3887 44.1634 10.3377 44.1561 10.2904 44.1397C10.2613 44.1297 10.2294 44.1143 10.2094 44.0843C10.1993 44.0671 10.1921 44.0453 10.1921 44.0235C10.1921 43.9862 10.2075 43.949 10.233 43.9035L10.223 43.681C10.2148 43.6773 10.203 43.6728 10.1912 43.6673C10.1638 43.6537 10.1265 43.6401 10.0928 43.6219C10.0318 43.5947 9.97084 43.5629 9.94261 43.551C9.93442 43.5529 9.92258 43.5529 9.9153 43.5529C9.87433 43.5529 9.83245 43.5374 9.78875 43.5174C9.74505 43.4974 9.70408 43.4702 9.66039 43.4411C9.58391 43.3857 9.51017 43.3194 9.46556 43.274C9.40092 43.2558 9.35358 43.2503 9.32171 43.2503C9.29986 43.2503 9.28438 43.254 9.27255 43.2585C9.25889 43.2649 9.24888 43.2721 9.23704 43.2858C9.21337 43.313 9.19152 43.3666 9.16239 43.4411L9.16057 43.4475L9.15693 43.4511C9.14873 43.4593 9.14145 43.4647 9.13326 43.4693C9.12961 43.4711 9.12506 43.4729 9.1196 43.4729L9.11596 43.4811L9.1023 43.5065L9.07499 43.5029C8.99852 43.4875 8.93297 43.442 8.87561 43.393C8.81643 43.3439 8.76545 43.2885 8.71629 43.2549L8.71447 43.2531L8.71265 43.2513C8.63617 43.1749 8.54149 43.1195 8.45864 43.0332L8.45045 43.025L8.44863 43.0151C8.43133 42.8951 8.42313 42.8106 8.40128 42.7316C8.38126 42.6571 8.3503 42.5881 8.2893 42.4936C8.16094 42.4245 8.08446 42.3301 8.02528 42.2256C7.96429 42.1193 7.91877 42.003 7.85413 41.8895C7.83228 41.8604 7.8168 41.8286 7.80679 41.8013C7.79677 41.7714 7.78494 41.7486 7.77492 41.7323L7.76946 41.7241L7.76764 41.7159C7.764 41.686 7.76218 41.6351 7.75762 41.5806C7.75398 41.5279 7.74215 41.4688 7.72849 41.4271C7.71848 41.3998 7.70482 41.3798 7.69116 41.3744C7.68479 41.3707 7.67569 41.368 7.66749 41.368H7.66203H7.65657H7.65475C7.58191 41.368 7.50453 41.3308 7.44171 41.2817C7.37889 41.2326 7.32518 41.1672 7.30788 41.0991L7.30606 41.0973L7.29058 41.0818C7.27693 41.0682 7.26145 41.0546 7.24506 41.0382C7.23505 41.0282 7.22503 41.0164 7.21775 41.0028C7.21593 41.001 7.21593 40.9964 7.21411 40.9946L6.85723 40.8447L6.85358 40.8275C6.78257 40.5504 6.73523 40.3378 6.72522 40.0462C6.6797 39.9735 6.6624 39.899 6.64419 39.83C6.62689 39.7573 6.60868 39.6882 6.56954 39.621C6.53403 39.5683 6.53039 39.5111 6.52584 39.4639C6.52219 39.4148 6.51764 39.373 6.49397 39.3376C6.45664 39.2731 6.41932 39.2213 6.37744 39.155V39.1532C6.3301 39.0587 6.31007 38.9606 6.28913 38.8615C6.25999 38.777 6.24998 38.7026 6.24361 38.6335C6.23815 38.5627 6.22995 38.4936 6.20446 38.4173V38.4155V38.4137C6.18716 38.351 6.18261 38.2937 6.18261 38.2383C6.18261 38.1893 6.18625 38.1438 6.18625 38.1002C6.18625 38.0194 6.17624 37.9503 6.11706 37.874L6.1116 37.864L6.10796 37.3762C6.10796 37.3508 6.10614 37.3271 6.10614 37.3071C6.10614 37.2699 6.10796 37.2445 6.10796 37.2227C6.10796 37.199 6.10614 37.1836 6.09976 37.16C6.0943 37.1382 6.08246 37.1091 6.06244 37.0655L6.05424 37.0555C6.0506 37.0473 6.04878 37.0382 6.04605 37.0319C6.04241 37.0137 6.04059 36.9965 6.03785 36.9728C6.03421 36.9292 6.02966 36.8765 6.02238 36.8329C6.01874 36.8057 6.01236 36.7821 6.0069 36.7702L5.96957 36.7403L5.94954 36.7203L6.00872 36.6085L6.01874 36.6049C6.06426 36.5813 6.09976 36.5677 6.12343 36.5558C6.1471 36.5422 6.1553 36.534 6.1644 36.5122C6.16804 36.4968 6.1726 36.475 6.1726 36.4432C6.17077 36.4232 6.16895 36.4041 6.16895 36.3841C6.16895 36.3287 6.17442 36.2742 6.17442 36.2252C6.17442 36.207 6.17442 36.1897 6.1726 36.1743L6.16895 36.1443L6.19627 36.1343L6.19991 36.1307C6.20173 36.127 6.20355 36.1207 6.20537 36.1107C6.20901 36.0907 6.21174 36.0635 6.21174 36.0344C6.21174 36.0144 6.21174 35.9953 6.21174 35.9753C6.21174 35.9599 6.21174 35.9481 6.21356 35.9345C6.21538 35.9208 6.21538 35.9108 6.22176 35.8954C6.22176 35.8936 6.22358 35.8918 6.22358 35.8918C6.22176 35.8563 6.21812 35.8245 6.20992 35.7891C6.20446 35.7519 6.19445 35.7146 6.19445 35.6692C6.19445 35.6437 6.19627 35.6183 6.20264 35.5865L6.20628 35.5629L6.22995 35.5593C6.23814 35.5574 6.24543 35.5574 6.25362 35.5574C6.27729 35.5574 6.29914 35.5638 6.31462 35.5729C6.32463 35.5792 6.33647 35.5829 6.34375 35.5911C6.35923 35.5892 6.37107 35.5847 6.38108 35.5829C6.38472 35.5811 6.38927 35.5811 6.39109 35.5811L6.39292 35.5729C6.39656 35.5593 6.40293 35.5411 6.41659 35.5202V35.5184L6.50763 35.3966L6.51764 35.393C6.52766 35.3912 6.55315 35.3712 6.57318 35.3403C6.59503 35.3112 6.6187 35.2695 6.63782 35.2258C6.67878 35.1395 6.71247 35.0505 6.73068 35.0115L6.7325 35.0078L6.73614 35.0042C6.77165 34.9669 6.80715 34.9397 6.84084 34.9097C6.8727 34.8797 6.90366 34.847 6.92551 34.8016L6.92733 34.798L6.93097 34.7943C6.94827 34.7762 6.95464 34.7589 6.9601 34.7389C6.96374 34.7189 6.96556 34.6971 6.96556 34.6717C6.96556 34.6617 6.96556 34.6481 6.96556 34.6344C6.96556 34.6108 6.96556 34.5854 6.97103 34.5599C6.97467 34.54 6.9865 34.5209 6.99652 34.5045L6.92733 34.2629L6.92915 34.2547C6.93097 34.2411 6.93916 34.1875 6.94918 34.1284C6.95919 34.0694 6.97103 34.0085 6.9865 33.9694C6.99015 33.9613 6.99197 33.954 6.99652 33.9476C6.9947 33.9322 6.99106 33.9186 6.97922 33.9004C6.96556 33.8786 6.94736 33.8568 6.92369 33.8359C6.87817 33.7923 6.81899 33.7532 6.77984 33.7196C6.76254 33.7096 6.75253 33.6978 6.73887 33.6805C6.72339 33.6606 6.71156 33.6397 6.69517 33.6133C6.66786 33.5624 6.636 33.497 6.6105 33.4307C6.5577 33.2972 6.50581 33.1573 6.49215 33.1118L6.49033 33.1037V33.0955V33.0873C6.49033 33.0555 6.47485 33.0046 6.45118 32.9592C6.42751 32.9138 6.39838 32.8711 6.36833 32.8429L6.36651 32.8411L6.36469 32.8393C6.31917 32.7766 6.26182 32.7512 6.199 32.7366C6.13436 32.723 6.06517 32.7285 5.99962 32.7185C5.95592 32.7121 5.91495 32.7003 5.88308 32.6694L5.87671 32.6631L5.87489 32.6549C5.87307 32.6467 5.87125 32.6449 5.85486 32.6349C5.84667 32.6285 5.83301 32.6213 5.81936 32.6113L5.71466 32.6349H5.7092C5.69372 32.6349 5.68006 32.6285 5.67005 32.6176C5.66003 32.6058 5.65639 32.5977 5.65275 32.5877C5.64638 32.5677 5.64638 32.5459 5.64638 32.5204C5.64638 32.4378 5.66367 32.3178 5.66367 32.2215C5.66367 32.1861 5.66185 32.157 5.65821 32.1334C5.65457 32.1098 5.64456 32.0962 5.63818 32.0925C5.63454 32.0907 5.63272 32.0889 5.62453 32.0889C5.61633 32.0889 5.60268 32.0907 5.58356 32.1025L5.57992 32.1044H5.57628C5.55443 32.108 5.52893 32.1198 5.50162 32.1298C5.47431 32.1398 5.44062 32.1516 5.40694 32.1516C5.38691 32.1516 5.36597 32.148 5.34594 32.138L5.33775 32.1343L5.33137 32.128C5.3077 32.1025 5.30224 32.0689 5.30224 32.0371C5.30224 31.9935 5.3159 31.9526 5.32773 31.9154C5.34139 31.8763 5.35687 31.8427 5.36688 31.8191L5.3687 31.8155L5.37052 31.8118C5.37872 31.8018 5.39237 31.7946 5.39966 31.79C5.40967 31.7882 5.41968 31.7864 5.42697 31.7864C5.45883 31.7864 5.49161 31.7946 5.52347 31.8046C5.53895 31.8082 5.55078 31.8127 5.56262 31.8182C5.57628 31.7964 5.58811 31.7746 5.59995 31.7591C5.61542 31.7373 5.63545 31.7201 5.65912 31.7101C5.6746 31.7037 5.69099 31.7001 5.70829 31.6965C5.73196 31.6946 5.75745 31.6946 5.79295 31.6946C5.79933 31.6946 5.80843 31.6946 5.81662 31.6946H5.81845L6.14346 31.7419L6.23632 31.5139L6.24998 31.5075C6.26728 31.4993 6.29368 31.4875 6.32099 31.4784C6.3483 31.4684 6.38017 31.4602 6.4093 31.4602C6.43297 31.4602 6.45846 31.4639 6.48031 31.4839H6.48214L6.48396 31.4857C6.5313 31.5347 6.62234 31.5565 6.72431 31.5565C6.85632 31.5565 6.99834 31.5211 7.07481 31.4939C7.08483 31.4902 7.09484 31.4857 7.10031 31.4839C7.09848 31.4802 7.09666 31.4775 7.09393 31.4739L7.09211 31.4675V31.4612C7.09211 31.3785 7.09575 31.3094 7.11578 31.2431C7.13581 31.1759 7.16859 31.1114 7.22776 31.0442L7.23778 31.0305H7.38982C7.39528 31.0206 7.39983 31.0069 7.40347 30.9869C7.40347 30.9633 7.3971 30.9361 7.38982 30.9043C7.38435 30.8743 7.37434 30.8434 7.37252 30.8161L7.37434 30.7853L7.39437 30.7716C7.39801 30.7698 7.40256 30.7653 7.40985 30.7562C7.41349 30.7526 7.4235 30.7462 7.43352 30.738C7.47084 30.6472 7.52456 30.5981 7.57736 30.5745C7.6329 30.5491 7.68388 30.5427 7.71756 30.5218C7.74124 30.5064 7.76127 30.49 7.77856 30.4509C7.78038 30.4446 7.7822 30.4409 7.78403 30.4328C7.78949 30.4246 7.79768 30.4191 7.80132 30.4155C7.81498 30.4092 7.82499 30.4055 7.83865 30.4019C7.86232 30.3983 7.88781 30.3982 7.91148 30.3982C7.91786 30.3982 7.92514 30.3982 7.92878 30.3982C7.95791 30.3238 7.99342 30.2057 7.99342 30.1094C7.99342 30.0639 7.98796 30.0231 7.96975 29.9931C7.95427 29.9631 7.93242 29.944 7.8951 29.9322L7.85595 29.9222L7.87142 29.8832C7.8869 29.8423 7.91239 29.8141 7.94062 29.795C7.96429 29.7778 7.98978 29.7678 8.01345 29.7541C8.06625 29.6869 8.11815 29.6106 8.18461 29.5452C8.24925 29.4807 8.32845 29.4307 8.43497 29.4271C8.4723 29.3953 8.50962 29.3444 8.54968 29.2936C8.58974 29.2427 8.63071 29.1854 8.67987 29.1418C8.70536 29.0828 8.72539 29.0256 8.75088 28.971C8.7782 28.9156 8.81825 28.8611 8.88471 28.8175L8.89837 28.8093L8.91385 28.8112C8.9275 28.813 8.93934 28.8148 8.95117 28.8148C8.99214 28.8148 9.0322 28.8012 9.06953 28.783C9.10868 28.763 9.146 28.7376 9.18788 28.714L9.1897 28.7121H9.19152L9.19698 28.7058C9.20063 28.6994 9.20518 28.6903 9.21064 28.6803C9.21883 28.6585 9.22794 28.6295 9.23431 28.5995C9.23795 28.5813 9.24433 28.5641 9.25434 28.5504L9.25616 28.5468L9.25798 28.545C9.36086 28.4269 9.42004 28.3388 9.54385 28.2297C9.54931 28.2079 9.56115 28.1807 9.56934 28.1489C9.57754 28.1171 9.58664 28.0844 9.58937 28.0662V28.0626L9.59119 28.0589C9.60667 28.0181 9.62033 27.9781 9.63489 27.9445C9.64855 27.909 9.65492 27.8818 9.65492 27.8618C9.65492 27.8518 9.6531 27.8436 9.65128 27.8382C9.64946 27.8327 9.64582 27.8282 9.6358 27.8227C9.62033 27.8128 9.58482 27.8028 9.52564 27.8028C9.46647 27.8582 9.40911 27.8991 9.34265 27.9445L9.33446 27.9508H9.32444C9.29531 27.9508 9.26891 27.9472 9.24797 27.9354C9.22612 27.9254 9.20882 27.9054 9.20245 27.8845C9.19881 27.8709 9.19607 27.8573 9.19607 27.8427C9.19607 27.8037 9.20973 27.7619 9.21974 27.7246C9.22976 27.6837 9.23977 27.6438 9.23977 27.6129C9.23977 27.5775 9.23158 27.5575 9.20791 27.5384L9.20609 27.5366L9.20427 27.5348C9.1806 27.5111 9.1633 27.5075 9.15329 27.5075C9.14327 27.5075 9.13144 27.5111 9.11414 27.5275C9.09866 27.5429 9.08227 27.5666 9.06497 27.5947C9.02947 27.6538 9.00034 27.7301 8.96665 27.7973C8.9448 27.8427 8.92113 27.8836 8.89382 27.9136C8.87652 27.9318 8.85831 27.9454 8.83282 27.9527L8.82918 27.9545H8.82554C8.78639 27.9545 8.75635 27.9508 8.73267 27.9345C8.709 27.9209 8.69353 27.8954 8.68898 27.8736C8.68715 27.8582 8.68533 27.8464 8.68533 27.8346C8.68533 27.8164 8.68533 27.8055 8.68351 27.7909C8.68169 27.7773 8.67532 27.7673 8.66804 27.7537L8.51782 27.7592L8.5078 27.7455C8.46865 27.7001 8.45864 27.6429 8.45864 27.5938C8.45864 27.5248 8.47594 27.4557 8.47594 27.413C8.47594 27.3976 8.47412 27.3876 8.4723 27.383C8.47048 27.3794 8.47048 27.3794 8.4641 27.3749C8.42678 27.3649 8.37943 27.3649 8.33027 27.3594C8.28111 27.3558 8.22375 27.3394 8.17823 27.2949L8.17459 27.2913L8.17277 27.2877C8.14546 27.2286 8.13544 27.1777 8.12907 27.1341C8.1227 27.0905 8.11359 27.0578 8.09356 27.0224C8.07991 27.0024 8.0617 26.9815 8.03075 26.9579C7.92605 26.9579 7.85686 26.9633 7.8077 26.9661C7.78403 26.9661 7.764 26.9642 7.74488 26.9579C7.72485 26.9515 7.70573 26.9361 7.69754 26.9161C7.69207 26.9025 7.68752 26.8907 7.68388 26.877C7.68024 26.857 7.68024 26.8362 7.67842 26.8125C7.6766 26.7835 7.6766 26.7435 7.67478 26.7008C7.67113 26.6972 7.66658 26.6926 7.66112 26.6853C7.65566 26.6781 7.6511 26.6672 7.6511 26.6554C7.6511 26.6417 7.65748 26.6299 7.66476 26.6199C7.67296 26.6118 7.68206 26.6045 7.69025 26.5999L7.70391 26.59C7.70755 26.5863 7.7121 26.5763 7.72394 26.5663L7.72758 26.5627L7.73304 26.5609C7.75853 26.5509 7.78403 26.5454 7.80952 26.5454C7.85868 26.5454 7.90602 26.5554 7.94335 26.5554C7.96065 26.5554 7.97521 26.5536 7.98887 26.5491C7.99888 26.5454 8.01072 26.5354 8.018 26.5218L8.01982 26.52L8.02164 26.5182C8.0353 26.5046 8.04349 26.4746 8.04349 26.4337C8.04349 26.3946 8.03985 26.3492 8.03985 26.3038C8.03985 26.272 8.04167 26.2411 8.05351 26.2111C8.06352 26.1811 8.08901 26.1521 8.1227 26.1384C8.14637 26.1285 8.17186 26.123 8.20372 26.123C8.2192 26.123 8.23286 26.1248 8.25107 26.1266H8.25653L8.26017 26.1285C8.3767 26.1839 8.49051 26.2502 8.60158 26.2502C8.61159 26.2502 8.6216 26.2502 8.63071 26.2484C8.69535 26.2093 8.76272 26.1975 8.8137 26.1811C8.86924 26.1103 8.96119 26.004 9.00671 25.9195C9.02219 25.8923 9.03038 25.8668 9.0322 25.8486C9.0322 25.8423 9.03402 25.835 9.03584 25.8268C9.03948 25.8187 9.04586 25.8114 9.05132 25.8087C9.05314 25.8069 9.05314 25.8069 9.05496 25.8069C9.08683 25.7106 9.13781 25.577 9.20245 25.4489C9.26982 25.3172 9.35266 25.1927 9.45099 25.1282L9.46829 25.1182L9.48832 25.1264C9.49833 25.1319 9.51017 25.1346 9.51745 25.1346C9.53111 25.1346 9.54112 25.131 9.5566 25.1246C9.57025 25.1182 9.58391 25.1064 9.60212 25.0946C9.63125 25.0537 9.65765 25.0238 9.68497 25.002C9.71046 24.9783 9.73777 24.9629 9.76781 24.9529C9.82062 24.9329 9.87433 24.9329 9.95718 24.9156C10.0337 24.8012 10.0992 24.6949 10.1429 24.5695C10.1447 24.5659 10.1447 24.5613 10.1465 24.5559L10.1566 24.5423L10.162 24.5386C10.1839 24.4859 10.1912 24.4442 10.1912 24.4169C10.1912 24.3896 10.1857 24.3697 10.1675 24.3479C10.1493 24.3261 10.1201 24.3042 10.0746 24.2788L10.0528 24.2688L10.0546 24.2452C10.0564 24.2034 10.0564 24.1707 10.0564 24.1371C10.0564 24.1035 10.0582 24.0762 10.0701 24.0462C10.0755 24.0263 10.0901 24.009 10.1074 23.9936C10.1292 23.9717 10.1584 23.9545 10.1984 23.9409L10.2221 23.9309L10.2394 23.9509C10.2749 23.9926 10.2867 24.0272 10.2986 24.0553C10.3068 24.0826 10.3122 24.0944 10.3259 24.108C10.3341 24.1162 10.3477 24.1262 10.3696 24.1353C10.3851 24.1271 10.3951 24.1153 10.4051 24.0998C10.4151 24.0799 10.4224 24.0562 10.427 24.0272C10.4351 23.9681 10.4306 23.8973 10.437 23.83V23.8264L10.4388 23.8228C10.5098 23.6374 10.589 23.4785 10.6363 23.2913L10.6382 23.2831L10.6436 23.2768C10.711 23.2059 10.7756 23.0796 10.7793 22.9879L10.7811 22.9524H10.8166C10.8485 22.9524 10.8776 22.9606 10.9013 22.9624L10.9186 22.9643L10.9268 22.9797C10.9623 23.0351 10.9914 23.0542 11.0196 23.066C11.0469 23.0778 11.0806 23.0796 11.1161 23.0896C11.1416 23.096 11.1689 23.1096 11.1926 23.1351L11.1981 23.1414L11.1999 23.1478C11.2645 23.3149 11.3574 23.463 11.3975 23.652C11.4229 23.681 11.453 23.701 11.4903 23.7147C11.5276 23.7283 11.5713 23.7346 11.6187 23.7383C11.7115 23.7446 11.8135 23.7383 11.9027 23.7737C11.9555 23.7955 12.0074 23.8364 12.0366 23.9018C12.0402 23.9036 12.042 23.9036 12.0466 23.9054C12.0566 23.9118 12.0639 23.9191 12.0702 23.9272C12.0839 23.9427 12.0939 23.9627 12.1021 23.9799C12.1221 24.019 12.1394 24.0662 12.1576 24.0998C12.1713 24.1216 12.1831 24.1389 12.195 24.1489C12.2032 24.1525 12.2123 24.1544 12.2223 24.1544C12.246 24.1544 12.2815 24.1444 12.3151 24.1289C12.3525 24.1153 12.3916 24.0989 12.4371 24.0989C12.4781 24.0989 12.5255 24.1144 12.5637 24.1544L12.5673 24.158L12.5692 24.1616C12.591 24.2007 12.6129 24.217 12.6338 24.2288C12.6556 24.2388 12.6793 24.2425 12.7066 24.2425C12.7321 24.2425 12.7622 24.2407 12.7977 24.2407C12.8177 24.2407 12.8368 24.2425 12.8587 24.2461L12.8605 24.2443C12.8659 24.2343 12.876 24.217 12.8823 24.1989C12.8996 24.1616 12.9178 24.1162 12.9333 24.0789C12.9433 24.0535 12.9533 24.0317 12.9625 24.0163L12.9661 24.0108L12.9716 24.0072C13.0007 23.9854 13.0344 23.9754 13.0662 23.9754C13.1017 23.9754 13.1309 23.989 13.1591 24.0026C13.1864 24.0208 13.2119 24.0417 13.2401 24.0635C13.2893 24.1089 13.3385 24.1598 13.3903 24.1934C13.4222 24.2152 13.4532 24.2252 13.485 24.2252C13.5023 24.2252 13.5169 24.2234 13.536 24.2152L13.5424 24.2134H13.5478C13.5497 24.2134 13.5615 24.2116 13.5715 24.207C13.5852 24.2034 13.5988 24.1934 13.617 24.1871C13.6525 24.1689 13.688 24.1498 13.7254 24.1362C13.7472 24.128 13.7691 24.1189 13.79 24.1162C13.8037 24.1144 13.8219 24.1098 13.8492 24.1062C13.8765 24.1026 13.9084 24.098 13.9402 24.0908C14.0049 24.0808 14.0786 24.0653 14.1141 24.0499C14.1178 24.0481 14.1223 24.0462 14.1241 24.0462V24.0363L14.1442 24.0263C14.2252 23.9854 14.2762 23.92 14.3272 23.8491C14.3781 23.7782 14.43 23.6992 14.5129 23.6483C14.5657 23.6129 14.6349 23.5947 14.7241 23.5929C14.9644 23.5575 15.1456 23.5729 15.3705 23.5102V23.5066L15.487 23.5221C15.5089 23.5239 15.5262 23.5375 15.5362 23.5493C15.5462 23.5648 15.5535 23.5811 15.558 23.5984C15.5681 23.6356 15.5717 23.6792 15.5717 23.7246C15.5717 23.7873 15.5662 23.8509 15.5517 23.89C15.5498 23.8963 15.548 23.9054 15.5435 23.9118C15.5453 23.9154 15.5453 23.92 15.5471 23.9272C15.5508 23.9454 15.5571 23.9663 15.5644 23.9899C15.5781 24.0372 15.5917 24.088 15.6017 24.1117C15.6036 24.118 15.6054 24.1253 15.6054 24.1253C15.6227 24.1725 15.6545 24.2098 15.6919 24.247C15.7292 24.2843 15.7729 24.3197 15.8066 24.3651C15.8475 24.4205 15.8876 24.4632 15.9286 24.4932C15.9723 24.5205 16.0196 24.5368 16.0824 24.5368C16.1025 24.5368 16.1216 24.535 16.1434 24.5332C16.1789 24.5059 16.2181 24.4941 16.26 24.4941C16.3228 24.4941 16.3801 24.5159 16.4339 24.535C16.4393 24.5332 16.4475 24.5314 16.4539 24.5286C16.4694 24.525 16.483 24.5205 16.5012 24.5186C16.5285 24.515 16.554 24.5123 16.5777 24.5105C16.6587 24.4551 16.7279 24.3806 16.7989 24.3079C16.8718 24.2334 16.9491 24.158 17.0429 24.1053C17.0821 24.068 17.1294 24.0581 17.1713 24.0581C17.2341 24.0581 17.2933 24.078 17.337 24.078C17.3588 24.078 17.3743 24.0744 17.3861 24.0644L17.3916 24.0608L17.3971 24.059C17.4644 24.0453 17.5273 24.0317 17.5901 24.0317C17.6292 24.0317 17.6666 24.0381 17.7048 24.0553C17.7421 24.0726 17.7758 24.1026 17.8095 24.1435L17.8195 24.1589L17.7722 24.3324L17.7685 24.336C17.7512 24.3615 17.7448 24.3833 17.7448 24.3987C17.7448 24.4187 17.7503 24.4287 17.7667 24.4423C17.7822 24.4523 17.8104 24.4641 17.8495 24.4641H17.8532H17.8568C17.8887 24.4705 17.9078 24.4914 17.9196 24.5114C17.9297 24.5286 17.9351 24.5468 17.9369 24.5486C18.0553 24.7158 18.1145 24.8829 18.2073 25.0601C18.2783 25.0737 18.3339 25.1128 18.3712 25.1628C18.4122 25.2118 18.4404 25.2727 18.4659 25.3245C18.5588 25.3917 18.6161 25.4362 18.6926 25.527L18.6962 25.5307L18.698 25.5343C18.7254 25.597 18.7627 25.6388 18.8082 25.6697C18.8537 25.7015 18.9065 25.7205 18.9657 25.7342C19.0804 25.7596 19.2143 25.756 19.3362 25.7614C19.3381 25.7596 19.3381 25.7578 19.3399 25.7551C19.3481 25.7414 19.3572 25.7196 19.369 25.696C19.3927 25.6488 19.4246 25.5879 19.4655 25.5407C19.4928 25.5089 19.5265 25.4816 19.5702 25.4716H19.5739H19.5775C19.6604 25.468 19.7532 25.4653 19.8333 25.4498C19.918 25.4344 19.989 25.4044 20.0364 25.3535C20.0582 25.3263 20.0637 25.3063 20.0618 25.2927C20.0618 25.2845 20.06 25.2745 20.0537 25.2672C20.0482 25.259 20.0382 25.2472 20.0263 25.24C20.0027 25.2182 19.9708 25.1982 19.9417 25.1727C19.9244 25.1546 19.9062 25.131 19.9062 25.1001C19.9062 25.0683 19.9235 25.0374 19.9517 25.0092L19.9617 24.9992H19.9717C19.9754 24.9956 19.9817 24.9892 19.989 24.9774C20.0045 24.9574 20.0209 24.9265 20.0382 24.8911C20.0755 24.8203 20.111 24.7321 20.1365 24.6667C20.1538 24.6231 20.1656 24.5922 20.1738 24.5786L20.1775 24.5704L20.1857 24.5641C20.2093 24.5486 20.2485 24.5323 20.2922 24.5132C20.3359 24.4932 20.3805 24.4741 20.4142 24.4578C20.4297 24.4496 20.4433 24.4405 20.4515 24.436V24.4296L20.4652 24.4196C20.4906 24.3978 20.5107 24.376 20.5298 24.3569C20.5498 24.337 20.5671 24.3197 20.5908 24.3079C20.6063 24.2997 20.6263 24.2943 20.6463 24.2943C20.6782 24.2943 20.7137 24.3042 20.7565 24.3261L20.7738 24.3342L20.7756 24.3542C20.7838 24.4015 20.7856 24.4423 20.7929 24.4741C20.7984 24.5096 20.8084 24.5368 20.8302 24.5686L20.8339 24.575L20.8357 24.5813C20.8412 24.6113 20.8439 24.644 20.8439 24.6758C20.8439 24.7249 20.8402 24.7739 20.8402 24.823C20.8402 24.8584 20.8421 24.892 20.8503 24.9193C20.8585 24.9465 20.8703 24.9702 20.8894 24.992L21.0433 25.1255L21.1061 25.269V25.2754C21.1079 25.2908 21.1079 25.3054 21.1079 25.3208C21.1079 25.4071 21.0924 25.4762 21.0924 25.5352C21.0924 25.5707 21.0961 25.5979 21.1125 25.6233C21.1261 25.6506 21.1498 25.676 21.1935 25.7078L21.1953 25.7096L21.1971 25.7115L21.199 25.7133L21.2071 25.7169C21.2135 25.7205 21.2244 25.7251 21.2345 25.7305C21.2563 25.7405 21.2854 25.7523 21.3191 25.7623C21.3819 25.7841 21.4548 25.7996 21.5021 25.7996C21.5158 25.7996 21.524 25.7996 21.5294 25.7978C21.5349 25.796 21.5376 25.7941 21.5394 25.7941L21.5431 25.7805L21.5567 25.7741C21.6023 25.7505 21.6196 25.7351 21.6396 25.7187C21.6569 25.7006 21.6769 25.6769 21.7106 25.6461C21.7716 25.5434 21.8544 25.4843 21.9455 25.4453C22.0384 25.4062 22.1385 25.3844 22.2368 25.3526L22.245 25.3508L22.2532 25.3526C22.3697 25.3781 22.4799 25.4489 22.5882 25.508C22.6966 25.5688 22.7995 25.6197 22.8996 25.6179C22.9606 25.6179 23.018 25.6006 23.0826 25.5552C23.1044 25.537 23.1299 25.5298 23.1591 25.5234C23.1882 25.5171 23.2219 25.5152 23.2556 25.5152C23.3047 25.5152 23.3584 25.5189 23.4058 25.5307C23.4468 25.5389 23.4823 25.5525 23.5123 25.5679C23.5205 25.5679 23.5296 25.5697 23.5378 25.5697C23.5815 25.5697 23.6288 25.5561 23.6762 25.5425C23.7253 25.527 23.7791 25.5125 23.8319 25.5125C23.8774 25.5125 23.9247 25.5225 23.9702 25.5561L23.9721 25.5579L23.9739 25.5598C24.0331 25.6088 24.0667 25.6642 24.1059 25.7133C24.1332 25.7287 24.1569 25.7351 24.1787 25.7351C24.2161 25.7351 24.2497 25.7169 24.2953 25.6915C24.339 25.6679 24.3863 25.6361 24.4473 25.6152C24.4728 25.6015 24.491 25.5852 24.5083 25.5598C24.5256 25.5361 24.5374 25.5071 24.552 25.4734C24.5775 25.4089 24.6012 25.3335 24.6567 25.2727C24.694 25.2336 24.745 25.2036 24.8124 25.1918C24.8279 25.1882 24.8415 25.1864 24.8579 25.1864C24.9189 25.1864 24.9917 25.2082 25.0609 25.2418C25.1319 25.2736 25.1993 25.3163 25.2485 25.3681C25.2776 25.3971 25.3013 25.4289 25.3131 25.4625C25.3541 25.5234 25.4196 25.5588 25.4925 25.5888C25.5671 25.6161 25.65 25.6379 25.7228 25.6733C25.7683 25.6951 25.8093 25.7224 25.8411 25.7614C25.9695 25.815 26.0578 25.8377 26.1206 25.8377C26.1853 25.8377 26.2308 25.8178 26.2918 25.7769C26.351 25.736 26.4138 25.6724 26.5085 25.5943C26.5522 25.5452 26.5677 25.4798 26.5895 25.4089C26.6095 25.3381 26.635 25.2591 26.7079 25.2027L26.7297 25.1846L26.7516 25.2C26.7953 25.23 26.8207 25.2609 26.8399 25.2827C26.859 25.3045 26.8717 25.3181 26.9045 25.3263C26.9264 25.3326 26.9555 25.3363 26.9992 25.3363C27.0483 25.3363 27.0839 25.3617 27.1112 25.3835C27.1385 25.4053 27.1585 25.4208 27.1785 25.4244L27.1867 25.4262L27.1931 25.4298C27.2222 25.4516 27.2523 25.4571 27.2814 25.4571C27.337 25.4571 27.4034 25.4317 27.4844 25.4298C27.5017 25.4298 27.5218 25.4317 27.5372 25.4362L27.5473 25.438L27.5527 25.4435C27.6237 25.508 27.6474 25.587 27.6474 25.6642C27.6474 25.7587 27.6183 25.8514 27.6037 25.9359V25.944L27.6001 25.9504C27.529 26.0649 27.4289 26.1448 27.3415 26.2375C27.3124 26.2883 27.2887 26.3283 27.2723 26.3592C27.2568 26.3946 27.2505 26.4183 27.2505 26.4364C27.2505 26.4564 27.2541 26.4737 27.2705 26.4991C27.286 26.5227 27.3115 26.5518 27.347 26.59C27.3743 26.6154 27.3879 26.6526 27.3879 26.6844C27.3879 26.7435 27.3588 26.7925 27.3324 26.8416C27.3069 26.8907 27.2832 26.9443 27.2851 26.9888C27.2851 27.0278 27.2987 27.066 27.3461 27.1105L27.3561 27.1205V27.1359C27.3561 27.1986 27.3424 27.2858 27.3206 27.364C27.2969 27.4448 27.2678 27.5193 27.2222 27.5666C27.2168 27.5747 27.2068 27.592 27.1986 27.6138C27.1904 27.632 27.1785 27.6492 27.1631 27.6665C27.1612 27.6747 27.1612 27.6847 27.1612 27.6919C27.1612 27.7292 27.1713 27.7473 27.1931 27.7664C27.215 27.7846 27.2486 27.7964 27.2914 27.8055C27.3797 27.8237 27.5008 27.8209 27.6092 27.8291C27.6802 27.8355 27.7494 27.8491 27.804 27.8818L27.8122 27.8882L27.8158 27.8981C27.8258 27.9218 27.8295 27.9436 27.8295 27.9672C27.8295 28.0299 27.804 28.0835 27.8003 28.1307V28.1407L27.7949 28.1489C27.7694 28.1843 27.763 28.2197 27.763 28.2634C27.763 28.3378 27.7903 28.4287 27.7922 28.5232C27.7922 28.5504 27.7885 28.5786 27.7821 28.6077L27.7903 28.6213C27.7985 28.6313 27.8122 28.6449 27.8277 28.6604C27.8595 28.6876 27.9005 28.7194 27.9342 28.7412C27.9442 28.7476 27.9542 28.7512 27.9597 28.7567L28.0935 28.6422L28.0953 28.6404C28.1208 28.6249 28.1463 28.6186 28.1718 28.6186C28.2073 28.6186 28.2364 28.6322 28.2647 28.6458C28.292 28.664 28.3175 28.6849 28.3457 28.7067C28.3967 28.7521 28.4504 28.803 28.505 28.8366C28.5442 28.8584 28.5815 28.872 28.6316 28.872C28.6844 28.872 28.7481 28.8548 28.8291 28.8012L28.8328 28.7993L28.8364 28.7975C28.8601 28.7894 28.8856 28.7839 28.9129 28.7839C28.9538 28.7839 28.9994 28.7975 29.0312 28.833L29.0412 28.843L29.0376 29.0237L29.0294 29.0337C28.9411 29.14 28.84 29.2781 28.6762 29.3408C28.6507 29.3662 28.6234 29.388 28.6015 29.408C28.576 29.4298 28.556 29.4516 28.546 29.4807L28.5442 29.4889L28.5378 29.4943C28.5278 29.5043 28.5141 29.5261 28.4986 29.5497C28.4832 29.5734 28.4668 29.5988 28.4376 29.6188C28.4203 29.6288 28.3967 29.6388 28.373 29.6388C28.3293 29.6469 28.2701 29.6424 28.2155 29.6469C28.16 29.6488 28.1072 29.6606 28.0817 29.6824C28.0644 29.696 28.0562 29.7124 28.0562 29.7451V29.7605L28.0462 29.7705C28.0088 29.8077 27.9597 29.8177 27.9105 29.8177C27.8513 29.8177 27.7903 29.8041 27.7275 29.7923C27.6665 29.7787 27.6073 29.7687 27.56 29.7687C27.5463 29.7687 27.5345 29.7687 27.5227 29.7705H27.5163H27.5108C27.4835 29.7669 27.4599 29.7641 27.438 29.7641C27.3925 29.7641 27.3634 29.7723 27.3415 29.7841C27.3215 29.7978 27.3096 29.8114 27.2978 29.835C27.276 29.8841 27.2687 29.9685 27.2505 30.0676L27.2486 30.0812L27.2386 30.0894C27.2286 30.0994 27.225 30.1048 27.2231 30.1166C27.2231 30.1321 27.2286 30.1539 27.245 30.182C27.2605 30.2093 27.2823 30.2411 27.306 30.2729C27.3552 30.3374 27.4143 30.4064 27.458 30.4718C27.4853 30.5154 27.5072 30.5581 27.5072 30.6036V30.6136L27.5017 30.6217C27.4881 30.6417 27.4699 30.6535 27.4526 30.6653C27.4353 30.6735 27.4152 30.6808 27.3998 30.6853C27.3643 30.6935 27.3306 30.7008 27.3087 30.7126C27.2932 30.7208 27.2832 30.7326 27.2732 30.7498L27.2714 30.7562L27.2678 30.7598C27.1631 30.8643 27.082 31.0096 27.0037 31.1432L26.9983 31.1568L26.9828 31.1605C26.9591 31.1668 26.9355 31.1704 26.9136 31.1704C26.8526 31.1704 26.8071 31.1486 26.7661 31.1296C26.727 31.1096 26.6951 31.0941 26.6614 31.0941C26.6532 31.0941 26.6414 31.096 26.6323 31.0978L26.5258 31.2713L26.5021 31.2695L26.4566 31.2658L26.4484 31.2595C26.3146 31.1514 26.1607 31.086 25.9986 31.086C25.9513 31.086 25.904 31.0923 25.8566 31.1041C25.8248 31.1278 25.8038 31.1496 25.792 31.1668C25.7783 31.1841 25.7765 31.1959 25.7765 31.2041C25.7765 31.2122 25.7783 31.2222 25.7865 31.2313C25.7947 31.2413 25.8084 31.2549 25.8257 31.2686C25.8575 31.2958 25.9021 31.324 25.9376 31.363C25.9613 31.3885 25.9786 31.4239 25.9832 31.4612V31.4675L25.9813 31.4739C25.9777 31.4939 25.9759 31.5111 25.9759 31.5266C25.9759 31.5702 25.9895 31.6111 26.005 31.6547C26.0223 31.6955 26.046 31.7391 26.0642 31.7846C26.0797 31.8046 26.0842 31.8282 26.0842 31.8473C26.0842 31.889 26.0687 31.9336 26.0551 31.979C26.0378 32.0244 26.0196 32.0698 26.0077 32.1071C25.9996 32.1307 25.9941 32.1525 25.9941 32.1598V32.1616L26.2035 32.3387C26.2253 32.3424 26.2445 32.3487 26.259 32.3605C26.2809 32.376 26.2982 32.396 26.3118 32.416C26.341 32.4614 26.361 32.5141 26.361 32.5677C26.361 32.5877 26.3592 32.6067 26.351 32.6267C26.3428 32.6467 26.3291 32.664 26.3118 32.6758H26.31H26.3082C26.239 32.7167 26.188 32.7603 26.1407 32.8093C26.0933 32.8584 26.0478 32.9138 25.9868 32.971L25.7228 33.2954L25.6955 33.2736C25.6636 33.2499 25.6399 33.2227 25.6145 33.1891C25.5471 33.1418 25.4606 33.1282 25.3659 33.1218C25.2712 33.1155 25.1665 33.1182 25.0746 33.0846C25.0136 33.0628 24.9599 33.0255 24.9171 32.9665C24.8324 32.9111 24.7769 32.8784 24.7313 32.8402C24.6858 32.803 24.6549 32.7657 24.6248 32.7067C24.6048 32.6676 24.5875 32.6204 24.5657 32.5568L24.562 32.5468L24.5638 32.5368C24.5657 32.5286 24.5657 32.5186 24.5657 32.5113C24.5657 32.4941 24.562 32.4796 24.552 32.4641C24.542 32.4487 24.5301 32.4341 24.5129 32.4205C24.481 32.3914 24.4364 32.3615 24.4045 32.3224L24.3981 32.3124V32.2988C24.3981 32.2633 24.3981 32.2297 24.3981 32.1943C24.3981 32.1298 24.3963 32.068 24.3827 32.0135C24.369 31.9626 24.3508 31.9154 24.3135 31.8736C24.3035 31.8718 24.2862 31.87 24.2625 31.87C24.1596 31.87 23.9848 31.909 23.8919 31.9545C23.8628 31.9681 23.8428 31.9817 23.8364 31.9899L23.7263 32.2079C23.7281 32.2279 23.7399 32.257 23.7536 32.2906C23.7709 32.3278 23.7909 32.3651 23.8046 32.3951V32.3969V32.3987C23.82 32.4478 23.8282 32.5014 23.8282 32.5522C23.8282 32.674 23.7873 32.7966 23.7117 32.8847C23.6798 32.9338 23.6607 32.9756 23.647 33.0228C23.6334 33.0682 23.627 33.1191 23.6152 33.1818V33.1854L23.5424 33.3471L23.5369 33.3508C23.5114 33.3726 23.4741 33.4062 23.4285 33.4371C23.3848 33.4671 23.3339 33.4961 23.2765 33.4961C23.2355 33.4961 23.1918 33.4761 23.16 33.4371L23.1518 33.4271V33.4189L23.15 33.4171C23.1463 33.4135 23.1399 33.4035 23.1299 33.3953C23.1126 33.3771 23.089 33.3535 23.0626 33.3326C23.0116 33.289 22.9524 33.2445 22.9342 33.2345L22.9169 33.2245V33.0374L22.9306 33.0274C22.9324 33.0274 22.9442 33.0119 22.9524 32.9919C22.9624 32.9719 22.9743 32.9465 22.9843 32.9192C23.0061 32.8656 23.028 32.8048 23.0453 32.7657C23.0489 32.7557 23.0535 32.7457 23.0607 32.7385C23.0607 32.7366 23.0626 32.7366 23.0644 32.7348L23.1099 32.4596C23.1063 32.4459 23.1017 32.4378 23.0999 32.4323C23.0962 32.426 23.0963 32.4241 23.0935 32.4223C23.0899 32.4187 23.0717 32.4069 23.048 32.3833L23.0462 32.3814L23.0444 32.3796C23.0362 32.366 23.0343 32.3578 23.0307 32.3442C23.0271 32.3306 23.0271 32.3188 23.0252 32.3006C23.0216 32.2688 23.0198 32.2279 23.0198 32.1825C23.0198 32.1153 23.0234 32.0389 23.0371 31.9663C23.0507 31.8954 23.0662 31.8309 23.1017 31.7837C23.1236 31.7537 23.1572 31.7282 23.2 31.7282H23.2082L23.2164 31.7319C23.2638 31.7555 23.3093 31.7673 23.3521 31.7673C23.4877 31.7673 23.5961 31.6574 23.6024 31.5075C23.5961 31.5039 23.5888 31.4993 23.5824 31.4975C23.5688 31.4939 23.5569 31.4911 23.5387 31.4911C23.5114 31.4911 23.4759 31.4948 23.4404 31.4948C23.4131 31.4948 23.3849 31.493 23.3557 31.4793L23.3402 31.4739L23.2592 31.2558L23.0999 31.1677L23.0963 31.1595C23.0216 31.0433 22.885 30.9588 22.7339 30.957C22.5309 31.0551 22.3197 31.0396 22.1285 31.0551C22.0793 31.0632 22.022 31.0923 21.9664 31.1196C21.9109 31.1468 21.8517 31.175 21.7889 31.175C21.7616 31.175 21.7334 31.1686 21.706 31.1532C21.6806 31.1377 21.6569 31.1159 21.635 31.086L21.6332 31.0841L21.6314 31.0823C21.6114 31.0433 21.5841 31.0178 21.5449 30.9978C21.5076 30.9779 21.4602 30.9624 21.4111 30.9524C21.32 30.9306 21.2217 30.9206 21.1407 30.8779C21.117 30.8916 21.0897 30.8934 21.066 30.8934C21.0205 30.8934 20.9732 30.8834 20.944 30.8834C20.9185 30.9361 20.8949 31.0133 20.8712 31.0941C20.8457 31.185 20.8184 31.2795 20.7765 31.3558C20.751 31.403 20.7173 31.4421 20.6736 31.4657C20.65 31.4893 20.6227 31.5184 20.6008 31.552C20.579 31.5838 20.5635 31.621 20.5635 31.6483L20.5653 31.6656C20.5926 31.7364 20.6281 31.8227 20.6281 31.9118C20.6281 31.9508 20.6217 31.9863 20.6045 32.0235L20.6026 32.0271L20.6008 32.0308C20.5808 32.0544 20.5334 32.1116 20.4743 32.1707C20.4151 32.2315 20.3459 32.2988 20.2767 32.3442C20.2312 32.3733 20.1857 32.3951 20.1383 32.3951C20.1329 32.3951 20.1247 32.3932 20.1183 32.3932C20.1183 32.3951 20.1183 32.3996 20.1183 32.4014C20.1183 32.4523 20.0928 32.4977 20.0709 32.545C20.0509 32.5867 20.0336 32.6258 20.0318 32.6494C20.0791 32.7185 20.1028 32.7848 20.1228 32.8484C20.1429 32.9129 20.1602 32.9701 20.192 33.031C20.2567 33.0528 20.3004 33.0764 20.3322 33.1037C20.3677 33.1327 20.3796 33.1763 20.3796 33.2181C20.3796 33.2717 20.3641 33.3299 20.3541 33.4071L20.3523 33.4225L20.3386 33.4307C20.274 33.478 20.2048 33.527 20.1438 33.5842C20.0828 33.6397 20.0336 33.7023 20.0118 33.7714C19.9981 33.8123 19.9744 33.8441 19.9608 33.8759C19.9453 33.9013 19.9371 33.9231 19.9353 33.9485C19.9408 33.9549 19.949 33.9622 19.959 33.9685C19.9744 33.9767 19.9945 33.9858 20.0118 33.9922C20.0527 34.0076 20.1028 34.0194 20.1438 34.0548L20.1456 34.0567L20.1474 34.0603C20.1793 34.1057 20.2239 34.1484 20.2676 34.1956C20.3067 34.2393 20.3423 34.2865 20.3641 34.3428C20.5416 34.4591 20.7783 34.5236 20.9814 34.6299C21.0223 34.6317 21.0578 34.6435 21.0861 34.6653C21.1152 34.6871 21.1352 34.7144 21.1534 34.7416C21.1853 34.7971 21.2062 34.8561 21.2463 34.8888C21.2718 34.9106 21.3018 34.9261 21.3583 34.9261C21.3665 34.9261 21.3783 34.9261 21.3901 34.9242L21.4002 34.9106C21.4102 34.9006 21.4275 34.8834 21.453 34.8752L21.4566 34.8734H21.4602C21.5112 34.8734 21.5549 34.8834 21.5886 34.9052C21.6205 34.927 21.6414 34.956 21.6578 34.9896C21.6833 35.0541 21.6869 35.125 21.7033 35.1904C21.7133 35.234 21.727 35.2713 21.7525 35.2985L21.7543 35.3003V35.3022C21.7898 35.3512 21.8472 35.3866 21.9136 35.4166C21.981 35.4466 22.0556 35.4702 22.1248 35.4993L22.1303 35.5011L22.1339 35.5047C22.2405 35.6029 22.2878 35.6973 22.3097 35.7982C22.3315 35.9008 22.327 36.0044 22.3333 36.1489V36.157C22.3351 36.1588 22.3388 36.1607 22.3433 36.1625C22.3652 36.1607 22.3843 36.1607 22.4025 36.1607C22.4735 36.1607 22.5327 36.1761 22.5837 36.2025C22.6347 36.2279 22.6866 36.2633 22.7494 36.3006L22.7576 36.3069L22.7612 36.3169C22.7985 36.4032 22.8523 36.4823 22.9169 36.5395C22.9815 36.5949 23.0526 36.6303 23.1336 36.6303C23.1846 36.6303 23.2419 36.6149 23.3011 36.5813C23.3147 36.5677 23.3266 36.5577 23.3402 36.554C23.3484 36.5504 23.3575 36.5504 23.3639 36.5477C23.5651 36.3469 23.7463 36.1125 23.963 35.9136C23.9803 35.8954 24.0021 35.8899 24.0221 35.8918C24.0458 35.8918 24.0658 35.8981 24.0868 35.9054C24.1086 35.9108 24.1305 35.9236 24.1514 35.9308C24.1951 35.949 24.2397 35.9662 24.2698 35.9662C24.278 35.9662 24.2852 35.9644 24.2916 35.9626C24.3235 35.9136 24.3444 35.8718 24.3681 35.8345C24.3936 35.7955 24.4291 35.7655 24.4801 35.75C24.5156 35.74 24.5529 35.7346 24.6066 35.7346C24.8042 35.7346 24.9571 35.8273 25.0992 35.9272C25.2412 36.0271 25.3768 36.1298 25.5325 36.1716L25.5389 36.1734L25.5443 36.177C25.5698 36.197 25.5917 36.2025 25.6154 36.2025C25.6427 36.2025 25.6745 36.1925 25.7064 36.177C25.7337 36.1634 25.7656 36.147 25.7929 36.1298C25.7984 36.108 25.8029 36.0825 25.8129 36.0571C25.8211 36.0298 25.8329 35.998 25.8502 35.9726C25.8539 35.9317 25.8703 35.8963 25.8894 35.8663C25.9112 35.8345 25.9386 35.8055 25.9704 35.7836C26.0314 35.7382 26.1024 35.701 26.1561 35.6637L26.1734 35.6501L26.1935 35.6583L26.2208 35.6719C26.3373 35.5693 26.473 35.5338 26.5895 35.4693L26.5913 35.4675H26.595C26.656 35.4475 26.6997 35.4321 26.7333 35.3966L26.737 35.3903L26.7425 35.3885C26.8016 35.363 26.8708 35.314 26.94 35.2567C27.0092 35.1995 27.0802 35.1405 27.1467 35.0978C27.1922 35.0705 27.2377 35.0469 27.2823 35.0387L27.2923 35.0369L27.3005 35.0405C27.3297 35.0541 27.4052 35.0841 27.4817 35.1132C27.5582 35.1423 27.641 35.1722 27.6847 35.1822C27.6947 35.1841 27.7048 35.1859 27.7066 35.1859C27.7676 35.1795 27.8186 35.1804 27.8604 35.1777C27.9014 35.1741 27.9333 35.1677 27.9633 35.1477C27.9806 35.1341 28.0006 35.1177 28.0225 35.0887C28.0261 34.9551 28.0853 34.8625 28.1527 34.788C28.2219 34.7071 28.2965 34.6381 28.3402 34.5481C28.3639 34.4973 28.4112 34.4418 28.4622 34.391C28.5132 34.3419 28.5724 34.2965 28.6243 34.2647L28.6261 34.2629L28.6297 34.2611C28.6789 34.2429 28.7144 34.2202 28.7399 34.1902C28.7654 34.1611 28.7836 34.123 28.7927 34.0821C28.8164 33.9994 28.8146 33.8995 28.8182 33.805V33.785L29.0039 33.6687C29.0358 33.6433 29.0631 33.5961 29.0868 33.5406C29.1104 33.488 29.1341 33.4289 29.1678 33.3835C29.1896 33.3535 29.217 33.3299 29.2561 33.3181H29.2579H29.2597C29.2679 33.3162 29.2798 33.3144 29.2871 33.3144C29.3144 33.3144 29.3362 33.3244 29.3562 33.3399C29.3735 33.3553 29.3881 33.3717 29.4018 33.3889C29.4254 33.4244 29.4455 33.4598 29.4573 33.477C29.481 33.4989 29.5028 33.5025 29.5301 33.5025C29.562 33.5025 29.6011 33.4943 29.6467 33.4943C29.6703 33.4943 29.6977 33.4979 29.7231 33.5098L29.7313 33.5134L29.7368 33.5216C29.7687 33.5652 29.8078 33.5806 29.8588 33.5806C29.9116 33.5806 29.9771 33.5606 30.0445 33.5352C30.1119 33.5098 30.1783 33.4798 30.2393 33.4589C30.2803 33.4434 30.3158 33.4334 30.3541 33.4334C30.3759 33.4334 30.3996 33.4371 30.4214 33.4516C30.4415 33.4652 30.4569 33.487 30.4651 33.5107V33.5125V33.5143C30.4669 33.5243 30.4669 33.5343 30.4669 33.5443C30.5097 33.5979 30.4861 33.6315 30.4642 33.6606Z" fill="#08E193"/>
</g>
<defs>
<clipPath id="clip0">
<rect width="57" height="57" fill="white"/>
</clipPath>
</defs>
</svg>
