<svg width="122" height="92" viewBox="0 0 122 92" fill="none" xmlns="http://www.w3.org/2000/svg">
<g clip-path="url(#clip0)">
<path d="M121.801 61.9515L120.972 58.1126C120.839 57.55 120.276 57.186 119.712 57.3184L119.049 57.4507L116.694 42.4594C116.694 42.4263 116.694 42.4263 116.694 42.3932C116.263 40.4407 114.539 39.0507 112.549 39.0507C112.251 39.0507 111.952 39.0838 111.654 39.15L109.697 39.5802L101.904 17.7716C101.739 17.2752 101.208 16.9774 100.677 17.0766L63.0063 25.1846C62.4757 25.2838 62.1441 25.7802 62.1772 26.3097L64.1006 49.409L62.1441 49.8392C61.2819 50.0378 60.5523 50.468 59.9886 51.0306C59.8228 48.8464 57.9989 47.0925 55.744 47.0925H53.7211L50.7366 24.1256C50.6703 23.5961 50.206 23.1989 49.6755 23.1989H11.1753C10.6447 23.1989 10.1805 23.5961 10.1142 24.1256L7.09649 47.0925H5.07366C2.71922 47.0925 0.82903 48.9788 0.82903 51.3284C0.82903 51.3615 0.82903 51.3615 0.82903 51.3946L1.72438 66.5515H1.06116C0.464257 66.5515 0 67.0148 0 67.6105V71.5486C0 72.1443 0.464257 72.6076 1.06116 72.6076H5.57108V77.7371C5.57108 80.0867 7.46127 81.973 9.81571 81.973H12.5681C14.9225 81.973 16.8127 80.0867 16.8127 77.7371V72.6076H44.0381V77.7371C44.0381 80.0867 45.9282 81.973 48.2827 81.973H51.0351C53.3895 81.973 55.2797 80.0867 55.2797 77.7371V72.6076H59.7565C60.3534 72.6076 60.8176 72.1443 60.8176 71.5486V67.6105C60.8176 67.0148 60.3534 66.5515 59.7565 66.5515H59.0601L59.5907 57.55L62.9399 69.563L62.2767 69.6954C62.0114 69.7615 61.7461 69.927 61.6135 70.1587C61.4477 70.3903 61.4145 70.6882 61.4808 70.9529L62.3099 74.7918C62.4094 75.2882 62.8736 75.6191 63.3379 75.6191C63.4042 75.6191 63.5037 75.6191 63.57 75.586L67.9473 74.6263L69.0416 79.6234C69.4727 81.5759 71.1971 82.9659 73.1867 82.9659C73.4852 82.9659 73.7836 82.9328 74.0821 82.8666L76.8013 82.2709C77.8956 82.0392 78.8573 81.3774 79.4874 80.4177C80.1174 79.4579 80.3164 78.3328 80.0843 77.2407L78.9899 72.2436L105.618 66.4853L106.713 71.4824C107.144 73.4018 108.868 74.8248 110.858 74.8248C111.156 74.8248 111.455 74.7918 111.753 74.7256L114.472 74.1299C116.761 73.6335 118.22 71.3831 117.722 69.0997L116.628 64.1025L121.005 63.1428C121.27 63.0766 121.536 62.9112 121.668 62.6795C121.834 62.5141 121.867 62.2493 121.801 61.9515ZM13.5298 27.9975C13.5961 27.468 14.0603 27.0709 14.5909 27.0709H46.293C46.8236 27.0709 47.2879 27.468 47.3542 27.9975L49.8413 47.0925H11.0427L13.5298 27.9975ZM12.4354 64.1025C9.68307 64.1025 7.42811 61.8522 7.42811 59.1054C7.42811 56.3587 9.68307 54.1083 12.4354 54.1083C15.1878 54.1083 17.4428 56.3587 17.4428 59.1054C17.4428 61.8522 15.221 64.1025 12.4354 64.1025ZM48.4153 64.1025C45.663 64.1025 43.408 61.8522 43.408 59.1054C43.408 56.3587 45.663 54.1083 48.4153 54.1083C51.1677 54.1083 53.4227 56.3587 53.4227 59.1054C53.4227 61.8522 51.1677 64.1025 48.4153 64.1025ZM72.9214 64.9299C72.5567 64.9961 72.2251 65.0292 71.8603 65.0292C69.5058 65.0292 67.4499 63.3745 66.9524 61.091C66.3555 58.4105 68.0799 55.7299 70.7991 55.1342C71.1639 55.068 71.4955 55.0349 71.8603 55.0349C74.2147 55.0349 76.2707 56.6896 76.7682 58.973C77.3319 61.6536 75.6075 64.3342 72.9214 64.9299ZM67.9473 48.5817L66.3555 29.3874C66.3224 28.8579 66.654 28.3615 67.1846 28.2623L98.1571 21.5774C98.6877 21.4781 99.2183 21.7428 99.3841 22.2723L105.884 40.4076L67.9473 48.5817ZM111.223 55.1342C110.493 56.2594 109.366 57.0205 108.072 57.3184C107.708 57.3846 107.376 57.4176 107.011 57.4176C104.657 57.4176 102.601 55.763 102.103 53.4795C101.805 52.1889 102.07 50.832 102.8 49.7069C103.529 48.5817 104.657 47.8205 105.95 47.5227C106.315 47.4565 106.646 47.4234 107.011 47.4234C109.366 47.4234 111.422 49.0781 111.919 51.3615C112.184 52.6853 111.952 54.009 111.223 55.1342Z" fill="white"/>
<path d="M63.1393 79.3257C62.6087 78.6307 61.6139 78.4653 60.9175 78.9948L48.0841 88.5588C47.3877 89.0883 47.2219 90.0811 47.7525 90.7761C48.0509 91.2063 48.5484 91.4048 49.0458 91.4048C49.3774 91.4048 49.709 91.3056 50.0075 91.0739L62.8408 81.5099C63.5041 81.0135 63.6699 80.0207 63.1393 79.3257Z" fill="white"/>
<path d="M67.086 82.4366C66.2569 82.2049 65.3616 82.6682 65.1294 83.5287L63.3056 89.8495C63.0735 90.6769 63.5377 91.5704 64.3999 91.802C64.5325 91.8351 64.6984 91.8682 64.831 91.8682C65.5274 91.8682 66.1574 91.4049 66.3564 90.71L68.1803 84.3891C68.4124 83.5617 67.9481 82.6682 67.086 82.4366Z" fill="white"/>
<path d="M57.6346 29.6521C57.9331 30.1816 58.4636 30.4795 59.0274 30.4795C59.2927 30.4795 59.5248 30.4133 59.7901 30.2809C60.5528 29.8507 60.8512 28.891 60.4533 28.1298L49.0459 6.94996C48.6148 6.18881 47.6531 5.89096 46.8904 6.28809C46.1277 6.7183 45.8292 7.67801 46.2272 8.43917L57.6346 29.6521Z" fill="white"/>
<path d="M34.1885 15.5876L45.596 20.684C45.795 20.7833 46.0271 20.8164 46.2592 20.8164C46.8561 20.8164 47.453 20.4523 47.7183 19.8898C48.0831 19.0955 47.7183 18.1358 46.9224 17.8049L35.515 12.7085C34.7191 12.3444 33.7575 12.7085 33.4258 13.5027C33.0279 14.2969 33.3927 15.2567 34.1885 15.5876Z" fill="white"/>
<path d="M59.4906 17.4407C59.5237 17.4407 59.5237 17.4407 59.5569 17.4407C60.4191 17.4076 61.1155 16.6464 61.0823 15.786L60.4854 1.5227C60.4522 0.662273 59.7227 -0.0326911 58.8273 0.00040246C57.9651 0.033496 57.2688 0.794647 57.3019 1.65508L57.8988 15.9184C57.932 16.7457 58.6284 17.4407 59.4906 17.4407Z" fill="white"/>
</g>
<defs>
<clipPath id="clip0">
<rect width="122" height="92" fill="white"/>
</clipPath>
</defs>
</svg>
