<svg width="94" height="126" viewBox="0 0 94 126" fill="none" xmlns="http://www.w3.org/2000/svg">
<g clip-path="url(#clip0)">
<path d="M92.2375 15.8977L47.8568 0.147656C47.2938 -0.0492187 46.6818 -0.0492187 46.1187 0.147656L1.7625 15.8977C0.709896 16.2668 0 17.2758 0 18.3832V49.8832C0 90.6363 6.02187 105.55 45.825 125.729C46.1922 125.926 46.6083 126.025 47 126.025C47.4161 126.025 47.8078 125.926 48.175 125.729C87.9781 105.55 94 90.6363 94 49.8832V18.3832C94 17.2758 93.2901 16.2668 92.2375 15.8977ZM73.1193 70.875C73.1193 72.327 71.9443 73.5082 70.5 73.5082H57.4526V86.625C57.4526 88.077 56.2776 89.2582 54.8333 89.2582H39.1667C37.7224 89.2582 36.5474 88.077 36.5474 86.625V73.5082H23.5C22.0557 73.5082 20.8807 72.327 20.8807 70.875V55.125C20.8807 53.673 22.0557 52.4918 23.5 52.4918H36.5474V39.375C36.5474 37.923 37.7224 36.7418 39.1667 36.7418H54.8333C56.2776 36.7418 57.4526 37.923 57.4526 39.375V52.4918H70.5C71.9443 52.4918 73.1193 53.673 73.1193 55.125V70.875Z" fill="white"/>
</g>
<defs>
<clipPath id="clip0">
<rect width="94" height="126" fill="white"/>
</clipPath>
</defs>
</svg>
