<svg width="112" height="98" viewBox="0 0 112 98" fill="none" xmlns="http://www.w3.org/2000/svg">
<g clip-path="url(#clip0)">
<path d="M110.903 60.8619L100.982 52.0813L85.8091 31.4387C85.0855 30.4889 84.0117 30.0255 82.9379 30.0255H75.048L72.1768 20.7815C71.7099 19.2293 70.3793 18.1636 68.722 18.1636H59.7582C58.0775 18.1636 56.5369 19.3451 56.3035 21.0132L54.5061 30.0255H4.17841C2.14756 30.0255 0.583577 31.5778 0.583577 33.5934L0 83.7517C0 85.7674 1.56399 87.3196 3.59483 87.3196H12.9087C14.8228 94.8028 22.3393 99.4132 29.9958 97.6293C35.1313 96.4477 39.0763 92.4165 40.3835 87.3196H65.8508C67.7649 94.8028 75.2814 99.4132 82.9379 97.6293C88.0734 96.4477 92.0184 92.4165 93.3256 87.3196H108.382C110.413 87.3196 111.977 85.7674 111.977 83.7517V63.4567C112.117 62.391 111.51 61.4411 110.903 60.8619ZM26.6578 90.8643C22.8295 90.8643 19.7249 87.783 19.7249 83.9834C19.7249 80.1839 22.8295 77.1026 26.6578 77.1026C30.486 77.1026 33.5907 80.1839 33.5907 83.9834C33.5907 87.783 30.486 90.8643 26.6578 90.8643ZM44.2118 58.4756H40.3835V62.2752C40.3835 64.2908 38.8195 65.843 36.7887 65.843C34.7578 65.843 33.1938 64.2908 33.1938 62.2752V58.4756H29.4123C27.3814 58.4756 25.8174 56.9234 25.8174 54.9078C25.8174 52.8922 27.3814 51.3399 29.4123 51.3399H33.2405V47.5404C33.2405 45.5248 34.8045 43.9726 36.8354 43.9726C38.8662 43.9726 40.4302 45.5248 40.4302 47.5404V51.3399H44.2584C46.2893 51.3399 47.8533 52.8922 47.8533 54.9078C47.8066 56.9466 46.1259 58.4756 44.2118 58.4756ZM79.4831 90.8643C75.6549 90.8643 72.5502 87.783 72.5502 83.9834C72.5502 80.1839 75.6549 77.1026 79.4831 77.1026C83.3114 77.1026 86.416 80.1839 86.416 83.9834C86.416 87.783 83.4281 90.8643 79.4831 90.8643ZM68.1151 50.8766V37.1149H81.0238L91.178 50.8766H68.1151Z" fill="white"/>
<path d="M67.8812 0H60.7148V14.8274H67.8812V0Z" fill="white"/>
<path d="M83.4932 5.10976L72.5994 15.9219L77.6667 20.9511L88.5605 10.139L83.4932 5.10976Z" fill="white"/>
<path d="M45.3493 5.14309L40.282 10.1724L51.1759 20.9845L56.2432 15.9552L45.3493 5.14309Z" fill="white"/>
</g>
<defs>
<clipPath id="clip0">
<rect width="112" height="98" fill="white"/>
</clipPath>
</defs>
</svg>
