<svg width="152" height="194" viewBox="0 0 152 194" fill="none" xmlns="http://www.w3.org/2000/svg">
<g clip-path="url(#clip0)">
<path d="M0 0V150.589C0 164.283 11.0857 175.369 24.7798 175.369H47.3705C54.1244 175.369 60.5522 178.117 65.2567 183.007L75.83 194L85.3786 183.473C90.0831 178.303 96.7438 175.369 103.731 175.369H126.88C140.574 175.369 151.66 164.283 151.66 150.589V0H0ZM53.9846 94.4149C54.2175 94.7409 52.4475 97.3959 52.5873 97.6288C52.6804 97.8617 51.0968 100.377 50.1186 101.774C46.7184 106.525 41.3152 111.183 32.6516 113.419C32.3256 113.466 31.0679 113.698 29.3445 113.745L28.6924 113.698C25.2922 113.512 21.9385 112.441 19.0041 110.531C11.6447 103.87 12.2036 96.837 14.9517 90.1762C16.8149 85.7047 20.4014 81.8852 22.7769 77.6466L22.9167 77.3671C24.3606 74.7121 25.6182 71.9174 25.7114 69.9145C25.9443 66.6074 22.5441 66.1417 22.5441 66.1417C21.3796 66.0485 19.9357 66.1417 19.0972 66.0019C19.0507 65.3032 20.0288 64.884 20.6343 64.6511C21.2399 64.4648 22.3112 64.2319 22.9167 63.9525C23.5222 63.673 24.4072 61.8564 26.3635 61.8098C29.9966 61.903 30.2295 65.3964 30.2295 65.3964C30.9282 68.3308 27.1553 76.5753 27.1553 76.5753C27.0156 76.8082 26.5964 77.7863 26.5964 77.7863C24.7332 83.0031 21.5193 89.3378 22.9633 94.3217L23.0564 94.6478C27.8074 92.412 23.8483 87.661 27.6677 84.68C30.2295 82.6771 37.589 77.4137 39.7781 74.5724L40.011 74.2929C43.551 70.194 46.8581 65.7225 49.7925 61.2509C51.1899 63.0675 50.2118 65.6293 50.3049 67.7253L50.3515 68.1445C51.3296 67.6787 52.6338 65.5827 52.6338 65.5827C53.2394 68.1445 51.6557 70.7064 51.2831 73.175L52.6338 71.5448V72.7092C52.7736 75.0382 50.5844 76.9479 50.1652 79.1371L52.0749 77.2739V78.3453C52.2146 80.4413 50.0254 81.9318 49.5597 83.8415L50.6775 82.9565L50.7241 83.9347C50.8639 85.8444 48.7212 87.2884 47.9294 88.872L47.0444 89.757L48.5815 89.1981L48.1623 90.0831C47.6965 91.6667 45.7402 92.4586 44.9949 93.8094L46.4855 93.1573L46.206 94.0423C46.0197 95.5793 43.5044 97.3959 43.5044 97.4891C43.551 97.5822 44.436 96.8836 44.436 96.8836C50.8173 93.1573 55.2888 88.0802 55.5217 88.1733C56.0807 88.3131 55.0559 90.7352 55.0559 90.7352C55.4286 90.9681 53.7517 94.0888 53.9846 94.4149ZM96.1849 94.4149C96.4178 94.7409 94.6478 97.3959 94.7875 97.6288C94.8807 97.8617 93.297 100.377 92.2723 101.774C88.872 106.525 83.4689 111.183 74.8053 113.419C74.4792 113.466 73.2216 113.698 71.4982 113.745L70.8461 113.698C67.4459 113.512 64.0922 112.441 61.1577 110.531C53.8449 103.777 54.3573 96.7438 57.1054 90.0831C58.9685 85.6115 62.5551 81.7921 64.9306 77.5534L65.0703 77.2739C66.5143 74.619 67.7719 71.8242 67.8651 69.8214C68.0979 66.5143 64.6977 66.0485 64.6977 66.0485C63.4867 65.9553 62.0893 66.0485 61.2509 65.9088C61.2043 65.2101 62.1825 64.7909 62.788 64.558C63.3935 64.3717 64.4648 64.1388 65.0703 63.8593C65.6759 63.5798 66.5143 61.7633 68.5172 61.7167C72.1503 61.8098 72.3832 65.3032 72.3832 65.3032C73.0819 68.2377 69.309 76.4821 69.309 76.4821C69.1693 76.715 68.7501 77.6932 68.7501 77.6932C66.8869 82.91 63.673 89.2447 65.1169 94.2286L65.2101 94.5546C69.9611 92.3188 66.0019 87.5678 69.8214 84.5868C72.3832 82.5839 79.7426 77.3205 81.9318 74.4792L82.1647 74.1998C85.7047 70.1008 89.0583 65.6293 91.9462 61.1577C93.3436 62.9743 92.3654 65.5361 92.4586 67.6322L92.5051 68.0514C93.4833 67.5856 94.7875 65.4896 94.7875 65.4896C95.393 68.0514 93.8094 70.6132 93.4367 73.0819L94.7875 71.4516V72.6161C94.9272 74.945 92.738 76.8547 92.3188 79.0439L94.2286 77.1808V78.2521C94.3683 80.3481 92.1791 81.8387 91.7133 83.7484L92.8312 82.8634L92.8778 83.8415C93.0175 85.7513 90.8749 87.1952 90.0831 88.7789L89.1981 89.6639L90.7352 89.1049L90.3159 89.9899C89.8502 91.5736 87.8939 92.3654 87.1486 93.7162L88.6391 93.0641L88.3596 93.9491C88.1733 95.4862 85.6581 97.3028 85.6581 97.3959C85.7047 97.4891 86.5897 96.7904 86.5897 96.7904C92.9709 93.0641 97.4425 87.987 97.6754 88.0802C98.2343 88.2199 97.2096 90.642 97.2096 90.642C97.6288 90.9681 95.952 94.0888 96.1849 94.4149ZM138.432 94.4149C138.665 94.7409 136.895 97.3959 137.034 97.6288C137.127 97.8617 135.544 100.377 134.519 101.774C131.119 106.525 125.716 111.183 117.052 113.419C116.726 113.466 115.468 113.698 113.745 113.745L113.093 113.698C109.693 113.512 106.339 112.441 103.405 110.531C96.0917 103.777 96.6041 96.7438 99.3522 90.0831C101.215 85.6115 104.802 81.7921 107.177 77.5534L107.317 77.2739C108.761 74.619 110.019 71.8242 110.112 69.8214C110.345 66.5143 106.945 66.0485 106.945 66.0485C105.78 65.9553 104.336 66.0485 103.498 65.9088C103.451 65.2101 104.429 64.7909 105.035 64.558C105.64 64.3717 106.712 64.1388 107.317 63.8593C107.923 63.5798 108.808 61.7633 110.764 61.7167C114.397 61.8098 114.63 65.3032 114.63 65.3032C115.329 68.2377 111.556 76.4821 111.556 76.4821C111.416 76.715 110.997 77.6932 110.997 77.6932C109.134 82.91 105.92 89.2447 107.364 94.2286L107.457 94.5546C112.208 92.3188 108.249 87.5678 112.068 84.5868C114.63 82.5839 121.989 77.3205 124.179 74.4792L124.412 74.1998C127.951 70.1008 131.259 65.6293 134.193 61.1577C135.59 62.9743 134.612 65.5361 134.705 67.6322L134.752 68.0514C135.73 67.5856 137.034 65.4896 137.034 65.4896C137.64 68.0514 136.056 70.6132 135.684 73.0819L137.034 71.4516V72.6161C137.174 74.945 134.985 76.8547 134.566 79.0439L136.475 77.1808V78.2521C136.615 80.3481 134.426 81.8387 133.96 83.7484L135.125 82.8634L135.171 83.8415C135.311 85.7513 133.168 87.1952 132.33 88.7789L131.445 89.6639L132.982 89.1049L132.563 89.9899C132.097 91.5736 130.141 92.3654 129.395 93.7162L130.886 93.0641L130.606 93.9491C130.42 95.4862 127.905 97.3028 127.905 97.3959C127.951 97.4891 128.836 96.7904 128.836 96.7904C135.218 93.0641 139.689 87.987 139.969 88.0802C140.528 88.2199 139.503 90.642 139.503 90.642C139.876 90.9681 138.199 94.0888 138.432 94.4149Z" fill="white"/>
</g>
<defs>
<clipPath id="clip0">
<rect width="151.613" height="194" fill="white"/>
</clipPath>
</defs>
</svg>
