<svg width="151" height="194" viewBox="0 0 151 194" fill="none" xmlns="http://www.w3.org/2000/svg">
<g clip-path="url(#clip0)">
<path d="M0 0V150.589C0 164.283 11.0409 175.369 24.6796 175.369H47.1788C53.9054 175.369 60.3072 178.117 64.9926 183.007L75.5232 194L85.0332 183.473C89.7186 178.303 96.3524 175.369 103.311 175.369H126.367C140.006 175.369 151.046 164.283 151.046 150.589V0H0ZM131.377 118.263C131.145 118.962 130.171 121.989 128.176 121.989C126.645 121.989 126.135 121.524 126.135 121.524C126.135 121.524 126.274 121.058 126.367 120.313C126.599 119.707 128.269 118.496 128.269 116.819C128.269 114.071 126.46 110.95 122.192 107.131C117.785 103.311 109.806 99.5851 109.806 99.5851C109.806 99.5851 111.939 103.405 112.311 104.15C112.774 104.849 118.852 113.372 119.362 117.332C119.733 119.987 120.058 123.806 118.388 125.343C117.182 126.182 116.022 125.716 115.651 125.343C115.419 125.11 115.651 124.644 115.79 124.272C115.929 123.899 116.996 122.828 117.089 121.896C117.228 121.058 116.486 118.077 114.213 116.027C111.939 113.885 106.326 111.975 103.96 110.531C101.594 109.227 96.2132 105.361 94.9143 104.196C93.4762 103.125 91.7134 100.703 89.0691 100.703C85.126 100.703 83.6879 101.309 76.0799 103.917C74.0387 104.755 69.1677 106.898 63.5545 106.898C57.9413 106.898 52.9312 102.706 52.9312 102.706C52.9312 102.706 48.8952 107.131 41.8439 107.131C34.3287 107.131 31.5917 102.473 27.4166 102.473C24.9115 102.473 23.0095 104.383 21.3395 104.383C20.8756 104.383 20.1333 104.243 20.1333 103.079C20.1333 102.473 22.0353 99.5851 25.2826 99.3522C28.4836 99.2125 31.267 100.424 37.3441 99.9577C43.5604 99.5851 45.2304 96.1383 45.2304 96.1383C45.2304 96.1383 43.1892 97.1164 40.3594 97.1164C33.9112 97.1164 27.463 93.0641 24.0301 93.0641C21.9889 93.0641 19.855 95.1136 18.6488 94.9738C17.8138 94.8341 17.4427 94.7409 17.3499 94.3683C17.2108 94.1354 17.118 93.6696 17.5819 92.8312C18.4169 91.2941 20.922 88.872 28.4372 88.872C32.8442 88.872 37.7616 90.4091 40.5914 87.661C43.4212 84.9128 43.7923 82.2579 44.0707 80.8139C44.4418 79.37 45.1376 73.0353 45.1376 72.5695C45.1376 72.1037 45.1376 70.6598 43.8387 69.2159C42.4006 67.7719 40.4986 67.3993 39.6636 67.1664C38.8286 67.0266 37.5296 67.0266 37.1585 66.7938C36.9266 66.654 36.1843 65.9553 36.3235 65.8156C36.3235 65.5827 38.1327 65.6759 38.1327 65.6759C38.2719 65.5361 36.2307 65.443 35.9988 65.3032C35.8596 65.3032 34.9318 63.6264 35.3029 62.788C35.674 62.0893 36.741 61.5769 37.576 60.7385C38.4111 59.9001 39.8492 57.152 40.545 56.5465C41.0089 56.0807 41.8439 55.708 41.8439 55.708C41.8439 55.708 41.2409 53.5654 43.1429 52.727C45.2768 51.7489 45.184 55.0094 46.7149 55.0094C47.4107 55.0094 48.0138 53.1928 48.3849 52.9599C48.7561 52.727 49.5911 52.4941 50.6581 52.9599C52.792 54.1709 52.5601 57.5246 52.5601 57.5246C52.5601 57.5246 55.2971 59.807 56.9671 63.8593C58.7763 67.9116 57.431 72.849 59.333 76.2026C61.235 79.696 66.1524 84.5868 76.4974 84.5868C84.6157 84.5868 93.8937 78.2521 100.574 78.2521C103.311 78.2521 105.723 79.3234 105.723 79.3234C105.723 79.3234 112.543 76.3424 112.543 66.9801C112.171 58.5959 106.002 56.4533 100.62 55.1491C95.239 53.9381 79.5127 53.3325 73.0645 50.957C71.5336 50.4912 65.5493 47.976 65.5493 40.6631C65.5493 33.3503 70.3275 29.5309 70.3275 29.5309C70.3275 29.5309 73.2965 34.3284 80.9508 35.26C88.6052 36.2382 102.29 38.4739 104.1 38.8466C105.909 39.2192 116.254 40.896 119.223 44.7155C122.331 48.4418 124.697 54.7765 123.63 60.2727C122.563 65.769 121.589 69.6351 117.645 74.9916C113.702 80.255 109.991 81.2331 109.991 81.2331C109.991 81.2331 113.934 83.9813 116.3 86.4965C118.805 88.872 122.841 97.163 123.676 99.0727C124.511 100.982 129.15 106.479 130.496 109.6C132.351 114.444 131.655 117.425 131.377 118.263Z" fill="white"/>
</g>
<defs>
<clipPath id="clip0">
<rect width="151" height="194" fill="white"/>
</clipPath>
</defs>
</svg>
