<svg width="116" height="163" viewBox="0 0 116 163" fill="none" xmlns="http://www.w3.org/2000/svg">
<path d="M97.958 0H88.3711V11.6307H97.958V0Z" fill="white"/>
<path d="M70.0469 15.3234L76.7364 8.48926L85.1303 16.5544L78.4407 23.3885L70.0469 15.3234Z" fill="white"/>
<path d="M99.9609 16.6818L108.312 8.57422L115.002 15.4083L106.65 23.5159L99.9609 16.6818Z" fill="white"/>
<path d="M74.1408 49.3675H53.774V43.3824C53.774 41.3449 55.4357 39.6894 57.4809 39.6894H84.0259C91.3546 39.6894 97.3198 33.7467 97.3198 26.4456V21.1396H87.7329V26.4456C87.7329 28.4831 86.0711 30.1386 84.0259 30.1386H57.4809C50.1523 30.1386 44.1871 36.0813 44.1871 43.3824V49.3675H23.8203V66.8985H74.1408V49.3675Z" fill="white"/>
<path d="M79.9333 76.4062H18.0233C7.03038 85.3628 0 98.9885 0 114.185C0 141.097 21.9859 163 48.9996 163C76.0133 163 97.9993 141.097 97.9993 114.185C97.9567 98.9885 90.9263 85.3628 79.9333 76.4062Z" fill="white"/>
</svg>
