<svg width="81" height="129" viewBox="0 0 81 129" fill="none" xmlns="http://www.w3.org/2000/svg">
<path d="M57.5596 59.3599C52.7378 62.7864 46.8444 64.802 40.5158 64.802C36.9664 64.802 33.5844 64.1638 30.4368 63.0216L38.1718 92.181H57.9279C65.462 92.181 71.5898 98.3286 71.5898 105.887C71.5898 113.446 65.462 119.593 57.9279 119.593H8.4707V129H80.999V86.1677C80.999 79.3146 78.4542 72.7974 73.7998 67.7919C69.4802 63.1224 63.7543 60.1661 57.5596 59.3599Z" fill="white"/>
<path d="M40.4842 57.2102C52.6393 57.2102 62.5508 47.2665 62.5508 35.072V25.9009H18.4512V35.072C18.4512 47.3001 28.3292 57.2102 40.4842 57.2102Z" fill="white"/>
<path d="M19.3223 15.9234L50.0614 2.18359C47.1482 0.772656 43.9337 0 40.4847 0C30.4727 0 22.0011 6.71875 19.3223 15.9234Z" fill="white"/>
<path d="M62.2494 18.3422C61.5127 14.1766 59.6376 10.4141 56.9253 7.39062L32.3809 18.3422H62.2494Z" fill="white"/>
<path d="M64.0567 105.854C64.0567 102.461 61.3109 99.7061 57.9289 99.7061H40.1484L43.3965 111.968H57.9289C61.3109 112.001 64.0567 109.247 64.0567 105.854Z" fill="white"/>
<path d="M35.5945 112.002L21.6982 59.6289C16.1397 60.7375 11.0835 63.5594 7.16577 67.7586C2.54485 72.7641 0 79.3148 0 86.168V112.002H35.5945Z" fill="white"/>
</svg>
