<svg width="122" height="121" viewBox="0 0 122 121" fill="none" xmlns="http://www.w3.org/2000/svg">
<path d="M66.2422 8.60283L10.3573 0.12775C7.75208 -0.284894 5.1151 0.445169 3.14531 2.09575C1.17552 3.80981 0 6.31741 0 8.88851V115.89C0 118.684 2.2875 120.969 5.08333 120.969H21.6042V94.3059C21.6042 89.3859 25.5755 85.4182 30.5 85.4182H43.2083C48.1328 85.4182 52.1042 89.3859 52.1042 94.3059V120.969H73.7083V17.3953C73.7083 13.0149 70.563 9.30115 66.2422 8.60283ZM27.9583 74.0228H20.3333C18.2365 74.0228 16.5208 72.3088 16.5208 70.2138C16.5208 68.1188 18.2365 66.4048 20.3333 66.4048H27.9583C30.0552 66.4048 31.7708 68.1188 31.7708 70.2138C31.7708 72.3088 30.0552 74.0228 27.9583 74.0228ZM27.9583 58.7867H20.3333C18.2365 58.7867 16.5208 57.0727 16.5208 54.9777C16.5208 52.8827 18.2365 51.1687 20.3333 51.1687H27.9583C30.0552 51.1687 31.7708 52.8827 31.7708 54.9777C31.7708 57.0727 30.0552 58.7867 27.9583 58.7867ZM27.9583 43.5506H20.3333C18.2365 43.5506 16.5208 41.8366 16.5208 39.7416C16.5208 37.6466 18.2365 35.9326 20.3333 35.9326H27.9583C30.0552 35.9326 31.7708 37.6466 31.7708 39.7416C31.7708 41.8366 30.0552 43.5506 27.9583 43.5506ZM27.9583 28.3145H20.3333C18.2365 28.3145 16.5208 26.6005 16.5208 24.5055C16.5208 22.4105 18.2365 20.6965 20.3333 20.6965H27.9583C30.0552 20.6965 31.7708 22.4105 31.7708 24.5055C31.7708 26.6005 30.0552 28.3145 27.9583 28.3145ZM53.375 74.0228H45.75C43.6531 74.0228 41.9375 72.3088 41.9375 70.2138C41.9375 68.1188 43.6531 66.4048 45.75 66.4048H53.375C55.4719 66.4048 57.1875 68.1188 57.1875 70.2138C57.1875 72.3088 55.4719 74.0228 53.375 74.0228ZM53.375 58.7867H45.75C43.6531 58.7867 41.9375 57.0727 41.9375 54.9777C41.9375 52.8827 43.6531 51.1687 45.75 51.1687H53.375C55.4719 51.1687 57.1875 52.8827 57.1875 54.9777C57.1875 57.0727 55.4719 58.7867 53.375 58.7867ZM53.375 43.5506H45.75C43.6531 43.5506 41.9375 41.8366 41.9375 39.7416C41.9375 37.6466 43.6531 35.9326 45.75 35.9326H53.375C55.4719 35.9326 57.1875 37.6466 57.1875 39.7416C57.1875 41.8366 55.4719 43.5506 53.375 43.5506ZM53.375 28.3145H45.75C43.6531 28.3145 41.9375 26.6005 41.9375 24.5055C41.9375 22.4105 43.6531 20.6965 45.75 20.6965H53.375C55.4719 20.6965 57.1875 22.4105 57.1875 24.5055C57.1875 26.6005 55.4719 28.3145 53.375 28.3145Z" fill="white"/>
<path d="M114.98 54.1517L78.793 46.5972V121H113.105C117.998 121 122.001 117.001 122.001 112.112V62.849C122.001 58.6591 119.142 55.0723 114.98 54.1517ZM102.939 105.764H95.3138C93.2169 105.764 91.5013 104.05 91.5013 101.955C91.5013 99.86 93.2169 98.146 95.3138 98.146H102.939C105.036 98.146 106.751 99.86 106.751 101.955C106.751 104.05 105.036 105.764 102.939 105.764ZM102.939 90.5279H95.3138C93.2169 90.5279 91.5013 88.8139 91.5013 86.7189C91.5013 84.6239 93.2169 82.9099 95.3138 82.9099H102.939C105.036 82.9099 106.751 84.6239 106.751 86.7189C106.751 88.8139 105.036 90.5279 102.939 90.5279ZM102.939 75.2918H95.3138C93.2169 75.2918 91.5013 73.5778 91.5013 71.4828C91.5013 69.3878 93.2169 67.6738 95.3138 67.6738H102.939C105.036 67.6738 106.751 69.3878 106.751 71.4828C106.751 73.5778 105.036 75.2918 102.939 75.2918Z" fill="white"/>
</svg>
