<svg width="145" height="122" viewBox="0 0 145 122" fill="none" xmlns="http://www.w3.org/2000/svg">
<g clip-path="url(#clip0)">
<path d="M111.563 121.343C112.583 120.522 112.846 119.11 112.188 117.994L91.8171 82.799L114.196 91.6306C115.512 92.2544 117.092 91.6634 117.684 90.3502C118.112 89.3981 117.947 88.249 117.256 87.4939L98.8269 65.9567L142.728 59.8173C144.045 59.6204 144.999 58.5041 144.999 57.1909C145.032 55.9105 144.078 54.7942 142.827 54.5644L98.07 46.6849L108.766 33.9794C109.72 32.8631 109.555 31.2215 108.469 30.2694C107.91 29.8098 107.186 29.58 106.462 29.6785L89.678 31.5827L102.908 3.67634C103.467 2.33027 102.842 0.787214 101.493 0.229087C100.637 -0.132054 99.6167 -0.000730069 98.8927 0.557397L73.4535 22.3243L66.9703 7.61606C66.378 6.30282 64.7983 5.71186 63.4819 6.30282C62.8895 6.56547 62.4288 7.0251 62.1655 7.61606L54.8596 23.1451L41.8932 12.4094C40.7742 11.4901 39.1288 11.6214 38.1744 12.7377C37.7466 13.263 37.5162 13.9196 37.5491 14.5762L38.5364 30.6634L5.65962 11.2275C4.40906 10.4724 2.79648 10.8992 2.03955 12.1467C1.48009 13.0988 1.57881 14.3464 2.30283 15.2L29.2229 46.7178L1.87501 54.0719C0.690259 54.4002 -0.099566 55.4837 -0.0666681 56.6984C-0.0995661 57.9131 0.723172 59.0294 1.90791 59.3249L29.4204 66.2194L2.30282 98.2624C1.34845 99.3787 1.48008 101.02 2.59901 101.972C3.45466 102.695 4.67233 102.793 5.65962 102.235L38.8655 82.5692L37.0225 99.0176C36.858 100.462 37.9111 101.743 39.3591 101.907C40.0831 101.972 40.7742 101.775 41.3337 101.316L55.1558 89.5622L61.9352 104.336C62.5275 105.649 64.1072 106.24 65.4236 105.649C66.016 105.387 66.4767 104.927 66.74 104.336L72.9599 90.1532L108.14 121.343C109.128 122.196 110.576 122.196 111.563 121.343Z" fill="white"/>
</g>
<defs>
<clipPath id="clip0">
<rect width="122" height="145" fill="white" transform="translate(145) rotate(90)"/>
</clipPath>
</defs>
</svg>
