<svg width="110" height="120" viewBox="0 0 110 120" fill="none" xmlns="http://www.w3.org/2000/svg">
<g clip-path="url(#clip0)">
<path d="M104.384 29.3415C103.393 19.7811 101.742 12.1987 99.4294 9.56133C89.1892 -2.63648 17.8378 -3.62549 9.57958 9.23166C7.5976 12.5284 6.27628 19.7811 5.28529 29.3415C2.31231 29.6712 0 32.3086 0 35.2756V47.1437C0 49.7811 1.65165 52.0888 3.96396 52.7481C3.3033 71.2097 3.96396 90.3306 4.62462 99.891C4.62462 107.144 9.57958 106.155 9.57958 106.155H14.2042V114.067C14.2042 117.364 17.5075 119.671 21.4715 119.671C25.4354 119.671 28.7387 117.034 28.7387 114.067V106.155H82.9129V114.067C82.9129 117.364 86.2162 119.671 90.1802 119.671C94.1441 119.671 97.4474 117.034 97.4474 114.067V106.155H99.0991C99.0991 106.155 105.045 106.814 105.375 103.517C105.375 93.9569 106.036 72.858 105.375 52.7481C107.688 52.0888 109.67 49.7811 109.67 47.1437V35.2756C110 31.9789 107.357 29.6712 104.384 29.3415ZM27.0871 11.2097H81.9219V19.4514H27.0871V11.2097ZM27.7477 96.5943C23.4535 96.5943 19.8198 92.9679 19.8198 88.6822C19.8198 84.3965 23.4535 80.7701 27.7477 80.7701C32.042 80.7701 35.6757 84.3965 35.6757 88.6822C35.6757 93.2976 32.042 96.5943 27.7477 96.5943ZM81.5916 96.5943C77.2973 96.5943 73.6637 92.9679 73.6637 88.6822C73.6637 84.3965 77.2973 80.7701 81.5916 80.7701C85.8859 80.7701 89.5195 84.3965 89.5195 88.6822C89.5195 93.2976 85.8859 96.5943 81.5916 96.5943ZM91.5015 62.6383H17.5075V24.0668H91.5015V62.6383Z" fill="white"/>
</g>
<defs>
<clipPath id="clip0">
<rect width="110" height="120" fill="white"/>
</clipPath>
</defs>
</svg>
