<svg width="119" height="97" viewBox="0 0 119 97" fill="none" xmlns="http://www.w3.org/2000/svg">
<path d="M78.4101 56.3093C78.4101 66.9958 69.7891 75.6271 59.1155 75.6271C48.4418 75.6271 39.8208 66.9958 39.8208 56.3093C39.8208 45.6229 48.4418 36.9915 59.1155 36.9915C69.7891 37.4025 78.4101 46.0339 78.4101 56.3093ZM118.641 29.1822V83.8475C118.641 91.2458 112.894 97 105.505 97H13.1368C5.74734 97 0 91.2458 0 83.8475V29.1822C0 21.7839 5.74734 16.0297 13.1368 16.0297H29.1472V11.5085C29.1472 5.34322 34.484 0 40.6419 0H77.9996C84.1574 0 89.4942 5.34322 89.4942 11.5085V16.0297H105.505C112.894 16.0297 118.641 21.7839 118.641 29.1822ZM88.2627 56.3093C88.2627 40.2797 75.1259 27.1271 59.1155 27.1271C43.105 27.1271 29.9683 40.2797 29.9683 56.3093C29.9683 72.339 43.105 85.4915 59.1155 85.4915C75.5364 85.4915 88.2627 72.339 88.2627 56.3093Z" fill="white"/>
</svg>
