<svg width="126" height="126" viewBox="0 0 126 126" fill="none" xmlns="http://www.w3.org/2000/svg">
<path d="M68.4137 47.3813C65.1324 47.3813 62.4746 50.0392 62.4746 53.3204V68.5126C62.4746 71.7939 65.1324 74.4517 68.4137 74.4517C71.6949 74.4517 74.3527 71.7939 74.3527 68.5126V53.3204C74.3527 50.0392 71.6621 47.3813 68.4137 47.3813Z" fill="white"/>
<path d="M114.942 55.9781C116.025 53.1562 116.583 50.1375 116.583 47.0859C116.583 35.0438 107.822 24.8719 96.2063 22.8375C91.6125 9.28594 78.8484 0 64.3125 0C56.9625 0 49.9734 2.32969 44.1 6.75938C39.375 10.3031 35.6344 15.1266 33.3047 20.5406C31.6313 20.2453 29.925 20.0813 28.2188 20.0813C12.6656 20.0813 0 32.7469 0 48.3C0 55.7812 2.98594 62.9016 8.1375 68.1516C3.01875 72.7781 0 79.4062 0 86.4281C0 99.9797 11.025 111.037 24.6094 111.037C27.3656 111.037 30.0891 110.578 32.6812 109.692C36.8484 119.47 46.4953 126 57.4547 126C63.2953 126 68.8734 124.162 73.5328 120.684C76.9781 118.092 79.7344 114.811 81.6047 111.005C85.3125 112.416 89.3156 113.17 93.3187 113.17C111.333 113.17 126 98.5031 126 80.4891C126 71.1047 121.898 62.1469 114.942 55.9781ZM39.375 74.4516C42.6562 74.4516 45.3141 71.7938 45.3141 68.5125H52.6969C52.6969 75.8625 46.725 81.8344 39.375 81.8344C32.025 81.8344 26.0531 75.8625 26.0531 68.5125V53.3203C26.0531 45.9703 32.025 39.9984 39.375 39.9984C46.725 39.9984 52.6969 45.9703 52.6969 53.3203H45.3141C45.3141 50.0391 42.6562 47.3812 39.375 47.3812C36.0938 47.3812 33.4359 50.0391 33.4359 53.3203V68.5125C33.4359 71.7938 36.0938 74.4516 39.375 74.4516ZM81.7359 68.5125C81.7359 75.8625 75.7641 81.8344 68.4141 81.8344C61.0641 81.8344 55.0922 75.8625 55.0922 68.5125V53.3203C55.0922 45.9703 61.0641 39.9984 68.4141 39.9984C75.7641 39.9984 81.7359 45.9703 81.7359 53.3203V68.5125ZM105.098 85.0172V92.4H84.6891V88.6922C84.6891 85.8047 86.1 83.1141 88.4953 81.4734L97.2891 75.4359C97.9781 74.9437 98.4047 74.1562 98.4047 73.3031C98.4047 71.5641 96.9937 70.1531 95.2547 70.1531C93.5156 70.1531 92.1047 71.5641 92.1047 73.3031V75.075H84.7219V73.3031C84.7219 67.4953 89.4469 62.7703 95.2547 62.7703C101.062 62.7703 105.787 67.4953 105.787 73.3031C105.787 76.5844 104.18 79.6687 101.456 81.5062L96.3703 84.9844H105.098V85.0172Z" fill="white"/>
</svg>
