<svg width="106" height="131" viewBox="0 0 106 131" fill="none" xmlns="http://www.w3.org/2000/svg">
<path d="M103.42 103.783L80.0415 62.6536C78.3534 59.2314 77.4615 55.4895 77.4615 51.6836V16.5349C81.9525 16.5349 85.6154 12.8569 85.6154 8.34741C85.6154 3.83789 81.9525 0 77.4615 0H28.5385C24.0475 0 20.3846 3.80591 20.3846 8.34741C20.3846 12.8569 24.0475 16.5349 28.5385 16.5349V51.6836C28.5385 55.4895 27.6466 59.2634 25.9585 62.6536L2.57993 103.783C0.891827 107.205 0 110.947 0 114.785V122.972C0 127.482 3.66286 131 8.15385 131H97.8462C102.337 131 106 127.482 106 122.972V114.785C106 110.947 105.108 107.205 103.42 103.783ZM48.9231 118.879C44.4321 118.879 40.7692 115.201 40.7692 110.691C40.7692 106.182 44.4321 102.504 48.9231 102.504C53.4141 102.504 57.0769 106.182 57.0769 110.691C57.0769 115.201 53.4141 118.879 48.9231 118.879ZM44.8462 86.1287C44.8462 83.8579 46.6617 82.0349 48.9231 82.0349C51.1845 82.0349 53 83.8579 53 86.1287C53 88.3994 51.1845 90.2224 48.9231 90.2224C46.6617 90.2224 44.8462 88.3674 44.8462 86.1287ZM65.2308 102.504C62.9694 102.504 61.1539 100.681 61.1539 98.4099C61.1539 96.1392 62.9694 94.3162 65.2308 94.3162C67.4922 94.3162 69.3077 96.1392 69.3077 98.4099C69.3077 100.649 67.4922 102.504 65.2308 102.504ZM36.6923 73.8474L39.8774 68.2185C43.1262 62.4297 44.8462 55.9373 44.8462 49.2849C44.8462 39.0505 44.8462 16.5349 44.8462 16.5349H61.1539V49.2529C61.1539 55.9053 62.8738 62.4297 66.1226 68.1865L69.3077 73.8154H36.6923V73.8474Z" fill="white"/>
</svg>
