<svg width="102" height="132" viewBox="0 0 102 132" fill="none" xmlns="http://www.w3.org/2000/svg">
<g clip-path="url(#clip0)">
<path d="M101.998 43.1562C101.969 43.0658 101.879 43.0055 101.819 42.9753C101.46 42.9151 101.131 43.0959 100.772 43.2164C100.592 43.3973 100.293 43.337 100.173 43.4877L99.6048 43.6384C99.3953 43.5479 99.2158 43.4575 99.0662 43.2767C98.7072 43.0959 98.2883 43.4575 97.9292 43.0959C97.7796 42.9151 97.6898 42.7342 97.6001 42.6137C97.5103 42.5233 97.3906 42.4329 97.271 42.4932C97.1513 42.5233 97.0017 42.5836 96.9717 42.7041L96.7922 43.126L96.5229 43.7288L96.2836 43.9096L95.7151 44.1507C95.6852 44.2712 95.6253 44.2712 95.5954 44.3616L95.5355 45.4164C95.5056 45.4767 95.4757 45.4767 95.4757 45.5069C95.4159 45.537 95.4159 45.5973 95.4159 45.6575C95.3261 46.0192 95.0568 46.2603 94.6978 46.3808C94.5781 46.4411 94.5482 46.5315 94.3986 46.5616C94.1293 46.8932 93.7702 47.074 93.6206 47.4658C93.5907 47.526 93.5309 47.526 93.5309 47.6466C93.2017 47.9178 93.0521 48.3096 92.723 48.6411C92.4537 48.8521 92.334 49.274 92.334 49.6959L92.1246 49.9973C91.7655 50.2384 91.3167 50.1781 90.8978 50.2082C90.8679 50.2082 90.8081 50.2082 90.8081 50.1178C90.2396 49.9069 89.701 49.7863 89.1923 49.5753C88.8333 49.6356 88.6238 49.9069 88.3546 50.1178L88.2947 50.6904C88.2349 50.7206 88.2049 50.7205 88.2049 50.7507C88.2049 50.9315 88.1152 51.0521 88.0553 51.2329C88.0254 51.263 87.9955 51.3233 87.9656 51.3836L87.5168 51.5945C87.6963 51.263 87.9357 50.8411 87.8758 50.4493L87.3971 50.811C87.2774 50.8712 87.1876 50.9315 87.0081 51.0219C86.8286 51.2027 86.6192 51.2932 86.3798 51.3534C85.8412 51.6548 85.2727 51.7753 84.8239 52.2274L84.6145 52.137C84.5247 52.2274 84.3152 52.2274 84.1956 52.4082C84.016 52.6795 83.6271 52.7699 83.4475 53.011L83.4176 53.3425C83.3877 53.3726 83.3877 53.3726 83.3578 53.4329L83.1783 54.0356L82.4602 54.3973C82.2806 54.3069 82.1011 54.3671 81.9515 54.2466C81.5925 54.1562 81.3232 54.0356 80.9342 53.8247C80.8444 53.7041 80.6649 53.6137 80.5751 53.463L79.1689 52.6493L78.361 52.4685C78.361 52.4986 78.3311 52.4986 78.3012 52.4986L77.8224 52.4685L77.6429 52.5589L77.4634 52.7096L77.2539 53.0411L77.0146 53.4027L76.835 53.4932L75.7878 53.1315C75.7579 53.1315 75.728 53.1315 75.6681 53.1918C75.0996 53.7342 74.6209 54.2767 74.0823 54.8493C74.0823 54.9096 74.0225 54.9096 74.0225 54.9699L73.454 55.5726C73.4241 55.6329 73.3642 55.663 73.3343 55.7233C73.2745 55.7233 73.2446 55.7836 73.1847 55.8438C73.095 55.874 73.0052 55.874 72.9454 55.9644C72.6461 56.1452 72.3769 56.3863 71.958 56.1753C71.7784 56.0849 71.5989 56.0247 71.3895 55.9041C71.2099 55.7534 70.9107 55.6027 70.7911 55.3918C70.7013 55.1808 70.6115 54.9699 70.5517 54.8192C70.2824 54.6384 70.073 54.3671 69.6541 54.3069C69.4446 54.2767 69.2052 54.2466 68.9659 54.2767C68.8462 54.2466 68.7864 54.1562 68.7864 54.0959L68.6966 52.589C68.6667 52.5288 68.5769 52.5288 68.5769 52.4384L68.4871 51.9863L68.0084 51.5342L66.6021 50.9315C66.5722 50.8411 66.4825 50.7808 66.4226 50.6904C66.2431 50.4795 66.2132 50.1781 66.1533 49.9069C65.9439 49.6356 66.0636 49.1836 65.7344 49.0027H65.3455C65.2258 49.0329 65.1659 49.1836 65.1061 49.2137C64.8967 49.2438 64.5974 49.2438 64.4179 49.1233C64.2384 49.0027 64.1187 48.8822 64.1187 48.7014C64.0589 48.611 64.0589 48.611 64.029 48.5808L63.7896 49.1534L63.5203 48.9726C63.64 48.7315 63.7597 48.5205 63.8195 48.3096C63.7896 48.189 63.7297 48.1288 63.6699 48.1288C63.5203 48.1288 63.4904 48.0082 63.3408 48.0082C62.5329 47.5562 61.4857 47.4055 60.7676 46.8932C60.7077 46.9233 60.7077 46.9534 60.6778 46.9534C60.5881 47.0137 60.5282 46.9534 60.4684 46.9233L60.229 46.9534L59.6306 46.6822C59.9597 46.5616 60.2889 46.5918 60.5282 46.4712C60.4983 46.3507 60.4684 46.2301 60.4085 46.1699L60.229 46.1096L59.87 45.5973C59.6306 45.3863 59.1219 45.3863 58.9723 45.0849C58.9723 44.7534 59.2117 44.5726 59.3015 44.2712C59.3912 44.0603 59.5408 43.9397 59.6306 43.7589C59.6904 43.6082 59.84 43.5178 59.84 43.3973L60.6778 42.7945L60.7975 41.8603C60.6479 41.6192 60.3487 41.4986 60.0794 41.4082L59.84 40.9863C59.84 40.474 59.6306 40.0822 59.3912 39.7507C59.3912 39.6603 59.481 39.6603 59.481 39.6C59.4211 39.4192 59.5408 39.2986 59.6007 39.1479C59.6605 39.0274 59.6904 38.9069 59.7802 38.8164C59.7802 38.726 59.7503 38.6356 59.7204 38.5753L59.5708 38.5151C59.5408 38.4548 59.481 38.3945 59.4511 38.3644L59.6306 38.0329C59.6605 38.063 59.7503 38.0932 59.7503 38.1836C59.8999 38.3041 60.0794 38.4548 60.2589 38.3945L60.4385 38.3342L60.977 37.9123L61.3062 37.4301C61.4857 37.3699 61.6054 37.2192 61.725 37.0384C61.9345 36.6164 61.725 36.1041 61.5455 35.6822C61.5156 35.5616 61.5455 35.3205 61.6652 35.2301C61.7251 34.989 61.8746 34.8685 62.0542 34.6877C62.3833 34.537 62.503 34.1753 62.6227 33.874C62.7723 33.5425 62.6825 33.1205 62.892 32.8493C63.0416 32.6685 63.0715 32.4274 63.1612 32.2767C63.4006 32.2164 63.7597 32.3671 63.9392 32.1562V32.126L64.2982 32.0959C64.2982 32.1562 64.2982 32.2164 64.3282 32.2767C64.388 32.337 64.4778 32.2767 64.5376 32.3671C64.9565 32.4575 65.2557 32.6986 65.7045 32.7288C65.9738 32.789 66.0935 32.9699 66.1832 33.1808L66.3628 33.4219C66.4226 33.4822 66.4525 33.4822 66.5124 33.4822C66.7218 33.4822 67.021 33.5123 67.2006 33.3014C67.5297 33.2411 67.6793 33.0603 68.0683 33C68.8761 32.9096 69.7139 33 70.5218 32.5781C71.2099 32.5781 71.8084 32.9699 72.1375 33.4822L72.7957 33.8438L73.1249 34.7178C73.454 34.8685 73.9327 34.5973 74.2319 34.8986V35.3205L74.0225 35.6822C73.8729 35.8329 73.7233 35.9233 73.5737 36.0137C73.2446 36.2548 72.7658 36.1945 72.4367 36.0137C72.3769 36.0137 72.3469 36.074 72.2272 36.1041C72.0776 36.1644 72.0178 36.3753 72.0178 36.526C71.958 36.5562 71.958 36.5562 71.958 36.6466C71.8981 36.7973 71.8682 36.8877 71.8383 37.0685C71.958 37.5205 71.6288 38.0329 71.8981 38.4849C71.958 38.5753 72.0776 38.5753 72.1076 38.6356C72.1375 38.7562 72.1973 38.8164 72.1973 38.9069V39.2986C72.1674 39.3589 72.1076 39.3589 72.1076 39.3589L71.9879 40.1123C71.928 40.1123 71.928 40.1425 71.928 40.2027C71.928 40.4137 71.7485 40.5945 71.6887 40.8658C71.569 41.0164 71.569 41.2575 71.4194 41.3781V41.9808L71.7784 42.2521L72.1674 42.6438C72.2572 42.7041 72.3469 42.7644 72.3469 42.8548C72.5564 43.0959 72.8257 43.0055 73.065 42.9452L73.6335 42.463L73.9028 41.8603C73.9627 41.589 73.9028 41.1973 74.1123 41.0164C74.1422 40.8356 74.2319 40.7452 74.3217 40.5945C74.7406 40.1425 74.8902 39.3589 74.6808 38.7562L74.4115 38.1534C74.4115 38.063 74.3815 38.063 74.3516 38.063V37.9123L74.8304 36.9781C75.1894 36.526 75.6981 36.6164 76.2366 36.526C76.5059 36.526 76.6854 36.3452 76.9846 36.4658C77.4335 36.9479 77.3736 37.6712 77.3736 38.3342C77.4634 38.4548 77.5532 38.5753 77.7028 38.6055C77.8823 38.8164 78.1216 39.0274 78.0319 39.3288C78.0618 39.389 78.1516 39.389 78.1516 39.4493C78.1516 39.7205 78.2114 39.9918 78.3909 40.1726L78.5705 40.3534L79.4382 40.9562C80.0665 41.8904 81.4429 41.2575 82.2507 41.8603C82.3704 42.011 82.4602 42.1014 82.5798 42.1918L82.8791 42.011L83.5672 40.9562C83.7767 40.7753 83.9263 40.5342 84.1058 40.3233C84.2554 40.1425 84.4649 40.0822 84.5845 39.9315C84.6444 39.8712 84.794 39.7808 84.9137 39.7206C85.153 39.5397 85.0034 39.2082 84.9735 38.9671L84.6444 38.6055C84.5546 38.6055 84.5247 38.5753 84.4948 38.5753L84.1058 38.2438L83.5972 37.8219C83.5373 37.7616 83.5373 37.7014 83.5074 37.6411C83.3279 37.5507 83.268 37.4603 83.0586 37.3699L82.52 36.1644L82.7294 36.3753C82.7594 36.4959 82.7893 36.6767 82.909 36.7973C83.1184 37.0384 83.3578 37.2493 83.7168 37.2493L83.8664 36.5863L83.9562 36.526V36.2849C83.9562 36.2548 83.8964 36.2247 83.8664 36.1945C83.6869 35.7425 83.3877 35.3507 83.5074 34.8082C83.4775 34.4767 83.1483 34.3562 82.9389 34.1452C82.9389 34.1151 82.9389 34.0849 82.8791 34.0849C82.7893 34.0247 82.7594 34.0247 82.7294 33.9342C82.5798 33.7233 82.7294 33.4822 82.8491 33.3315C82.9389 33.3014 82.9987 33.2411 83.0885 33.1808C84.016 32.9397 84.9137 33.2411 85.6617 33.8438L85.8113 33.874L85.9908 33.6932L86.2302 33.1808C86.6491 33.0301 87.038 33.3918 87.3372 33.5123L87.6963 33.3918L88.0553 32.7589C88.1152 32.6986 88.1451 32.6685 88.175 32.6685L88.4144 32.1863L88.7136 31.8849C88.7435 31.8849 88.7435 31.8247 88.8034 31.7644C89.0128 31.3425 89.5215 31.5233 89.7608 31.2219C89.7608 31.1616 89.7608 31.0411 89.701 30.9808L89.4916 30.6493C89.4317 30.589 89.4018 30.5589 89.4018 30.5589C89.4018 30.4685 89.312 30.4384 89.2821 30.4082C89.2223 30.3178 89.2223 30.2274 89.1026 30.1671C88.953 29.9863 88.6837 29.8055 88.6837 29.5342C88.6238 29.474 88.6238 29.4438 88.5939 29.4137C88.5341 29.263 88.5341 29.0822 88.6837 28.9918L88.8931 28.2685L88.564 28.4192L88.2648 28.7206L88.4144 28.1781C88.4443 28.1781 88.4443 28.1479 88.4443 28.1479L88.8931 27.8164C89.2223 27.6658 89.5514 27.6055 89.9104 27.6658C90.5687 27.5452 91.197 27.9671 91.8553 27.8466L91.975 27.726C91.975 27.726 91.975 27.6658 92.0049 27.6356C92.0947 27.3644 92.364 27.2137 92.6632 27.1233C92.9025 27.1836 93.112 27.1836 93.3813 27.1534C93.7104 27.1534 93.8001 26.8219 93.9198 26.6411C93.9797 26.611 93.9797 26.611 93.9797 26.5808C94.0994 26.2493 94.3986 26.1288 94.5781 25.9178C95.2064 25.6767 95.6253 25.1342 95.9844 24.6822V24.0493C95.8048 23.8685 95.5655 23.8685 95.356 23.9288C95.0568 24.1397 94.7875 24.1699 94.5182 24.2904C94.219 24.3205 94.0096 24.1096 93.7403 24.0192C93.7104 23.8986 93.5608 23.8986 93.471 23.7781C93.3513 23.6575 93.1718 23.4164 92.9324 23.2959C92.7529 23.1452 92.5136 23.1452 92.364 23.2356L91.7655 23.7479C91.5561 23.6575 91.3167 23.4466 91.0773 23.2658C91.0175 23.1151 90.8679 23.0849 90.8679 22.9644C91.0774 22.3315 90.5388 21.5781 90.9577 21.0055C90.9876 20.7041 91.1671 20.4027 91.0474 20.1315L90.7183 19.9205C89.9104 19.8 88.923 20.1315 88.3845 19.4685C88.3546 19.3479 88.3546 19.1973 88.3845 19.0466C88.5341 18.926 88.564 18.7151 88.6538 18.5945C88.7734 18.5041 88.8632 18.3836 88.8632 18.1726C89.1624 17.9616 88.9829 17.5397 89.1923 17.2986V16.937C88.9829 16.7562 88.7435 16.3945 88.9231 16.0329C89.0427 15.9123 89.1026 15.7014 89.1923 15.5808C89.2821 15.3699 89.4018 14.9781 89.2223 14.8274L88.9231 14.526C88.8333 14.4356 88.7735 14.2849 88.7435 14.1041C88.7435 13.7123 88.9829 13.4411 89.1624 13.1699L89.9104 12.3562C89.9703 12.326 90.0301 12.326 90.0301 12.2959L90.2096 11.9945L90.3293 11.1507C90.3892 11.1205 90.3892 11.0904 90.3892 11.0603V10.789C90.3593 10.6986 90.3593 10.6986 90.3293 10.6685L90.2096 10.2466L90.0301 10.0658L89.7908 10.0055C89.4616 10.0658 88.9829 10.3069 88.564 10.0055C88.2947 9.94521 88.1451 9.64384 87.8758 9.64384C87.4569 9.64384 87.1278 9.55342 86.9184 9.25206C86.9184 9.16164 86.8585 9.13151 86.8286 9.10137L86.7388 9.0411L86.6192 9.16164L86.3199 9.70411C86.3199 10.0658 86.1404 10.3973 85.9609 10.6384C85.7514 10.8192 85.6018 11.1507 85.2727 11.211C85.0034 11.4521 84.7341 11.663 84.3152 11.7534C84.016 11.6329 83.7168 11.663 83.4176 11.5425C83.0586 11.5425 82.909 11.8137 82.6696 11.9945L82.2806 11.9644C82.52 11.7534 82.7295 11.5425 82.909 11.3014C82.6995 11 82.4003 10.9397 82.0712 10.8493C81.8617 10.6685 81.5625 10.6384 81.2933 10.5178C81.2633 10.5178 81.2035 10.4575 81.2035 10.4575L81.0838 10.337L80.9641 10.126C80.9043 10.126 80.8444 10.0356 80.8444 10.0356C80.8145 9.94521 80.7846 9.88493 80.7248 9.82466C80.4555 9.6137 80.2161 9.3726 79.9468 9.22192L79.139 8.95069C79.0492 8.95069 79.0492 9.01096 78.9594 9.0411C78.6004 9.10137 78.5106 9.3726 78.2713 9.49315C78.2114 9.64384 78.2114 9.82466 78.0917 9.8548C77.972 9.97534 78.0319 10.0658 77.972 10.1863C77.7925 10.3671 77.7626 10.6384 77.5232 10.7589C77.1642 10.8795 76.9547 11.1507 76.6256 11.1808C76.5957 11.211 76.5358 11.211 76.5059 11.3014C76.3264 11.3918 76.117 11.211 75.9973 11.1507C75.8177 10.9397 75.6981 10.7288 75.4587 10.5178C74.8902 10.0959 74.2619 10.6986 73.6634 10.6082C73.4839 10.4877 73.2446 10.5178 73.0052 10.4274C72.6461 10.337 72.2871 10.337 72.0178 10.5479L71.7485 10.7589C71.4194 10.9096 71.1202 10.7589 70.7911 10.7288L70.821 11.4822L70.5218 11.5425L70.4619 10.9397C70.3722 10.8493 70.3722 10.8192 70.3722 10.7288L70.0131 10.5178C69.6241 10.0658 69.0856 9.88493 68.547 9.76438L67.3801 10.126C67.2903 10.2466 67.0509 10.2466 66.9313 10.3671C66.7817 10.5178 66.6021 10.7288 66.4825 10.9096L66.2431 11.1205C66.2132 11.211 66.2132 11.2712 66.1234 11.3014L65.7943 11.4822C65.7644 11.5425 65.7045 11.6027 65.6746 11.6027C65.525 11.6932 65.3754 11.663 65.2557 11.6329L65.136 12.2055L64.747 12.2356C64.8069 12.0247 64.8368 11.8137 64.8368 11.6329C64.8967 11.6027 64.9266 11.6027 64.9266 11.5425C64.9266 11.4822 64.9266 11.4219 64.8967 11.4219L64.2085 11.2411L64.1486 11.1808C63.999 11.0603 63.9392 11.0301 63.7896 10.9699C63.5502 10.4575 63.7896 9.85479 63.7297 9.28219L63.4904 8.73973L63.0116 8.37808L62.892 8.19726C62.4731 7.74521 62.7424 6.96164 62.6227 6.44932C62.5628 6.38904 62.503 6.38904 62.503 6.29863L62.3833 5.48493C62.2337 5.39452 62.1739 5.33425 62.0542 5.33425C61.6951 5.39452 61.5754 5.66575 61.366 5.84658C61.366 5.93699 61.2762 5.93699 61.2762 5.99726L60.5881 6.20822L60.229 6.44932L59.6605 7.83562L59.3613 8.13699C59.3613 8.19726 59.3015 8.25753 59.2715 8.25753C59.2715 8.28767 59.1818 8.31781 59.1818 8.34795L59.1219 8.58904C59.1818 8.67945 59.2416 8.76986 59.2715 8.8C59.3613 8.86027 59.481 8.86027 59.5109 8.92055L59.7204 9.16164C59.8101 9.3726 59.6605 9.58356 59.6007 9.67397L59.3613 9.94521C58.7629 10.0959 58.2542 10.1863 57.6259 10.2164C57.2968 10.3069 57.1771 10.5479 57.0574 10.789V10.8493C57.0275 11 56.8779 11.0603 56.818 11.1205C56.818 11.2411 56.848 11.4219 56.6984 11.4521L55.2921 11.3616L54.7236 11.2411C54.6039 11.1205 54.574 11.0603 54.3945 11.0301C54.2449 11 54.1252 10.9096 54.0653 10.7589L53.9756 10.6384L53.8858 10.3973L53.5267 10.0055C53.4669 9.94521 53.4669 9.94521 53.437 9.91507L52.9583 9.55342C52.9283 9.49315 52.9283 9.46301 52.8984 9.3726C52.689 9.22192 52.659 8.89041 52.4496 8.70959C52.2402 8.61918 52.1205 8.49863 51.911 8.49863L51.3126 7.35343L51.2827 7.05205L50.804 6.3589C50.7441 6.26849 50.7142 6.11781 50.5646 6.08767H50.5047C50.2953 5.99726 50.0559 5.99726 49.9961 5.84658C49.9063 5.72603 49.9961 5.54521 49.9961 5.45479C50.026 5.39452 50.026 5.39452 50.0859 5.33425L50.2654 4.73151L50.0559 4.43014L49.3678 4.27945C49.1882 4.36986 49.0087 4.4 48.7693 4.43014C48.3804 4.70137 47.782 4.18904 47.3631 4.61096C47.004 4.82192 46.7646 5.06301 46.5253 5.33425C46.1962 5.72603 45.8371 5.99726 45.4481 6.26849C45.2686 6.26849 45.119 6.3589 45.0292 6.41918L44.6104 6.44932V6.3589C44.3411 6.23836 44.0718 6.14795 43.8025 6.23836L43.6828 6.3589C43.234 6.44932 42.7553 6.26849 42.4261 6.0274L42.1269 5.60548C41.8576 5.27397 41.4687 5.03288 41.2891 4.58082L41.0797 3.8274C41.0199 3.73699 40.96 3.70685 40.9899 3.61644C41.0199 3.5863 41.0797 3.52603 41.0797 3.52603C40.9899 3.10411 41.2891 2.68219 41.0797 2.35069C41.0199 2.29041 40.9899 2.26027 40.96 2.23014C40.96 2.2 40.9301 2.16986 40.9301 2.16986L40.4813 2.10959L39.6435 2.35069C39.0451 2.38082 38.5065 2.35069 37.8483 2.4411C37.549 2.4411 37.3097 2.53151 37.0404 2.56164L36.2325 3.55616L35.8436 4.00822L35.694 4.12877L35.5443 4.21918C35.5443 4.27945 35.5144 4.27945 35.4845 4.30959L34.0184 4.55069L33.0908 5.00274C33.0908 5.00274 33.0908 5.00274 33.0609 5.00274C32.7318 5.15343 32.3129 4.91233 32.0436 4.70137C31.894 4.43014 31.6247 4.30959 31.4452 4.12877C31.2657 4.00822 30.9665 4.00822 30.8169 4.12877L30.5775 4.55069C30.4877 4.79178 30.4877 5.06301 30.3082 5.15343C30.0389 5.06301 29.7696 5.24384 29.5003 5.12329C29.261 5.03288 29.0515 4.88219 28.9618 4.70137C28.872 4.61096 28.6925 4.58082 28.6027 4.52055C28.2437 4.4 27.9744 4.76164 27.6752 4.79178L27.4657 4.70137L27.2862 4.58082L26.9272 3.76712C26.8673 3.73699 26.8374 3.67671 26.7776 3.67671L26.9272 3.52603C26.5083 3.19452 25.9099 3.22466 25.3713 3.19452C25.0122 3.19452 24.6233 3.0137 24.4437 2.7726L24.3241 2.26027L23.7556 1.02466L23.6359 0.693151L23.5461 0.60274C23.3666 0.60274 23.2469 0.512329 23.0973 0.512329C22.828 0.452055 22.6485 0.210959 22.5288 0.030137L22.2595 0H22.1698L22.1398 0.241096C22.1099 0.271233 22.0501 0.271233 22.0501 0.331507L21.8107 0.994521L21.5414 1.29589C21.5115 1.3863 21.4816 1.41644 21.4217 1.50685C21.332 1.77808 21.332 2.01918 21.2422 2.29041C21.2422 2.41096 21.2123 2.62192 21.0627 2.74247L20.7934 3.43562L20.6438 4.67123L20.554 4.76164L20.3745 4.85206C20.2548 4.79178 20.0753 4.76164 20.0155 4.67123L19.8359 4.1589L19.7462 4.03836L19.447 4.1589L19.2974 4.36986L19.2375 5.15343L19.6863 5.39452C19.8359 5.72603 19.7761 6.08767 19.6564 6.41918C19.6564 6.44932 19.5666 6.47945 19.5666 6.50959C19.5367 6.6 19.5068 6.63014 19.4769 6.72055C19.3871 6.90137 19.3871 7.05206 19.2674 7.26301C18.9682 7.59452 18.8485 8.01644 19.058 8.49863L19.1178 8.67945L18.8485 8.98082C18.8485 8.86027 18.8485 8.73973 18.8186 8.64932L18.5493 8.07671L18.3698 8.10685C18.1304 8.13699 17.8312 8.10685 17.6816 8.28767L17.3525 8.70959C17.1431 8.86027 16.9635 9.01096 16.7242 8.89041C16.5446 9.01096 16.425 9.13151 16.3053 9.31233C16.3053 9.34247 16.3053 9.34247 16.2754 9.34247L15.8265 10.1562C15.5573 10.5479 15.4974 10.6986 15.4077 10.8493L15.1384 11.6329C15.0785 11.663 15.0486 11.663 15.0486 11.7233C14.9888 12.326 14.4801 12.4466 14.3006 12.9589L14.0911 13.2301C13.8518 13.3205 13.5526 13.3507 13.3132 13.5315C12.7447 13.6219 12.2061 13.2603 11.6975 13.0192C11.5179 12.989 11.1589 13.0192 11.0392 13.2301L10.9794 14.526C10.9794 14.526 10.9195 14.5562 10.8896 14.5863C10.6203 15.0082 10.0518 14.6466 9.66286 14.7973C9.60302 14.8575 9.5731 14.9178 9.48333 14.9781C9.42349 15.0082 9.42349 15.0082 9.39357 15.0986C9.39357 15.1589 9.48333 15.1589 9.48333 15.189L9.51326 16.0329C9.51326 16.0329 9.51326 16.0329 9.5731 16.0932C9.93215 16.3945 10.4408 16.1836 10.8597 16.1836C11.0691 16.3342 11.2487 16.5151 11.3384 16.7863C11.3983 17.1178 11.3983 17.389 11.5179 17.6301C11.8172 17.9315 12.236 17.811 12.625 17.9315C12.7148 17.9315 12.7148 18.0822 12.8045 18.1123C13.014 18.5342 12.4754 18.8356 12.7148 19.2877L12.8943 19.4986L13.4927 19.4685C13.5226 19.4986 13.5825 19.5288 13.6124 19.5589C13.7022 19.6795 13.7022 19.8603 13.6722 20.0411C13.6722 20.1014 13.6722 20.1315 13.7321 20.1918C13.8518 20.2219 13.9415 20.2219 14.0014 20.3123H14.1211C14.2407 20.2822 14.3006 20.1616 14.3604 20.1315L14.5699 19.8603L14.5998 19.6192L14.8392 19.1671C15.0187 18.9863 15.0187 18.7452 15.258 18.5644C15.3777 18.474 15.6769 18.5644 15.7667 18.6548L15.8864 18.7753C16.036 19.0767 15.9761 19.5288 15.7966 19.7397C15.7966 19.8904 15.6769 20.0712 15.7368 20.1616L16.0061 20.3425H16.1557C16.3053 20.2219 16.425 20.1918 16.5147 20.0712C16.5746 20.0712 16.6045 20.011 16.6643 20.011L16.9635 19.7096H17.2927C17.4423 19.7397 17.6218 19.8 17.6218 19.9205C17.6218 19.9808 17.7415 20.011 17.7415 20.1014L17.6218 20.1918C17.6218 20.2521 17.6218 20.2521 17.562 20.3123L17.4423 20.7342L18.2202 21.0356L18.0706 21.2767C17.9808 21.2466 17.8911 21.2164 17.7714 21.1863C17.6816 21.2466 17.6816 21.3068 17.6218 21.3068L17.4423 21.1863V21.0959C17.4123 21.2767 17.2627 21.3973 17.2029 21.5781C16.9935 21.7589 16.7541 22 16.6045 22.1507C16.5746 22.1507 16.5746 22.211 16.5446 22.2712L16.036 22.874C15.9462 23.0548 15.9462 23.1753 15.8864 23.3562C15.7667 23.4767 15.7667 23.5671 15.6769 23.5973C15.3179 23.8082 14.9588 24.1096 14.4801 24.0192L14.2407 24.2C14.0014 24.3808 13.9415 24.7425 13.8219 25.0438L13.7022 25.3151L13.4628 25.4959L13.2833 25.7671C12.9242 25.9178 12.8943 26.3096 12.625 26.5205H12.4754C12.236 26.611 11.9668 26.611 11.7872 26.8521C11.6676 26.9425 11.5479 27.0027 11.4581 27.1233L11.3683 27.3342L10.9495 27.8466C10.9495 27.8466 10.8896 27.8767 10.8597 27.8767C10.6802 27.9973 10.5006 28.1178 10.4109 28.3288L10.6802 28.4192C11.0991 28.9315 11.1589 29.7452 10.8896 30.3178L11.0093 30.589L11.488 30.8L11.3384 31.011L10.8298 30.8301C10.7101 30.7397 10.7101 30.589 10.6203 30.5589L10.2314 30.5288C10.1117 30.5288 10.0518 30.589 10.0518 30.6192C9.96207 30.8 9.90223 30.9205 9.81246 31.011C9.45341 31.1315 9.03452 31.0712 8.79516 31.4027L8.61563 31.8548C8.52587 31.8849 8.49595 31.9753 8.40619 32.0055L8.43611 32.3973C8.49595 32.4877 8.52587 32.4877 8.52587 32.5479V32.9699L8.40619 33.0603H7.77785L7.62824 33.2411C7.59832 33.2712 7.53848 33.3014 7.53848 33.3616L7.32904 33.9945C7.32904 34.0548 7.29912 34.0548 7.2692 34.0849V34.7178C7.29912 34.8082 7.32904 34.8082 7.32904 34.8384C7.38888 34.8685 7.38888 34.9589 7.32904 34.9589L6.79046 35.1397C6.7007 35.1397 6.67078 35.1397 6.67078 35.1699C6.40149 35.2301 6.25189 35.3205 5.9826 35.2603C5.53379 35.1699 5.1149 35.3507 4.69601 35.1699C4.66609 35.1397 4.60624 35.0795 4.60624 35.0493C4.5464 34.989 4.5464 34.989 4.51648 34.9589C4.33696 34.8082 4.09759 34.9589 3.91807 35.0192L3.73854 35.1096L3.61886 35.7123L3.34957 36.1041C3.1102 36.0438 2.87084 36.1041 2.60155 36.1945C2.33226 36.1945 2.0929 36.0137 1.91337 35.8932C1.64409 35.8932 1.3748 35.863 1.19527 35.9836L0.955907 36.4356L0.596858 36.1945C0.507095 36.1945 0.32757 36.074 0.267729 36.1945C0.207887 36.3151 0.177967 36.4658 0.0882041 36.5562C0.0882041 36.7973 -0.121241 37.0986 0.0882041 37.3096C0.387412 37.4301 0.656699 37.2192 0.925986 37.1589C0.985828 37.1589 0.985828 37.0986 1.01575 37.0685C1.19527 37.0685 1.28504 37.1589 1.40472 37.2192C1.5244 37.5808 1.43464 37.9123 1.40472 38.3041C1.49448 38.6356 1.40472 38.9973 1.43464 39.3288C1.46456 39.3288 1.46456 39.3288 1.5244 39.3288L1.82361 39.2384L1.97321 39.1781C2.0929 39.2986 2.27242 39.3288 2.30234 39.4795C2.33226 39.5096 2.39211 39.5096 2.42203 39.5699C3.08028 39.6603 3.70862 39.6 4.15743 40.0219L4.27712 40.2027C4.33696 40.263 4.3968 40.2932 4.3968 40.3233C4.57632 40.6548 4.84561 40.9863 4.81569 41.3781C4.84561 41.4685 4.90545 41.4685 4.90545 41.5288L5.38419 42.7342C5.38419 43.0055 5.53379 43.337 5.71331 43.4877C5.80308 43.5781 5.80308 43.6685 5.89284 43.7288C5.9826 43.6384 6.07236 43.6082 6.13221 43.6082C6.19205 43.5479 6.19205 43.5178 6.25189 43.5178L6.46133 43.4575L6.8503 43.126L6.94007 43.4575C6.91015 43.4877 6.88023 43.4877 6.8503 43.5178L6.22197 44L6.58102 44.3014L6.88023 44.7233V44.9041C6.8503 44.9041 6.82038 44.9342 6.82038 44.9945L6.73062 45.8082C6.96999 45.8082 7.20935 45.6877 7.44872 45.6877L7.53848 46.0192C7.50856 46.0192 7.50856 45.989 7.47864 45.9589L7.44872 45.9288L6.73062 46.1699C6.7007 46.2 6.67078 46.1699 6.67078 46.2L6.8503 46.7726V47.1342C6.82038 47.1644 6.79046 47.1644 6.76054 47.2247C6.61094 47.5863 6.8503 48.0384 6.52118 48.4C6.31173 48.8219 5.9826 49.0027 5.74324 49.274L5.14482 50.5699C5.08498 50.6301 5.02514 50.6603 5.02514 50.6904C4.96529 50.8411 4.84561 50.9014 4.78577 50.9315L4.45664 51.3836C4.36688 51.5041 4.45664 51.6247 4.36688 51.6849L4.00783 51.7753C3.88815 51.6849 3.76846 51.5945 3.58894 51.6247C3.49918 51.926 3.46925 52.2274 3.6787 52.4685V52.8904C3.61886 52.9206 3.58894 52.9507 3.58894 52.9507V53.1616L3.6787 53.2822C3.6787 53.3726 3.58894 53.3726 3.58894 53.4329L3.49918 53.9452L3.40941 53.9753C3.46925 54.337 3.34957 54.7288 3.40941 55.0904C3.40941 55.2712 3.40941 55.4521 3.31965 55.5425L2.72123 55.874L2.54171 56.2055C2.60155 56.2658 2.63147 56.2658 2.63147 56.326L2.78108 57.3507C2.811 57.4411 2.84092 57.4411 2.84092 57.4411L3.08028 57.9534V58.0137C3.1102 58.1041 3.17005 58.1041 3.17005 58.1644V58.7671C3.40941 58.7671 3.6787 58.8575 3.94799 58.9178V59.2192C3.61886 59.1589 3.31965 59.0986 3.05036 59.1288L3.1102 60.7562L3.40941 61.1479C3.46925 61.7507 3.31965 62.4137 3.49918 63.0164L3.64878 63.4685C3.73854 63.6493 3.64878 63.9507 3.64878 64.1918C3.64878 64.3425 3.76846 64.6438 3.85822 64.8548L4.12751 65.9096C4.18735 66 4.21727 66 4.21727 66.0301C4.36688 66.3014 4.5464 66.5123 4.69601 66.7836C4.87553 67.0849 4.81569 67.4466 4.87553 67.7178C4.96529 67.7781 4.96529 67.8685 4.99521 67.9288C5.23458 68.2904 5.35426 68.6219 5.35426 69.0438L5.56371 69.5863C5.59363 69.6164 5.62355 69.6164 5.65347 69.7069L5.68339 70.9123C5.74323 71.0027 5.77316 71.0027 5.77316 71.0329L5.92276 71.9671C5.95268 72.0274 5.9826 72.0274 5.9826 72.0274L6.19205 72.9014L6.49125 73.0219C6.5511 73.1123 6.5511 73.1123 6.58102 73.1425C6.88023 73.2027 7.17943 73.3534 7.53848 73.3233C7.86761 73.3534 8.16682 73.3233 8.49595 73.3836L8.76523 73.6849C8.61563 73.6849 8.43611 73.6548 8.2865 73.6548C8.25658 73.6548 8.22666 73.6247 8.19674 73.6247L7.9873 73.7151C7.89753 73.8356 8.01722 73.926 8.04714 74.0466C8.10698 74.2575 8.2865 74.3781 8.34634 74.589L9.06444 75.0411C9.12428 75.0411 9.12428 75.0411 9.15421 75.0411H9.33373C9.5731 75.0411 9.69278 75.2822 9.81246 75.4027L9.96207 76.6082C10.0818 76.789 10.1416 77.0603 10.2912 77.2712C10.4109 77.4521 10.4707 77.6027 10.5904 77.8137C10.6802 77.9342 10.74 78.0548 10.8298 78.2055C10.9195 78.5069 11.0991 78.6575 11.129 78.9589C11.2786 79.1699 11.4581 79.411 11.6376 79.5014L12.0565 79.7123L12.3557 80.1644L12.5652 80.6466L12.7447 81.9425C12.8045 82.0329 12.9242 82.063 12.9242 82.1836C13.2234 82.3644 13.5226 82.5753 13.7919 82.8466C13.8817 82.9069 13.9116 82.9973 14.0911 83.0274C14.2108 83.1781 14.3305 83.2685 14.4203 83.4192L14.9289 83.811L15.1982 83.8712C15.2281 83.811 15.2281 83.7507 15.288 83.7507C15.3777 83.7206 15.4077 83.7206 15.4077 83.6904L15.647 83.0877L15.7368 82.9973L16.2155 82.7562L16.8439 82.937C16.9037 82.9973 16.9037 83.0274 16.9037 83.0575L17.0832 83.1479C17.1131 83.2082 17.1431 83.2384 17.1431 83.2685C17.4123 83.4493 17.6218 83.6301 17.921 83.8411C18.1005 83.9315 18.31 84.0822 18.5194 83.9918C18.6092 83.9014 18.7289 83.811 18.8186 83.6904L19.058 83.9616L18.9981 84.1123L19.3273 84.2932L20.0753 85.2274L20.0454 85.7096C19.9257 85.9205 19.8659 86.1918 19.9556 86.4329C20.2249 86.7644 20.8832 86.463 21.1225 86.8247C21.2422 86.9753 21.1524 87.2466 21.0627 87.3973C20.9729 87.4575 20.8832 87.5178 20.8832 87.5781C20.7635 87.6082 20.7036 87.6685 20.6438 87.7288C20.6139 87.789 20.6438 87.8493 20.6438 87.9397C20.9131 88.1205 21.2123 88.0603 21.4816 87.9699L21.691 87.6986C21.8406 87.6685 22.0201 87.6082 22.1099 87.6986C22.1398 87.789 22.2894 87.789 22.3792 87.789C22.6186 87.8493 22.7981 87.9699 23.0075 87.8493L23.7256 86.9753L23.7556 86.7644L24.0248 86.6438C24.1146 86.5836 24.1146 86.5534 24.1146 86.5233C24.2044 86.5233 24.2941 86.463 24.3839 86.5233C24.6532 86.6438 24.7729 86.9753 24.8925 87.1863L24.9524 87.6685C24.9524 87.6986 24.9524 87.6986 25.0122 87.6986L25.2815 87.1863C25.3713 87.126 25.4311 87.0959 25.461 87.0055L25.5807 86.9753L25.7902 87.1863C25.7004 87.3068 25.6106 87.4274 25.6106 87.5781L25.5209 87.8493L25.9398 88.1206C26.1791 88.6329 25.8799 89.2356 26.0595 89.7781C26.4185 90.2301 25.9099 91.074 26.4185 91.4356L26.6579 91.7973L26.7776 92.4904L27.4358 93.6055L27.7051 94.1781C27.7649 94.5096 27.7051 94.9617 27.8846 95.2932C27.9445 95.4438 28.0641 95.474 28.124 95.5342C28.1539 95.5041 28.124 95.4438 28.1539 95.4438C28.1838 95.4137 28.2437 95.3836 28.2736 95.3534L28.4531 95.7452L28.4232 95.7753C28.3634 95.7151 28.3634 95.7151 28.3334 95.6849C28.3035 95.6849 28.2736 95.6849 28.2437 95.6849L28.8122 96.4685C29.0815 96.9206 28.9019 97.5534 29.0216 98.0658C29.0515 98.126 29.0815 98.126 29.0815 98.126L29.261 98.6685C29.5003 98.789 29.7098 98.6384 29.9791 98.6384C30.1885 98.5781 30.2184 98.3068 30.3082 98.1863C30.398 98.1863 30.398 98.0959 30.398 98.0959C30.398 97.9452 30.4578 97.7945 30.5177 97.7342L31.0263 97.5534C31.1161 97.6438 31.2956 97.6438 31.4153 97.7342C31.6247 97.8548 31.7743 98.0356 32.0137 98.126H32.8515L33.1208 98.337L33.3003 99.211L32.5223 99.5425L32.4027 99.9041L32.3428 99.9945V100.085C32.4625 100.266 32.5223 100.507 32.672 100.688C32.7318 100.929 32.8814 101.29 32.672 101.471L32.3727 101.712C32.2531 101.712 32.2531 101.833 32.2231 101.833H32.0436L31.7145 101.622L31.3554 101.17L30.8468 101.079C30.757 101.11 30.757 101.2 30.6673 101.2C30.4578 101.381 30.5775 101.742 30.6673 101.953L30.757 102.074C30.8169 102.164 30.8767 102.164 30.8767 102.225L31.0263 102.405C31.0562 102.405 31.1161 102.405 31.1161 102.496C31.2956 102.797 31.2956 103.189 31.2058 103.551L31.2956 103.732L31.6546 103.942H31.9239L32.2231 103.611L32.3428 103.008L32.4326 102.918C32.4625 102.827 32.5223 102.827 32.5223 102.797C32.5523 102.737 32.5822 102.737 32.642 102.677C33.0011 102.586 33.3003 102.797 33.5696 103.008C33.6593 103.189 33.7192 103.37 33.6593 103.611C33.7491 104.033 33.4798 104.455 33.7192 104.816L34.1082 104.666C34.2578 104.666 34.3774 104.696 34.527 104.575C34.7963 104.575 35.0357 104.726 35.1554 104.847C35.1554 104.937 35.1554 104.937 35.2152 104.997C35.305 105.238 35.3349 105.51 35.1554 105.63L34.8263 105.781V105.901C34.916 105.962 34.9459 105.992 34.9759 106.022H35.1554L35.4247 106.203C35.4546 106.414 35.5443 106.655 35.3947 106.775L35.0357 107.016C34.9759 107.107 35.0357 107.197 35.0357 107.288L35.1554 107.408C35.2152 107.499 35.2751 107.619 35.305 107.74C35.3349 108.011 35.0955 108.162 34.9759 108.282C34.916 108.463 34.9759 108.674 35.1255 108.734C35.1255 108.734 35.1554 108.795 35.1554 108.825C35.3947 109.277 34.8861 109.638 34.9759 110.06C35.2152 110.301 35.6341 110.151 35.9034 110.301C36.1428 110.482 36.3821 110.603 36.5018 110.814C36.5916 110.844 36.7113 110.904 36.8309 110.844C37.0703 110.904 37.19 110.723 37.4294 110.723C37.6089 110.663 37.7884 110.784 37.9679 110.874C38.327 110.964 38.5663 111.145 38.8955 111.115L39.075 110.964C39.075 110.874 39.1648 110.784 39.1648 110.723L39.9128 110.693C39.9726 110.542 39.9726 110.362 40.0923 110.332L40.2718 109.277C40.3018 109.216 40.3616 109.216 40.3616 109.156L40.3915 108.734C40.3018 108.674 40.2419 108.614 40.1821 108.523C40.0923 108.252 40.212 107.921 40.3616 107.679L40.4813 107.077C40.5411 107.047 40.571 106.986 40.571 106.986L40.601 106.504C40.6608 106.323 40.8703 106.293 41.0797 106.233C41.1994 106.233 41.3789 106.353 41.4387 106.444L41.5584 106.715L41.4687 107.468C41.4687 107.499 41.5285 107.499 41.5584 107.499L41.8277 107.137L41.8876 106.956C41.9175 106.956 41.9175 106.896 41.9773 106.866L42.1269 106.323C42.2466 106.233 42.2466 106.082 42.3663 106.082L43.2639 106.173C43.3238 106.112 43.4434 106.082 43.4734 106.022L43.5631 105.721C43.593 105.721 43.593 105.66 43.623 105.66L43.7426 104.726L44.1615 104.485L44.6702 104.334L44.7899 104.153L44.9096 104.033L45.5678 104.153C45.5977 104.425 45.508 104.666 45.6277 104.907C46.0466 105.088 46.4654 105.269 46.9143 105.51C47.004 105.6 47.1237 105.63 47.2434 105.721C47.5725 105.63 47.6324 105.238 47.9316 105.058C47.9615 104.967 47.9615 104.907 48.0512 104.877L49.1284 104.123C49.278 104.184 49.3079 104.184 49.3977 104.274C49.637 104.455 49.7567 104.726 49.6969 104.967L49.4575 105.268C49.4575 105.268 49.4575 105.329 49.4575 105.389C49.4575 105.419 49.5174 105.51 49.5174 105.57C49.4575 105.781 49.2182 105.932 49.0985 106.022L49.0087 106.203C49.0386 106.323 49.0087 106.474 48.9189 106.534C48.8292 106.564 48.7693 106.625 48.7394 106.655C48.7095 106.805 48.6197 106.836 48.5001 106.896L48.3804 107.227L48.6497 107.619L48.889 108.101C48.889 108.162 48.9189 108.162 48.9489 108.222C49.0087 109.458 49.8166 110.332 49.6071 111.658C49.6071 111.718 49.6969 111.718 49.6969 111.748C49.8166 112.26 49.6071 112.803 49.8166 113.225C49.9063 113.345 49.9363 113.466 50.026 113.556C49.9961 113.797 50.1457 113.948 50.2654 114.068H50.5047V114.43C50.2654 114.4 50.0559 114.34 49.8764 114.219L49.6969 113.948C49.6071 113.888 49.637 113.827 49.637 113.737C49.6071 113.647 49.5473 113.647 49.5473 113.616L49.3079 112.984L48.53 113.134L48.2008 113.797L47.393 114.521C47.393 114.581 47.3631 114.581 47.3032 114.641C47.1237 114.701 47.1237 114.882 46.8843 114.882C46.7646 115.003 46.4355 114.912 46.3757 115.093L46.4355 116.63L46.615 116.841L47.8119 117.263L47.9316 117.203L48.0812 117.052C48.2607 116.992 48.3504 116.871 48.4402 116.781L48.5898 116.058L49.0386 115.696L49.2182 115.515C49.2481 115.364 49.278 115.274 49.3977 115.184C49.5772 115.033 49.667 114.852 49.8764 114.762L50.0859 114.852C50.1756 115.003 50.1158 115.274 49.9961 115.364L49.8166 115.515L49.637 115.967C49.7268 116.058 49.7268 116.178 49.8465 116.208L50.0559 116.238C50.1756 116.178 50.2654 116.058 50.415 116.088L50.6843 116.329L50.9236 116.751C51.1929 117.022 51.6118 116.66 52.0008 116.811C52.3598 116.932 52.8086 117.082 52.9283 117.444V117.715C52.8685 117.715 52.8685 117.775 52.8685 117.775C52.8685 117.805 52.9283 117.805 52.9283 117.866C52.9283 117.926 52.8685 117.926 52.8685 117.986L52.9882 118.077L53.5866 118.318C53.7063 118.408 53.826 118.438 53.826 118.559C53.8858 118.589 53.9456 118.589 53.9456 118.649V119.041L53.826 119.373L53.5866 120.036C53.5866 120.066 53.5567 120.096 53.5267 120.096V120.277C53.5567 120.367 53.6464 120.367 53.6464 120.427C53.5866 120.518 53.6764 120.668 53.7063 120.699L54.1551 121C54.2449 121.151 54.3645 121.332 54.3645 121.512C54.185 121.904 54.5141 122.296 54.2748 122.567L53.5567 122.929C53.5866 122.989 53.6165 122.989 53.6165 122.989L53.4669 123.351L52.8984 123.773V124.948C52.8984 125.038 52.9583 125.038 52.9583 125.038C52.9583 125.189 52.9583 125.279 52.9882 125.4C53.0181 125.611 53.3472 125.551 53.4669 125.641C53.4968 125.701 53.5267 125.792 53.6165 125.792C53.8559 126.063 53.5866 126.515 53.9157 126.696L54.4543 126.937L54.6937 127.148C54.9929 127.54 54.574 128.052 54.8433 128.414L54.9031 128.595C54.933 128.625 55.0228 128.625 55.0228 128.685C55.2921 129.288 55.0826 129.921 55.0228 130.523L54.8133 130.885V131.669C54.8732 131.759 54.933 131.849 54.933 131.94L55.0826 132.06H55.1724C55.2921 132.03 55.2921 131.849 55.4118 131.849C55.8007 131.458 56.3094 131.608 56.7881 131.397C56.9676 131.307 57.1472 131.216 57.2668 131.066C57.4763 130.614 57.207 130.071 57.207 129.649C57.1771 129.559 57.1472 129.559 57.1472 129.499V129.318C57.1771 129.288 57.207 129.288 57.207 129.227V128.866L57.0275 128.655C56.9676 128.595 56.9676 128.564 56.9078 128.534C56.5787 128.353 56.3991 128.233 56.0999 128.173C55.9204 128.052 55.6212 127.992 55.5614 127.751C55.5614 127.69 55.6212 127.69 55.6212 127.66C55.6212 127.63 55.681 127.63 55.711 127.6L55.8307 127.359L56.3991 127.058C56.7881 127.058 57.0574 127.359 57.4464 127.449C57.5062 127.449 57.5661 127.449 57.5661 127.419L57.8952 126.816L58.1046 126.786L58.5534 127.058L58.6432 127.721L59.0621 128.142V128.655C59.0322 128.685 59.0023 128.715 59.0023 128.745V128.986L59.2416 129.288C59.4511 129.408 59.6605 129.559 59.8999 129.499L60.4085 129.077L60.5881 129.197C60.8274 129.619 60.8873 130.222 60.8873 130.734C60.9471 130.795 60.977 130.795 60.977 130.855L61.0369 131.337L61.8447 132.06L62.114 132.241C62.4431 132.06 62.5628 131.789 62.7124 131.518C62.892 131.337 62.9518 131.066 63.251 131.066C63.3408 131.005 63.4006 130.915 63.5203 130.855C63.7597 130.764 63.6101 130.493 63.6998 130.312L64.0589 130.011C64.1486 130.011 64.2085 130.011 64.2982 130.071C64.8069 130.132 65.0762 129.679 65.3455 129.438L65.5549 129.107C65.5848 129.077 65.6148 129.047 65.6447 129.016V128.926L65.4951 128.775C65.4951 128.595 65.4651 128.384 65.4352 128.173L65.8541 128.082C65.884 128.173 65.884 128.293 65.884 128.384L66.5124 127.932C66.6021 127.962 66.6919 127.962 66.7817 127.932C67.1108 127.962 67.3202 128.142 67.4698 128.293H67.799C68.0982 128.082 68.2179 127.811 68.5769 127.63C68.7265 127.389 69.0257 127.299 69.2651 127.178C69.2651 127.118 69.3249 127.118 69.3249 127.118L69.2651 126.937C69.0257 126.666 69.0257 126.334 69.1753 126.063L69.5045 125.701V125.46C69.4745 125.4 69.4147 125.4 69.4147 125.31L69.3848 125.068L69.295 124.466L69.8635 124.104C70.1627 124.134 70.2824 124.345 70.5517 124.466C70.7312 124.586 70.8509 124.677 70.8509 124.888L70.9407 125.008C70.9407 125.099 70.8509 125.099 70.8509 125.129V125.31L70.9407 125.46L71.928 125.038L72.7359 124.918L73.2745 124.526C73.2745 124.526 73.3044 124.496 73.3343 124.496C73.6635 124.405 73.9926 124.345 74.2619 124.526C74.3516 124.707 74.5012 124.767 74.5312 124.948C74.8603 125.189 74.6209 125.521 74.7107 125.732C75.4288 125.973 76.087 125.43 76.7453 125.671L77.0445 125.912C77.0445 125.973 77.0445 125.973 77.1343 126.063C77.1343 126.184 77.0445 126.425 76.9547 126.515L76.9248 126.756C76.865 126.786 76.865 126.786 76.865 126.816C77.1343 127.027 77.2839 127.299 77.5831 127.419C78.1815 127.389 78.6901 126.816 79.3484 126.937C79.6476 126.756 79.7075 126.425 79.887 126.153V125.31L80.0067 125.219L80.5153 125.581L80.8744 126.153C81.2035 126.334 81.5326 126.153 81.6822 125.942L81.9216 125.551L83.5074 125.249L83.9263 124.586C84.1656 124.255 84.6444 124.315 84.9735 124.014C85.0333 123.953 85.153 123.833 85.153 123.712C85.153 123.622 85.0932 123.622 85.0932 123.622V123.29L85.3326 122.838C85.0932 122.386 85.3026 121.844 85.3026 121.362C85.3326 120.94 85.2428 120.578 85.0334 120.186C85.153 119.674 84.9735 119.162 85.0932 118.71L85.6318 118.408C85.8412 118.167 85.7514 117.836 85.7514 117.534C85.6318 117.173 85.3924 116.992 85.153 116.841L84.9137 116.751L84.794 116.63L84.4649 115.967C84.3452 115.877 84.2853 115.756 84.1956 115.636C84.0759 115.605 83.9562 115.545 83.9562 115.425C83.9562 115.304 84.016 115.214 84.1058 115.184L84.1956 115.093L84.4948 114.641L84.5845 114.46L84.8239 114.099L85.0034 113.918L85.1231 112.592C84.9436 112.381 84.6743 112.26 84.3751 112.14L84.4349 111.808C84.7341 111.899 85.0034 111.989 85.2129 112.17C85.2428 112.14 85.2727 112.14 85.3326 112.079C85.6019 112.019 85.8113 111.748 86.1105 111.899L86.5593 112.682C87.2475 112.562 87.9357 112.863 88.564 112.562C88.5939 112.471 88.6238 112.411 88.6538 112.381L88.7136 111.808L89.2522 111.447L89.4317 111.115C89.3419 110.844 89.5514 110.482 89.2821 110.332C88.953 110.392 88.5939 110.422 88.2049 110.301C87.9656 110.301 87.8758 110.121 87.7861 109.97C87.6065 109.729 87.5168 109.458 87.6065 109.156C87.6664 109.096 87.6664 109.096 87.6664 109.036V108.312L87.2475 108.192L87.0979 108.071L87.0081 107.408C86.9782 107.348 86.9184 107.348 86.9184 107.318L86.8585 106.896L86.7089 106.715C86.6191 106.715 86.5892 106.685 86.5892 106.685L86.3798 106.353L86.4696 106.233L86.6192 105.479C86.7987 105.178 87.068 105.178 87.3672 105.148L87.4869 104.997V104.304L87.0081 103.43C86.7089 103.159 86.1404 103.4 85.8711 103.099C85.8711 103.068 85.8711 103.069 85.8113 102.978C85.6318 102.556 85.8113 102.195 85.931 101.803C85.931 101.773 85.9908 101.712 86.0207 101.712L86.2302 101.532C86.5593 100.537 86.3199 99.4521 86.2003 98.4877C86.1703 98.3973 86.1105 98.3973 86.1105 98.337L85.9908 97.011C85.931 96.9205 85.931 96.9205 85.8711 96.8301C85.8711 96.6795 85.8711 96.4082 85.9908 96.3178C86.0207 96.1973 86.0207 96.3178 85.931 96.1068C85.8113 96.137 85.7514 96.1068 85.6018 96.1068H85.5719V95.5644C85.6318 95.5644 85.6916 95.5644 85.6916 95.6247L85.9609 95.6849C86.0507 95.3534 85.9609 95.3534 86.1703 95.1726C86.2003 95.1123 86.2003 95.0822 86.2302 95.0822C86.3199 94.9315 86.3798 94.7808 86.5294 94.7507L86.6491 94.5397C87.068 94.2685 87.1577 93.6959 87.1577 93.2438C87.0979 93.0932 87.068 92.9726 87.068 92.7918C87.068 92.611 87.068 92.3699 87.1577 92.189C87.3372 92.0685 87.3672 91.9781 87.6365 91.9781C88.175 91.8575 88.175 92.4301 88.5939 92.5206C88.6837 92.5206 88.6837 92.4603 88.7136 92.4301L89.2223 91.8274L89.4018 90.411C89.4317 90.3507 89.4916 90.3507 89.4916 90.3206V90.1699L89.1026 89.0849L89.0727 88.4219L88.8333 88.3014L88.3845 87.9397L88.0254 87.0658C87.9656 87.0356 87.9057 86.9151 87.8459 86.9753L87.7561 87.6685L87.5766 87.7288C87.5168 87.6685 87.5168 87.6685 87.4869 87.6685C87.3971 87.6685 87.3372 87.6384 87.3372 87.5781C87.3372 87.2164 87.3073 86.7644 87.1278 86.463V86.1616C87.1577 86.0712 87.2176 86.0712 87.2176 86.0411L87.2475 85.6192L87.3672 85.3781C87.4869 84.9562 87.3373 84.4438 87.1278 84.0521L86.9782 83.2384C86.9483 83.1781 86.8884 83.1781 86.8884 83.1178V82.4849C86.9483 82.3945 86.9782 82.3945 86.9782 82.3644C87.068 81.9425 87.3073 81.611 87.3073 81.0986C87.3971 80.074 87.2176 79.1397 87.2774 78.1452C86.9483 77.9342 86.5892 78.1151 86.2003 78.1151L85.9011 77.9342L85.7514 77.7836V77.0904L85.931 76.9096L86.1703 76.6685C86.2003 76.6082 86.2601 76.548 86.29 76.548C86.3798 76.4575 86.4995 76.4274 86.6192 76.3069C86.8585 76.2164 87.038 76.0055 87.2176 75.8548C87.3073 75.2822 87.3372 74.7397 87.1876 74.1973C87.1278 74.1068 87.0979 74.1068 87.0979 74.0466V73.3534C87.1278 73.3233 87.1876 73.263 87.1876 73.263C87.038 73.1425 87.038 72.9014 87.0979 72.7206C87.3073 72.4795 87.3073 72.2082 87.4569 72.0274C87.4869 71.7562 87.5766 71.4247 87.3672 71.1836C87.3073 70.7315 87.1278 70.2192 87.3672 69.7973L86.9782 69.7671V69.4658C87.1577 69.4959 87.3971 69.4356 87.5766 69.4658L87.6365 69.3452C88.1451 68.7726 87.4569 67.9288 87.8459 67.326C88.1152 67.0247 88.5042 67.1452 88.8333 67.2658L89.2223 67.537L89.5215 67.3562C89.8805 66.9945 90.5089 67.4466 90.8679 67.1151L91.197 66.8438L91.7954 65.6082L91.975 65.3069L92.2143 64.5836L92.4836 63.7397L92.6931 63.0164L92.9923 62.1123C92.9923 61.7507 93.2915 61.4493 93.4112 61.2082C93.6206 61.0274 93.86 61.2986 94.0694 61.2986C94.1592 61.4192 94.0994 61.6 94.1592 61.7206C94.3387 61.7507 94.5182 61.6603 94.6379 61.6C94.9072 61.3288 95.1765 61.2685 95.4757 60.9671C95.745 60.726 96.1639 60.937 96.493 60.9973C97.1214 61.2082 97.6001 61.4493 98.1686 61.7507C98.5576 61.9014 98.9465 62.2027 99.3953 62.0219L99.4851 61.811C99.4851 61.7507 99.4851 61.7206 99.4851 61.7206C99.4851 61.6904 99.4851 61.6301 99.3953 61.6301V61.0274C99.2757 60.9069 99.2457 60.6959 99.3056 60.4849C99.3953 60.2438 99.515 60.0027 99.7544 59.9123L100.173 59.4L100.263 59.3096C100.353 59.1589 100.443 58.9781 100.413 58.7671C100.323 58.6164 100.323 58.4959 100.233 58.4055C100.173 58.3452 100.143 58.3151 100.143 58.2849L99.904 57.8932C99.7245 57.7425 99.5449 57.6521 99.3355 57.4712C99.0363 57.3808 98.8568 57.2904 98.6772 57.2C98.5875 57.1096 98.5875 57.0493 98.5276 56.9589C98.4379 56.4466 98.767 56.1151 98.9764 55.7233C99.0363 55.6931 99.0662 55.663 99.0662 55.6329L99.156 55.1808C99.2158 55.1507 99.2457 55.1507 99.2457 55.1205L99.4252 53.7644C99.126 53.4932 98.6473 53.6137 98.2284 53.5836C98.1087 53.5233 98.0489 53.4329 98.0489 53.3123C98.1087 53.2521 98.1686 53.1315 98.1985 53.0712C98.2284 53.011 98.3182 53.011 98.3182 52.9808L98.7371 52.1973L98.9166 51.2932C98.9465 51.263 98.9465 51.2027 99.0064 51.2027C99.0064 51.0521 98.9465 50.8411 99.0961 50.7507L99.6347 50.5397L99.7544 50.3589C99.7544 50.2986 99.8142 50.2986 99.8441 50.2986L99.9938 50.1178L100.353 49.8164C100.443 49.6356 100.502 49.4247 100.592 49.2438C100.802 48.8822 100.951 48.4603 100.951 48.0082C100.981 47.9781 100.981 47.9781 101.041 47.9479L101.071 47.3753C101.131 47.3452 101.161 47.3452 101.161 47.2849L101.37 46.5014L101.609 45.5973L101.879 45.0548L102.118 43.9699C101.46 43.7288 102.088 43.6082 101.998 43.1562ZM7.74793 46.9233V46.8329L7.77785 46.9836C7.77785 46.9534 7.74793 46.9534 7.74793 46.9233ZM28.0342 95.5041L27.9744 95.4438C27.9744 95.474 28.0043 95.5041 28.0342 95.5041Z" fill="white"/>
</g>
<defs>
<clipPath id="clip0">
<rect width="102" height="132" fill="white"/>
</clipPath>
</defs>
</svg>
