<svg width="132" height="132" viewBox="0 0 132 132" fill="none" xmlns="http://www.w3.org/2000/svg">
<path d="M123.75 57.75C120.691 57.75 118.044 59.4 116.6 61.875H109.106C108.281 53.0062 104.741 44.9281 99.3781 38.4313L104.706 33.1031C107.456 33.825 110.516 33.1375 112.681 30.9719C115.912 27.7406 115.912 22.5156 112.681 19.3188C109.45 16.0875 104.225 16.0875 101.028 19.3188C98.8625 21.4844 98.175 24.5438 98.8969 27.2938L93.5688 32.6219C87.0719 27.225 78.9938 23.7188 70.125 22.8937V15.4C72.6 13.9563 74.25 11.3094 74.25 8.25C74.25 3.7125 70.5375 0 66 0C61.4625 0 57.75 3.7125 57.75 8.25C57.75 11.3094 59.4 13.9563 61.875 15.4V22.8937C53.0062 23.7188 44.9281 27.2594 38.4313 32.6219L33.1375 27.2938C33.8594 24.5438 33.1719 21.4844 31.0062 19.3188C27.775 16.0875 22.55 16.0875 19.3531 19.3188C16.1219 22.55 16.1219 27.775 19.3531 30.9719C21.5187 33.1375 24.5781 33.825 27.3281 33.1031L32.6562 38.4313C27.225 44.9281 23.7188 53.0062 22.8937 61.875H15.4C13.9563 59.4 11.3094 57.75 8.25 57.75C3.7125 57.75 0 61.4625 0 66C0 70.5375 3.7125 74.25 8.25 74.25C11.3094 74.25 13.9563 72.6 15.4 70.125H22.8937C23.7188 78.9938 27.2594 87.0719 32.6219 93.5688L27.2938 98.8969C24.5438 98.175 21.4844 98.8625 19.3188 101.028C16.0875 104.259 16.0875 109.484 19.3188 112.681C22.55 115.912 27.775 115.878 30.9719 112.681C33.1375 110.516 33.825 107.456 33.1031 104.706L38.4313 99.3781C44.9281 104.741 53.0062 108.281 61.875 109.106V116.6C59.4 118.044 57.75 120.691 57.75 123.75C57.75 128.288 61.4625 132 66 132C70.5375 132 74.25 128.288 74.25 123.75C74.25 120.691 72.6 118.044 70.125 116.6V109.106C78.9938 108.281 87.0719 104.741 93.5688 99.3781L98.8969 104.706C98.175 107.456 98.8625 110.516 101.028 112.681C104.225 115.878 109.484 115.912 112.681 112.681C115.912 109.45 115.912 104.225 112.681 101.028C110.516 98.8625 107.456 98.175 104.706 98.8969L99.3781 93.5688C104.741 87.0719 108.281 78.9938 109.106 70.125H116.6C118.044 72.6 120.691 74.25 123.75 74.25C128.288 74.25 132 70.5375 132 66C132 61.4625 128.288 57.75 123.75 57.75ZM52.3531 63.9375C48.3656 63.9375 45.1344 60.7062 45.1344 56.7188C45.1344 52.7313 48.3656 49.5 52.3531 49.5C56.3406 49.5 59.5719 52.7313 59.5719 56.7188C59.5719 60.7062 56.3063 63.9375 52.3531 63.9375ZM70.125 88.6875C65.5875 88.6875 61.875 84.975 61.875 80.4375C61.875 75.9 65.5875 72.1875 70.125 72.1875C74.6625 72.1875 78.375 75.9 78.375 80.4375C78.375 84.975 74.6625 88.6875 70.125 88.6875ZM84.5625 59.8125C81.1594 59.8125 78.375 57.0281 78.375 53.625C78.375 50.2219 81.1594 47.4375 84.5625 47.4375C87.9656 47.4375 90.75 50.2219 90.75 53.625C90.75 57.0281 87.9656 59.8125 84.5625 59.8125Z" fill="white"/>
</svg>
