<svg width="101" height="68" viewBox="0 0 101 68" fill="none" xmlns="http://www.w3.org/2000/svg">
<path d="M97.0355 21.3917C97.0355 21.675 97.0355 21.9583 96.9411 22.2417L90.7112 47.175C90.3808 48.45 89.2481 49.3 87.9738 49.3L50.5944 49.4889H13.215C11.8935 49.4889 10.7607 48.5917 10.4776 47.3167L4.24766 22.2889C4.20047 22.0056 4.15327 21.7222 4.15327 21.4389C1.74626 20.6833 0 18.4167 0 15.7722C0 12.5139 2.69019 9.82222 5.94673 9.82222C9.20327 9.82222 11.8935 12.5139 11.8935 15.7722C11.8935 17.6139 11.0439 19.2667 9.72243 20.3528L17.5098 28.2389C19.4921 30.2222 22.2294 31.3556 25.014 31.3556C28.3178 31.3556 31.4799 29.7972 33.4622 27.1528L46.2995 10.1528C45.214 9.06667 44.5533 7.60278 44.5533 5.95C44.5533 2.69167 47.2435 0 50.5 0C53.7565 0 56.4467 2.69167 56.4467 5.95C56.4467 7.55556 55.8332 8.97222 54.7949 10.0583L67.5379 27.1056C69.5201 29.75 72.6822 31.3556 75.986 31.3556C78.8178 31.3556 81.4608 30.2694 83.443 28.2389L91.2776 20.4C89.9089 19.3139 89.0593 17.6611 89.0593 15.7722C89.0593 12.5139 91.7495 9.82222 95.0061 9.82222C98.3098 9.82222 100.953 12.5139 100.953 15.7722C101 18.3694 99.3481 20.5417 97.0355 21.3917ZM90.0977 58.3667C90.0977 56.8083 88.8234 55.5333 87.2659 55.5333H14.0173C12.4598 55.5333 11.1855 56.8083 11.1855 58.3667V65.1667C11.1855 66.725 12.4598 68 14.0173 68H87.2659C88.8234 68 90.0977 66.725 90.0977 65.1667V58.3667Z" fill="white"/>
</svg>
