<svg width="129" height="127" viewBox="0 0 129 127" fill="none" xmlns="http://www.w3.org/2000/svg">
<g clip-path="url(#clip0)">
<path d="M25.9003 69.668C26.638 72.0775 27.4021 74.5657 27.7973 77.0538C27.9554 78.0753 28.5614 85.4873 28.904 89.5731C29.0357 91.1446 30.2214 92.4017 31.7759 92.6375L37.2299 93.4494C38.0204 93.5541 38.6527 94.1565 38.7845 94.9423L39.4959 98.5828C39.812 100.18 41.2085 101.307 42.8421 101.307L85.0516 101.28C86.6589 101.28 88.029 100.18 88.3715 98.6352L89.1883 94.8899C89.3727 94.1565 89.9787 93.5803 90.7428 93.4756L97.3562 92.5065C98.937 92.2708 100.149 90.9612 100.254 89.3636C100.518 85.173 100.992 77.5515 101.124 76.5038C101.466 74.0419 102.204 71.6061 102.916 69.2227C103.917 65.8965 104.944 62.4655 104.944 58.9035C104.944 36.1174 86.7379 17.6003 64.3421 17.6003C41.9462 17.6003 23.7397 36.1435 23.7397 58.9297C23.7397 62.6488 24.82 66.2108 25.9003 69.668ZM69.6117 67.5727C69.8752 61.1035 75.6981 59.4797 82.206 59.7416C88.714 60.0035 93.4303 62.0464 93.1668 68.5156C92.9034 74.9847 87.423 80.0134 80.915 79.7777C74.4334 79.4896 69.3482 74.0419 69.6117 67.5727ZM65.7912 80.2753L70.0069 86.4826C70.3758 87.0326 70.4285 87.7397 70.1386 88.3421L69.5326 89.5993C69.2165 90.2541 68.5578 90.6469 67.8464 90.6469H60.6007C59.8893 90.6469 59.2306 90.2279 58.9144 89.5993L58.3084 88.3421C58.0185 87.7397 58.0712 87.0326 58.4401 86.4826L62.6558 80.2753C63.4199 79.1753 65.0535 79.1753 65.7912 80.2753ZM46.4254 59.7416C52.9334 59.4797 58.7826 61.1035 59.0198 67.5727C59.2832 74.0419 54.1981 79.4896 47.6901 79.7515C41.1821 80.0134 35.7018 74.9586 35.4383 68.4894C35.2011 62.0202 39.9174 59.9773 46.4254 59.7416Z" fill="white"/>
<path d="M117.275 11.655C117.776 8.56446 116.827 5.29059 114.429 2.90721C110.556 -0.916672 104.259 -0.995245 100.333 2.75006C96.223 6.65252 96.144 13.1479 100.149 17.1289L96.4601 20.7956C94.9846 22.2623 94.9846 24.6195 96.4601 26.0862L102.731 32.3197C104.206 33.7864 106.578 33.7864 108.053 32.3197L111.742 28.6529C115.747 32.634 122.281 32.5816 126.207 28.4696C129.975 24.5409 129.896 18.2813 126.049 14.4574C123.678 12.1002 120.384 11.1574 117.275 11.655Z" fill="white"/>
<path d="M17.258 28.6791L20.9467 32.3458C22.4222 33.8125 24.7936 33.8125 26.2691 32.3458L32.5399 26.1123C34.0154 24.6456 34.0154 22.2885 32.5399 20.8218L28.8512 17.155C32.8561 13.174 32.8034 6.67864 28.6667 2.77619C24.7145 -0.969122 18.4173 -0.890549 14.5705 2.93333C12.1729 5.31671 11.2243 8.59058 11.7249 11.6811C8.61587 11.1835 5.32236 12.1264 2.92469 14.5097C-0.922121 18.3336 -0.974817 24.5933 2.7666 28.5219C6.71881 32.6077 13.2531 32.6601 17.258 28.6791Z" fill="white"/>
<path d="M126.233 98.4779C122.308 94.3921 115.773 94.3136 111.768 98.2946L108.08 94.6279C106.604 93.1612 104.233 93.1612 102.757 94.6279L96.4865 100.861C95.011 102.328 95.011 104.685 96.4865 106.152L100.175 109.819C96.1703 113.8 96.223 120.295 100.36 124.197C104.312 127.943 110.609 127.864 114.456 124.04C116.854 121.657 117.802 118.383 117.301 115.293C120.411 115.79 123.704 114.847 126.102 112.464C129.922 108.666 129.975 102.407 126.233 98.4779Z" fill="white"/>
<path d="M11.7247 115.319C11.2241 118.409 12.1726 121.683 14.5703 124.066C18.4435 127.89 24.7407 127.969 28.6665 124.224C32.7768 120.321 32.8559 113.826 28.851 109.845L32.5397 106.178C34.0152 104.711 34.0152 102.354 32.5397 100.887L26.2688 94.654C24.7934 93.1873 22.422 93.1873 20.9465 94.654L17.2578 98.3207C13.2529 94.3397 6.7186 94.3921 2.79274 98.5041C-0.975028 102.433 -0.895984 108.692 2.95083 112.516C5.32215 114.9 8.61566 115.842 11.7247 115.319Z" fill="white"/>
</g>
<defs>
<clipPath id="clip0">
<rect width="129" height="127" fill="white"/>
</clipPath>
</defs>
</svg>
