<svg width="73" height="103" viewBox="0 0 73 103" fill="none" xmlns="http://www.w3.org/2000/svg">
<g clip-path="url(#clip0)">
<path d="M53.7747 17.4481C53.7747 27.0164 45.9732 34.8962 36.4999 34.8962C27.0266 34.8962 19.2251 27.0164 19.2251 17.4481C19.2251 7.87978 27.0266 0 36.4999 0C45.9732 0 53.7747 7.87978 53.7747 17.4481Z" fill="white"/>
<path d="M36.4995 54.0326C44.0224 54.0326 49.8736 47.8414 49.8736 40.5244H23.1255C23.1255 47.8414 29.2553 54.0326 36.4995 54.0326Z" fill="white"/>
<path d="M56.5611 40.5241C56.5611 50.3738 49.3168 58.8164 39.8435 60.505V76.8274C39.8435 85.27 33.4351 92.5869 25.0763 93.1498C16.4389 93.7126 9.19466 86.9585 8.6374 78.5159C6.4084 77.1088 5.01527 74.576 5.57252 71.4804C6.12977 68.9476 8.35878 66.6962 10.8664 66.1334C15.0458 65.2891 18.6679 68.6662 18.6679 72.6061C18.6679 75.1389 17.2748 77.1088 15.6031 78.2345C16.1603 83.0186 20.3397 86.6771 25.355 86.1143C30.0916 85.8328 33.4351 81.3301 33.4351 76.8274V60.2236C23.9618 58.535 16.7176 50.3738 16.7176 40.2427C7.24427 41.6498 0 49.811 0 59.3793V94.5569C0 99.341 3.62214 103 8.35878 103H64.9198C69.6565 103 73.2786 99.341 73.2786 94.5569V59.3793C73.2786 49.811 66.0343 41.6498 56.5611 40.5241Z" fill="white"/>
</g>
<defs>
<clipPath id="clip0">
<rect width="73" height="103" fill="white"/>
</clipPath>
</defs>
</svg>
