<svg width="152" height="133" viewBox="0 0 152 133" fill="none" xmlns="http://www.w3.org/2000/svg">
<path d="M50.2989 30.4047C58.6344 30.4047 65.4172 23.5842 65.4172 15.2023C65.4172 6.82051 58.6344 0 50.2989 0C41.9635 0 35.1807 6.82051 35.1807 15.2023C35.1807 23.5842 41.9635 30.4047 50.2989 30.4047Z" fill="white"/>
<path d="M51.5663 98.199C51.4028 98.0347 51.1577 97.9525 50.9125 98.0347C50.6674 98.1169 50.5039 98.2812 50.4631 98.5277L44.62 124.125C44.1706 126.015 44.4975 127.946 45.519 129.59C46.5405 131.233 48.134 132.384 49.9727 132.836C50.5039 132.959 51.076 133.041 51.6071 133.041C54.9577 133.041 57.8179 130.74 58.5942 127.453L62.5985 109.786C62.6394 109.58 62.5985 109.334 62.4351 109.169L51.5663 98.199Z" fill="white"/>
<path d="M36.693 83.7773L31.8715 78.9701L30.8908 79.1345C29.665 79.4221 29.1338 79.0523 28.6435 78.6003C28.1532 78.1894 25.4156 75.8064 25.4156 75.8064C25.2521 75.6831 25.007 75.6831 24.8435 75.7653C24.6392 75.8475 24.5166 76.0118 24.4758 76.2172L23.9037 78.7236L1.30803 119.359C0.204805 120.961 -0.203797 122.851 0.123085 124.783C0.449967 126.673 1.51233 128.357 3.10588 129.425C4.33169 130.288 5.72093 130.74 7.1919 130.74C9.56179 130.74 11.7682 129.59 13.1166 127.659L36.8156 84.6402C37.0199 84.3526 36.9381 84.0238 36.693 83.7773Z" fill="white"/>
<path d="M92.7531 114.469C92.7122 114.346 92.6714 114.223 92.5897 114.141L81.394 102.883C81.1488 102.636 80.7402 102.636 80.4542 102.883L74.938 108.471L51.4843 84.9276L74.4069 63.2335C76.409 61.3434 76.7359 58.303 75.1832 56.0021L62.5574 37.5127C61.7402 36.2801 60.4735 35.4584 59.0026 35.1707L35.3854 30.0759H35.3445C34.9768 29.9937 34.5682 29.9526 34.2004 29.9526C33.138 29.9526 32.1165 30.2402 31.2176 30.8155L9.64342 44.5798C8.21331 45.4837 7.27353 47.0039 7.11009 48.6885C6.90579 50.3731 7.51869 52.0577 8.70364 53.2492L26.4778 71.1222C27.5402 72.1905 28.9294 72.7657 30.4004 72.7657C30.809 72.7657 31.2176 72.7247 31.6671 72.6014L32.1983 72.4781L71.4649 111.963L65.9079 117.551C65.6628 117.798 65.6628 118.208 65.9079 118.496L77.1036 129.754C77.1854 129.836 77.3079 129.918 77.4305 129.918C78.1251 130.042 81.68 130.699 85.2348 130.699C88.5445 130.699 90.7509 130.124 91.895 128.973C93.2843 127.576 93.8155 124.782 93.5703 120.386C93.3251 117.51 92.8757 114.963 92.7531 114.469ZM44.3746 76.2993L43.6391 76.9977L35.6714 69.0268L35.794 68.4926C36.2434 66.6026 35.7122 64.6304 34.323 63.2335L21.452 50.2909L25.2929 47.8668L37.5101 60.1108C39.3897 62.0008 40.452 64.5483 40.4112 67.2189C40.4112 67.3833 40.4929 67.5476 40.6155 67.6709L43.3122 70.3827C43.5574 70.6292 43.966 70.6292 44.2112 70.3827L56.7144 58.5495C56.837 58.4673 56.8778 58.303 56.9187 58.1797L58.1854 50.8251L63.3337 58.3851L44.3746 76.2993Z" fill="white"/>
<path d="M59.125 82.2982C58.8798 82.0928 58.5121 82.0928 58.2669 82.3393L55.9787 84.5169C55.8561 84.6402 55.7744 84.8046 55.7744 84.9689C55.7744 85.1333 55.8561 85.3387 55.9787 85.462L66.4798 96.0214C66.6024 96.1447 66.7658 96.2269 66.9293 96.2269C66.9701 96.2269 67.0518 96.2269 67.0927 96.1858C67.3379 96.1036 67.5013 95.9392 67.5422 95.6927V95.6516C68.3185 92.3646 67.1336 88.8722 64.5594 86.7767L59.125 82.2982Z" fill="white"/>
<path d="M151.878 129.138L149.672 124.988C149.59 124.824 149.467 124.7 149.304 124.577L147.016 123.139C146.771 122.975 146.444 122.934 146.158 123.016L143.42 117.346C143.379 117.223 143.297 117.14 143.175 117.058C142.889 116.812 142.439 116.771 142.112 116.935L140.846 117.51L139.743 114.881C139.661 114.634 139.457 114.47 139.211 114.387L135.534 113.442L134.553 109.293C134.512 109.087 134.349 108.882 134.145 108.758L128.547 105.677C128.302 105.554 128.016 105.554 127.771 105.677L122.826 108.307L119.517 108.183L114.246 103.171C114.001 102.924 113.592 102.883 113.265 103.047L106.074 107.238C105.91 107.362 105.747 107.526 105.706 107.69L103.663 114.429L99.9039 118.989C99.8222 119.071 99.7813 119.195 99.7405 119.318L97.2071 129.672C97.1663 129.919 97.2071 130.165 97.3706 130.37C97.534 130.576 97.7792 130.699 98.0243 130.699H150.979C151.347 130.699 151.715 130.494 151.878 130.165C152.042 129.877 152.042 129.467 151.878 129.138Z" fill="white"/>
</svg>
