<svg width="93" height="93" viewBox="0 0 93 93" fill="none" xmlns="http://www.w3.org/2000/svg">
<g clip-path="url(#clip0)">
<path d="M86.6305 -2.78421e-07L6.34531 -3.7878e-06C2.85782 -3.94024e-06 -1.24919e-07 2.85781 -2.78421e-07 6.36953L-4.78503e-07 10.9469L93 10.9469L93 6.36953C93 2.85781 90.1422 -1.24919e-07 86.6305 -2.78421e-07Z" fill="white"/>
<path d="M93 86.656L93 82.0786L0 82.0786L-2.00082e-07 86.656C-3.53584e-07 90.1677 2.85781 93.0255 6.36953 93.0255L86.6305 93.0255C90.1422 93.0013 93 90.1435 93 86.656Z" fill="white"/>
<path d="M81.8109 49.2131C80.3094 49.2131 79.0742 48.0022 79.0742 46.5006C79.0742 44.9991 80.2852 43.7639 81.8109 43.7639L93 43.7639L93 16.3967L0 16.3967L-1.19732e-06 43.7881L11.1891 43.7881C12.6906 43.7881 13.9258 44.9991 13.9258 46.5248C13.9258 48.0264 12.7148 49.2373 11.1891 49.2373L-1.43551e-06 49.2373L-2.63283e-06 76.6287L93 76.6287L93 49.2131L81.8109 49.2131ZM22.5234 49.2131C21.0219 49.2131 19.7867 48.0022 19.7867 46.5006C19.7867 44.9991 20.9977 43.7639 22.5234 43.7639L30.7578 43.7639C32.2594 43.7639 33.4945 44.9748 33.4945 46.5006C33.4945 48.0022 32.2836 49.2131 30.7578 49.2131L22.5234 49.2131ZM42.3828 49.2131C40.8812 49.2131 39.6461 48.0022 39.6461 46.5006C39.6461 44.9991 40.857 43.7639 42.3828 43.7639L50.6172 43.7639C52.1188 43.7639 53.3539 44.9748 53.3539 46.5006C53.3539 48.0022 52.143 49.2131 50.6172 49.2131L42.3828 49.2131ZM62.2422 49.2131C60.7406 49.2131 59.5055 48.0022 59.5055 46.5006C59.5055 44.9991 60.7164 43.7639 62.2422 43.7639L70.4766 43.7639C71.9781 43.7639 73.2133 44.9748 73.2133 46.5006C73.2133 48.0022 72.0023 49.2131 70.4766 49.2131L62.2422 49.2131Z" fill="white"/>
</g>
<defs>
<clipPath id="clip0">
<rect width="93" height="93" fill="white" transform="translate(93) rotate(90)"/>
</clipPath>
</defs>
</svg>
