<svg width="151" height="82" viewBox="0 0 151 82" fill="none" xmlns="http://www.w3.org/2000/svg">
<path d="M64.1503 16.6101C64.1503 16.4246 64.1503 16.239 64.3354 16.0534L65.8466 13.6098C66.2167 13.053 66.5868 12.8674 66.9877 12.8674C67.3578 12.8674 67.913 13.2386 68.6532 13.6098L85.6469 26.5392L65.8466 18.3114C64.7055 17.9093 64.1503 17.3525 64.1503 16.6101ZM72.5392 1.60826C72.1691 1.60826 71.799 1.79385 71.3981 2.16503L68.9616 4.60863C68.5915 4.97982 68.4065 5.351 68.4065 5.90777C68.4065 6.65013 68.9616 7.42342 69.9177 7.94926L90.8282 24.0647L74.7598 3.09298C73.8346 2.1341 73.3102 1.60826 72.5392 1.60826ZM151 38.6954V70.1839H117.013V77.7003C117.013 78.9994 116.087 79.9274 114.792 79.9274H102.826C101.53 79.9274 100.605 78.9994 100.605 77.7003V47.6965C100.605 44.8817 100.975 42.6547 102.455 39.6543L117.013 9.09373C118.678 5.53659 123.366 2.53621 127.314 2.53621H150.846V12.2488H131.786C127.499 12.2488 125.802 13.3932 123.767 17.5072L113.867 38.6954H151ZM123.366 53.6664C123.366 49.7071 120.189 46.3355 116.057 46.3355C111.924 46.3355 108.747 49.7071 108.747 53.6664C108.747 57.6256 111.924 60.9972 116.057 60.9972C120.004 60.9972 123.366 57.6256 123.366 53.6664ZM86.9114 47.2944V63.812C86.9114 67.9568 84.1048 69.4415 80.743 69.4415H66.741C66.3709 76.3702 60.5727 81.9998 53.4792 81.9998C46.3856 81.9998 40.5874 76.3702 40.0014 69.4415H0V6.27895H30.4714C34.2032 6.27895 37.935 8.50603 40.1556 12.4653L53.2324 32.8802L78.8309 38.6954C85.431 39.8399 86.7263 43.9538 86.9114 47.2944ZM42.6538 33.0658L34.2649 19.0228C32.5995 16.208 30.1321 14.1356 26.5854 14.1356H8.63562V33.0658H42.6538ZM60.7886 68.1115C60.7886 64.1522 57.6119 60.9972 53.6951 60.9972C49.5623 60.9972 46.3856 64.1831 46.3856 68.1115C46.3856 72.0707 49.7473 75.4423 53.6951 75.4423C57.6428 75.4423 60.7886 72.0398 60.7886 68.1115ZM88.3917 0.0926021L85.5852 0.834964C85.03 1.02055 84.845 1.20614 84.6599 1.76292C84.4749 2.1341 84.6599 2.90739 85.03 3.43323L93.0488 23.2914L90.2731 2.10316C90.088 0.463783 89.3787 -0.278579 88.3917 0.0926021Z" fill="white"/>
</svg>
