<svg width="124" height="124" viewBox="0 0 124 124" fill="none" xmlns="http://www.w3.org/2000/svg">
<g clip-path="url(#clip0)">
<path d="M75.6271 54.4761H48.4052C21.5062 54.4761 0 89.7063 0 116.476C0 125.033 0 115.443 0 124H124C124 118.026 124 123.096 124 116.476C124 89.8355 102.623 54.4761 75.6271 54.4761ZM75.6271 61.7417C82.2146 61.7417 89.0281 64.6802 95.2604 70.0084H80.5677C78.3396 66.973 75.8854 64.1959 73.3021 61.7417H75.6271ZM48.3729 61.7417H50.7302C48.1469 64.1959 45.6927 66.973 43.4646 70.0084H28.7719C35.0042 64.6802 41.7854 61.7417 48.3729 61.7417ZM27.2219 116.476C27.2219 116.831 29.45 116.734 7.29792 116.734C7.29792 114.119 7.49167 111.535 8.00833 108.468H27.8354C27.4156 111.213 27.2219 113.893 27.2219 116.476ZM29.1917 101.138H9.65521C10.4625 98.3605 11.4635 95.5834 12.626 92.8709H31.6135C30.6771 95.648 29.8375 98.425 29.1917 101.138ZM16.275 85.573C18.0187 82.5375 19.8271 79.825 21.8292 77.3063H38.7177C37.1677 79.9865 35.7792 82.7313 34.5198 85.573H16.275ZM89.4802 116.702C30.2896 116.702 34.5198 116.831 34.5198 116.444C34.5198 98.2959 46.1771 71.6552 62 62.2584C77.6937 71.623 89.4802 98.0698 89.4802 116.702ZM85.2823 77.3063H102.171C104.173 79.825 105.981 82.5375 107.725 85.573H89.4802C88.2531 82.7636 86.8323 79.9865 85.2823 77.3063ZM116.702 116.476C116.702 116.831 118.93 116.734 96.7781 116.734C96.7781 114.151 96.6167 111.535 96.1969 108.468H116.024C116.476 111.18 116.702 113.893 116.702 116.476ZM114.345 101.138H94.8083C94.1625 98.3928 93.3552 95.6157 92.3865 92.8709H111.374C112.536 95.6157 113.537 98.3605 114.345 101.138Z" fill="white"/>
<path d="M11.4313 38.4271H50.3427C56.6396 38.4271 61.774 33.2927 61.774 26.9958C61.774 21.1833 57.35 15.5646 49.7615 15.5646C48.0177 6.71667 40.2354 0 30.8708 0C21.5062 0 13.724 6.71667 12.0125 15.5646C4.52083 15.5646 0 21.1187 0 26.9958C0 33.2927 5.13438 38.4271 11.4313 38.4271Z" fill="white"/>
<path d="M91.1921 38.427H112.601C118.898 38.427 124.033 33.2926 124.033 26.9958C124.033 21.2479 119.738 16.4687 114.184 15.6937C113.409 10.1395 108.63 5.84473 102.882 5.84473C97.166 5.84473 92.4192 10.0749 91.5796 15.5645C84.4108 15.5645 79.7931 21.0541 79.7931 26.9958C79.7608 33.2926 84.8629 38.427 91.1921 38.427Z" fill="white"/>
</g>
<defs>
<clipPath id="clip0">
<rect width="124" height="124" fill="white"/>
</clipPath>
</defs>
</svg>
