<svg width="119" height="119" viewBox="0 0 119 119" fill="none" xmlns="http://www.w3.org/2000/svg">
<g clip-path="url(#clip0)">
<path d="M87.9286 87.3526C60.8571 114.919 39.1429 119 28.5714 119C25.1429 119 22.9286 118.57 22.2143 118.356C21.7143 118.284 21.2857 118.069 20.8571 117.711C20.6429 117.568 20.5 117.353 20.2857 117.138L10.7857 104.465C8.42857 101.315 9 96.7323 12.1429 94.2978L33.8571 77.5433C35.1429 76.5409 36.6429 76.0397 38.2857 76.0397C40.5714 76.0397 42.7857 77.1137 44.1429 78.9753L52.3571 90.0018C59.7857 86.7082 67.2143 81.3382 74.4286 73.9633C81.7143 66.5169 87 58.9988 90.2857 51.4091L79.3571 42.9603C76.2143 40.5259 75.5714 35.9434 78 32.793L94.5 10.6685C95.8571 8.80686 98.0714 7.73285 100.357 7.73285C102 7.73285 103.5 8.23406 104.786 9.23646L117.214 18.8309C117.429 18.9741 117.643 19.1889 117.857 19.4037C118.143 19.7617 118.286 20.1913 118.429 20.6209C119.071 23.3418 124.071 50.5499 87.9286 87.3526ZM19.0714 57.8532C19.0714 59.4284 20.3571 60.7172 21.9286 60.7172H38.5714C40.1429 60.7172 41.4286 59.4284 41.4286 57.8532V41.5283H57.6429C59.2143 41.5283 60.5 40.2395 60.5 38.6643V21.9813C60.5 20.4061 59.2143 19.1173 57.6429 19.1173H41.4286V2.86402C41.4286 1.28881 40.1429 0 38.5714 0H21.9286C20.3571 0 19.0714 1.28881 19.0714 2.86402V19.1173H2.85714C1.28571 19.1173 0 20.4061 0 21.9813V38.6643C0 40.2395 1.28571 41.5283 2.85714 41.5283H19.0714V57.8532Z" fill="white"/>
</g>
<defs>
<clipPath id="clip0">
<rect width="119" height="119" fill="white"/>
</clipPath>
</defs>
</svg>
