<svg width="112" height="113" viewBox="0 0 112 113" fill="none" xmlns="http://www.w3.org/2000/svg">
<path d="M91.5706 58.014C91.5706 64.0675 86.7779 68.8599 80.7238 68.8599C74.6697 68.8599 69.877 64.0675 69.877 58.014C69.877 51.9604 74.6697 47.168 80.7238 47.168C86.7779 47.168 91.5706 51.9604 91.5706 58.014Z" fill="white"/>
<path d="M108.975 59.0226C106.452 58.0136 103.93 59.2748 102.921 61.7971L96.8666 78.1922L55.7494 65.3284L62.308 51.9601C63.317 49.69 62.5602 46.9154 60.0377 45.6543C57.7675 44.3931 54.9927 45.402 53.7314 47.9244L44.9026 66.0851C44.3981 67.3462 44.3981 68.8596 44.9026 70.1208C45.4071 71.3819 46.4161 72.3909 47.9296 72.6431L54.7404 74.661L38.5963 83.9936L27.7494 87.0203H27.4972L12.6143 68.6074C10.0918 65.5806 5.8035 65.0761 2.77647 67.5985C-0.250558 70.1208 -0.755063 74.4087 1.76746 77.4355L19.6774 99.6319C20.9386 101.398 22.9566 102.154 25.2269 102.154C25.9837 102.154 26.4882 102.154 27.2449 101.902L28.7584 101.398L40.8666 111.235C42.1278 112.244 43.6413 112.748 45.4071 112.748C46.9206 112.748 48.4341 112.244 49.9476 111.235L63.0648 100.641L84.5062 83.9936L98.8846 88.5337C99.3891 88.786 99.8936 88.786 100.398 88.786C102.416 88.786 104.182 87.5248 104.939 85.7592L112.506 65.0761C112.758 62.5538 111.497 60.0315 108.975 59.0226Z" fill="white"/>
<path d="M96.1113 45.4015C96.1113 46.4104 97.1203 47.4194 98.1294 47.4194C99.1384 47.4194 100.147 46.4104 100.147 45.4015V14.6292C100.147 13.6203 99.1384 12.6113 98.1294 12.6113C97.1203 12.6113 96.1113 13.6203 96.1113 14.6292V45.4015Z" fill="white"/>
<path d="M93.0829 32.7902V2.01786C93.0829 1.00893 92.0739 0 91.0649 0C90.0559 0 89.0469 1.00893 89.0469 2.01786V32.7902C89.0469 33.7991 90.0559 34.808 91.0649 34.808C92.3262 34.808 93.0829 33.7991 93.0829 32.7902Z" fill="white"/>
<path d="M23.9648 38.0867V68.859C23.9648 69.868 24.9739 70.8769 25.9829 70.8769C26.9919 70.8769 28.0009 69.868 28.0009 68.859V38.0867C28.0009 37.0778 26.9919 36.0688 25.9829 36.0688C24.9739 36.0688 23.9648 37.0778 23.9648 38.0867Z" fill="white"/>
<path d="M31.0293 25.4754V56.2477C31.0293 57.2566 32.0383 58.2656 33.0473 58.2656C34.0563 58.2656 35.0653 57.2566 35.0653 56.2477V25.4754C35.0653 24.4664 34.0563 23.4575 33.0473 23.4575C32.0383 23.4575 31.0293 24.4664 31.0293 25.4754Z" fill="white"/>
</svg>
