<svg width="114" height="150" viewBox="0 0 114 150" fill="none" xmlns="http://www.w3.org/2000/svg">
<path d="M68.4941 86.6406H5.4436V99.8047H68.4941V86.6406Z" fill="white"/>
<path d="M68.4941 108.594H5.4436V150H68.4941V108.594Z" fill="white"/>
<path d="M94.9282 42.4609V60.3906C91.3253 61.9531 88.7406 65.4297 88.4273 69.5312L87.9966 75.2734H110.632L110.201 69.5312C109.888 65.3906 107.303 61.9531 103.7 60.3906V42.4609C103.7 26.4062 90.5812 13.3203 74.4857 13.3203H66.2618C64.617 9.92187 61.1316 7.61719 57.1371 7.61719H46.9942V0H0.704912V10.1172L20.325 17.7344L0 24.4922L2.78049 32.8125L26.7475 24.8438V36.4453H26.4734C14.8815 36.4453 5.44349 45.8203 5.44349 57.4219V77.8516H68.494V57.4219C68.494 45.8594 59.0952 36.4453 47.4641 36.4453H46.9942V27.8516H57.1762C61.2099 27.8516 64.6561 25.5078 66.3009 22.1484H74.5249C85.7643 22.1484 94.9282 31.25 94.9282 42.4609Z" fill="white"/>
<path d="M111.298 84.1016H87.3308L84.6287 120.156H113.961L111.298 84.1016Z" fill="white"/>
</svg>
