<svg width="102" height="136" viewBox="0 0 102 136" fill="none" xmlns="http://www.w3.org/2000/svg">
<g clip-path="url(#clip0)">
<path d="M101.708 79.6349C100.141 59.3411 90.7109 46.6443 82.3703 35.4349C74.6672 25.0224 68 16.0708 68 2.84269C68 1.78019 67.4156 0.79738 66.4594 0.319255C65.5031 -0.15887 64.3875 -0.0791822 63.5109 0.531755C51 9.48332 40.5609 24.5708 36.9219 38.9677C34.3984 48.9818 34.0531 60.2708 34 67.7083C22.4453 65.238 19.8156 47.9458 19.7891 47.7599C19.6562 46.8568 19.0984 46.0864 18.3016 45.6614C17.5047 45.2364 16.5484 45.2099 15.725 45.6083C15.1141 45.9005 0.85 53.1521 0.0265625 82.1052C0 83.0615 0 84.0443 0 85.0005C0 113.13 22.8703 136.001 51 136.001C51.0266 136.001 51.0797 136.001 51.1062 136.001H51.1328C79.2094 135.921 102 113.077 102 85.0005C102 83.5927 101.708 79.6349 101.708 79.6349ZM34 112.227C34 111.882 34 111.536 34.0266 111.111C34.1328 106.888 34.9297 104.019 35.8063 102.107C37.4531 105.64 40.4016 108.907 45.1562 108.907C46.7234 108.907 47.9984 107.632 47.9984 106.065C47.9984 102.027 48.0781 97.3786 49.0875 93.1818C49.9906 89.463 52.1156 85.5052 54.825 82.3177C56.0203 86.4349 58.3844 89.7818 60.6687 93.0224C63.9359 97.6708 67.3359 102.505 67.9203 110.713C67.9469 111.191 68 111.696 68 112.227C68 122.215 60.3766 130.343 51 130.343C41.6234 130.343 34 122.215 34 112.227Z" fill="white"/>
</g>
<defs>
<clipPath id="clip0">
<rect width="102" height="136" fill="white"/>
</clipPath>
</defs>
</svg>
