<svg width="108" height="150" viewBox="0 0 108 150" fill="none" xmlns="http://www.w3.org/2000/svg">
<path d="M82.8566 55.748C81.7137 59.771 81.1423 64.9435 81.1423 66.6676C82.2852 68.9664 82.8566 71.84 82.8566 74.1389H87.428V91.9549H71.9994C68.5709 94.2538 63.9994 96.5527 58.2852 98.8515L51.9994 101.15H60.5709V118.966H42.8566V108.047L35.9994 107.472C33.1423 106.897 27.9994 105.173 22.2852 102.874V150.001H108.571V55.748H82.8566ZM87.428 118.392H69.7137V100.576H87.428V118.392Z" fill="white"/>
<path d="M31.4285 59.196C29.7142 67.8167 32.5713 76.4374 37.7142 70.1156C44.5713 62.0696 48.5713 52.2995 45.7142 40.2305C67.4285 45.9777 65.1428 79.311 57.1428 94.2535C65.1428 91.38 83.9999 83.334 77.7142 67.242C74.857 60.3455 90.857 27.0121 72.5713 20.1156C78.857 28.7363 69.1428 39.0811 67.9999 35.0581C62.2856 17.8167 49.7142 -2.29821 35.9999 -0.574074C39.4285 14.9432 30.857 29.8857 22.2856 36.2075C14.857 41.9547 7.9999 36.7823 12.5713 25.288C9.71419 29.8857 2.85705 34.4834 1.71419 39.6558C0.571331 43.6788 1.71419 49.4259 4.57133 53.4489C8.57133 59.196 10.857 66.6673 7.42847 69.5409C5.14276 71.8397 0.571331 68.9662 3.9999 62.6443C-6.28581 72.9892 5.14276 86.7823 9.71419 91.9547C11.9999 94.8282 30.857 102.299 35.9999 102.874C23.9999 91.9547 21.1428 68.9662 31.4285 59.196Z" fill="white"/>
</svg>
