<svg width="84" height="119" viewBox="0 0 84 119" fill="none" xmlns="http://www.w3.org/2000/svg">
<path d="M84 47.0732C84 46.1745 83.6578 45.3378 83.0356 44.687L55.0356 15.0609C54.3822 14.3482 53.4489 13.9763 52.4844 13.9763H17.5156C16.52 13.9763 15.5556 14.4102 14.9022 15.1539L0.902222 30.8346C0.311111 31.4544 0 32.2602 0 33.1279V94.6112C0 97.2763 1.02667 99.7245 2.67556 101.584C0.995556 103.443 0 105.891 0 108.557C0 114.321 4.69778 119 10.5156 119H73.5156C79.3022 119 84.0311 114.321 84.0311 108.526C84.0311 105.86 83.0044 103.412 81.3556 101.553C83.0356 99.6935 84.0311 97.2453 84.0311 94.5802V47.0732H84ZM67.7911 56.9589C66.4222 58.2294 64.7111 58.8492 63 58.8492C61.1333 58.8492 59.2667 58.1055 57.8978 56.649L41.8133 39.6357C39.1689 36.8156 39.2933 32.4151 42.1244 29.781C44.9556 27.1469 49.3733 27.2708 52.0178 30.0909L68.1022 47.1042C70.7467 49.8932 70.6222 54.3247 67.7911 56.9589ZM42 3.50182C42 1.54948 40.4444 0 38.5156 0H17.5156C15.5556 0 14 1.54948 14 3.50182V7.00365H42V3.50182Z" fill="white"/>
</svg>
