<svg width="106" height="96" viewBox="0 0 106 96" fill="none" xmlns="http://www.w3.org/2000/svg">
<g clip-path="url(#clip0)">
<path d="M52.9714 8.83936C29.8667 -11.4412 0.495891 6.37356 -0.000984534 30.5329C-0.111401 36.6835 1.65527 42.6956 5.161 48.209H28.0173L32.0751 41.4212C33.262 39.4541 36.1053 39.371 37.3475 41.3381L45.9324 54.8584L58.437 28.3718C59.5136 26.0723 62.7709 25.9891 63.9855 28.2333L74.6959 48.209H100.754C120.077 17.9268 81.9006 -16.5667 52.9714 8.83936Z" fill="white"/>
<path d="M70.1145 52.8069L61.4468 36.6268L49.1629 62.6424C48.114 64.8589 45.0499 65.0528 43.7249 62.9749L34.8364 48.9558L32.4624 52.9454C31.9103 53.8874 30.889 54.4693 29.8124 54.4693H10.103C10.7103 55.1065 7.42542 51.8095 50.7916 95.1134C52.0062 96.3325 53.966 96.3325 55.1806 95.1134C97.8567 52.4744 95.2343 55.0788 95.8416 54.4415H72.8473C71.6879 54.4415 70.639 53.8043 70.1145 52.8069Z" fill="white"/>
</g>
<defs>
<clipPath id="clip0">
<rect width="106" height="96" fill="white"/>
</clipPath>
</defs>
</svg>
