<svg width="121" height="77" viewBox="0 0 121 77" fill="none" xmlns="http://www.w3.org/2000/svg">
<g clip-path="url(#clip0)">
<path d="M18.8912 28.2507C18.8912 29.7415 17.6513 30.9342 16.1197 30.9342C14.588 30.9342 13.3481 29.7415 13.3481 28.2507C13.3481 26.7599 14.588 25.5673 16.1197 25.5673C17.6513 25.5673 18.8912 26.7599 18.8912 28.2507ZM121.001 2.98161C121.001 4.62149 119.688 5.96321 118.084 5.96321H75.2704V15.3553H79.3548C82.6369 15.3553 85.3355 18.1133 85.3355 21.4676V23.7783C85.3355 23.8529 85.3355 23.9274 85.3355 24.0019C89.7116 24.2256 93.8689 25.4182 97.5886 27.2817C98.0263 27.3562 98.3909 27.5053 98.7556 27.8035C98.8285 27.8035 98.9744 27.9526 99.3391 28.2507C109.04 33.9158 115.604 44.575 115.604 56.7996V57.2469C115.604 62.6137 111.301 67.0116 106.049 67.0116H101.819L102.621 70.8877C102.621 70.9622 102.621 71.0368 102.621 71.0368H108.748C110.352 71.0368 111.665 72.3785 111.665 74.0184C111.665 75.6583 110.352 77 108.748 77H68.3415C66.7369 77 65.4241 75.6583 65.4241 74.0184C65.4241 72.3785 66.7369 71.0368 68.3415 71.0368H73.9575C73.9575 70.9622 73.9575 70.8877 73.9575 70.8877L74.9057 66.4898C61.6314 64.1045 50.3994 54.4143 46.0232 41.2207L28.7375 37.4937C25.893 41.2953 21.2981 43.7551 16.1197 43.7551C7.44035 43.7551 0.365609 36.8228 0.365609 28.3253C0.365609 25.12 1.31377 22.213 2.99129 19.7531C2.84542 19.5295 2.77248 19.3059 2.69955 19.0823L0.146803 9.69022C-0.0720037 8.79574 0.0738673 7.82672 0.584416 7.08132C1.1679 6.33591 1.97019 5.88867 2.91835 5.88867H7.36742C8.53439 5.88867 9.55548 6.63408 10.066 7.67764L12.4 13.1936C13.6399 12.8955 14.8798 12.7464 16.1926 12.7464C23.3403 12.7464 29.4669 17.5169 31.3632 23.9274H45.8044C45.8044 23.8529 45.8044 23.7783 45.8044 23.7783V21.4676C45.8044 18.1133 48.503 15.3553 51.7851 15.3553H64.33V5.96321H21.444C19.8394 5.96321 18.5265 4.62149 18.5265 2.98161C18.5265 1.34172 19.8394 0 21.444 0H118.156C119.688 0 121.001 1.34172 121.001 2.98161ZM24.7261 28.2507C24.7261 23.4802 20.8605 19.6041 16.1197 19.6041C11.3789 19.6041 7.51329 23.4802 7.51329 28.2507C7.51329 33.0213 11.3789 36.8974 16.1197 36.8974C20.8605 36.8974 24.7261 33.0213 24.7261 28.2507ZM83.9497 35.4811L86.5754 42.0407C87.9611 45.6186 91.3162 47.9293 95.1088 47.9293H107.143C106.195 45.6931 104.882 42.8606 103.423 40.6989C101.09 37.4192 97.5886 34.4376 96.1299 33.2449H85.4813C84.752 33.2449 84.3873 33.6922 84.1685 33.9158C83.9497 34.2139 83.7309 34.7357 83.9497 35.4811ZM79.9382 71.0368H96.7134L95.8382 67.0116H81.1781C81.0323 67.0116 80.9593 67.0116 80.8135 67.0116L79.9382 71.0368ZM73.3011 36.3756H69.7273V32.7231C69.7273 30.4869 67.9768 28.698 65.7887 28.698H65.2782C63.0901 28.698 61.3397 30.4869 61.3397 32.7231V36.4501H57.6929C55.5048 36.4501 53.7544 38.2391 53.7544 40.4753V40.9971C53.7544 43.2333 55.5048 45.0223 57.6929 45.0223H61.2668V48.6747C61.2668 50.9109 63.0172 52.6999 65.2053 52.6999H65.7158C67.9039 52.6999 69.6543 50.9109 69.6543 48.6747V44.9477H73.3011C75.4892 44.9477 77.2396 43.1588 77.2396 40.9226V40.4008C77.1667 38.1646 75.4162 36.3756 73.3011 36.3756Z" fill="white"/>
</g>
<defs>
<clipPath id="clip0">
<rect width="121" height="77" fill="white"/>
</clipPath>
</defs>
</svg>
