<svg width="116" height="116" viewBox="0 0 116 116" fill="none" xmlns="http://www.w3.org/2000/svg">
<g clip-path="url(#clip0)">
<path d="M112.894 50.4555L65.5563 3.12656C63.5395 1.11016 60.8655 0 58.0103 0C55.155 0 52.481 1.11016 50.4642 3.12656L3.14877 50.4328C3.1261 50.4555 3.1261 50.4555 3.10344 50.4781C-1.04346 54.6469 -1.04346 61.3984 3.12611 65.5672C5.0296 67.4703 7.52227 68.5578 10.2189 68.6711C10.3322 68.6711 10.4455 68.6938 10.5588 68.6938H12.4396V103.516C12.4396 110.404 18.0368 116.023 24.9483 116.023H43.4621C45.3429 116.023 46.8612 114.505 46.8612 112.624V85.3008C46.8612 82.1516 49.4219 79.5914 52.5717 79.5914H63.4941C66.644 79.5914 69.2046 82.1516 69.2046 85.3008V112.602C69.2046 114.482 70.7229 116 72.6037 116H91.0948C97.9837 116 103.604 110.404 103.604 103.494V68.6711H105.348C108.204 68.6711 110.878 67.5609 112.894 65.5445C117.041 61.3984 117.041 54.6242 112.894 50.4555Z" fill="white"/>
</g>
<defs>
<clipPath id="clip0">
<rect width="116" height="116" fill="white"/>
</clipPath>
</defs>
</svg>
