<svg width="119" height="113" viewBox="0 0 119 113" fill="none" xmlns="http://www.w3.org/2000/svg">
<path d="M86.9423 4.95134C86.9423 2.21747 84.7262 0 81.9941 0H37.0351C34.303 0 32.0869 2.21747 32.0869 4.95134V19.5624H86.9423V4.95134Z" fill="white"/>
<path d="M114.052 17.3449H4.94821C2.21607 17.3449 0 19.5624 0 22.2963V108.018C0 110.752 2.21607 112.97 4.94821 112.97H38.6143V72.5387C38.6143 69.8049 40.8304 67.5874 43.5625 67.5874H75.4375C78.1696 67.5874 80.3857 69.8049 80.3857 72.5387V113H114.052C116.784 113 119 110.783 119 108.049V22.2963C119 19.5624 116.784 17.3449 114.052 17.3449ZM69.6393 46.2328H64.4786V51.3968C64.4786 54.1307 62.2625 56.3481 59.5304 56.3481C56.7982 56.3481 54.5821 54.1307 54.5821 51.3968V46.2328H49.4214C46.6893 46.2328 44.4732 44.0153 44.4732 41.2815C44.4732 38.5476 46.6893 36.3301 49.4214 36.3301H54.5821V31.1661C54.5821 28.4323 56.7982 26.2148 59.5304 26.2148C62.2625 26.2148 64.4786 28.4323 64.4786 31.1661V36.3301H69.6393C72.3714 36.3301 74.5875 38.5476 74.5875 41.2815C74.5875 44.0457 72.3714 46.2328 69.6393 46.2328Z" fill="white"/>
</svg>
