<svg width="121" height="114" viewBox="0 0 121 114" fill="none" xmlns="http://www.w3.org/2000/svg">
<path d="M99.9891 15.1563C99.9891 22.0127 94.4123 27.5897 87.5561 27.5897C80.6999 27.5897 75.123 22.0127 75.123 15.1563C75.123 8.29988 80.6999 2.7229 87.5561 2.7229C94.4123 2.7229 99.9891 8.29988 99.9891 15.1563Z" fill="white"/>
<path d="M119.247 65.3163L100.122 32.4449C99.2031 30.8702 97.3332 29.7548 95.9226 29.7548H79.6186C78.208 29.7548 76.3381 30.8702 75.4196 32.4449L60.9855 57.2132L44.9767 29.722C43.9598 27.9833 42.1227 26.9991 40.2201 26.9991C40.1872 26.9991 40.1544 26.9991 40.1216 26.9991H24.7362C24.7034 26.9991 24.6706 26.9991 24.6378 26.9991C22.7351 26.9991 20.898 27.9505 19.8811 29.722L0.755858 62.5934C-0.753163 65.2179 0.132567 68.564 2.72415 70.0731C3.57707 70.5652 4.52841 70.8276 5.47975 70.8276C7.34963 70.8276 9.1867 69.8435 10.2036 68.1048L18.6345 53.6046V59.8049L14.8619 87.0337C14.5339 89.3301 16.3381 91.3641 18.6345 91.3641V108.029C18.6345 111.179 21.062 113.836 24.2113 113.934C27.4918 114.066 30.2146 111.408 30.2146 108.161V91.3641H34.7745V108.029C34.7745 111.179 37.202 113.836 40.3513 113.934C43.6318 114.066 46.3545 111.408 46.3545 108.161V91.3641C48.6837 91.3641 50.4552 89.3301 50.1271 87.0337L46.3545 59.8049V53.8015L54.687 68.1048C54.9822 68.5969 56.9505 72.0415 58.2627 72.796C59.1156 73.2881 60.067 73.5505 61.0183 73.5505C62.921 73.5505 64.7252 72.5663 65.7422 70.8276L73.9434 56.754L73.8778 105.241C73.8778 108.423 76.4694 111.015 79.6514 111.015H79.6842H79.717C82.8991 111.015 85.4907 108.423 85.4907 105.241L85.4251 75.9781C85.4251 74.7643 86.3436 73.7145 87.5574 73.6161C88.9024 73.5177 89.985 74.5675 89.985 75.8797V105.077C89.985 108.226 92.4125 110.883 95.5618 110.982C98.8423 111.113 101.565 108.456 101.565 105.208V56.754L109.766 70.8276C110.783 72.5663 112.62 73.5505 114.49 73.5505C115.441 73.5505 116.36 73.3209 117.246 72.796C119.903 71.2869 120.789 67.9407 119.247 65.3163Z" fill="white"/>
<path d="M12.9913 24.6371L16.0749 24.3747C17.8464 24.2106 19.0929 22.5704 18.7321 20.8317C18.24 18.1416 18.0432 14.4345 20.2411 12.1381C20.2411 12.2365 20.2411 12.335 20.2411 12.4334C20.2411 19.2898 25.8179 24.8668 32.6741 24.8668C39.5303 24.8668 45.1072 19.2898 45.1072 12.4334C45.1072 12.335 45.1072 12.2365 45.1072 12.1381C47.3051 14.4345 47.1411 18.1416 46.6162 20.7988C46.2553 22.5376 47.5019 24.2106 49.2734 24.3419L52.357 24.6043C53.9973 24.7355 55.4407 23.5545 55.6047 21.947C56.0312 18.0104 55.9656 12.0725 53.7348 9.74331C50.4543 6.2659 46.3537 6.23309 43.7294 6.72518C41.6627 2.72288 37.4964 0 32.6741 0C27.8846 0 23.7184 2.72288 21.6517 6.72518C19.0273 6.23309 14.9595 6.2659 11.6463 9.74331C9.41553 12.1053 9.34992 18.0104 9.77638 21.947C9.94041 23.5873 11.3838 24.7683 12.9913 24.6371Z" fill="white"/>
</svg>
