<svg width="112" height="112" viewBox="0 0 112 112" fill="none" xmlns="http://www.w3.org/2000/svg">
<path d="M11.7031 46.1562C18.0469 46.1562 23.1875 41.0156 23.1875 34.6719V19.6875H0V34.6719C0 41.0156 5.35937 46.1562 11.7031 46.1562Z" fill="white"/>
<path d="M52.7188 34.6719V19.6875H29.75V34.6719C29.75 41.0156 34.8906 46.1562 41.2344 46.1562C47.5781 46.1562 52.7188 41.0156 52.7188 34.6719Z" fill="white"/>
<path d="M82.25 19.6875H59.2812V34.6719C59.2812 41.0156 64.4219 46.1562 70.7656 46.1562C77.1094 46.1562 82.25 41.0156 82.25 34.6719V19.6875Z" fill="white"/>
<path d="M112 19.6875H88.8125V34.6719C88.8125 41.0156 93.9531 46.1562 100.297 46.1562C106.641 46.1562 112 41.0156 112 34.6719V19.6875Z" fill="white"/>
<path d="M112 48.4805C108.883 51.0781 104.672 52.7188 100.297 52.7188C95.9219 52.7188 91.9297 51.0781 88.8125 48.4805V67.4844C88.8125 73.8281 93.9531 78.9688 100.297 78.9688C106.641 78.9688 112 73.8281 112 67.4844V48.4805Z" fill="white"/>
<path d="M82.25 48.4805C79.1328 51.0781 75.1406 52.7188 70.7656 52.7188C66.3906 52.7188 62.3984 51.0781 59.2812 48.4805V67.4844C59.2812 73.8281 64.4219 78.9688 70.7656 78.9688C77.1094 78.9688 82.25 73.8281 82.25 67.4844V48.4805Z" fill="white"/>
<path d="M29.75 67.4844C29.75 73.8281 34.8906 78.9688 41.2344 78.9688C47.5781 78.9688 52.7188 73.8281 52.7188 67.4844V48.4805C49.6016 51.0781 45.6094 52.7188 41.2344 52.7188C36.8594 52.7188 32.8672 51.0781 29.75 48.4805V67.4844Z" fill="white"/>
<path d="M11.7031 78.9688C18.0469 78.9688 23.1875 73.8281 23.1875 67.4844V48.4805C20.0703 51.0781 16.0781 52.7188 11.7031 52.7188C7.32812 52.7188 3.11719 51.0781 0 48.4805V67.4844C0 73.8281 5.35937 78.9688 11.7031 78.9688Z" fill="white"/>
<path d="M88.8125 81.293V100.516C88.8125 106.859 93.9531 112 100.297 112C106.641 112 112 106.859 112 100.516V81.293C108.883 83.8906 104.672 85.5312 100.297 85.5312C95.9219 85.5312 91.9297 83.8906 88.8125 81.293Z" fill="white"/>
<path d="M59.2812 81.293V100.516C59.2812 106.859 64.4219 112 70.7656 112C77.1094 112 82.25 106.859 82.25 100.516V81.293C79.1328 83.8906 75.1406 85.5312 70.7656 85.5312C66.3906 85.5312 62.3984 83.8906 59.2812 81.293Z" fill="white"/>
<path d="M29.75 100.516C29.75 106.859 34.8906 112 41.2344 112C47.5781 112 52.7188 106.859 52.7188 100.516V81.293C49.6016 83.8906 45.6094 85.5312 41.2344 85.5312C36.8594 85.5312 32.8672 83.8906 29.75 81.293V100.516Z" fill="white"/>
<path d="M11.7031 112C18.0469 112 23.1875 106.859 23.1875 100.516V81.293C20.0703 83.8906 16.0781 85.5312 11.7031 85.5312C7.32812 85.5312 3.11719 83.8906 0 81.293V100.516C0 106.859 5.35937 112 11.7031 112Z" fill="white"/>
<path d="M112 0H0V13.125H112V0Z" fill="white"/>
</svg>
