<svg width="120" height="120" viewBox="0 0 120 120" fill="none" xmlns="http://www.w3.org/2000/svg">
<g clip-path="url(#clip0)">
<path d="M41.5625 19.5937H78.4375C83.25 19.5937 87.8125 21.0312 91.625 23.75C91.9688 24 92.3125 24.2812 92.6563 24.5312V22.9375C92.6563 10.2812 82.375 0 69.6875 0H50.25C37.5625 0 27.2812 10.2812 27.2812 22.9375V24.5625C27.625 24.2812 27.9687 24 28.3437 23.75C32.1562 21.0312 36.7188 19.5937 41.5625 19.5937Z" fill="white"/>
<path d="M30.844 53.5625L49.2815 70.9688C52.1877 73.7188 56.0002 75.2188 60.0002 75.2188C64.0002 75.2188 67.8127 73.7188 70.719 70.9688L89.1565 53.5625C91.594 51.2812 93.1877 48.4062 93.8127 45.2812C94.3752 42.3437 94.094 39.3125 92.969 36.4688C91.844 33.625 89.969 31.2188 87.5315 29.4688C84.9377 27.625 81.7815 26.625 78.4377 26.625H41.5627C38.219 26.625 35.094 27.5938 32.5002 29.4688C30.0627 31.1875 28.1877 33.625 27.0627 36.4688C25.9377 39.3125 25.6252 42.3437 26.219 45.2812C26.7815 48.4062 28.4065 51.25 30.844 53.5625Z" fill="white"/>
<path d="M118.875 90.4062L110.312 81.8125C108.844 80.3437 106.437 80.3437 104.969 81.8125L99.8438 86.9063L90.2188 77.2813C91.8125 73.4688 92.6875 69.25 92.6875 64.875V59.9062L75.5938 76.0313C71.375 80 65.8438 82.2188 60.0313 82.2188C54.2188 82.2188 48.6875 80.0313 44.4688 76.0313L27.3438 59.875V64.8437C27.3438 69.2188 28.2188 73.4062 29.8125 77.25L20.1875 86.875L15.0938 81.7813C13.625 80.3125 11.2188 80.3125 9.75 81.7813L1.125 90.4062C-0.34375 91.875 -0.34375 94.2813 1.125 95.75L24.2812 118.906C25.75 120.375 28.1563 120.375 29.625 118.906L38.2188 110.344C39.6875 108.875 39.6875 106.469 38.2188 105L33.125 99.875L41.3438 91.6562C46.6562 95.375 53.0938 97.5313 60 97.5313C66.9375 97.5313 73.375 95.3438 78.6562 91.6562L86.875 99.875L81.7812 104.969C80.3125 106.438 80.3125 108.844 81.7812 110.313L90.375 118.875C91.8438 120.344 94.25 120.344 95.7187 118.875L118.875 95.7188C120.375 94.2812 120.375 91.875 118.875 90.4062Z" fill="white"/>
</g>
<defs>
<clipPath id="clip0">
<rect width="120" height="120" fill="white"/>
</clipPath>
</defs>
</svg>
