<svg width="130" height="130" viewBox="0 0 130 130" fill="none" xmlns="http://www.w3.org/2000/svg">
<path d="M21.6329 66.1511C23.4949 65.1693 25.797 65.8802 26.8126 67.7422L42.0131 96.5521C43.3334 96.0782 44.7553 95.8412 46.2449 95.8412H56.3334C56.4011 85.6172 64.7293 77.2891 74.9871 77.2891H81.6902C80.0652 74.7162 79.1173 71.6693 79.1173 68.4193V60.9714C79.1173 51.7969 86.6668 44.3151 95.8751 44.4505C104.948 44.586 112.125 52.1354 112.125 61.2084V68.4193C112.125 71.6693 111.177 74.7162 109.552 77.2891H119.065C120.284 77.2891 121.469 77.3907 122.62 77.6276V20.3464H7.448V101.901C7.448 103.323 8.59904 104.44 9.98706 104.44H34.1928C34.599 103.289 35.1407 102.206 35.8178 101.258L20.0417 71.3308C19.06 69.4349 19.7709 67.1328 21.6329 66.1511ZM26.6433 30.9427H65.8126C67.9115 30.9427 69.6381 32.6693 69.6381 34.7682C69.6381 36.8672 67.9115 38.5938 65.8126 38.5938H26.6433C24.5444 38.5938 22.8178 36.8672 22.8178 34.7682C22.8178 32.6693 24.5444 30.9427 26.6433 30.9427ZM26.6433 48.7839H65.8126C67.9115 48.7839 69.6381 50.5104 69.6381 52.6094C69.6381 54.7084 67.9115 56.4349 65.8126 56.4349H26.6433C24.5444 56.4349 22.8178 54.7084 22.8178 52.6094C22.8178 50.4766 24.5444 48.7839 26.6433 48.7839Z" fill="white"/>
<path d="M118.997 84.9401H74.953C68.8931 84.9401 63.9504 89.8828 63.9504 95.9427V99.6666C63.9504 101.766 62.2238 103.492 60.1249 103.492H46.2108C43.5363 103.492 41.302 105.591 41.1327 108.266C40.9296 111.008 43.1639 113.648 46.2108 113.648H69.2993C71.5337 113.648 73.328 111.82 73.328 109.62V103.865C73.328 101.799 74.9191 100.039 76.9842 99.9375C79.1848 99.8359 80.979 101.596 80.979 103.763V127.461C80.979 128.883 82.1301 130 83.5181 130H110.195V103.865C110.195 101.799 111.786 100.039 113.851 99.9375C116.052 99.8359 117.846 101.596 117.846 103.763V130H127.461C128.883 130 130 128.849 130 127.461V95.9765C130 89.8828 125.057 84.9401 118.997 84.9401Z" fill="white"/>
<path d="M86.7004 61.0052V68.4531C86.7004 73.3281 90.6614 77.3229 95.5702 77.3229C100.445 77.3229 104.44 73.3281 104.44 68.4531V61.0052C104.44 56.1302 100.445 52.1354 95.5702 52.1354C90.6952 52.1354 86.7004 56.0963 86.7004 61.0052Z" fill="white"/>
<path d="M0 2.53906V10.1562C0 11.5781 1.15104 12.6953 2.53906 12.6953H127.427C128.849 12.6953 129.966 11.5443 129.966 10.1562V2.53906C129.966 1.11719 128.815 0 127.427 0H2.53906C1.15104 0 0 1.15104 0 2.53906Z" fill="white"/>
</svg>
