<svg width="132" height="132" viewBox="0 0 132 132" fill="none" xmlns="http://www.w3.org/2000/svg">
<path d="M128.219 110.034L97.7969 79.6125C96.1813 77.9969 93.5687 77.9969 91.9531 79.6125L88.6875 82.8438L83.7375 77.9281C90.6813 69.6781 94.875 59.0563 94.875 47.4375C94.875 21.2781 73.5969 0 47.4375 0C21.2781 0 0 21.2781 0 47.4375C0 73.5969 21.2781 94.875 47.4375 94.875C59.0219 94.875 69.6781 90.6813 77.9281 83.7375L82.8438 88.6875L79.5781 91.9531C77.9625 93.5687 77.9625 96.1813 79.5781 97.7969L110 128.219C118.078 136.297 131.966 130.522 131.966 119.109C132 115.672 130.659 112.441 128.219 110.034ZM67.925 62.1156C70.5375 64.7281 68.6469 69.1625 65.0031 69.1625C63.9375 69.1625 62.9063 68.75 62.0813 67.9594L59.5719 65.45C59.1594 65.0375 58.5062 64.9688 57.9906 65.2438C56.3406 66.2406 54.5187 66.9969 52.5938 67.4781C52.0094 67.6156 51.6312 68.1312 51.6312 68.7156V72.2219C51.6312 74.5594 49.6719 76.45 47.3 76.3469C45.0656 76.2438 43.3812 74.3187 43.3812 72.1188V68.7156C43.3812 68.1312 42.9688 67.6156 42.4188 67.4781C40.4938 66.9969 38.6719 66.2063 37.0219 65.2438C36.5062 64.9344 35.8531 65.0031 35.4406 65.45L32.9656 67.9594C32.175 68.75 31.1094 69.1625 30.0438 69.1625C26.4 69.1625 24.5094 64.7281 27.1219 62.1156L29.5969 59.6062C30.0094 59.1937 30.0781 58.5406 29.8031 58.025C28.8062 56.375 28.05 54.5531 27.5687 52.6281C27.4312 52.0438 26.9156 51.6656 26.3312 51.6656H22.9281C20.6937 51.6656 18.8031 49.9469 18.7 47.7469C18.5969 45.375 20.4875 43.4156 22.825 43.4156H26.3312C26.9156 43.4156 27.4312 43.0031 27.5687 42.4531C28.05 40.5281 28.8406 38.7062 29.8031 37.0563C30.1125 36.5406 30.0437 35.8875 29.5969 35.475L27.1906 33.0687C25.6094 31.4875 25.4719 28.9438 26.9844 27.2938C28.5656 25.5406 31.2812 25.5063 32.9656 27.1562L35.4406 29.6312C35.8531 30.0437 36.5062 30.1125 37.0219 29.8375C38.6719 28.8406 40.4938 28.0844 42.4188 27.6031C43.0031 27.4656 43.4156 26.95 43.4156 26.3656V22.9625C43.4156 20.7281 45.1344 18.8375 47.3344 18.7344C49.7062 18.6313 51.6656 20.5219 51.6656 22.8594V26.3656C51.6656 26.95 52.0781 27.4656 52.6625 27.6031C54.5875 28.0844 56.4094 28.875 58.0594 29.8375C58.575 30.1469 59.2281 30.0781 59.6406 29.6312L62.0469 27.225C63.6281 25.6437 66.1719 25.5063 67.8219 27.0187C69.575 28.6 69.6094 31.3156 67.9594 33L65.4844 35.5094C65.0719 35.9219 65.0031 36.575 65.2781 37.0906C66.275 38.7406 67.0312 40.5625 67.5125 42.4875C67.65 43.0719 68.1656 43.4844 68.75 43.4844H72.1531C74.3875 43.4844 76.2781 45.2031 76.3812 47.4031C76.4844 49.775 74.5938 51.7344 72.2562 51.7344H68.75C68.1656 51.7344 67.65 52.1469 67.5125 52.6969C67.0312 54.6219 66.2406 56.4437 65.2781 58.0938C64.9688 58.6094 65.0375 59.2625 65.4844 59.675L67.925 62.1156Z" fill="white"/>
<path d="M58.6434 42.1782C57.4403 39.6344 55.3778 37.6063 52.8341 36.3688C52.2153 36.0594 51.4934 36.3688 51.1841 36.9876C50.4966 38.3282 49.1216 39.2907 47.5059 39.2907C45.8903 39.2907 44.4809 38.3626 43.8278 36.9876C43.5184 36.3688 42.7966 36.0594 42.1778 36.3688C39.6341 37.5719 37.6059 39.6344 36.3684 42.1782C36.0591 42.7969 36.3684 43.5188 36.9872 43.8282C38.3278 44.5157 39.2559 45.8907 39.2559 47.5063C39.2559 49.1219 38.3278 50.5313 36.9872 51.1844C36.3684 51.4938 36.0591 52.2157 36.3684 52.8344C37.5716 55.3782 39.6341 57.4063 42.1778 58.6438C42.7966 58.9532 43.5184 58.6438 43.8278 58.0251C44.5153 56.6844 45.8903 55.7563 47.5059 55.7563C49.1216 55.7563 50.5309 56.6844 51.1841 58.0594C51.4934 58.6782 52.2153 58.9876 52.8341 58.6782C55.3778 57.4751 57.4059 55.4126 58.6434 52.8688C58.9528 52.2501 58.6434 51.5282 58.0247 51.2188C56.6841 50.5313 55.7216 49.1563 55.7216 47.5407C55.7216 45.9251 56.6497 44.5157 58.0247 43.8626C58.6434 43.5532 58.9528 42.7969 58.6434 42.1782Z" fill="white"/>
</svg>
