<svg width="119" height="119" viewBox="0 0 119 119" fill="none" xmlns="http://www.w3.org/2000/svg">
<path d="M111.128 37.5904C108.587 35.0493 104.527 34.8943 101.8 37.1256C101.397 37.4355 101.707 37.1565 95.6953 43.1995L111.345 58.8492L116.954 53.3021C119.681 50.575 119.681 46.1745 116.954 43.4474L111.128 37.5904Z" fill="white"/>
<path d="M63.5907 75.5834L54.3868 95.2928C53.767 96.6254 54.0459 98.2058 55.0686 99.2285C56.0912 100.251 57.6717 100.53 59.0042 99.9102L78.7136 90.7063C79.4883 90.3345 77.1331 92.5657 106.325 63.7144L90.7066 48.0957C61.7933 77.0709 63.9626 74.7777 63.5907 75.5834Z" fill="white"/>
<path d="M84.6325 95.014C83.7648 95.8507 82.8041 96.5324 81.7195 97.0593L61.9791 106.232C58.1054 108.03 53.364 107.348 50.1721 104.156C47.0731 101.057 46.2364 96.3155 48.0958 92.3489L57.2997 72.6395C57.8265 71.5239 58.5083 70.5322 59.376 69.6645L89.033 40.0075V10.4745C89.033 4.71041 84.3536 0 78.5585 0H10.4435C4.67942 0 0 4.67942 0 10.4745V108.556C0 114.32 4.67942 119 10.4435 119H78.5585C84.3226 119 89.033 114.32 89.033 108.525V90.6444L84.6325 95.014ZM18.5937 22.5604H70.6562C72.5775 22.5604 74.158 24.1099 74.158 26.0622C74.158 28.0146 72.6085 29.564 70.6562 29.564H18.5937C16.6724 29.564 15.0919 28.0146 15.0919 26.0622C15.0919 24.1099 16.6724 22.5604 18.5937 22.5604ZM18.5937 41.1541H59.4999C61.4213 41.1541 63.0018 42.7036 63.0018 44.6559C63.0018 46.6083 61.4523 48.1578 59.4999 48.1578H18.5937C16.6724 48.1578 15.0919 46.6083 15.0919 44.6559C15.0919 42.7036 16.6724 41.1541 18.5937 41.1541ZM15.0919 63.2187C15.0919 61.2973 16.6414 59.7169 18.5937 59.7169H48.3437C50.2651 59.7169 51.8145 61.2663 51.8145 63.2187C51.8145 65.171 50.2651 66.7205 48.3437 66.7205H18.5937C16.6724 66.7205 15.0919 65.14 15.0919 63.2187Z" fill="white"/>
</svg>
