<svg width="121" height="112" viewBox="0 0 121 112" fill="none" xmlns="http://www.w3.org/2000/svg">
<g clip-path="url(#clip0)">
<path d="M118 81.6336L113.086 75.9165C111.006 73.4797 106.848 73.4797 104.768 75.9165L99.8066 81.6805C96.7585 85.2186 95.9552 90.1391 97.7273 94.4972C99.334 98.5039 102.736 101.175 106.895 101.808V109.985C106.895 111.086 107.793 111.977 108.903 111.977C110.014 111.977 110.912 111.086 110.912 109.985V101.831C114.81 101.198 118.142 98.668 119.843 94.919C121.899 90.4437 121.19 85.3357 118 81.6336Z" fill="white"/>
<path d="M84.8486 75.9165C82.7693 73.4797 78.6107 73.4797 76.5314 75.9165L71.5695 81.6805C68.5215 85.2186 67.7417 90.1391 69.4902 94.4972C71.097 98.5039 74.4994 101.175 78.658 101.808V109.985C78.658 111.086 79.5558 111.977 80.6664 111.977C81.7769 111.977 82.6748 111.086 82.6748 109.985V101.831C86.5734 101.198 89.905 98.668 91.6062 94.919C93.6619 90.4203 92.953 85.3357 89.7632 81.6336L84.8486 75.9165Z" fill="white"/>
<path d="M105.736 58.9288C107.792 54.43 107.083 49.3455 103.893 45.6434L98.9782 39.9262C96.8989 37.4894 92.7403 37.4894 90.6611 39.9262L85.6991 45.6903C82.6511 49.2283 81.8477 54.1488 83.6199 58.507C85.2266 62.5137 88.629 65.1848 92.7876 65.8409V74.0183C92.7876 75.1196 93.6855 76.0099 94.796 76.0099C95.9065 76.0099 96.8044 75.1196 96.8044 74.0183V65.8409C100.703 65.2083 104.035 62.6777 105.736 58.9288Z" fill="white"/>
<path d="M77.4995 58.9288C79.5552 54.43 78.8463 49.3455 75.6565 45.6434L70.7418 39.9262C68.6626 37.4894 64.504 37.4894 62.4247 39.9262L57.4628 45.6903C54.4148 49.2283 53.6114 54.1488 55.3835 58.507C56.9902 62.5137 60.3927 65.1848 64.5513 65.8409V74.0183C64.5513 75.1196 65.4491 76.0099 66.5597 76.0099C67.6702 76.0099 68.5681 75.1196 68.5681 74.0183V65.8409C72.4667 65.2083 75.7983 62.6777 77.4995 58.9288Z" fill="white"/>
<path d="M56.6142 75.9165C54.5349 73.4797 50.3763 73.4797 48.2971 75.9165L43.3351 81.6805C40.2871 85.2186 39.5074 90.1391 41.2559 94.4972C42.8626 98.5039 46.265 101.175 50.4236 101.808V109.985C50.4236 111.086 51.3215 111.977 52.432 111.977C53.5425 111.977 54.4404 111.086 54.4404 109.985V101.831C58.3391 101.198 61.6706 98.668 63.3719 94.919C65.4275 90.4203 64.7187 85.3357 61.5289 81.6336L56.6142 75.9165Z" fill="white"/>
<path d="M39.0338 21.4159C38.5376 20.4318 38.9393 19.2368 39.9553 18.7448C42.6489 17.4326 45.4843 16.3548 48.3669 15.5816C49.4302 15.3004 50.5407 15.9331 50.8479 16.9874C51.1314 18.0418 50.4935 19.1431 49.4302 19.4477C46.7838 20.1506 44.2084 21.1347 41.751 22.3297C41.4675 22.4703 41.1603 22.5406 40.8532 22.5406C40.0971 22.5406 39.3882 22.1188 39.0338 21.4159ZM31.6382 29.2653C29.6298 31.1163 27.8104 33.1782 26.2037 35.3808C25.802 35.9197 25.1877 36.2008 24.5733 36.2008C24.1716 36.2008 23.7463 36.0837 23.3919 35.8259C22.494 35.1699 22.2814 33.928 22.943 33.0377C24.7151 30.6243 26.6999 28.3749 28.8973 26.3598C29.7006 25.61 30.9766 25.6569 31.7563 26.4536C32.4888 27.2268 32.4415 28.5155 31.6382 29.2653ZM20.4856 46.159C19.5878 48.713 18.9262 51.3841 18.5481 54.0787C18.4064 55.0862 17.5558 55.7891 16.5634 55.7891C16.4689 55.7891 16.3743 55.7891 16.2798 55.7657C15.1693 55.6017 14.4132 54.5941 14.555 53.5163C14.9803 50.564 15.6891 47.6351 16.6815 44.8469C17.0596 43.7925 18.1937 43.2536 19.257 43.605C20.2966 43.9799 20.8637 45.128 20.4856 46.159ZM18.1465 75.1431C18.1465 76.2444 17.2486 77.1347 16.1381 77.1347C15.0275 77.1347 14.1297 76.2444 14.1297 75.1431V66.5908C14.1297 65.4895 15.0275 64.5992 16.1381 64.5992C17.2486 64.5992 18.1465 65.4895 18.1465 66.5908V75.1431ZM18.1465 91.9665C18.1465 93.0678 17.2486 93.9582 16.1381 93.9582C15.0275 93.9582 14.1297 93.0678 14.1297 91.9665V87.9598C14.1297 86.8586 15.0275 85.9682 16.1381 85.9682C17.2486 85.9682 18.1465 86.8586 18.1465 87.9598V91.9665ZM61.6932 13.9883H70.3175C71.4281 13.9883 72.3259 14.8787 72.3259 15.9799C72.3259 17.0812 71.4281 17.9715 70.3175 17.9715H61.6932C60.5827 17.9715 59.6848 17.0812 59.6848 15.9799C59.6848 14.8787 60.5827 13.9883 61.6932 13.9883ZM83.2421 13.9883H91.8664C92.977 13.9883 93.8748 14.8787 93.8748 15.9799C93.8748 17.0812 92.977 17.9715 91.8664 17.9715H83.2421C82.1316 17.9715 81.2337 17.0812 81.2337 15.9799C81.2337 14.8787 82.1316 13.9883 83.2421 13.9883ZM104.838 13.9883H108.879C109.989 13.9883 110.887 14.8787 110.887 15.9799C110.887 17.0812 109.989 17.9715 108.879 17.9715H104.838C103.728 17.9715 102.83 17.0812 102.83 15.9799C102.83 14.8787 103.728 13.9883 104.838 13.9883ZM60.4882 31.9833H118.968C120.079 31.9833 120.976 31.0929 120.976 29.9916V1.99163C120.976 0.890377 120.079 0 118.968 0H60.4882C27.1252 0 0 26.8987 0 59.9833V101.972C0 103.073 0.897872 103.963 2.0084 103.963H30.2441C31.3546 103.963 32.2525 103.073 32.2525 101.972V59.9833C32.2525 44.5423 44.9172 31.9833 60.4882 31.9833Z" fill="white"/>
</g>
<defs>
<clipPath id="clip0">
<rect width="121" height="112" fill="white"/>
</clipPath>
</defs>
</svg>
