<svg width="114" height="114" viewBox="0 0 114 114" fill="none" xmlns="http://www.w3.org/2000/svg">
<g clip-path="url(#clip0)">
<path d="M29.371 11.2837C29.371 17.449 24.3791 22.5673 18.1103 22.5673C11.9576 22.5673 6.84961 17.5653 6.84961 11.2837C6.84961 5.11837 11.8415 0 18.1103 0C24.2631 0 29.371 5.00204 29.371 11.2837Z" fill="white"/>
<path d="M5.5723 62.0021H6.7332V84.3367C6.7332 87.3612 9.28717 89.9204 12.3055 89.9204H24.0306C27.0489 89.9204 29.6029 87.3612 29.6029 84.3367V83.0572C28.558 81.0796 27.9776 78.8694 27.9776 76.5429V47.2286C27.9776 41.5286 31.4603 36.6429 36.336 34.4327V32.2225C36.336 29.198 33.7821 26.6388 30.7637 26.6388H5.5723C2.55397 26.7551 0 29.198 0 32.3388V56.4184C0 59.4429 2.43788 62.0021 5.5723 62.0021Z" fill="white"/>
<path d="M107.15 11.2837C107.15 17.449 102.158 22.5673 95.8896 22.5673C89.7368 22.5673 84.6289 17.5653 84.6289 11.2837C84.745 5.00204 89.7368 0 95.8896 0C102.158 0 107.15 5.00204 107.15 11.2837Z" fill="white"/>
<path d="M77.7793 32.2225V34.4327C82.6551 36.5265 86.1377 41.5286 86.1377 47.2286V76.3102C86.1377 78.6367 85.5573 80.8469 84.5125 82.8245V84.1041C84.5125 87.1286 87.0665 89.6878 90.0848 89.6878H101.81C104.828 89.6878 107.382 87.1286 107.382 84.1041V61.7694H108.543C111.561 61.7694 114.115 59.2102 114.115 56.1857V32.2225C114.115 29.198 111.561 26.6388 108.543 26.6388H83.3516C80.2172 26.6388 77.7793 29.0817 77.7793 32.2225Z" fill="white"/>
<path d="M36.3359 47.2286V76.4266C36.3359 79.4511 38.8899 82.0102 41.9082 82.0102H43.9979V108.3C43.9979 111.325 46.5518 113.884 49.5702 113.884H64.5457C67.564 113.884 70.118 111.325 70.118 108.3V82.0102H72.2076C75.226 82.0102 77.7799 79.4511 77.7799 76.4266V47.3449C77.7799 44.3204 75.226 41.7613 72.2076 41.7613H41.9082C38.7738 41.6449 36.3359 44.2041 36.3359 47.2286Z" fill="white"/>
<path d="M69.8852 24.0796C69.8852 31.1755 64.0807 36.9918 56.9992 36.9918C49.9178 36.9918 44.1133 31.1755 44.1133 24.0796C44.1133 16.9837 49.9178 11.1674 56.9992 11.1674C64.1968 11.1674 69.8852 16.9837 69.8852 24.0796Z" fill="white"/>
</g>
<defs>
<clipPath id="clip0">
<rect width="114" height="114" fill="white"/>
</clipPath>
</defs>
</svg>
