<svg width="117" height="117" viewBox="0 0 117 117" fill="none" xmlns="http://www.w3.org/2000/svg">
<g clip-path="url(#clip0_177_11962)">
<path d="M3.2001 49.645C1.1408 44.069 -0.379915 38.3664 0.0953085 32.2835C0.380443 28.5451 1.77443 25.3769 4.49905 22.7474C7.47711 19.9277 10.2651 16.9813 13.1798 14.13C16.9816 10.3916 21.7655 10.3916 25.5673 14.13C27.9117 16.4427 30.2562 18.7872 32.5689 21.1316C34.8183 23.381 37.0994 25.6621 39.3804 27.9115C43.3406 31.935 43.3723 36.6239 39.4121 40.6158C36.5608 43.4671 33.7411 46.3501 30.8264 49.1381C30.0661 49.8668 30.0027 50.5004 30.3829 51.4192C32.2838 55.9813 35.0401 60.0366 38.1132 63.8383C44.3545 71.4736 51.3878 78.2851 59.7517 83.5443C61.5575 84.6531 63.5218 85.4769 65.4227 86.5223C66.4048 87.0293 67.0384 86.8708 67.8305 86.0788C70.6501 83.1641 73.5648 80.2811 76.4479 77.3981C80.2497 73.628 85.0019 73.628 88.8037 77.3981C93.4609 82.0236 98.0864 86.6491 102.712 91.3063C106.577 95.2031 106.545 99.987 102.649 103.916C100.019 106.577 97.231 109.08 94.7598 111.868C91.1481 115.923 86.586 117.222 81.4219 116.968C73.85 116.556 66.9117 114.054 60.1635 110.79C45.2415 103.535 32.5055 93.4923 21.8289 80.788C13.9718 71.4102 7.47711 61.1771 3.2001 49.645ZM117 58.1357C117 26.1056 90.9263 0 58.8646 0V11.0569C84.8118 11.0569 105.943 32.1885 105.943 58.1357H117ZM85.1603 58.1357H96.2172C96.2172 37.5427 79.4576 20.7514 58.8329 20.7514V31.8083C65.8662 31.8083 72.456 34.5329 77.43 39.5069C82.4357 44.5126 85.1603 51.1024 85.1603 58.1357Z" fill="white"/>
</g>
<defs>
<clipPath id="clip0_177_11962">
<rect width="117" height="117" fill="white"/>
</clipPath>
</defs>
</svg>
