<svg width="133" height="133" viewBox="0 0 133 133" fill="none" xmlns="http://www.w3.org/2000/svg">
<g clip-path="url(#clip0)">
<path d="M128.948 91.7839L77.5833 40.4195V17.6294C77.5833 14.0273 76.7867 10.4253 75.2281 7.03099L74.0505 4.81432C72.6651 1.83568 69.7904 0 66.5 0C63.2096 0 60.3349 1.83568 59.0187 4.71042L57.7372 7.16953C56.2133 10.4253 55.4167 14.062 55.4167 17.6641V40.4542L4.05234 91.7839C1.45469 94.3815 0 97.8797 0 101.586V108.062C0 109.067 0.554167 110.002 1.45469 110.487C2.35521 110.972 3.42891 110.937 4.29479 110.383L56.525 76.9253C57.0445 85.307 57.7372 92.3034 58.6031 100.824L59.469 109.552L40.0732 122.367C39.2766 122.886 38.8263 123.752 38.8263 124.688V130.229C38.8263 131.06 39.2073 131.857 39.8654 132.377C40.5234 132.896 41.3893 133.104 42.1859 132.931L66.5346 127.528L90.8833 132.931C91.0911 132.965 91.299 133 91.4721 133C92.0956 133 92.719 132.792 93.2039 132.377C93.862 131.857 94.243 131.06 94.243 130.195V124.653C94.243 123.718 93.7927 122.852 92.9961 122.332L73.6003 109.517L74.4661 100.754C75.332 92.2341 76.0247 85.2378 76.5443 76.856L128.774 110.314C129.64 110.868 130.714 110.903 131.58 110.418C132.48 109.933 133.035 108.998 133.035 107.993V101.482C133 97.8797 131.58 94.3815 128.948 91.7839Z" fill="white"/>
</g>
<defs>
<clipPath id="clip0">
<rect width="133" height="133" fill="white"/>
</clipPath>
</defs>
</svg>
