<svg width="115" height="112" viewBox="0 0 115 112" fill="none" xmlns="http://www.w3.org/2000/svg">
<g clip-path="url(#clip0)">
<path d="M104.893 53.4437H102.265L88.7881 26.4178H85.5762V12.9048H67.6074H47.3926H29.4238V26.4178H26.2119L12.7354 53.4437H10.1074C4.53711 53.4437 0 57.9931 0 63.5784V93.9826H6.73828V112H24.707V93.9826H90.293V112H108.262V93.9826H115V63.5784C115 57.9931 110.463 53.4437 104.893 53.4437ZM63.1152 19.6613H78.8379V26.4178H63.1152V19.6613ZM36.1621 19.6613H51.8848V26.4178H36.1621V19.6613ZM30.3896 33.1742H47.3926H67.6074H84.6104L94.7178 53.4437H20.2822L30.3896 33.1742ZM22.6855 80.4696C18.957 80.4696 15.9473 77.4517 15.9473 73.7132C15.9473 69.9746 18.957 66.9567 22.6855 66.9567C26.4141 66.9567 29.4238 69.9746 29.4238 73.7132C29.4238 77.4517 26.4141 80.4696 22.6855 80.4696ZM92.3145 80.4696C88.5859 80.4696 85.5762 77.4517 85.5762 73.7132C85.5762 69.9746 88.5859 66.9567 92.3145 66.9567C96.043 66.9567 99.0527 69.9746 99.0527 73.7132C99.0527 77.4517 96.043 80.4696 92.3145 80.4696Z" fill="white"/>
<path d="M20.4395 15.157H6.96289V21.9135H20.4395V15.157Z" fill="white"/>
<path d="M10.3224 0.010919L8.24023 6.43701L21.0578 10.6125L23.1399 4.18643L10.3224 0.010919Z" fill="white"/>
<path d="M108.037 15.157H94.5605V21.9135H108.037V15.157Z" fill="white"/>
<path d="M104.691 -0.00827237L91.873 4.16724L93.9552 10.5933L106.773 6.41782L104.691 -0.00827237Z" fill="white"/>
</g>
<defs>
<clipPath id="clip0">
<rect width="115" height="112" fill="white"/>
</clipPath>
</defs>
</svg>
