<svg width="113" height="113" viewBox="0 0 113 113" fill="none" xmlns="http://www.w3.org/2000/svg">
<path d="M78.1582 81.6012C80.2181 83.6611 80.2181 87.0157 78.1582 89.1051C76.0983 91.165 72.7436 91.165 70.6543 89.1051C68.5944 87.0452 68.5944 83.6905 70.6543 81.6012C72.7436 79.5118 76.0983 79.5118 78.1582 81.6012Z" fill="white"/>
<path d="M45.4062 81.6012C47.4661 83.6611 47.4661 87.0157 45.4062 89.1051C43.3464 91.165 39.9917 91.165 37.9023 89.1051C35.8424 87.0452 35.8424 83.6905 37.9023 81.6012C39.9917 79.5118 43.3464 79.5118 45.4062 81.6012Z" fill="white"/>
<path d="M70.625 42.375H42.375C38.4906 42.375 35.3125 45.5531 35.3125 49.4375V63.5625H77.6875V49.4375C77.6875 45.5531 74.5094 42.375 70.625 42.375Z" fill="white"/>
<path d="M56.5 0C25.3073 0 0 25.3073 0 56.5V113H21.7466L29.074 98.875H28.25C24.3362 98.875 21.1875 95.7263 21.1875 91.8125V49.4375C21.1875 37.7549 30.6924 28.25 42.375 28.25H70.625C82.3076 28.25 91.8125 37.7549 91.8125 49.4375V91.8125C91.8125 95.7263 88.6638 98.875 84.75 98.875H83.926L91.2534 113H113V56.5C113 25.3073 87.6927 0 56.5 0Z" fill="white"/>
<path d="M40.4036 98.875L36.1367 113H76.8344L72.5675 98.875H40.4036Z" fill="white"/>
</svg>
