<svg width="123" height="123" viewBox="0 0 123 123" fill="none" xmlns="http://www.w3.org/2000/svg">
<g clip-path="url(#clip0)">
<path d="M19.2188 30.75C17.1047 30.75 15.375 32.4797 15.375 34.5937V38.4375H3.84375C1.72969 38.4375 0 40.1672 0 42.2812V65.3437C0 67.4578 1.72969 69.1875 3.84375 69.1875H15.375V73.0312C15.375 75.1453 17.1047 76.875 19.2188 76.875H21.549L36.9961 118.075C37.933 120.55 40.0471 122.327 42.6656 122.856C43.1701 122.952 43.6986 123.024 44.2031 123.024C46.2451 123.024 48.215 122.207 49.6084 120.742L58.8334 111.589C61.1877 109.235 61.7643 105.535 60.2508 102.7L47.3502 76.875H57.5602C58.8814 76.9471 60.1787 77.1392 61.5 77.2594V30.3656C60.1787 30.4857 58.8574 30.7019 57.5121 30.75H19.2188Z" fill="white"/>
<path d="M122.375 1.8498C122.303 1.72969 122.231 1.60957 122.135 1.48945C121.703 0.960937 121.174 0.504492 120.526 0.264258C120.502 0.264258 120.478 0.216211 120.454 0.216211C120.381 0.192187 120.309 0.240234 120.237 0.216211C119.877 0.120117 119.541 0 119.156 0C118.892 0 118.676 0.0960938 118.412 0.144141C118.267 0.168164 118.123 0.192188 117.979 0.240234C117.306 0.456445 116.754 0.816797 116.297 1.32129C116.273 1.34531 116.225 1.36934 116.201 1.39336C104.214 15.9516 87.4934 25.6811 69.1875 29.2605V78.3885C87.4934 81.9439 104.214 91.6734 116.177 106.232C116.201 106.28 116.273 106.28 116.297 106.328C116.562 106.616 116.898 106.856 117.258 107.072C117.379 107.145 117.475 107.241 117.571 107.289C118.051 107.505 118.58 107.625 119.132 107.625C119.565 107.625 119.997 107.553 120.429 107.409C120.454 107.409 120.478 107.361 120.502 107.361C121.15 107.096 121.679 106.688 122.111 106.136C122.207 106.015 122.279 105.895 122.351 105.775C122.712 105.175 122.976 104.526 122.976 103.781V3.84375C123 3.09902 122.736 2.45039 122.375 1.8498Z" fill="white"/>
</g>
<defs>
<clipPath id="clip0">
<rect width="123" height="123" fill="white"/>
</clipPath>
</defs>
</svg>
