<svg width="117" height="117" viewBox="0 0 117 117" fill="none" xmlns="http://www.w3.org/2000/svg">
<g clip-path="url(#clip0)">
<path d="M65.8411 85.1506C63.4988 85.8076 61.0422 86.1504 58.5 86.1504C55.9578 86.1504 53.5012 85.8076 51.1589 85.1506L39.3047 113.801C45.3889 115.915 51.873 117 58.5 117C65.127 117 71.6111 115.886 77.6953 113.801L65.8411 85.1506Z" fill="white"/>
<path d="M85.1504 51.1589C85.8074 53.5012 86.1501 55.9578 86.1501 58.5C86.1501 61.0422 85.8074 63.4988 85.1504 65.8411L113.801 77.6953C115.914 71.6111 117 65.127 117 58.5C117 51.873 115.886 45.3889 113.801 39.3047L85.1504 51.1589Z" fill="white"/>
<path d="M51.1589 31.8494C53.5012 31.1924 55.9578 30.8496 58.5 30.8496C61.0422 30.8496 63.4988 31.1924 65.8411 31.8494L77.6953 3.19922C71.6111 1.11401 65.127 0 58.5 0C51.873 0 45.3889 1.11401 39.3047 3.19922L51.1589 31.8494Z" fill="white"/>
<path d="M31.8494 65.8411C31.1924 63.4988 30.8496 61.0422 30.8496 58.5C30.8496 55.9578 31.1924 53.5012 31.8494 51.1589L3.19922 39.3047C1.11401 45.3889 0 51.873 0 58.5C0 65.127 1.11401 71.6111 3.19922 77.6953L31.8494 65.8411Z" fill="white"/>
<path d="M72.1543 34.4773C76.4675 36.9338 80.0666 40.533 82.5232 44.8462L114.744 31.5066C116.201 28.5359 117 25.251 117 21.8518C117 9.82617 107.203 0.0285645 95.1772 0.0285645C91.7781 0.0285645 88.4646 0.799805 85.5225 2.28516L72.1543 34.4773ZM110.145 21.8232C110.145 24.1084 109.631 26.3364 108.66 28.3359C106.232 24.3083 103.29 20.5378 99.8618 17.1387C96.4341 13.7109 92.6921 10.7974 88.6645 8.34082C90.6641 7.36963 92.8921 6.85547 95.1772 6.85547C103.432 6.85547 110.145 13.5681 110.145 21.8232Z" fill="white"/>
<path d="M34.4773 44.8462C36.9338 40.533 40.533 36.9338 44.8462 34.4773L31.478 2.25659C28.5073 0.77124 25.2224 0 21.8232 0C9.79761 0 0 9.79761 0 21.8232C0 25.2224 0.77124 28.5359 2.25659 31.478L34.4773 44.8462ZM21.8232 6.85547C24.1084 6.85547 26.3364 7.36963 28.3359 8.34082C24.3083 10.7688 20.5378 13.7109 17.1387 17.1387C13.7109 20.5664 10.7974 24.3083 8.34082 28.3359C7.36963 26.3364 6.85547 24.1084 6.85547 21.8232C6.85547 13.5681 13.5681 6.85547 21.8232 6.85547Z" fill="white"/>
<path d="M44.8462 82.5227C40.533 80.0662 36.9338 76.467 34.4773 72.1538L2.25659 85.522C0.77124 88.4927 0 91.7776 0 95.1768C0 107.202 9.79761 117 21.8232 117C25.2224 117 28.5359 116.229 31.478 114.743L44.8462 82.5227ZM6.85547 95.1768C6.85547 92.8916 7.36963 90.6636 8.34082 88.6641C10.7688 92.6916 13.7109 96.4622 17.1387 99.8613C20.5664 103.289 24.3083 106.203 28.3359 108.659C26.3364 109.63 24.1084 110.145 21.8232 110.145C13.5681 110.145 6.85547 103.432 6.85547 95.1768Z" fill="white"/>
<path d="M82.5232 72.1538C80.0666 76.467 76.4675 80.0662 72.1543 82.5227L85.4939 114.743C88.4646 116.2 91.7495 117 95.1487 117C107.174 117 116.972 107.202 116.972 95.1768C116.972 91.7776 116.201 88.4641 114.715 85.522L82.5232 72.1538ZM95.1772 110.145C92.8921 110.145 90.6641 109.63 88.6645 108.659C92.6921 106.231 96.4626 103.289 99.8618 99.8613C103.29 96.4336 106.203 92.6916 108.66 88.6641C109.631 90.6636 110.145 92.8916 110.145 95.1768C110.145 103.432 103.432 110.145 95.1772 110.145Z" fill="white"/>
</g>
<defs>
<clipPath id="clip0">
<rect width="117" height="117" fill="white"/>
</clipPath>
</defs>
</svg>
