<svg width="129" height="126" viewBox="0 0 129 126" fill="none" xmlns="http://www.w3.org/2000/svg">
<path d="M75.8879 7.27933C75.8879 3.26444 72.9652 0 69.3707 0H59.6285C56.034 0 53.1113 3.26444 53.1113 7.27933V18.1608H75.8879V7.27933Z" fill="white"/>
<path d="M65.4402 45.5896L103.267 56.6212V29.38C103.267 27.8416 102.158 26.6033 100.781 26.6033H28.2184C26.841 26.6033 25.7324 27.8416 25.7324 29.38V56.6212L63.559 45.5896C64.1637 45.402 64.8355 45.402 65.4402 45.5896Z" fill="white"/>
<path d="M125.237 117.482C121.072 117.482 119.191 116.432 116.805 115.118C115.697 114.481 114.521 113.843 113.11 113.28C111.162 112.492 108.777 111.929 105.484 111.854L119.325 72.9434C119.627 72.0053 119.392 71.2549 119.224 70.8796C119.056 70.5044 118.62 69.829 117.746 69.5664L64.5 54.0321L11.2875 69.5664C10.4141 69.829 10.0109 70.5044 9.80937 70.8796C9.64141 71.2549 9.40625 72.0428 9.70859 72.9434L23.5156 111.854C20.2234 111.892 17.8383 112.492 15.8898 113.28C14.4789 113.843 13.3367 114.481 12.2281 115.118C9.84297 116.432 7.96172 117.482 3.79609 117.482C1.71328 117.482 0 119.358 0 121.722C0 124.049 1.67969 125.962 3.79609 125.962C9.74219 125.962 12.8664 124.236 15.5875 122.698C16.6625 122.098 17.6367 121.572 18.7453 121.16C20.1227 120.634 21.7352 120.334 24.0195 120.334C24.557 120.334 25.0273 120.334 25.4977 120.372C28.6891 120.597 30.3687 121.535 32.4516 122.698C35.2062 124.236 38.2969 125.962 44.243 125.962C50.1891 125.962 53.3133 124.236 56.0344 122.698C58.4195 121.385 60.3008 120.334 64.4664 120.334C68.632 120.334 70.5133 121.385 72.8984 122.698C75.6531 124.236 78.7437 125.962 84.6898 125.962C90.6359 125.962 93.7601 124.236 96.4812 122.698C98.564 121.535 100.277 120.597 103.469 120.372C103.905 120.334 104.409 120.334 104.913 120.334C107.198 120.334 108.777 120.634 110.154 121.16C111.296 121.572 112.27 122.135 113.345 122.736C116.1 124.274 119.191 126 125.137 126C127.22 126 128.933 124.124 128.933 121.76C129 119.359 127.32 117.482 125.237 117.482ZM29.5625 75.645L63.5594 65.7391C64.1976 65.5515 64.8359 65.5515 65.4742 65.7391L99.4375 75.645C101.453 76.2453 102.662 78.5342 102.125 80.7855C101.688 82.6992 100.143 83.9374 98.4633 83.9374C98.1609 83.9374 97.825 83.8999 97.4891 83.7873L64.5 74.1816L31.4773 83.8248C29.4617 84.4252 27.3789 83.0744 26.875 80.8231C26.3375 78.5342 27.5469 76.2453 29.5625 75.645Z" fill="white"/>
</svg>
