<svg width="108" height="108" viewBox="0 0 108 108" fill="none" xmlns="http://www.w3.org/2000/svg">
<g clip-path="url(#clip0)">
<path d="M74.5234 33.4759C79.9023 38.8548 88.2977 46.1321 97.6422 50.2243C99.1187 50.8782 100.427 51.3423 101.566 51.722C111.058 39.0657 110.045 20.9673 98.5281 9.4501C87.0109 -2.06709 68.9336 -3.0585 56.2773 6.43369C56.6359 7.57275 57.1211 8.88057 57.775 10.3571C60.032 15.5251 64.7781 23.7306 74.5234 33.4759Z" fill="white"/>
<path d="M60.7711 108L93.3187 59.4637C94.3523 58.7887 95.3438 58.0504 96.3141 57.2699C89.7539 54.6332 80.4094 49.2754 69.5883 38.4543C58.7672 27.6332 53.4094 18.2887 50.7727 11.7285C49.9711 12.6988 49.2328 13.6902 48.5789 14.7238L0 47.2293L3.90234 53.0512L43.8961 26.241C42.1664 35.3324 44.3391 45.0355 50.4352 52.6082L16.1156 86.9277L21.0727 91.8848L55.3922 57.5652C62.9648 63.6613 72.668 65.834 81.7594 64.1043L54.9492 104.098L60.7711 108Z" fill="white"/>
</g>
<defs>
<clipPath id="clip0">
<rect width="108" height="108" fill="white"/>
</clipPath>
</defs>
</svg>
