<svg width="132" height="132" viewBox="0 0 132 132" fill="none" xmlns="http://www.w3.org/2000/svg">
<path d="M131.046 0.951923C129.773 -0.317308 127.784 -0.317308 126.51 0.951923L107.415 19.9904L105.187 17.7692C102.641 15.2308 99.2193 13.8029 95.5593 13.8029C91.8993 13.8029 88.4779 15.2308 85.9318 17.7692L22.7564 80.7548L18.9372 76.9471C17.9824 75.9952 16.7889 75.5192 15.4363 75.5192C14.0837 75.5192 12.8902 75.9952 11.9354 76.9471L11.8558 77.0264C9.94626 78.9303 9.94626 82.1034 11.8558 84.0072L19.1759 91.3053L8.75277 101.697L8.43451 101.38C7.63885 100.428 6.36579 99.9519 5.09274 99.9519C3.74011 99.9519 2.54662 100.428 1.59183 101.38L1.51227 101.459C-0.397318 103.363 -0.397318 106.536 1.51227 108.44L23.6316 130.493C24.5864 131.445 25.8595 131.921 27.1325 131.921C28.4851 131.921 29.6786 131.365 30.6334 130.493L30.713 130.413C32.6226 128.51 32.6226 125.337 30.713 123.433L30.3947 123.115L40.8179 112.724L48.1379 120.022C49.0927 120.974 50.2862 121.45 51.6389 121.45C52.9915 121.45 54.185 120.974 55.1398 120.022L55.2193 119.942C57.1289 118.038 57.1289 114.865 55.2193 112.962L51.3206 109.075L114.496 46.0889C119.827 40.774 119.827 32.1274 114.496 26.8918L111.95 24.3534L131.046 5.3149C132.239 4.20433 132.239 2.14183 131.046 0.951923ZM110.04 41.726L77.0204 74.6466L73.6786 71.3149L101.368 43.7091C102.641 42.4399 102.641 40.4567 101.368 39.1875C101.288 39.1082 101.129 39.0288 101.049 38.9495C100.97 38.8702 100.89 38.7115 100.811 38.6322L94.3658 32.2067C93.0927 30.9375 91.1036 30.9375 89.8305 32.2067C88.5575 33.476 88.5575 35.4591 89.8305 36.7284L94.5249 41.4087L91.4219 44.5024L86.7275 39.8221C85.4544 38.5529 83.4653 38.5529 82.1922 39.8221C80.9191 41.0914 80.9191 43.0745 82.1922 44.3438L86.8866 49.024L83.7835 52.1178L79.0891 47.4375C77.8161 46.1683 75.8269 46.1683 74.5539 47.4375C73.2808 48.7067 73.2808 50.6899 74.5539 51.9591L79.2483 56.6394L76.1452 59.7332L71.4508 55.0529C70.1777 53.7837 68.1886 53.7837 66.9155 55.0529C65.6425 56.3221 65.6425 58.3053 66.9155 59.5745L71.6099 64.2548L69.0638 66.7933L57.4472 55.1322L90.4671 22.2115C91.8197 20.863 93.6497 20.0697 95.6389 20.0697C97.5484 20.0697 99.3785 20.863 100.811 22.2115L110.12 31.4928C112.825 34.2692 112.825 38.8702 110.04 41.726Z" fill="white"/>
</svg>
