<svg width="121" height="132" viewBox="0 0 121 132" fill="none" xmlns="http://www.w3.org/2000/svg">
<g clip-path="url(#clip0)">
<path d="M118.267 19.2586C116.746 19.2586 115.508 20.4961 115.508 22.0172C115.508 24.4406 113.007 27.1219 108.65 29.5453C109.527 24.8016 109.991 19.6711 109.991 13.9992C109.991 13.9477 109.939 13.5094 109.913 13.3805C109.862 12.9164 109.836 12.4781 109.681 12.0398C105.556 0.128906 57.058 0 54.9953 0C37.6175 0 3.79011 2.44922 0.33518 11.7562C0.103132 12.375 0 13.0453 0 13.7156C0 13.7414 0 13.7414 0 13.7414C0 19.568 5.1824 24.0539 11.1899 29.2359C18.8216 35.8617 27.4848 43.3383 27.4848 54.9914C27.4848 65.2523 24.9838 69.6352 22.3539 74.25C19.5951 79.0711 16.7848 84.1242 16.5527 94.7977C9.5913 92.1422 5.51758 88.5844 5.51758 85.2328C5.51758 82.3453 8.6889 79.2258 14.2065 76.6992C15.5988 76.0547 16.1918 74.4305 15.5472 73.0641C14.9026 71.6719 13.2783 71.0789 11.9118 71.6977C4.22843 75.2297 0 80.0508 0 85.2586C0 96.2414 18.3318 104.517 42.6194 104.517C66.9071 104.517 85.2389 96.2414 85.2389 85.2586C85.2389 83.1188 84.5169 81.0047 83.0731 78.9938C82.1965 77.7562 80.469 77.4727 79.2314 78.3492C77.9938 79.2258 77.7102 80.9531 78.5868 82.1906C79.3345 83.2477 79.7213 84.2789 79.7213 85.2586C79.7213 90.5438 69.6917 96.293 54.2218 98.2781C61.3895 85.568 70.8261 77.9625 79.9791 70.6406C87.9977 64.2469 95.5521 58.1883 101.173 49.2164C101.766 48.2625 101.714 47.025 101.044 46.1227C100.374 45.2203 99.1875 44.8078 98.1304 45.0914C87.3015 47.9789 74.2553 49.5 60.5129 49.5C53.603 49.5 46.7963 49.1133 40.299 48.3398C38.8035 48.1594 37.7206 46.793 37.9011 45.2977C38.0816 43.7766 39.4481 42.6937 40.9693 42.9C47.2604 43.6477 53.8351 44.0086 60.5387 44.0086C77.9423 44.0086 94.4176 41.4305 105.762 36.9188L105.788 36.9445C118.396 31.943 121.026 26.0648 121.026 22.0172C121 20.4703 119.788 19.2586 118.267 19.2586ZM54.9953 11.0086C69.9237 11.0086 81.1394 12.2977 88.6938 13.7414C81.0362 15.2109 69.769 16.5 54.9953 16.5C40.0669 16.5 28.877 15.2109 21.2968 13.7672C28.9544 12.2977 40.2474 11.0086 54.9953 11.0086Z" fill="white"/>
<path d="M44.993 109.957L42.621 110.009C36.0979 110.009 29.3943 109.338 23.2837 108.075C22.2523 107.869 21.1952 108.255 20.5507 109.106C19.9061 109.957 19.8029 111.066 20.267 112.02C26.8159 125.013 39.4754 131.459 40.0169 131.716C40.4036 131.923 40.8162 132 41.2545 132C41.6928 132 42.1311 131.897 42.5178 131.691C43.2913 131.278 43.8328 130.53 43.9617 129.654C44.8383 124.008 46.0501 118.723 47.6745 113.515C47.9323 112.664 47.7776 111.736 47.2361 111.04C46.7205 110.344 45.7923 109.905 44.993 109.957Z" fill="white"/>
</g>
<defs>
<clipPath id="clip0">
<rect width="121" height="132" fill="white"/>
</clipPath>
</defs>
</svg>
