<svg width="96" height="140" viewBox="0 0 96 140" fill="none" xmlns="http://www.w3.org/2000/svg">
<g clip-path="url(#clip0)">
<path d="M51.2917 92.3387C52.8993 92.3387 54.2008 91.0382 54.2008 89.4316V88.0546C54.2008 86.448 52.8993 85.1475 51.2917 85.1475H3.13858C1.53093 85.1475 0.229492 86.448 0.229492 88.0546V89.4316C0.229492 91.0382 1.53093 92.3387 3.13858 92.3387H51.2917Z" fill="white"/>
<path d="M81.5312 32.8962C77.0145 28.3825 71.7322 24.7869 65.8374 22.3388C63.9235 21.4973 61.7034 22.1858 60.5551 23.9454L57.1867 29.1475C56.3446 28.8415 55.4259 28.6885 54.5073 28.612C54.2011 28.612 53.9714 28.612 53.6652 28.612C52.8996 28.612 52.1341 28.6885 51.3685 28.8415L57.2633 19.6612L59.1006 16.8306C60.402 14.8415 59.7896 12.1639 57.7991 10.8634L42.1054 0.688525C41.3398 0.229508 40.5743 0 39.7322 0C38.2776 0 36.8996 0.688525 36.0575 1.98907L8.65082 44.7541C7.34938 46.7432 7.96182 49.4208 9.95225 50.7213L12.9379 52.6339L11.5599 54.776L10.1819 56.918L9.41637 58.1421C8.11493 60.1312 8.72737 62.8088 10.7178 64.1093L13.3207 65.7159C15.3111 67.0164 17.9905 66.4044 19.292 64.4153L20.1341 63.1148L21.5121 60.9727L22.89 58.8306L25.7991 60.7432C26.4881 61.2022 27.3302 61.4317 28.1723 61.4317C29.6269 61.4317 31.0049 60.7432 31.847 59.4426L43.1006 41.9235C43.3302 42.9945 43.713 43.9126 44.2489 44.8306C44.7082 45.5956 45.2441 46.3607 45.8566 46.9727C47.9235 49.1913 50.9092 50.4918 54.2011 50.4153C60.0192 50.2623 64.6891 45.5191 64.8422 39.7814C64.9188 38.4044 64.6891 37.0273 64.2298 35.7268C67.2154 37.3333 70.0479 39.4754 72.5743 41.9235C79.4642 48.8087 83.2154 57.9126 83.2154 67.6284C83.2154 77.3443 79.4642 86.4481 72.5743 93.3333C68.2872 97.6175 63.158 100.678 57.5695 102.361C57.1867 102.514 56.7274 102.514 56.268 102.514H41.8757C39.5025 102.514 37.5121 100.601 37.5121 98.153V97.1585H16.8422V116.59C17.3015 116.59 17.7609 116.514 18.2202 116.514H80.3063C85.2058 115.596 89.0336 111.311 89.0336 106.109C89.0336 102.896 87.579 100.066 85.3589 98.0765C88.1149 94.5574 90.4116 90.7322 92.1723 86.6011C94.7752 80.4809 96.0767 74.0546 96.0767 67.3989C96.0767 60.7432 94.7752 54.3169 92.1723 48.1967C89.646 42.6885 86.0479 37.4098 81.5312 32.8962ZM53.7417 43.5301C51.9044 43.5301 50.3733 42.306 49.914 40.623C49.8374 40.3169 49.7609 39.9344 49.7609 39.6284C49.7609 37.7159 51.1389 36.0328 53.0527 35.7268C53.2824 35.6503 53.5121 35.6503 53.7417 35.6503C55.8853 35.6503 57.646 37.4098 57.646 39.5519C57.646 41.694 55.8853 43.5301 53.7417 43.5301ZM79.9235 109.705C79.4642 109.934 78.9283 110.011 78.3924 110.011C76.9379 110.011 75.713 109.169 75.1006 107.945C74.8709 107.486 74.7178 106.874 74.7178 106.339C74.7178 104.273 76.3255 102.667 78.3924 102.667C78.9283 102.667 79.4642 102.82 79.9235 102.973C80.1532 103.126 80.3829 103.202 80.6125 103.355C81.4546 104.044 82.0671 105.115 82.0671 106.262C82.1436 107.869 81.225 109.169 79.9235 109.705Z" fill="white"/>
<path d="M16.8421 121.869C7.42584 122.557 0 130.437 0 140H75.6364C78.0096 140 80 138.087 80 135.639V121.792H18.2201C17.7608 121.792 17.3014 121.869 16.8421 121.869Z" fill="white"/>
</g>
<defs>
<clipPath id="clip0">
<rect width="96" height="140" fill="white"/>
</clipPath>
</defs>
</svg>
