<svg width="141" height="112" viewBox="0 0 141 112" fill="none" xmlns="http://www.w3.org/2000/svg">
<path d="M135.954 75.0205C141.299 62.9204 142.369 54.8112 139.375 49.5042C138.22 47.4663 135.312 44.0273 128.897 44.0273H119.788V24.1152C119.788 19.0629 122.439 18.1713 122.696 18.0864C123.551 17.9591 124.065 17.1948 123.979 16.3457L123.466 9.80743C123.423 9.38287 123.209 8.9583 122.91 8.70356C122.568 8.40637 122.14 8.279 121.712 8.32146C117.607 8.61865 109.866 12.3548 109.866 24.1152V44.0273H82.0255L76.081 4.20318C75.7389 1.78317 73.6433 0 71.1629 0H21.5541C18.8171 0 16.5933 2.20773 16.5933 4.92494V14.5625C16.5933 17.025 18.3894 19.0629 20.7843 19.445V51.7119C8.68153 55.9576 0 67.4632 0 80.9644C0 98.1168 13.9845 112 31.2621 112C44.4768 112 55.7671 103.848 60.343 92.3427H99.5596C99.5596 92.3851 99.5596 92.4276 99.5596 92.4701C99.5596 103.254 108.369 112 119.232 112C130.095 112 138.904 103.254 138.904 92.4701C138.904 87.4602 136.98 82.8749 133.858 79.3935C134.585 77.9924 135.269 76.5489 135.954 75.0205ZM31.2621 95.5694C23.1365 95.5694 16.5505 89.0311 16.5505 80.9644C16.5505 72.8977 23.1365 66.3594 31.2621 66.3594C39.3876 66.3594 45.9736 72.8977 45.9736 80.9644C45.9736 89.0311 39.3876 95.5694 31.2621 95.5694ZM35.3676 43.8575V17.1099H63.0801L67.1001 43.815H35.3676V43.8575ZM119.275 98.881C115.725 98.881 112.817 95.9939 112.817 92.4701C112.817 88.9462 115.725 86.0591 119.275 86.0591C122.824 86.0591 125.732 88.9462 125.732 92.4701C125.732 95.9939 122.824 98.881 119.275 98.881Z" fill="white"/>
</svg>
