<svg width="132" height="149" viewBox="0 0 132 149" fill="none" xmlns="http://www.w3.org/2000/svg">
<path d="M2.03817 146.497C3.59817 148.318 6.34261 148.52 8.16261 146.959L17.0026 139.328H114.994L123.834 146.959C125.654 148.52 128.369 148.318 129.958 146.497C131.518 144.676 131.316 141.959 129.496 140.369L106.963 120.944C115.832 118.227 122.332 110.046 122.332 100.305V39.3125C122.332 27.6633 112.827 17.6328 100.665 17.6328H94.6848L89.6004 7.19766C87.376 2.74609 82.9271 0 77.9871 0H54.0382C49.0693 0 44.6204 2.74609 42.396 7.19766L37.3115 17.6328H31.3315C19.1693 17.6328 9.66484 27.6633 9.66484 39.3125V100.305C9.66484 110.046 16.1648 118.227 25.0626 120.944L2.52928 140.369C0.680393 141.93 0.47817 144.676 2.03817 146.497ZM27.056 130.656L37.1093 121.984H52.9982V108.977C52.9982 101.808 58.8337 95.9688 65.9982 95.9688C73.1626 95.9688 78.9982 101.808 78.9982 108.977V121.984H94.8582L104.912 130.656H27.056ZM26.9982 100.305C26.9982 97.9055 28.9337 95.9688 31.3315 95.9688H39.9982C42.396 95.9688 44.3315 97.9055 44.3315 100.305C44.3315 102.704 42.396 104.641 39.9982 104.641H31.3315C28.9337 104.641 26.9982 102.704 26.9982 100.305ZM100.665 104.641H91.9982C89.6004 104.641 87.6648 102.704 87.6648 100.305C87.6648 97.9055 89.6004 95.9688 91.9982 95.9688H100.665C103.063 95.9688 104.998 97.9055 104.998 100.305C104.998 102.704 103.063 104.641 100.665 104.641ZM20.4115 43.6484H111.614L101.012 70.1555C99.0182 75.1273 94.2804 78.3359 88.936 78.3359H43.0604C37.716 78.3359 32.9782 75.1273 30.9848 70.1555L20.4115 43.6484Z" fill="white"/>
</svg>
