<svg width="124" height="124" viewBox="0 0 124 124" fill="none" xmlns="http://www.w3.org/2000/svg">
<g clip-path="url(#clip0)">
<path d="M66.4875 41.4302C66.2614 42.4313 66.1323 43.4323 66.1323 44.4656C66.1323 51.8281 72.1385 57.8344 79.501 57.8344C80.5343 57.8344 81.5677 57.7052 82.5364 57.4792C84.4739 59.3198 86.8635 60.6437 89.4791 61.2896V40.1385L82.7625 33.4219C81.3416 32.001 81.3416 29.7083 82.7625 28.2875C84.1833 26.8667 86.476 26.8667 87.8969 28.2875L89.4791 29.8698V23.0885C89.4791 21.0865 91.0937 19.4396 93.0958 19.4396C95.0979 19.4396 96.7448 21.0542 96.7448 23.0885V29.8698L98.3271 28.2875C99.7479 26.8667 102.041 26.8667 103.461 28.2875C104.882 29.7083 104.882 32.001 103.461 33.4219L96.7448 40.1385V61.2896C99.3281 60.6437 101.75 59.3521 103.687 57.4792C104.689 57.7052 105.69 57.8344 106.723 57.8344C114.085 57.8344 120.092 51.8281 120.092 44.4656C120.092 43.4323 119.962 42.399 119.736 41.4302C122.417 38.6208 123.967 34.8104 123.967 30.8708C123.967 26.9312 122.417 23.1208 119.736 20.3115C119.962 19.3104 120.092 18.3094 120.092 17.276C120.092 9.91354 114.085 3.90729 106.723 3.90729C105.69 3.90729 104.656 4.03646 103.687 4.2625C100.878 1.55 97.0677 0 93.1281 0C89.1885 0 85.3781 1.55 82.5687 4.23021C81.5677 4.00417 80.5666 3.875 79.5333 3.875C72.1708 3.875 66.1646 9.88125 66.1646 17.2437C66.1646 18.2771 66.2937 19.3104 66.5198 20.2792C63.8396 23.1208 62.2896 26.899 62.2896 30.8385C62.2573 34.8104 63.8073 38.6208 66.4875 41.4302Z" fill="white"/>
<path d="M120.383 70.0405H3.64896C1.64688 70.0405 0 71.6551 0 73.6895V120.383C0 122.385 1.61458 124 3.64896 124H120.383C122.385 124 124.032 122.385 124.032 120.351V73.6572C124 71.6551 122.385 70.0405 120.383 70.0405ZM19.1812 100.653H11.4313C9.42917 100.653 7.78229 99.0384 7.78229 97.0041C7.78229 95.002 9.39688 93.3551 11.4313 93.3551H19.2135C21.2156 93.3551 22.8625 94.9697 22.8625 97.0041C22.8302 99.0384 21.2156 100.653 19.1812 100.653ZM42.5281 100.653H34.7458C32.7437 100.653 31.0969 99.0384 31.0969 97.0041C31.0969 95.002 32.7115 93.3551 34.7458 93.3551H42.5281C44.5302 93.3551 46.1771 94.9697 46.1771 97.0041C46.1771 99.0384 44.5625 100.653 42.5281 100.653ZM65.9073 100.653H58.125C56.1229 100.653 54.476 99.0384 54.476 97.0041C54.476 95.002 56.0906 93.3551 58.125 93.3551H65.9073C67.9094 93.3551 69.5562 94.9697 69.5562 97.0041C69.524 99.0384 67.9094 100.653 65.9073 100.653ZM89.2542 100.653H81.4719C79.4698 100.653 77.8229 99.0384 77.8229 97.0041C77.8229 95.002 79.4375 93.3551 81.4719 93.3551H89.2542C91.2562 93.3551 92.9031 94.9697 92.9031 97.0041C92.8708 99.0384 91.2562 100.653 89.2542 100.653ZM112.569 100.653H104.786C102.784 100.653 101.138 99.0384 101.138 97.0041C101.138 95.002 102.752 93.3551 104.786 93.3551H112.569C114.571 93.3551 116.218 94.9697 116.218 97.0041C116.218 99.0384 114.603 100.653 112.569 100.653Z" fill="white"/>
<path d="M13.3688 30.6125H42.5604C48.8573 30.6125 53.9917 25.4781 53.9917 19.1812C53.9917 12.8844 48.8573 7.78229 42.5604 7.78229C42.4635 7.78229 42.3667 7.78229 42.2698 7.78229C39.5896 3.03542 34.5521 0 28.9333 0C24.6708 0 20.7635 1.71146 17.8896 4.68229C16.4365 4.16563 14.9188 3.90729 13.3365 3.90729C6.00625 3.90729 0 9.88125 0 17.2437C0 24.6062 6.00625 30.6125 13.3688 30.6125Z" fill="white"/>
</g>
<defs>
<clipPath id="clip0">
<rect width="124" height="124" fill="white"/>
</clipPath>
</defs>
</svg>
