<svg width="113" height="113" viewBox="0 0 113 113" fill="none" xmlns="http://www.w3.org/2000/svg">
<g clip-path="url(#clip0)">
<path d="M59.8105 6.79766V3.31055C59.8105 1.47871 58.3318 0 56.5 0C54.6682 0 53.1895 1.47871 53.1895 3.31055V6.79766C23.7035 8.51914 0 32.9951 0 62.9004C0 64.7322 1.47871 66.2109 3.31055 66.2109C5.14238 66.2109 6.62109 64.7322 6.62109 62.9004C6.62109 62.0838 10.1523 59.5898 16.5527 59.5898C22.9531 59.5898 26.7051 62.0838 26.7051 62.9004C26.7051 64.7322 28.1838 66.2109 30.0156 66.2109C31.8475 66.2109 33.3262 64.7322 33.3262 62.9004C33.3262 62.0838 36.8574 59.5898 43.2578 59.5898C49.6582 59.5898 53.1895 62.0838 53.1895 62.9004V99.7578C53.1895 107.063 59.1264 113 66.4316 113C73.7369 113 79.6738 107.063 79.6738 99.7578C79.6738 97.926 78.1951 96.4473 76.3633 96.4473C74.5314 96.4473 73.0527 97.926 73.0527 99.7578C73.0527 103.399 70.0732 106.379 66.4316 106.379C62.79 106.379 59.8105 103.399 59.8105 99.7578V62.9004C59.8105 62.0838 63.3418 59.5898 69.7422 59.5898C75.5246 59.5898 78.8131 61.5762 79.4311 62.5693C79.4311 62.5914 79.4311 62.6135 79.4311 62.6135C79.2986 64.4232 80.6449 66.0344 82.4768 66.1668C82.565 66.1668 82.6533 66.1668 82.7416 66.1668C82.7637 66.1668 82.7857 66.1447 82.8299 66.1447C82.8961 66.1447 82.9402 66.1889 83.0064 66.1889C84.8383 66.1889 86.317 64.7102 86.317 62.8783C86.317 62.0617 89.8482 59.5678 96.2486 59.5678C102.649 59.5678 106.401 62.0617 106.401 62.8783C106.401 64.7102 107.88 66.1889 109.712 66.1889C111.543 66.1889 113.022 64.7102 113.022 62.8783C113 32.9951 89.2965 8.51914 59.8105 6.79766Z" fill="white"/>
</g>
<defs>
<clipPath id="clip0">
<rect width="113" height="113" fill="white"/>
</clipPath>
</defs>
</svg>
