<svg width="132" height="132" viewBox="0 0 132 132" fill="none" xmlns="http://www.w3.org/2000/svg">
<g clip-path="url(#clip0)">
<path d="M128.116 124.266H123.991V47.9532C123.991 45.8219 122.272 44.0688 120.106 44.0688H104.637C102.506 44.0688 100.753 45.7875 100.753 47.9532V124.266H93.0187V73.7344C93.0187 71.6032 91.2999 69.85 89.1343 69.85H73.6655C71.5343 69.85 69.7811 71.5688 69.7811 73.7344V124.266H62.0468V87.8969C62.0468 85.7657 60.328 84.0125 58.1624 84.0125H42.6936C40.5624 84.0125 38.8093 85.7313 38.8093 87.8969V124.266H31.178V97.1782C31.178 95.0469 29.4593 93.2938 27.2936 93.2938H11.8249C9.69365 93.2938 7.94053 95.0125 7.94053 97.1782V124.266H3.81553C1.68428 124.266 -0.0688477 125.984 -0.0688477 128.15C-9.76622e-05 130.281 1.71865 132 3.88428 132H128.15C130.281 132 132.034 130.281 132.034 128.116C132 125.984 130.281 124.266 128.116 124.266Z" fill="white"/>
<path d="M3.88438 83.0844C28.0156 83.0844 54.2094 74.4219 77.5844 58.6781C95.9063 46.3375 111.169 30.5938 120.656 14.4719L124.403 28.4969C124.85 30.2156 127.119 31.7281 129.147 31.2469C131.209 30.7656 132.447 28.5656 131.897 26.5031L125.538 2.85314C124.988 0.790639 122.856 -0.446861 120.794 0.103139L97.1781 6.42814C95.1156 6.97814 93.8781 9.10939 94.4281 11.1719C94.9781 13.2344 97.1094 14.4719 99.1719 13.9219L114.4 9.83126C105.566 25.1969 90.9219 40.3563 73.2531 52.25C51.1156 67.1688 26.4688 75.35 3.88438 75.35C1.75313 75.35 0 77.0688 0 79.2344C0 81.3656 1.71875 83.0844 3.88438 83.0844Z" fill="white"/>
</g>
<defs>
<clipPath id="clip0">
<rect width="132" height="132" fill="white"/>
</clipPath>
</defs>
</svg>
