<svg width="132" height="119" viewBox="0 0 132 119" fill="none" xmlns="http://www.w3.org/2000/svg">
<path d="M129.385 89.5209L83.1203 9.86116C75.5794 -3.30854 56.4553 -3.30854 48.9484 9.86116L2.64986 89.5209C-4.89106 102.691 4.48414 119.035 19.7358 119.035H112.095C127.381 119.001 136.926 102.488 129.385 89.5209ZM66.0004 101.34C61.9921 101.34 58.6293 98.0306 58.6293 94.0121C58.6293 90.0275 61.9582 86.6844 66.0004 86.6844C70.0086 86.6844 73.3714 89.9937 73.2016 94.181C73.4054 98.0306 69.8727 101.34 66.0004 101.34ZM72.726 53.9965C72.3864 59.6696 72.0467 65.309 71.707 70.9821C71.5372 72.8055 71.5372 74.494 71.5372 76.3175C71.3673 79.3229 69.0235 81.6529 66.0004 81.6529C62.9772 81.6529 60.6334 79.4917 60.4636 76.4863C59.988 67.639 59.4445 58.9943 58.969 50.1469C58.7991 47.8169 58.6293 45.4869 58.4594 43.1569C58.4594 39.3073 60.6334 36.1668 64.1661 35.1537C67.6988 34.3095 71.1975 35.9979 72.726 39.3072C73.2356 40.4554 73.4054 41.6373 73.4054 42.988C73.2356 46.7025 72.8959 50.3495 72.726 53.9965Z" fill="white"/>
</svg>
