<svg width="119" height="141" viewBox="0 0 119 141" fill="none" xmlns="http://www.w3.org/2000/svg">
<g clip-path="url(#clip0)">
<path d="M119.001 76.8892V59.8149H66.7051V76.8892C66.7051 89.9978 76.25 100.83 88.7204 102.813V132.702H74.0557V141H111.614V132.738H96.9488V102.849C109.456 100.867 119.001 89.9978 119.001 76.8892Z" fill="white"/>
<path d="M33.2789 0H16.8223V11.2727H33.2789V0Z" fill="white"/>
<path d="M44.7246 61.9079L41.3967 57.9055C36.1672 51.6266 33.2781 43.6586 33.2781 35.4704V19.5344H16.8214V35.4704C16.8214 43.6586 13.9324 51.6266 8.70281 57.9055L5.37491 61.9079C3.18068 64.5883 1.57159 67.7094 0.730469 71.0508H49.4056C48.528 67.7094 46.9554 64.5883 44.7246 61.9079Z" fill="white"/>
<path d="M50.138 79.3125H0V111.295H50.138V79.3125Z" fill="white"/>
<path d="M50.138 119.556H0V141H50.138V119.556Z" fill="white"/>
</g>
<defs>
<clipPath id="clip0">
<rect width="119" height="141" fill="white"/>
</clipPath>
</defs>
</svg>
