<svg width="121" height="121" viewBox="0 0 121 121" fill="none" xmlns="http://www.w3.org/2000/svg">
<path d="M84.7 36.3C96.1855 36.3 106.489 40.5303 114.95 47.1947V18.15C114.95 15.125 111.925 12.1 108.9 12.1H102.85V6.05C102.85 2.41055 100.439 0 96.8 0C93.1605 0 90.75 2.41055 90.75 6.05V12.1H30.25V6.05C30.25 2.41055 27.8395 0 24.2 0C20.5605 0 18.15 2.41055 18.15 6.05V12.1H6.05C3.025 12.1 0 14.5105 0 18.15V102.85C0 106.489 3.025 108.9 6.05 108.9H42.9645C38.7342 101.645 36.3 93.1605 36.3 84.7C36.3 58.0895 58.0894 36.3 84.7 36.3Z" fill="white"/>
<path d="M84.7001 48.3999C64.7304 48.3999 48.4001 64.7302 48.4001 84.6999C48.4001 104.67 64.7304 121 84.7001 121C104.67 121 121 104.67 121 84.6999C121 64.7302 104.67 48.3999 84.7001 48.3999ZM96.8001 90.7499H84.7001C81.0607 90.7499 78.6501 88.3394 78.6501 84.6999V66.5499C78.6501 62.9105 81.0607 60.4999 84.7001 60.4999C88.3396 60.4999 90.7501 62.9105 90.7501 66.5499V78.6499H96.8001C100.44 78.6499 102.85 81.0604 102.85 84.6999C102.85 88.3394 100.44 90.7499 96.8001 90.7499Z" fill="white"/>
</svg>
