<svg width="257" height="257" viewBox="0 0 257 257" fill="none" xmlns="http://www.w3.org/2000/svg">
<path d="M105.411 97.9143C105.411 102.064 102.064 105.477 97.8479 105.477C93.6315 105.477 90.2852 102.131 90.2852 97.9143C90.2852 93.6979 93.6315 90.3516 97.8479 90.3516C102.064 90.3516 105.411 93.6979 105.411 97.9143Z" fill="#0CBD73"/>
<path d="M45.7781 180.703H149.984C177.491 163.369 195.762 132.716 195.762 97.8474C195.762 43.9042 151.858 0 97.9143 0C43.9711 0 0 43.9042 0 97.9143C0 132.716 18.2711 163.369 45.7781 180.703ZM120.469 97.9143C120.469 110.363 110.363 120.536 97.8474 120.536C85.332 120.536 75.226 110.43 75.226 97.9143C75.226 85.399 85.332 75.293 97.8474 75.293C110.363 75.293 120.469 85.399 120.469 97.9143ZM97.9143 30.1172V45.1758C68.868 45.1758 45.1758 68.801 45.1758 97.9143H30.1172C30.1172 60.5021 60.5021 30.1172 97.9143 30.1172Z" fill="#0CBD73"/>
<path d="M234.446 75.293C221.997 75.293 211.824 85.399 211.824 97.9143C211.824 107.753 218.115 116.118 226.883 119.197V139.543C226.883 156.877 216.308 173.341 199.911 181.506C192.817 185.053 186.526 189.872 181.305 195.762C180.971 195.762 180.703 195.762 180.703 195.762H15.0586V257H180.703V236.989C180.703 219.119 190.675 202.99 206.671 194.959C228.087 184.25 241.941 162.499 241.941 139.476V119.13C250.709 116.052 257 107.686 257 97.8474C257 85.399 246.894 75.293 234.446 75.293ZM60.2344 225.879H45.1758V210.82H60.2344V225.879ZM150.586 225.879H135.527V210.82H150.586V225.879Z" fill="#0CBD73"/>
</svg>
