<svg width="244" height="227" viewBox="0 0 244 227" fill="none" xmlns="http://www.w3.org/2000/svg">
<path d="M221.594 50.9547H135.75L179.247 8.14619L171.359 0.273362L126.218 44.5034L81.0777 0L73.2438 7.81816L116.686 50.6814H22.4607C10.1347 50.6814 0 60.7411 0 73.0971V204.639C0 216.94 10.0799 227.055 22.4607 227.055H221.594C233.92 227.055 244.055 216.995 244.055 204.639V73.0424C244 61.0145 233.92 50.9547 221.594 50.9547ZM151.473 175.772C151.473 185.012 143.913 192.556 134.655 192.556H47.6605C38.4023 192.556 30.8424 185.012 30.8424 175.772V103.003C30.8424 93.7632 38.4023 86.2184 47.6605 86.2184H134.6C143.858 86.2184 151.418 93.7632 151.418 103.003V175.772H151.473ZM193.546 185.886C182.589 185.886 173.934 177.193 173.934 166.314C173.934 155.379 182.644 146.741 193.546 146.741C204.502 146.741 213.158 155.434 213.158 166.314C213.158 177.193 204.447 185.886 193.546 185.886ZM215.951 129.027H171.085V117.819H215.951V129.027ZM215.951 101.035H171.085V89.8268H215.951V101.035Z" fill="#0CBD73"/>
</svg>
