<svg width="821" height="292" viewBox="0 0 821 292" fill="none" xmlns="http://www.w3.org/2000/svg">
<path d="M375.369 107H366.756V71.5215H354.1V107H345.486V64.3438H375.369V107ZM390.955 92V107H382.342V64.3438H396.873C401.092 64.3438 404.451 65.6523 406.951 68.2695C409.471 70.8867 410.73 74.2852 410.73 78.4648C410.73 82.6445 409.49 85.9453 407.01 88.3672C404.529 90.7891 401.092 92 396.697 92H390.955ZM390.955 84.8223H396.873C398.514 84.8223 399.783 84.2852 400.682 83.2109C401.58 82.1367 402.029 80.5742 402.029 78.5234C402.029 76.3945 401.57 74.7051 400.652 73.4551C399.734 72.1855 398.504 71.541 396.961 71.5215H390.955V84.8223ZM431.648 98.2695H419.9L417.615 107H408.504L421.834 64.3438H429.715L443.133 107H433.934L431.648 98.2695ZM421.775 91.0918H429.744L425.76 75.8867L421.775 91.0918ZM447.146 107V64.3438H460.33C464.783 64.3438 468.162 65.3398 470.467 67.332C472.791 69.3047 473.953 72.2051 473.953 76.0332C473.953 78.2012 473.475 80.0664 472.518 81.6289C471.561 83.1914 470.252 84.334 468.592 85.0566C470.506 85.6035 471.98 86.707 473.016 88.3672C474.051 90.0078 474.568 92.0391 474.568 94.4609C474.568 98.6016 473.426 101.727 471.141 103.836C468.875 105.945 465.584 107 461.268 107H447.146ZM455.76 88.4551V99.8516H461.268C462.811 99.8516 463.982 99.373 464.783 98.416C465.584 97.459 465.984 96.1016 465.984 94.3438C465.984 90.5156 464.598 88.5527 461.824 88.4551H455.76ZM455.76 82.1855H460.242C463.621 82.1855 465.311 80.4375 465.311 76.9414C465.311 75.0078 464.92 73.6211 464.139 72.7812C463.357 71.9414 462.088 71.5215 460.33 71.5215H455.76V82.1855ZM501.727 64.3438H510.34V107H501.727V78.7578L489.158 107H480.516V64.3438H489.158V92.6152L501.727 64.3438ZM543.973 71.5215H533.426V107H524.783V71.5215H514.412V64.3438H543.973V71.5215ZM570.955 88.543H557.537V99.8516H573.416V107H548.924V64.3438H573.357V71.5215H557.537V81.5996H570.955V88.543ZM608.309 64.3438V107H599.666V71.5215H591.756L591.17 86.6387C590.936 91.6191 590.369 95.5742 589.471 98.5039C588.592 101.414 587.293 103.553 585.574 104.92C583.875 106.287 581.58 106.98 578.689 107H576.58V99.8516L577.576 99.7637C579.373 99.5488 580.662 98.377 581.443 96.248C582.244 94.0996 582.742 90.3105 582.938 84.8809L583.494 64.3438H608.309ZM623.865 79.666H628.963C633.279 79.666 636.717 80.8965 639.275 83.3574C641.834 85.7988 643.113 89.0703 643.113 93.1719C643.113 97.2539 641.863 100.564 639.363 103.104C636.863 105.623 633.553 106.922 629.432 107H615.223V64.3438H623.865V79.666ZM623.865 86.8145V99.8516H629.08C630.76 99.8516 632.078 99.2266 633.035 97.9766C634.012 96.707 634.5 95.0859 634.5 93.1133C634.5 91.2578 634.021 89.7539 633.064 88.6016C632.127 87.4297 630.818 86.834 629.139 86.8145H623.865ZM677.156 92.791C676.941 97.6543 675.574 101.336 673.055 103.836C670.535 106.336 666.98 107.586 662.391 107.586C657.566 107.586 653.865 106.004 651.287 102.84C648.729 99.6562 647.449 95.125 647.449 89.2461V82.0684C647.449 76.209 648.777 71.6973 651.434 68.5332C654.09 65.3496 657.781 63.7578 662.508 63.7578C667.156 63.7578 670.682 65.0566 673.084 67.6543C675.506 70.252 676.883 73.9824 677.215 78.8457H668.572C668.494 75.8379 668.025 73.7676 667.166 72.6348C666.326 71.4824 664.773 70.9062 662.508 70.9062C660.203 70.9062 658.572 71.7168 657.615 73.3379C656.658 74.9395 656.15 77.5859 656.092 81.2773V89.334C656.092 93.5723 656.561 96.4824 657.498 98.0645C658.455 99.6465 660.086 100.438 662.391 100.438C664.656 100.438 666.219 99.8906 667.078 98.7969C667.938 97.6836 668.426 95.6816 668.543 92.791H677.156ZM709.207 71.5215H698.66V107H690.018V71.5215H679.646V64.3438H709.207V71.5215ZM714.158 107V64.3438H727.342C731.795 64.3438 735.174 65.3398 737.479 67.332C739.803 69.3047 740.965 72.2051 740.965 76.0332C740.965 78.2012 740.486 80.0664 739.529 81.6289C738.572 83.1914 737.264 84.334 735.604 85.0566C737.518 85.6035 738.992 86.707 740.027 88.3672C741.062 90.0078 741.58 92.0391 741.58 94.4609C741.58 98.6016 740.438 101.727 738.152 103.836C735.887 105.945 732.596 107 728.279 107H714.158ZM722.771 88.4551V99.8516H728.279C729.822 99.8516 730.994 99.373 731.795 98.416C732.596 97.459 732.996 96.1016 732.996 94.3438C732.996 90.5156 731.609 88.5527 728.836 88.4551H722.771ZM722.771 82.1855H727.254C730.633 82.1855 732.322 80.4375 732.322 76.9414C732.322 75.0078 731.932 73.6211 731.15 72.7812C730.369 71.9414 729.1 71.5215 727.342 71.5215H722.771V82.1855ZM777.879 89.5098C777.879 95.2324 776.521 99.6758 773.807 102.84C771.111 106.004 767.361 107.586 762.557 107.586C757.771 107.586 754.012 106.023 751.277 102.898C748.543 99.7539 747.156 95.3594 747.117 89.7148V82.4199C747.117 76.5605 748.475 71.9902 751.189 68.709C753.904 65.4082 757.674 63.7578 762.498 63.7578C767.244 63.7578 770.984 65.3789 773.719 68.6211C776.453 71.8438 777.84 76.375 777.879 82.2148V89.5098ZM769.236 82.3613C769.236 78.5137 768.689 75.6523 767.596 73.7773C766.502 71.9023 764.803 70.9648 762.498 70.9648C760.213 70.9648 758.523 71.873 757.43 73.6895C756.336 75.4863 755.77 78.2305 755.73 81.9219V89.5098C755.73 93.2402 756.287 95.9941 757.4 97.7715C758.514 99.5293 760.232 100.408 762.557 100.408C764.803 100.408 766.473 99.5488 767.566 97.8301C768.66 96.0918 769.217 93.4062 769.236 89.7734V82.3613ZM354.041 158V173H345.428V130.344H359.959C364.178 130.344 367.537 131.652 370.037 134.27C372.557 136.887 373.816 140.285 373.816 144.465C373.816 148.645 372.576 151.945 370.096 154.367C367.615 156.789 364.178 158 359.783 158H354.041ZM354.041 150.822H359.959C361.6 150.822 362.869 150.285 363.768 149.211C364.666 148.137 365.115 146.574 365.115 144.523C365.115 142.395 364.656 140.705 363.738 139.455C362.82 138.186 361.59 137.541 360.047 137.521H354.041V150.822ZM401.619 154.543H388.201V165.852H404.08V173H379.588V130.344H404.021V137.521H388.201V147.6H401.619V154.543ZM437.977 158.791C437.762 163.654 436.395 167.336 433.875 169.836C431.355 172.336 427.801 173.586 423.211 173.586C418.387 173.586 414.686 172.004 412.107 168.84C409.549 165.656 408.27 161.125 408.27 155.246V148.068C408.27 142.209 409.598 137.697 412.254 134.533C414.91 131.35 418.602 129.758 423.328 129.758C427.977 129.758 431.502 131.057 433.904 133.654C436.326 136.252 437.703 139.982 438.035 144.846H429.393C429.314 141.838 428.846 139.768 427.986 138.635C427.146 137.482 425.594 136.906 423.328 136.906C421.023 136.906 419.393 137.717 418.436 139.338C417.479 140.939 416.971 143.586 416.912 147.277V155.334C416.912 159.572 417.381 162.482 418.318 164.064C419.275 165.646 420.906 166.438 423.211 166.438C425.477 166.438 427.039 165.891 427.898 164.797C428.758 163.684 429.246 161.682 429.363 158.791H437.977ZM473.221 173H464.607V137.521H451.951V173H443.338V130.344H473.221V173ZM493.67 149.299L499.412 130.344H508.67L496.98 164.621C495.652 168.02 494.217 170.354 492.674 171.623C491.15 172.893 489.314 173.557 487.166 173.615H486.229L484.178 173.498L484.031 166.35C484.227 166.428 484.861 166.467 485.936 166.467C487.029 166.467 487.85 166.223 488.396 165.734C488.963 165.246 489.451 164.152 489.861 162.453L490.271 160.9L478.084 130.344H487.312L493.67 149.299ZM537.146 137.521H521.854V145.666H526.951C531.268 145.666 534.705 146.896 537.264 149.357C539.822 151.799 541.102 155.07 541.102 159.172C541.102 163.254 539.852 166.564 537.352 169.104C534.852 171.623 531.541 172.922 527.42 173H513.211V130.344H537.146V137.521ZM521.854 152.814V165.852H527.068C528.748 165.852 530.066 165.227 531.023 163.977C532 162.707 532.488 161.086 532.488 159.113C532.488 157.258 532.01 155.754 531.053 154.602C530.115 153.43 528.807 152.834 527.127 152.814H521.854ZM575.906 130.344V173H567.264V137.521H559.354L558.768 152.639C558.533 157.619 557.967 161.574 557.068 164.504C556.189 167.414 554.891 169.553 553.172 170.92C551.473 172.287 549.178 172.98 546.287 173H544.178V165.852L545.174 165.764C546.971 165.549 548.26 164.377 549.041 162.248C549.842 160.1 550.34 156.311 550.535 150.881L551.092 130.344H575.906ZM603.738 130.344H612.352V173H603.738V144.758L591.17 173H582.527V130.344H591.17V158.615L603.738 130.344ZM631.658 155.598H627.908V173H619.295V130.344H627.908V147.395H630.809L638.221 130.344H648.709L638.279 150.207L649.881 173H639.627L631.658 155.598ZM673.992 130.344H682.605V173H673.992V144.758L661.424 173H652.781V130.344H661.424V158.615L673.992 130.344ZM369.334 203.521H354.041V211.666H359.139C363.455 211.666 366.893 212.896 369.451 215.357C372.01 217.799 373.289 221.07 373.289 225.172C373.289 229.254 372.039 232.564 369.539 235.104C367.039 237.623 363.729 238.922 359.607 239H345.398V196.344H369.334V203.521ZM354.041 218.814V231.852H359.256C360.936 231.852 362.254 231.227 363.211 229.977C364.188 228.707 364.676 227.086 364.676 225.113C364.676 223.258 364.197 221.754 363.24 220.602C362.303 219.43 360.994 218.834 359.314 218.814H354.041ZM398.543 230.27H386.795L384.51 239H375.398L388.729 196.344H396.609L410.027 239H400.828L398.543 230.27ZM388.67 223.092H396.639L392.654 207.887L388.67 223.092ZM422.684 196.344V231.852H431.355V196.344H439.969V231.852H448.523V196.344H457.137V239H414.041V196.344H422.684ZM476.443 221.598H472.693V239H464.08V196.344H472.693V213.395H475.594L483.006 196.344H493.494L483.064 216.207L494.666 239H484.412L476.443 221.598ZM526.98 221.51C526.98 227.232 525.623 231.676 522.908 234.84C520.213 238.004 516.463 239.586 511.658 239.586C506.873 239.586 503.113 238.023 500.379 234.898C497.645 231.754 496.258 227.359 496.219 221.715V214.42C496.219 208.561 497.576 203.99 500.291 200.709C503.006 197.408 506.775 195.758 511.6 195.758C516.346 195.758 520.086 197.379 522.82 200.621C525.555 203.844 526.941 208.375 526.98 214.215V221.51ZM518.338 214.361C518.338 210.514 517.791 207.652 516.697 205.777C515.604 203.902 513.904 202.965 511.6 202.965C509.314 202.965 507.625 203.873 506.531 205.689C505.438 207.486 504.871 210.23 504.832 213.922V221.51C504.832 225.24 505.389 227.994 506.502 229.771C507.615 231.529 509.334 232.408 511.658 232.408C513.904 232.408 515.574 231.549 516.668 229.83C517.762 228.092 518.318 225.406 518.338 221.773V214.361ZM541.775 224V239H533.162V196.344H547.693C551.912 196.344 555.271 197.652 557.771 200.27C560.291 202.887 561.551 206.285 561.551 210.465C561.551 214.645 560.311 217.945 557.83 220.367C555.35 222.789 551.912 224 547.518 224H541.775ZM541.775 216.822H547.693C549.334 216.822 550.604 216.285 551.502 215.211C552.4 214.137 552.85 212.574 552.85 210.523C552.85 208.395 552.391 206.705 551.473 205.455C550.555 204.186 549.324 203.541 547.781 203.521H541.775V216.822ZM594.949 203.521H584.402V239H575.76V203.521H565.389V196.344H594.949V203.521ZM629.109 221.51C629.109 227.232 627.752 231.676 625.037 234.84C622.342 238.004 618.592 239.586 613.787 239.586C609.002 239.586 605.242 238.023 602.508 234.898C599.773 231.754 598.387 227.359 598.348 221.715V214.42C598.348 208.561 599.705 203.99 602.42 200.709C605.135 197.408 608.904 195.758 613.729 195.758C618.475 195.758 622.215 197.379 624.949 200.621C627.684 203.844 629.07 208.375 629.109 214.215V221.51ZM620.467 214.361C620.467 210.514 619.92 207.652 618.826 205.777C617.732 203.902 616.033 202.965 613.729 202.965C611.443 202.965 609.754 203.873 608.66 205.689C607.566 207.486 607 210.23 606.961 213.922V221.51C606.961 225.24 607.518 227.994 608.631 229.771C609.744 231.529 611.463 232.408 613.787 232.408C616.033 232.408 617.703 231.549 618.797 229.83C619.891 228.092 620.447 225.406 620.467 221.773V214.361ZM664.207 224.791C663.992 229.654 662.625 233.336 660.105 235.836C657.586 238.336 654.031 239.586 649.441 239.586C644.617 239.586 640.916 238.004 638.338 234.84C635.779 231.656 634.5 227.125 634.5 221.246V214.068C634.5 208.209 635.828 203.697 638.484 200.533C641.141 197.35 644.832 195.758 649.559 195.758C654.207 195.758 657.732 197.057 660.135 199.654C662.557 202.252 663.934 205.982 664.266 210.846H655.623C655.545 207.838 655.076 205.768 654.217 204.635C653.377 203.482 651.824 202.906 649.559 202.906C647.254 202.906 645.623 203.717 644.666 205.338C643.709 206.939 643.201 209.586 643.143 213.277V221.334C643.143 225.572 643.611 228.482 644.549 230.064C645.506 231.646 647.137 232.438 649.441 232.438C651.707 232.438 653.27 231.891 654.129 230.797C654.988 229.684 655.477 227.682 655.594 224.791H664.207ZM696.258 203.521H685.711V239H677.068V203.521H666.697V196.344H696.258V203.521ZM718.055 230.27H706.307L704.021 239H694.91L708.24 196.344H716.121L729.539 239H720.34L718.055 230.27ZM708.182 223.092H716.15L712.166 207.887L708.182 223.092ZM763.465 239H754.881V220.748H742.166V239H733.553V196.344H742.166V213.6H754.881V196.344H763.465V239Z" fill="white"/>
<path d="M207.947 105.38L221.401 85.5795L219.915 84.4102L207.243 103.899L207.947 105.38ZM117.13 73.9645L114.001 49.7989L111.655 50.1107L115.096 74.3542L117.13 73.9645ZM202.784 93.7646L209.98 79.811L208.259 78.9535L201.611 92.9071L202.784 93.7646ZM196.683 127.986L223.513 89.3213L222.574 87.2165L195.9 126.505L196.683 127.986ZM198.325 91.9717L205.6 76.7708L203.957 75.2897L196.683 91.1922L198.325 91.9717ZM197.23 158.388L228.519 122.919L227.972 120.892L196.291 156.907L197.23 158.388ZM197.465 143.967L197.856 145.837L225.234 110.603L224.53 108.654L197.465 143.967ZM227.111 116.683L226.172 114.734L198.795 148.722L198.951 150.515L227.111 116.683ZM198.247 130.792L225.468 92.8292L224.608 91.1142L197.778 129.467L198.247 130.792ZM199.655 133.443L227.346 96.5709L226.564 94.6221L199.107 132.274L199.655 133.443ZM176.579 89.2433L187.296 51.436L185.34 50.1107L174.937 89.3992L176.579 89.2433ZM145.056 99.6891L149.045 38.7296L147.168 38.1839L143.569 99.6111L145.056 99.6891ZM143.648 37.8721L141.379 37.5603L139.736 99.9229L141.457 99.845L143.648 37.8721ZM137.546 100.079L137.624 37.4823L135.512 37.3264L135.825 100.235L137.546 100.079ZM133.713 95.4796L132.54 37.2484L130.271 37.5603L131.68 95.4796H133.713ZM122.293 72.9511L120.181 48.9414L117.834 49.1753L120.415 73.3409L122.293 72.9511ZM184.558 89.3992L195.587 57.3604L193.632 56.5029L183.463 89.0874L184.558 89.3992ZM180.725 88.7756L191.833 54.632L189.955 53.3068L179.239 88.6977L180.725 88.7756ZM195.9 167.353L236.263 130.013L235.637 127.674L194.727 166.183L195.9 167.353ZM158.588 49.7989H156.554L150.922 98.5977L152.643 98.6757L158.588 49.7989ZM182.837 49.4871L180.803 48.6296L170.478 90.4126L172.199 90.1788L182.837 49.4871ZM162.108 92.5953L169.383 52.5273L167.427 52.3714L160.544 92.9071L162.108 92.5953ZM193.319 90.8024L201.298 73.4968L199.186 72.4054L191.911 89.789L193.319 90.8024ZM114.236 248.19L115.331 254.115L113.141 254.582L112.046 248.658L110.716 248.97L110.403 249.048L111.498 254.972L109.308 255.44L108.213 249.515L107.9 249.593L106.57 249.827L107.9 257.233L117.208 255.284L115.879 247.878L114.236 248.19ZM124.952 246.631L122.997 246.865L120.963 250.295L120.572 247.177L117.599 247.567L117.756 249.048L119.086 248.892L119.79 254.894L121.432 254.66L121.041 250.997L123.935 254.349L125.969 254.115L122.527 250.451L124.952 246.631ZM223.2 164.312L207.399 176.161L208.572 177.253L223.982 165.871L223.2 164.312ZM100.782 251.698L100.312 259.727L102.033 259.182V257.701L103.676 257.155L104.458 256.921L105.318 258.09L107.039 257.545L102.424 251.152L100.782 251.698ZM102.033 256.375L102.111 253.335L103.754 255.83L102.033 256.375ZM133.322 249.36C133.244 248.658 133.009 248.112 132.775 247.645C132.696 247.489 132.54 247.255 132.384 247.099C132.071 246.709 131.601 246.475 131.132 246.241C130.663 246.085 130.115 246.008 129.489 246.085C128.159 246.163 127.221 246.709 126.673 247.723C126.439 248.112 126.36 248.502 126.204 248.892C126.126 249.36 126.126 249.827 126.126 250.295C126.204 251.308 126.517 252.166 126.986 252.789C127.69 253.725 128.629 254.115 129.959 253.959C131.21 253.881 132.071 253.413 132.618 252.556C133.088 251.932 133.244 251.075 133.244 250.139C133.244 249.983 133.244 249.827 133.244 249.749C133.322 249.671 133.322 249.515 133.322 249.36ZM130.976 252.088C130.741 252.4 130.35 252.556 129.88 252.556C129.489 252.556 129.176 252.556 128.942 252.322C128.863 252.244 128.785 252.166 128.707 252.166C128.551 252.01 128.394 251.854 128.316 251.62C128.159 251.23 128.003 250.763 128.003 250.217C128.003 249.983 128.003 249.749 128.003 249.593C128.003 248.97 128.159 248.58 128.394 248.268C128.707 247.878 129.098 247.645 129.646 247.645C130.115 247.645 130.584 247.723 130.897 248.034C131.288 248.424 131.523 249.126 131.601 250.061C131.601 250.217 131.601 250.295 131.601 250.451C131.523 251.152 131.367 251.698 130.976 252.088ZM235.403 39.8989C212.014 18.0719 183.698 4.35213 151.001 1.46786C112.437 -1.72823 76.8454 11.0561 51.736 32.0256C21.9331 55.8793 0.891235 95.7914 0.891235 139.757C0.891235 167.431 9.96506 192.454 23.654 214.592C24.7491 216.619 31.007 223.947 32.0238 226.129C31.6327 227.533 31.6327 229.092 32.1803 230.885C37.4212 237.589 42.8186 244.059 49.7022 249.204C53.2222 253.257 59.3236 255.05 64.8774 255.596C66.3636 255.596 66.9894 255.44 68.4756 255.128C70.7441 265.184 77.5494 274.305 82.0081 280.151C82.7903 282.1 86.545 287.011 89.2828 290.207C89.5957 290.675 89.9868 291.143 90.4562 291.61L90.6126 291.766L90.8473 291.844C91.4731 291.922 92.0988 292 92.7246 292C99.7647 292 104.927 284.361 109.151 278.046C110.168 276.487 111.185 275.006 112.124 273.759L112.984 272.668C121.823 270.095 131.601 268.458 139.267 268.536C146.62 268.536 155.772 269.627 164.298 271.498L165.55 272.59C165.941 272.901 166.723 273.837 167.74 275.006C172.355 280.151 180.803 289.661 186.279 289.661C186.357 289.661 186.435 289.661 186.514 289.661C187.765 289.583 188.782 289.038 189.564 287.946C189.642 287.791 189.721 287.713 189.799 287.557C192.537 284.439 195.275 280.307 196.839 277.501C198.56 275.006 200.359 272.044 201.532 269.861C203.879 265.496 206.226 260.819 208.572 256.453C214.517 256.765 221.479 255.128 224.921 250.061C231.961 243.981 237.593 237.121 243.303 229.014C243.46 228.078 243.538 227.221 243.538 226.441C244.007 226.207 244.242 225.272 244.789 225.038C253.55 213.969 260.59 202.665 265.831 189.803C287.108 139.757 274.279 77.4724 235.403 39.8989ZM49.0764 247.099C46.1821 244.448 41.0977 240.551 40.863 238.68C43.9919 221.608 79.8179 226.285 91.082 228.468C97.1833 229.326 103.363 230.495 108.291 232.833C107.43 232.911 106.57 233.067 105.631 233.223C90.9255 229.559 65.5031 230.339 52.8311 239.537C50.5626 241.33 48.5288 243.903 49.0764 247.099ZM68.1627 253.881C68.2409 254.271 68.3192 254.66 68.3974 255.05C65.7378 253.881 63.0782 254.037 61.592 251.464C61.0445 247.956 63.3129 245.93 65.4249 243.903C73.3254 238.368 83.2597 236.03 94.3673 234.626C96.9486 234.393 99.7647 234.081 102.424 233.847C88.2659 236.731 68.0845 244.76 68.1627 253.881ZM107.665 277.189C103.206 283.815 98.2002 291.298 91.3948 290.285C90.1433 288.96 89.7522 287.635 90.2215 286.231C92.0206 281.009 103.989 276.02 109.464 274.538C108.917 275.396 108.291 276.253 107.665 277.189ZM188.156 287.011C187.687 287.635 187.139 288.024 186.357 288.024C186.279 288.024 186.279 288.024 186.201 288.024C181.507 288.024 172.668 278.124 168.913 273.915C168.601 273.603 168.366 273.291 168.131 273.057C174.937 274.149 185.966 278.982 188.313 283.737C188.938 284.906 188.86 285.998 188.156 287.011ZM201.219 267.211C199.811 270.017 198.012 272.979 196.604 275.864C188.86 259.805 152.174 256.843 138.798 256.843C125.735 256.843 85.6064 263.625 82.1646 278.124C80.1308 274.383 77.0019 271.732 76.1414 267.679C75.0463 248.268 125.422 241.564 137.468 241.33C147.95 241.096 207.712 245.384 201.219 267.211ZM231.022 242.188C229.38 244.137 227.502 246.085 225.781 248.034C232.117 229.481 181.116 229.092 170.322 231.82C169.852 231.742 169.461 231.586 169.148 231.43C174.389 228.156 231.961 215.918 233.995 236.107C233.682 238.368 232.821 240.473 231.022 242.188ZM260.434 133.365C258.322 138.12 252.534 135.937 254.489 129.389C251.36 127.752 243.929 132.975 248.388 141.238C244.633 143.499 245.963 152.697 253.003 153.165C250.5 147.786 258.166 144.512 259.339 150.515C261.06 159.323 256.054 161.506 253.863 163.845C256.914 167.275 259.182 180.994 253.55 181.774C247.918 182.476 247.605 176.785 250.03 174.758C245.572 172.108 238.845 177.175 239.94 183.645C233.213 188.4 237.28 196.975 239.549 197.91C240.096 193.077 245.963 192.22 246.354 197.443C246.745 202.665 242.13 204.458 238.923 206.173C238.453 211.396 238.532 214.203 236.498 218.568C219.993 212.799 179.004 223.479 165.785 231.196C147.715 228.546 128.238 228 110.716 232.366C92.6464 224.181 73.3254 219.581 52.5964 217.788C49.3111 217.477 45.3217 217.71 41.6452 218.646C40.4719 214.281 38.9074 208.98 40.863 204.692C39.5332 204.069 30.2247 203.523 29.1296 196.195C29.5207 188.478 36.639 191.596 37.4212 195.572C42.1928 189.102 39.8461 183.723 35.0745 180.059C35.0745 176.239 34.527 173.745 32.1803 171.718C29.7554 169.691 26.2354 168.912 23.9669 169.457C29.6772 175.85 21.9331 179.669 19.0389 173.511C17.318 169.769 19.7429 164.234 22.246 160.727C15.91 157.842 13.1722 150.749 16.6922 148.332C20.2122 145.993 23.4976 150.281 22.6371 154.023C26.2354 153.087 28.3474 149.579 28.5038 146.929C28.7385 144.2 27.0176 141.082 26.3136 139.523C27.0176 137.73 28.6603 132.975 27.0958 130.169C25.5314 127.363 22.6371 126.349 19.8993 126.973C22.5589 128.454 20.838 135.704 16.2229 133.131C9.96506 129.701 16.7704 119.099 21.9331 116.527C20.2905 114.734 18.4913 109.667 18.726 106.627C18.9607 103.587 19.43 99.2993 23.7323 99.3773C28.0345 99.3773 27.3305 105.068 26.1572 107.484C34.2923 109.745 36.5608 101.17 35.0745 96.1032C40.2372 91.1922 41.0977 84.9559 35.1528 81.8378C34.8399 83.5527 34.0576 87.3725 31.1634 86.6709C28.2692 85.9693 27.2523 82.3055 28.8167 79.0314C30.303 75.8354 37.343 73.1849 40.3155 73.3409C38.9857 69.5991 40.3155 63.9085 41.567 61.336C42.8968 58.7636 44.5395 56.9706 48.0595 57.9061C51.5013 58.7636 49.9368 63.3628 47.4337 64.8439C49.7804 68.118 53.5351 68.5857 56.0382 67.1825C58.4631 65.7794 60.184 61.8037 60.4969 58.8415C63.4694 58.2958 67.3023 56.8927 68.0063 53.9305C68.7103 50.9682 67.6152 46.9147 65.112 45.8233C64.2516 47.8501 61.7485 50.2667 58.9324 48.4737C56.1164 46.6028 57.5244 41.5359 61.8267 40.5225C66.1289 39.5091 71.2134 39.1193 75.281 40.2886C75.8285 34.676 79.7397 28.5956 84.1984 28.0499C88.6571 27.5043 91.1602 34.598 83.4944 35.2217C85.5281 42.3934 95.2278 40.3666 96.6358 34.9878C103.441 36.0791 109.073 30.0767 105.866 24.698C101.877 28.5177 98.5913 23.9184 101.094 20.9562C105.631 15.4995 114.862 20.9562 117.991 22.7491C120.885 18.6955 123.779 14.8758 127.143 14.2522C135.434 12.7711 133.322 23.1389 127.377 20.0208C125.735 28.5956 135.825 28.9854 139.736 26.5688C146.307 30.0767 154.129 27.1145 151.235 20.3326C146.698 23.6846 144.586 16.0451 149.123 14.0183C153.738 11.9916 161.873 17.3703 164.298 21.268C167.818 18.9294 177.987 16.9026 180.334 20.5664C182.681 24.2302 177.987 28.3618 174.389 24.8539C171.573 32.4153 178.144 35.7673 184.089 35.4555C188.704 41.0682 195.353 41.2241 197.934 34.8319C189.721 34.3642 193.241 26.1791 198.638 27.7381C204.035 29.2972 206.851 34.4421 207.164 40.3666C210.763 39.1973 221.01 39.4311 220.932 44.8879C220.853 50.3446 214.126 50.8123 214.126 45.9013C208.807 47.8501 209.276 60.2447 219.054 61.4919C219.054 68.9755 231.022 74.2763 233.917 65.4676C227.346 63.9864 229.849 56.8927 235.325 58.6077C240.878 60.3226 238.375 72.1715 238.532 74.4322C241.504 75.1338 252.377 81.0582 250.734 87.4504C249.013 93.8426 243.069 90.7244 244.32 86.2811C237.749 88.2299 237.593 96.1812 241.348 100.235C240.487 104.288 243.225 110.836 250.03 109.901C246.98 102.885 254.333 102.807 256.288 106.783C258.244 110.758 255.037 116.449 253.159 119.801C256.914 121.75 262.546 128.61 260.434 133.365ZM200.75 171.25L201.845 172.42L238.688 144.2L238.453 141.784L200.75 171.25ZM186.67 191.284L205.913 187.465C205.6 185.438 206.695 183.177 205.835 181.384L203.723 181.696C203.566 180.839 203.331 178.89 202.471 178.11C200.985 175.226 196.604 177.564 194.571 175.226C191.051 172.03 187.53 168.834 184.949 164.468C184.636 161.584 182.055 160.103 181.116 157.219C179.082 154.334 177.049 151.138 175.562 147.942C173.842 147.397 175.562 150.593 174.076 149.423C173.763 149.112 172.042 148.566 172.59 149.735C174.076 151.45 176.658 152.619 176.97 155.27C174.937 156.127 174.937 153.789 173.45 154.101C173.45 154.412 173.45 154.958 173.138 155.582C171.417 153.867 169.07 152.697 168.209 150.359C170.869 149.813 171.73 148.332 174.311 147.708C178.691 145.058 181.038 142.485 185.418 140.459C185.731 138.978 187.765 139.289 188.938 138.12C189.251 140.147 189.251 141.94 189.251 143.967C189.564 146.851 186.357 149.501 189.251 152.152C188.938 153.867 186.592 153.633 185.731 154.802C185.731 157.686 185.418 160.337 185.731 163.533C186.592 163.533 187.452 163.533 187.765 162.987C193.319 162.442 192.693 155.738 196.213 152.775C195.353 148.41 193.554 144.356 194.492 139.679C195.353 138.51 195.353 136.483 195.353 134.768C194.805 133.599 193.867 132.43 192.693 131.26C191.207 130.247 180.725 133.443 176.658 132.43C176.658 130.403 176.658 128.61 176.345 126.583C176.032 125.492 175.641 123.465 175.484 122.763C176.032 123.075 176.97 122.763 176.345 121.906C176.032 121.594 175.171 121.594 175.484 121.048C179.317 122.529 177.831 116.995 180.725 116.683C182.915 119.801 178.144 122.451 176.892 124.322C176.579 124.868 176.892 125.881 177.205 126.583C179.239 128.064 179.239 125.102 180.412 124.244C180.96 124.244 181.898 123.933 182.446 124.556C182.446 126.583 179.239 125.726 179.786 128.064C180.099 131.494 186.983 127.363 187.061 126.583C189.095 125.414 189.955 123.075 191.129 121.36C193.163 120.191 194.962 118.71 195.196 116.683C195.509 117.54 196.37 117.54 196.917 117.229C198.091 115.747 199.264 113.721 200.985 113.175C202.158 112.318 201.298 110.291 200.672 109.121C200.985 107.952 202.393 108.576 203.331 108.264C203.331 106.237 200.985 105.068 200.124 103.041C200.985 101.56 203.644 101.326 203.331 99.2214C200.437 98.9095 197.465 98.9095 194.571 99.767C193.71 98.5977 192.85 97.1166 191.363 96.8828C189.642 96.3371 187.53 97.1946 186.67 95.1678C185.184 95.1678 183.15 94.6221 181.977 95.4796C180.256 93.4528 177.283 94.9339 175.562 94.6221C174.702 94.6221 173.216 94.6221 172.668 95.7914C170.009 94.3103 167.74 95.7914 165.628 97.2725C162.108 96.415 160.7 100.78 158.588 102.807C156.867 102.807 155.068 102.495 153.895 103.665C152.721 106.549 149.514 107.173 147.48 108.888C146.307 111.772 143.648 114.422 141.379 116.137C140.206 113.799 138.485 112.941 136.451 111.772C137.312 111.772 136.999 110.603 137.624 110.057C139.345 109.199 139.658 110.914 140.832 111.538C142.005 112.707 143.491 111.538 144.664 111.226C145.212 110.057 145.212 108.888 144.352 107.718C144.039 106.237 142.318 106.237 141.144 105.691C137.077 106.861 133.557 105.146 129.724 103.977C128.003 101.326 127.377 97.8962 123.857 96.7269C122.136 95.2457 118.616 94.0764 120.963 91.1922C122.997 91.1922 121.511 87.9961 122.136 87.1386C123.857 86.8268 123.857 85.6575 124.17 83.9425C122.684 82.7732 124.483 80.7464 124.483 79.2653C123.31 77.7842 120.963 78.7196 119.79 79.2653C118.069 80.4346 116.583 80.9803 114.236 81.6039C112.202 82.4614 112.75 85.1118 111.029 85.9693C109.699 86.9827 108.369 89.2433 108.056 91.1142C108.056 91.1922 106.805 89.3213 106.883 88.8536C106.57 88.2299 103.832 86.6709 103.832 86.515C103.832 86.3591 103.832 86.0472 103.676 85.6575C100.782 81.8378 99.8429 77.4724 97.8091 73.4188C97.8091 72.5613 96.3229 71.9377 96.9487 70.7684C95.7753 68.7416 96.0882 66.0912 96.4011 63.7526C95.5406 63.2069 95.2278 62.5833 94.3673 62.8951C94.6802 64.6101 93.8197 65.5455 93.5069 66.9487C92.6464 64.9219 92.6464 62.5833 91.4731 60.8683C91.1602 60.5565 90.6126 60.8683 90.2997 60.8683C89.4393 62.5833 89.4393 64.9219 89.1264 67.2605C89.4393 69.2873 91.1602 70.4566 92.3335 71.6259C91.1602 75.4456 91.1602 79.811 90.8473 84.1764C90.5344 84.722 89.6739 84.722 89.3611 84.722C84.433 87.9181 89.9086 92.5953 90.5344 96.3371C90.2215 101.014 89.9868 105.925 92.2553 109.745C91.9424 109.745 91.7077 110.057 91.7077 110.291C91.1602 110.836 91.1602 112.318 91.7077 112.941C92.2553 113.487 93.4286 113.487 94.0544 112.941C94.3673 112.395 94.3673 111.226 94.0544 110.291C90.8473 106.237 91.1602 100.702 91.7077 95.4796C91.1602 92.5953 88.1877 90.5685 88.1877 87.2945C89.0482 84.9559 92.0206 86.7488 92.5682 84.4102C93.1157 82.3834 92.2553 80.0448 93.7415 78.5637C94.0544 80.2787 94.602 82.3834 94.9149 84.4102C94.9149 87.2945 97.8091 89.6331 96.6358 92.5953C97.8091 94.6221 99.2953 94.9339 101.329 95.2457C101.642 95.7914 101.877 96.415 101.329 96.9607C98.4349 98.4418 96.9487 100.78 94.2891 102.184C93.7415 102.729 94.602 103.665 95.1495 103.899C95.6971 104.21 95.6971 103.353 95.6971 103.041C97.7309 101.56 99.7647 100.391 101.798 99.2214C102.972 97.1946 103.832 100.391 105.318 99.767C105.318 101.794 103.832 103.821 103.285 105.847C102.972 107.329 101.564 107.874 101.564 109.355C101.564 109.901 102.111 110.213 102.737 110.213C103.91 108.732 104.771 106.393 106.57 104.99C106.883 104.444 107.587 103.743 107.9 103.197C109.073 103.899 112.046 106.549 113.845 107.329C116.739 110.213 110.325 108.186 111.498 111.382C112.046 111.928 112.984 111.07 113.219 111.694C111.185 114.578 110.012 118.71 106.492 119.879C106.492 121.048 107.352 122.218 108.526 123.387C109.699 123.075 109.699 124.556 110.012 125.414H110.872C111.185 125.726 111.42 125.726 111.733 125.726C114.392 125.414 115.8 125.18 118.46 125.726C118.773 126.271 120.181 126.037 120.181 126.895C115.8 129.545 110.872 130.091 105.318 130.715C104.145 131.026 103.285 131.26 102.111 131.572C101.798 131.572 101.798 131.572 101.564 131.884C95.6971 134.222 91.082 137.419 88.7353 143.499C89.5957 146.383 86.0757 144.356 85.2153 145.837C83.729 145.837 82.0081 145.837 81.1477 144.98C76.1414 142.096 68.3974 150.515 70.6658 156.049C70.1183 156.049 67.928 159.635 69.4925 160.415C70.9787 159.869 73.0125 160.103 74.1859 159.557C74.4987 159.557 74.4987 159.869 74.7334 159.869C73.5601 162.208 71.5263 163.689 73.0125 166.261C73.5601 166.261 74.1859 166.573 74.7334 166.573C75.5939 166.573 75.5939 164.858 76.4543 165.404C78.1752 166.261 80.5219 165.404 82.321 165.092C82.6339 162.753 82.0081 160.727 80.6001 159.245C81.4606 158.388 82.9468 159.245 83.8072 158.388C84.3548 156.361 84.6677 154.023 84.3548 151.996C84.6677 150.437 87.0926 149.189 88.1877 150.281C89.3611 156.127 92.8811 160.493 96.0882 165.092C95.2278 169.146 90.0651 171.952 88.5006 174.368C86.9361 176.863 87.8748 177.798 90.2215 179.591C93.1157 182.476 94.602 185.983 95.7753 189.18C95.9318 189.335 96.1664 189.569 96.3229 189.725C94.0544 191.986 91.9424 194.402 89.9868 196.897L89.6739 197.287L80.6001 198.534C80.6001 200.873 81.1477 202.821 80.6001 204.926C77.0801 205.238 73.3254 205.472 69.8054 205.784C67.7716 209.292 65.4249 212.488 64.2516 215.995C81.2259 217.477 96.0882 224.726 111.263 230.261C111.811 230.261 112.124 230.261 112.437 229.949C111.889 226.441 111.576 222.076 112.437 218.334C114.158 210.461 120.65 201.73 129.098 199.703C138.407 196.819 148.106 199.391 154.833 206.407C160.7 212.488 163.594 221.218 161.248 229.403C161.795 229.715 162.734 229.715 163.594 229.949C178.222 221.218 194.258 216.307 211.232 212.799C212.953 208.746 213.892 204.38 215.612 200.015C214.126 196.819 212.092 193.623 210.059 190.427L186.67 191.284ZM201.219 181.618V182.164C199.733 182.164 198.325 182.709 196.839 182.709C197.152 181.228 199.186 181.228 200.046 180.371C200.985 180.449 200.672 181.384 201.219 181.618ZM178.77 158.622C180.803 160.103 183.15 162.13 182.837 164.702C186.357 169.068 189.877 173.121 193.945 176.941C195.431 177.798 196.839 178.11 198.873 177.798C198.56 179.513 195.979 178.344 194.805 178.968C193.084 178.656 191.598 176.317 189.564 177.798C188.704 172.264 183.15 168.522 179.317 164.702C179.317 162.364 176.658 161.506 175.797 159.791C175.797 158.31 173.763 157.453 173.763 155.738C175.25 156.907 176.736 158.388 178.77 158.622ZM180.178 140.926C180.725 140.615 180.725 140.615 181.038 140.615C180.803 141.16 180.49 141.16 180.178 140.926ZM181.351 140.615V140.069C181.664 140.069 181.898 139.757 181.898 140.069C181.664 140.615 181.351 140.615 181.351 140.615ZM184.01 138.9C183.698 139.211 183.463 139.211 183.463 139.445C183.15 139.445 182.915 139.757 182.602 139.757C182.915 139.757 182.915 139.445 183.15 139.211C183.463 139.133 183.698 138.9 184.01 138.9C184.558 138.354 184.558 138.354 184.871 138.354C184.558 138.9 184.323 138.9 184.01 138.9ZM189.251 160.415C188.938 161.272 188.078 161.584 187.218 161.584C187.53 160.415 188.938 159.557 189.564 158.076H189.877C189.564 158.934 189.564 159.557 189.251 160.415ZM191.285 156.049H190.972C190.972 155.192 190.659 154.334 190.659 153.165C191.207 153.477 192.38 152.853 192.38 153.711C192.224 154.568 191.911 155.426 191.285 156.049ZM190.112 132.196C192.771 131.338 192.771 134.534 193.945 136.015C192.771 141.238 192.458 146.461 193.632 151.762C193.319 152.308 193.084 152.931 192.146 152.619C190.659 152.308 192.459 151.762 192.146 150.904C191.285 149.735 190.112 148.878 190.972 147.397C192.146 144.512 191.52 140.693 190.972 137.808C189.799 136.327 188.313 137.263 187.452 136.639C182.211 137.496 177.205 138.978 173.763 142.719C172.277 144.434 169.93 145.058 167.662 145.058C165.628 143.577 165.941 141.004 163.829 139.835C162.108 139.835 160.622 138.354 159.449 137.496C159.449 136.639 159.136 136.015 158.901 135.47C161.248 136.015 164.142 135.781 165.941 137.496C166.254 137.808 166.489 137.185 166.489 136.951C166.176 133.131 162.656 132.274 160.622 129.935C163.829 130.247 166.723 131.65 169.383 133.755C170.556 131.416 170.869 128.844 170.556 125.881H171.104C171.651 128.532 172.825 131.104 172.59 134.067C172.042 134.612 171.104 133.755 170.556 134.378C169.696 134.69 168.835 134.378 167.897 135.236C168.757 136.717 170.791 135.781 172.277 136.093C177.596 132.741 184.558 135.392 190.112 132.196ZM165.472 116.917C166.41 116.917 166.88 117.618 167.349 117.618C166.567 117.618 166.097 117.384 165.472 116.917ZM167.975 117.93C168.053 117.93 168.131 117.852 168.209 117.852H168.288C169.07 117.696 169.696 118.008 169.696 118.554C168.835 118.164 167.975 118.476 167.975 117.93ZM148.106 110.369C150.453 110.057 152.8 109.199 153.973 107.173C154.286 106.003 155.459 105.458 156.32 104.522C160.7 105.068 161.561 99.845 165.081 98.9875C165.941 99.2993 167.427 99.2993 168.288 98.4418C168.601 97.2725 169.461 96.9607 170.322 96.9607C172.042 96.1032 173.842 99.2993 175.25 96.6489C176.423 96.3371 177.909 97.8182 178.77 96.3371C181.116 95.1678 182.29 98.9875 184.323 96.6489C186.357 95.7914 186.357 98.3639 188.156 98.3639C189.642 98.0521 191.676 98.3639 192.224 99.845C193.71 104.522 197.465 99.5332 200.437 100.157C200.437 101.326 198.403 101.638 198.403 102.807C199.89 103.665 200.75 105.146 201.611 106.315C201.611 107.173 200.75 106.627 200.437 106.861C198.951 107.718 200.124 109.745 200.437 111.226C199.577 110.914 198.716 109.745 198.716 108.576C198.716 108.264 198.403 108.03 198.169 107.718C197.621 107.718 196.995 108.264 197.308 108.888C197.621 110.369 199.655 111.538 198.169 112.707C197.621 111.226 196.448 109.823 195.275 108.654C194.962 107.173 196.995 103.743 194.727 104.834C193.867 107.718 193.006 111.85 195.9 113.877C194.727 116.527 193.554 118.788 190.972 119.957C190.659 120.269 190.972 120.503 190.659 120.814C189.486 121.126 188.313 123.153 186.592 122.529C186.592 120.191 189.799 119.645 189.486 117.307C191.207 115.825 190.346 119.957 191.833 117.618C192.693 115.592 190.346 114.734 190.972 112.941C190.112 112.395 190.112 113.253 189.799 113.799C189.799 115.28 189.251 116.995 187.452 117.618C185.966 117.618 187.765 116.449 187.139 115.28C186.279 114.11 186.826 112.941 187.139 111.46C185.966 111.46 185.966 112.629 185.418 112.941C184.871 112.629 185.418 111.772 185.418 111.226C185.966 110.914 186.592 110.369 186.905 109.745C186.357 109.433 186.357 108.576 186.905 108.576C188.078 106.237 191.285 106.861 193.006 105.068C189.799 103.899 186.279 104.756 183.385 106.237C182.837 104.756 184.871 104.21 186.044 103.353C186.905 103.353 187.765 102.495 188.078 101.638C187.765 98.7537 186.357 102.184 184.871 101.638C182.837 102.807 181.038 102.807 179.004 103.977C178.691 102.262 181.898 100.157 180.725 98.13C179.865 101.95 174.624 100.78 173.45 104.21C170.791 103.353 173.998 101.326 173.998 99.5332C173.685 99.2214 174.311 98.0521 173.45 98.3639C172.903 100.391 170.556 101.56 170.243 103.275C168.757 103.587 167.349 104.444 167.036 105.925C165.315 105.38 167.584 103.587 167.584 102.417C167.584 101.872 167.897 101.248 167.271 100.702C166.41 101.014 166.723 101.872 166.097 102.417C162.89 103.899 162.577 107.095 161.717 109.979C159.996 109.433 159.37 108.264 157.884 108.264C156.711 108.264 155.85 109.121 154.99 108.264C153.269 108.576 155.537 109.433 155.303 109.979C155.85 110.291 156.476 110.291 157.024 110.525C157.024 111.07 155.85 111.694 154.99 111.382C153.269 110.836 152.33 111.694 150.922 111.07C150.609 111.928 151.47 112.24 152.409 112.785C153.582 112.473 153.895 115.124 155.616 114.266C157.649 115.981 160.309 114.578 162.656 115.747C161.482 116.605 159.996 116.293 159.136 117.229C156.476 116.371 153.895 116.371 150.922 115.514C149.436 116.995 147.089 117.229 144.508 117.852C143.413 114.11 148.654 114.11 148.106 110.369ZM152.174 121.672C154.521 120.814 157.415 122.841 158.275 125.18C158.353 125.648 158.275 125.803 158.197 125.881C157.884 126.037 157.024 124.946 156.789 125.18C156.241 124.868 156.241 124.011 155.068 124.011C154.208 123.465 153.034 122.529 152.174 121.672ZM141.692 119.957C141.77 119.957 141.848 119.957 141.927 119.957C143.022 119.879 142.318 121.516 143.178 122.062C144.899 124.946 148.419 125.258 149.28 128.766C148.106 129.623 146.072 130.481 145.447 132.274C146.229 131.962 148.732 130.559 150.14 131.416C153.347 133.755 153.66 138.12 157.415 139.835C157.415 143.655 161.248 145.058 161.248 148.878C161.795 150.359 162.421 151.528 162.421 152.697C162.03 153.009 161.717 153.087 161.482 153.087C160.074 153.165 160.074 149.969 158.588 149.501C156.554 148.332 153.895 147.163 151.861 146.305C153.034 140.225 147.168 139.913 144.821 135.236C143.648 134.067 143.335 132.04 141.614 131.182C141.301 131.182 141.614 130.87 141.614 130.87C143.1 130.87 144.508 130.325 145.994 130.013C145.447 128.532 143.648 127.986 142.474 126.817C142.318 126.739 142.083 126.661 141.927 126.661C141.066 126.661 140.284 127.83 139.267 127.83C138.876 127.83 138.485 127.674 138.016 127.129C137.468 127.44 137.468 127.674 136.842 127.986C136.295 127.44 135.669 126.271 135.356 125.336C135.512 121.438 140.206 122.296 141.692 119.957ZM139.58 150.203C140.753 147.864 142.24 145.526 143.96 143.499C144.508 144.668 144.273 146.383 143.648 147.552C142.161 150.203 139.58 152.464 136.06 152.775C136.686 151.684 138.485 151.06 139.58 150.203ZM138.485 147.63C138.485 147.319 138.798 147.319 139.032 147.319C139.58 146.149 140.206 145.292 141.066 144.123C141.614 142.641 141.927 141.238 142.552 139.757C143.413 140.069 143.413 141.238 143.1 142.096C142.24 144.122 141.379 146.461 139.267 147.319C138.954 147.63 138.954 147.864 138.72 147.864C138.172 148.176 138.485 147.63 138.485 147.63ZM121.823 80.3567C122.215 79.9669 122.449 79.733 122.684 79.6551C123.779 79.0314 122.684 81.6819 122.449 82.3834C120.337 83.0071 121.511 81.526 121.823 80.3567ZM120.337 83.5527C121.511 83.5527 122.997 83.5527 123.544 84.0984C123.466 84.3323 123.31 84.4102 123.153 84.4882C122.606 84.722 121.589 84.3323 120.963 84.3323C120.65 84.1764 119.79 84.1764 120.337 83.5527ZM117.991 89.3992C117.991 87.9181 117.991 86.2032 119.164 85.0339C120.024 84.722 120.885 85.5795 121.511 85.8913C121.511 85.9693 121.432 86.0472 121.432 86.1252C121.198 86.3591 120.65 86.2811 120.337 86.515C120.337 86.515 120.259 86.515 120.259 86.5929C120.181 86.6709 120.181 86.6709 120.103 86.7488C120.65 87.6063 122.136 87.6063 121.589 89.3992C121.589 89.4772 121.589 89.5551 121.511 89.5551C121.276 89.7111 120.572 89.7111 120.337 89.867C120.181 89.9449 120.181 90.1788 120.415 90.5685C120.415 90.5685 120.337 90.6465 120.259 90.7244C120.103 90.8024 119.79 90.9583 119.555 91.1142C119.164 91.3481 118.929 91.7378 119.555 92.0497C119.555 92.1276 119.555 92.2056 119.477 92.2835C119.164 92.5953 117.991 91.504 117.208 91.504C116.348 91.504 115.722 90.0229 116.035 89.1654C116.113 89.0095 116.191 88.9315 116.27 88.8536C116.661 88.4638 116.974 90.1788 117.991 89.3992ZM114.236 84.4102C115.253 84.1764 115.8 83.4748 116.739 83.085C116.895 83.0071 116.974 83.0071 117.13 82.9291C117.443 83.2409 117.13 83.4748 117.13 83.7866C117.052 83.7866 116.974 83.8646 116.895 83.8646C115.722 84.3323 115.644 86.1252 114.549 86.437C114.236 85.8913 114.862 85.2677 114.001 85.2677C113.923 85.0339 114.236 84.722 114.236 84.4102ZM98.4349 87.0606C97.2615 81.8378 94.602 77.1606 94.9149 71.6259C95.0713 71.3141 95.1495 71.0802 95.306 71.0023C95.306 71.0023 95.306 71.0023 95.3842 71.0023C96.0882 70.6904 96.7922 72.9511 97.2615 73.6527C98.9824 77.4724 98.7478 82.0716 101.642 85.2677C101.016 85.6575 100.469 86.5929 99.6082 86.9827C99.2953 87.2165 98.9042 87.2165 98.4349 87.0606ZM99.9211 91.1142C99.6082 91.1142 99.6082 90.5685 99.6082 90.2567C99.9211 89.0874 103.128 87.2945 103.989 86.437C104.458 86.515 105.397 87.2945 106.022 87.7622C103.832 88.4638 101.329 88.5417 99.9211 91.1142ZM115.096 103.665C113.063 103.977 111.263 102.184 109.23 101.326C107.509 99.845 110.716 100.469 109.542 99.2993C108.682 97.5843 110.09 95.2457 108.369 94.0764C107.196 93.7646 107.822 95.2457 107.196 95.5576C106.335 95.8694 105.475 94.7001 104.849 94.0764C104.849 93.5308 105.162 93.219 105.71 93.219C105.397 91.1922 103.989 93.5308 102.815 92.9071C102.268 92.5953 102.815 92.0497 102.815 91.7378C103.676 90.8804 104.302 89.7111 106.022 90.0229C106.179 89.4772 106.414 89.3992 106.961 88.9315C107.352 89.867 108.213 91.0363 108.369 91.1922C111.029 92.6733 113.61 94.0764 116.27 95.8694C117.443 96.7269 117.756 98.5198 119.164 98.5198C119.477 97.6623 118.851 97.3505 118.303 96.8048C118.616 95.3237 117.13 94.4662 115.957 93.9205C115.096 93.063 113.61 92.7512 113.297 91.8937C115.018 88.6977 115.018 93.3749 116.817 93.3749C120.65 93.063 120.65 97.7402 123.544 98.2859C123.857 99.1434 125.265 99.4552 125.891 100.313C126.204 101.794 127.612 103.197 126.439 104.366C124.405 105.847 122.058 104.366 120.024 103.509C116.191 103.821 114.158 100.625 110.716 100.625C111.576 102.184 114.471 101.638 115.096 103.665ZM119.477 123.153C120.65 121.438 123.857 123.153 125.343 121.672C127.064 119.645 128.551 116.449 130.897 114.656C131.445 113.175 130.584 113.487 130.037 114.344C128.551 115.825 125.109 115.514 124.483 118.398L124.17 118.71C122.997 119.022 121.823 119.255 120.65 119.255C118.929 119.567 117.756 118.398 116.583 117.54C117.443 116.371 119.242 116.059 120.103 114.89C120.963 113.721 121.823 112.551 122.136 111.382C121.589 110.836 121.276 111.382 120.65 111.694C119.477 112.006 118.616 112.863 117.756 112.863C118.616 110.525 119.477 107.952 122.684 107.952C124.405 107.095 127.377 107.406 128.551 105.068C130.897 106.237 131.445 108.576 133.792 109.121C134.183 110.213 135.043 110.992 135.825 111.772C136.686 112.629 136.373 113.487 137.312 114.11C138.798 114.422 139.345 115.825 140.519 116.449C142.865 118.164 139.658 118.788 139.032 119.957C135.2 119.411 135.512 126.349 131.758 123.777C130.897 123.777 130.584 121.438 130.037 122.919C130.35 124.4 131.758 124.634 131.758 126.427C130.037 126.115 128.238 125.881 127.69 124.4C128.551 123.231 129.176 121.75 130.35 120.892C132.696 121.204 133.244 119.177 134.417 117.696C135.278 117.696 136.138 117.151 136.451 116.215C136.764 115.903 136.999 115.046 136.451 114.5C135.591 116.839 132.071 114.812 131.758 117.696C130.271 118.008 128.551 118.554 127.925 120.347C127.377 122.997 124.092 123.231 121.823 123.231C121.198 124.011 120.024 123.153 119.477 123.153ZM125.578 127.518C124.718 127.518 124.405 126.973 124.405 126.349C124.405 125.881 124.718 125.726 125.031 125.57C125.343 125.414 125.735 125.336 126.047 125.258C126.126 125.258 126.126 125.258 126.126 125.18C126.673 124.868 127.299 125.726 127.299 126.037C127.377 126.505 127.299 126.661 127.064 126.739H126.986C126.595 126.817 126.047 126.583 125.735 126.583C125.578 126.661 125.422 126.895 125.578 127.518ZM95.2278 148.176C98.122 149.657 102.268 149.657 105.162 151.684C106.335 150.203 104.302 148.8 104.302 147.319C104.145 147.085 103.05 146.071 102.268 145.292C102.033 145.292 101.877 145.214 101.642 144.98C101.642 144.98 101.329 144.434 101.642 144.434C101.955 144.278 102.111 144.434 102.268 144.668C102.815 144.98 103.519 145.526 103.832 145.76C103.91 145.76 103.91 145.837 103.91 145.837C109.777 146.695 108.291 153.711 110.951 157.453C112.437 154.802 113.61 152.23 112.437 149.034C110.951 146.695 110.09 143.811 108.917 141.472C111.263 142.953 111.811 145.526 114.158 147.007C115.331 148.176 115.018 149.891 115.018 151.372C112.984 153.399 115.331 156.283 114.471 158.622C112.437 161.272 111.811 164.157 111.576 167.353C111.342 167.586 111.107 168.288 110.638 168.522C110.481 168.6 110.325 168.6 110.09 168.522C109.23 166.807 109.777 164.468 109.23 162.675C107.743 163.221 108.369 165.56 107.196 166.495C106.648 164.468 104.849 161.584 102.268 160.103C100.782 159.557 98.4349 158.934 97.8873 157.219H98.2002C99.9211 157.764 101.72 158.388 103.754 158.934C104.614 158.7 106.492 160.649 107.039 160.415C107.274 160.337 107.274 159.947 106.961 158.934C106.101 154.023 101.407 152.541 97.6526 150.749C96.714 150.203 95.5406 149.345 95.2278 148.176ZM109.151 179.825C108.682 180.059 108.291 180.371 107.9 180.605C107.665 180.293 107.43 179.903 107.196 179.591C106.648 177.876 106.883 176.707 106.883 174.914C108.604 173.745 108.056 175.46 108.056 176.395C108.056 178.734 108.917 178.656 109.151 179.825ZM101.094 182.553C102.111 182.865 103.206 182.943 104.145 183.177C103.05 183.957 101.877 184.814 100.86 185.75C98.7478 182.865 95.8535 179.747 97.8873 176.161C98.7478 176.473 98.7478 174.68 99.6082 175.304C99.6082 176.629 97.6527 183.255 101.094 182.553ZM100.469 166.495C101.955 167.664 101.955 169.691 101.642 171.718C100.782 170.237 101.329 168.21 99.9211 167.041C99.6082 166.495 99.9211 165.326 100.469 166.495ZM92.5682 178.422C92.0206 177.253 91.7077 176.083 91.7077 174.914C94.3673 173.745 96.6358 172.575 98.4349 170.549C99.6082 168.834 99.9211 171.406 99.6082 172.03C96.9486 174.057 93.5069 174.992 92.5682 178.422ZM101.251 194.87L93.194 195.961C94.6802 194.169 96.2446 192.454 97.8873 190.817C97.9655 190.972 98.122 191.05 98.2002 191.206C100.625 189.803 101.173 190.972 101.564 192.376C101.72 192.843 101.798 193.467 101.955 194.013L101.251 194.87ZM107.039 193.311L106.335 192.298C106.805 191.908 107.509 191.674 108.056 191.518C108.604 191.206 108.917 191.83 109.23 192.376C109.073 193.233 108.056 193.311 107.039 193.311ZM111.498 193.545C110.559 191.206 109.151 189.413 107.509 188.088C106.022 187.543 103.441 188.4 102.815 187.231C102.659 187.075 102.502 186.997 102.268 186.997C103.519 185.983 104.771 185.048 106.101 184.113C108.838 185.438 115.018 191.518 115.722 190.739C116.191 191.44 116.974 192.064 117.052 192.921L111.498 193.545ZM125.5 191.596L124.092 190.895C124.248 190.661 124.405 190.427 124.483 190.037C125.031 190.037 125.813 190.895 126.126 191.518L125.5 191.596ZM127.768 191.362C127.377 190.193 126.595 189.102 125.656 188.4C120.103 187.231 115.722 184.035 111.029 182.008C110.872 181.696 110.716 181.462 110.638 181.228C116.348 177.876 122.606 175.538 128.863 174.368C132.071 173.745 135.278 173.511 138.407 173.511C150.296 173.511 162.108 177.564 172.59 185.36L127.768 191.362ZM175.484 185.204C161.404 173.979 144.743 169.457 128.472 172.498C121.98 173.667 115.644 176.161 109.699 179.591C109.621 179.513 109.621 179.435 109.542 179.357V174.992C111.029 170.938 113.61 167.431 113.923 162.442C114.471 160.727 117.678 157.764 119.477 157.764C121.511 157.764 123.544 158.076 125.578 158.076C131.68 158.076 137.859 156.907 143.96 157.219C144.821 156.907 145.994 156.673 146.62 156.907C146.62 157.764 146.62 158.934 147.168 159.557C151.235 159.869 152.409 163.923 155.616 165.949C156.163 165.949 157.337 166.261 157.649 165.404C157.649 161.35 153.582 158.388 153.269 154.334C154.442 153.165 156.163 153.477 157.649 152.308C159.136 152.308 159.37 154.334 160.857 154.646C163.751 153.789 165.237 157.53 167.897 158.7C173.998 161.35 175.171 168.288 181.586 170.627C185.653 173.277 185.106 180.527 191.207 180.215C192.067 181.072 192.067 182.242 192.38 183.411L175.875 185.594L175.484 185.204ZM211.936 179.513L212.796 180.371L223.591 174.29L222.652 172.965L211.936 179.513ZM97.8873 256.687C97.2615 256.375 96.4793 256.453 95.6189 256.843L94.0544 257.545L93.5851 256.297L94.6802 255.83L97.1051 254.738L96.5575 253.413L91.4731 255.674L94.2109 262.612L97.3398 261.208C97.8091 260.975 98.2002 260.741 98.4349 260.507C98.5131 260.429 98.5913 260.351 98.6695 260.195C98.7478 260.039 98.826 259.961 98.9042 259.805C98.9042 259.727 98.9824 259.649 98.9824 259.571C99.1389 259.104 99.1389 258.558 98.9042 257.934C98.7478 257.389 98.3567 256.921 97.8873 256.687ZM97.2615 259.493C97.2615 259.571 97.1833 259.571 97.1051 259.649C96.9486 259.727 96.7922 259.883 96.5575 259.961C96.4793 259.961 96.4793 260.039 96.4011 260.039L95.1495 260.585L94.4455 258.948L95.6971 258.402C96.0882 258.246 96.4011 258.168 96.6358 258.246C96.8704 258.324 97.0269 258.48 97.1833 258.792C97.418 259.026 97.418 259.26 97.2615 259.493ZM209.746 177.798L210.841 178.89L225.312 169.457L224.608 167.664L209.746 177.798ZM197.934 169.068L237.358 134.846L236.889 132.43L196.839 168.054L197.934 169.068ZM183.306 255.284L180.882 254.427L181.742 251.776L180.178 251.23L177.831 258.324L179.395 258.87L180.412 255.83L182.837 256.687L181.82 259.727L183.385 260.273L185.731 253.179L184.167 252.634L183.306 255.284ZM139.893 246.163C139.815 246.085 139.736 246.085 139.658 246.008C139.502 245.93 139.267 245.852 139.032 245.852C138.798 245.852 138.563 245.774 138.328 245.774L135.043 245.852L135.2 253.413H136.842L136.764 250.841H138.328C139.267 250.841 139.893 250.607 140.362 250.139C140.832 249.671 140.988 249.048 140.988 248.268C140.988 247.645 140.832 247.099 140.519 246.709C140.362 246.475 140.128 246.319 139.893 246.163ZM138.876 249.126C138.641 249.282 138.407 249.36 138.016 249.36H136.686V247.333H138.016H138.172C138.485 247.333 138.72 247.411 138.876 247.489C139.111 247.645 139.267 247.878 139.267 248.346C139.189 248.658 139.032 248.97 138.876 249.126ZM174.311 249.671L170.165 256.375L171.886 256.765L172.59 255.518L175.093 256.141L175.25 257.623L176.97 258.012L175.954 250.061L174.311 249.671ZM173.216 254.349L174.702 251.776L175.015 254.816L173.216 254.349ZM199.89 170.783L238.062 139.601L237.749 137.107L198.795 169.769L199.89 170.783ZM175.641 171.796L170.869 178.266L172.042 179.124L176.736 173.043L175.641 171.796ZM177.44 174.836L173.45 179.903L174.389 180.761L178.378 175.927L177.44 174.836ZM141.77 247.333L143.882 247.411L143.804 253.491H145.447L145.525 247.411L147.637 247.489V246.008L141.692 245.93L141.77 247.333ZM155.146 247.411C154.833 247.021 154.442 246.631 154.051 246.397C153.582 246.163 153.034 246.008 152.487 246.008C152.33 246.008 152.174 246.008 152.017 246.008C151.861 246.008 151.705 246.008 151.548 246.085C151.235 246.163 151.001 246.241 150.766 246.319C150.297 246.553 149.827 246.865 149.514 247.333C149.358 247.489 149.28 247.645 149.201 247.878C149.123 248.112 149.045 248.268 148.967 248.502C148.81 248.892 148.732 249.36 148.732 249.905C148.732 250.373 148.732 250.841 148.81 251.308C148.888 251.776 149.045 252.166 149.28 252.478C149.671 253.101 150.14 253.491 150.766 253.803C150.922 253.881 151.001 253.881 151.157 253.959C151.392 254.037 151.704 254.037 152.017 254.115C152.017 254.115 152.017 254.115 152.096 254.115C152.252 254.115 152.409 254.115 152.565 254.115C153.582 254.115 154.364 253.725 154.912 253.023C155.068 252.867 155.146 252.634 155.303 252.478C155.459 252.166 155.616 251.854 155.694 251.464C155.772 251.074 155.85 250.685 155.85 250.295C155.85 249.593 155.772 249.048 155.616 248.502C155.537 248.034 155.381 247.723 155.146 247.411ZM153.191 252.244C152.878 252.478 152.487 252.634 152.096 252.556C151.626 252.556 151.235 252.322 150.922 252.01C150.531 251.542 150.375 250.919 150.453 249.983C150.531 249.048 150.688 248.424 151.079 248.034C151.392 247.645 151.861 247.489 152.409 247.567C152.878 247.645 153.269 247.8 153.582 248.112C153.973 248.58 154.129 249.204 154.051 250.217C153.973 251.152 153.738 251.854 153.191 252.244ZM160.935 246.865C159.683 246.709 158.745 247.099 158.119 247.878C157.571 248.58 157.258 249.438 157.18 250.607C157.024 252.01 157.337 253.101 158.041 253.803C158.588 254.349 159.292 254.66 160.309 254.816C161.482 254.972 162.343 254.66 162.969 254.037C163.36 253.569 163.673 253.023 163.829 252.322L162.186 252.166C162.108 252.478 161.952 252.789 161.795 253.023C161.482 253.335 161.091 253.491 160.622 253.413C160.074 253.335 159.605 253.023 159.37 252.556C159.136 252.088 159.057 251.542 159.136 250.841C159.214 250.217 159.37 249.671 159.605 249.282C159.918 248.658 160.465 248.424 161.091 248.502C161.482 248.58 161.717 248.658 161.952 248.814C162.265 249.048 162.421 249.437 162.421 249.983L164.064 250.139C164.142 249.36 163.985 248.736 163.516 248.19C162.812 247.333 161.952 246.943 160.935 246.865ZM175.25 181.618L176.032 182.398L180.412 177.798L179.552 176.941L175.25 181.618ZM171.025 248.736L165.159 247.723L164.924 249.204L167.036 249.593L166.176 255.596L167.818 255.908L168.679 249.905L170.791 250.295L171.025 248.736ZM158.041 94.9339L164.142 50.6564L162.108 50.3446L156.007 95.1678L158.041 94.9339ZM166.176 140.926V141.784C167.897 141.784 170.869 142.33 172.277 141.238C174.937 140.926 175.797 138.042 178.378 137.73C178.066 137.185 178.691 137.419 178.378 136.873C176.032 136.873 173.998 137.73 172.825 139.523C171.182 140.303 169.148 141.472 166.176 140.926ZM150.218 169.068L151.313 169.379L152.33 166.417L151.079 165.248L150.218 169.068ZM147.402 168.444L148.888 168.756L149.905 164.702L148.419 164.079L147.402 168.444ZM144.899 168.054L146.385 168.366L147.402 163.377L145.838 162.675L144.899 168.054ZM152.643 169.613L153.738 170.159L154.442 167.742L153.113 167.041L152.643 169.613ZM142.552 167.742L143.648 167.898L144.43 162.286L143.022 161.896L142.552 167.742ZM164.142 162.675L160.074 172.342L161.639 173.121L165.706 163.377L164.142 162.675ZM167.271 164.234L163.047 173.823L164.22 174.446L168.757 165.326L167.271 164.234ZM170.165 166.417L165.55 175.304L166.723 176.083L171.338 167.664L170.165 166.417ZM154.833 170.627L156.085 171.094L156.633 169.379L155.459 168.522L154.833 170.627ZM161.404 161.35L157.258 171.484L158.745 172.108L162.734 161.974L161.404 161.35ZM140.206 167.275L141.379 167.586L141.927 161.584L140.44 161.428L140.206 167.275ZM127.768 161.818L128.707 167.976L130.115 167.742L129.176 161.584L127.768 161.818ZM116.035 165.871L118.46 171.406L119.711 170.783L117.443 165.014L116.035 165.871ZM121.432 162.753L123.388 169.457L125.109 168.99L123.31 162.519L121.432 162.753ZM114.314 168.366L116.27 172.342L117.365 171.64L115.644 167.742L114.314 168.366ZM137.703 167.275L139.032 167.431L139.345 161.428H137.859L137.703 167.275ZM113.141 171.094L114.705 173.355L115.566 172.809L114.079 170.237L113.141 171.094ZM128.551 109.199C128.003 110.369 127.69 111.85 126.204 111.85C126.204 113.019 125.031 113.019 125.343 114.5C126.204 115.046 126.517 113.643 127.064 113.331C129.411 113.019 129.724 110.681 131.132 109.823C131.992 107.718 129.098 109.199 128.551 109.199ZM118.46 164.157L121.041 170.237L122.527 169.769L120.103 163.377L118.46 164.157ZM135.512 161.35L135.747 167.353H136.842L136.764 161.35H135.512ZM124.561 162.13L126.126 168.6L127.612 168.21L126.439 161.896L124.561 162.13ZM133.009 161.428L133.557 167.431H134.73L134.339 161.506L133.009 161.428ZM173.059 169.146L168.209 176.707L169.383 177.487L174.233 170.471L173.059 169.146ZM130.506 161.662L131.21 167.664H132.54L131.992 161.506L130.506 161.662ZM88.1877 131.572L59.9493 83.8646L58.5413 86.1252L86.4668 131.884L88.1877 131.572ZM92.5682 119.177L96.4793 127.674L98.0438 126.973L94.8366 118.554L92.5682 119.177ZM100.938 125.648L98.826 118.71L97.3398 119.645L99.6082 126.271L100.938 125.648ZM94.6802 128.61L70.6658 78.4078L69.1796 80.6685L93.1157 129.857L94.6802 128.61ZM111.576 74.5102L107.743 52.2155L105.475 52.6832L109.464 75.3676L111.576 74.5102ZM84.433 132.741L56.8987 88.074L55.4124 90.1008L82.9468 133.599L84.433 132.741ZM154.599 218.88C153.113 218.88 151.783 219.815 151.392 221.218H141.379L150.375 216.073C150.922 216.463 151.626 216.697 152.409 216.697C154.286 216.697 155.772 215.216 155.772 213.345C155.772 211.474 154.286 209.993 152.409 209.993C150.531 209.993 149.045 211.474 149.045 213.345C149.045 213.657 149.045 213.891 149.123 214.203L140.128 219.347L145.29 210.383C145.525 210.461 145.76 210.461 146.072 210.461C147.95 210.461 149.436 208.98 149.436 207.109C149.436 205.238 147.95 203.757 146.072 203.757C144.195 203.757 142.709 205.238 142.709 207.109C142.709 207.888 142.944 208.59 143.413 209.136L138.172 218.1V207.888C139.502 207.421 140.44 206.173 140.44 204.692C140.44 202.821 138.954 201.34 137.077 201.34C135.2 201.34 133.713 202.821 133.713 204.692C133.713 206.173 134.652 207.421 135.982 207.888V218.334L130.663 209.214C131.288 208.59 131.601 207.732 131.601 206.875C131.601 205.004 130.115 203.523 128.238 203.523C126.36 203.523 124.874 205.004 124.874 206.875C124.874 208.746 126.36 210.227 128.238 210.227C128.394 210.227 128.472 210.227 128.629 210.227L133.948 219.347L125.187 214.358C125.265 214.125 125.265 213.813 125.265 213.501C125.265 211.63 123.779 210.149 121.902 210.149C120.024 210.149 118.538 211.63 118.538 213.501C118.538 215.372 120.024 216.853 121.902 216.853C122.606 216.853 123.31 216.619 123.857 216.229L132.54 221.218H122.84C122.371 219.815 121.119 218.88 119.633 218.88C117.756 218.88 116.27 220.361 116.27 222.232C116.27 224.103 117.756 225.584 119.633 225.584C121.041 225.584 122.293 224.726 122.762 223.479H135.982V226.675H138.25V223.479H151.626C152.174 224.726 153.347 225.584 154.755 225.584C156.633 225.584 158.119 224.103 158.119 222.232C158.119 220.361 156.398 218.88 154.599 218.88ZM94.3673 55.8793L93.0375 49.8769L91.1602 50.3446L92.8811 56.1911L94.3673 55.8793ZM86.1539 85.5795L80.209 69.9109L78.5663 71.1582L85.2935 87.7622L86.1539 85.5795ZM81.2259 135.08L53.6133 93.7646L52.44 96.1032L79.8179 136.093L81.2259 135.08ZM104.302 76.3031L98.0438 48.5517L96.0882 49.2533L102.815 76.6149L104.302 76.3031ZM90.0651 55.6454L88.7353 51.6698L87.1708 52.6053L88.8135 56.8147L90.0651 55.6454ZM86.7015 59.0754L85.0588 54.0084L83.1815 55.3336L85.2153 60.0108L86.7015 59.0754ZM87.4837 101.716L75.5939 74.1204L73.873 75.6015L86.4668 103.275L87.4837 101.716ZM78.0188 137.419L51.1102 99.0655L50.0151 101.404L76.4543 138.588L78.0188 137.419ZM84.5895 185.594L41.2541 156.439L41.7235 159.012L83.8072 187.465L84.5895 185.594ZM83.9637 189.102L42.975 164.157L43.6008 167.041L83.3379 190.895L83.9637 189.102ZM72.3867 197.287L58.6978 191.284L59.9493 193.701L71.9174 198.456L72.3867 197.287ZM71.2134 200.327L60.888 196.273L61.9049 198.612L70.9005 201.496L71.2134 200.327ZM73.4819 194.091L56.8987 185.906L57.6809 188.556L72.8561 195.572L73.4819 194.091ZM68.632 145.915L50.3279 126.583L49.8586 128.922L67.6152 147.552L68.632 145.915ZM84.1984 181.618L40.863 148.176V150.826L83.4944 183.411L84.1984 181.618ZM69.8836 143.733L71.2134 142.641L52.0489 120.425L51.3448 122.841L69.8836 143.733ZM83.8072 176.317L41.9581 141.394L41.567 144.123L83.3379 178.188L83.8072 176.317ZM66.5983 149.657L48.8417 132.507L48.7635 135.158L65.8943 151.45L66.5983 149.657Z" fill="white"/>
</svg>
