<svg width="760" height="294" viewBox="0 0 760 294" fill="none" xmlns="http://www.w3.org/2000/svg">
<path d="M357.369 92H348.756V56.5215H336.1V92H327.486V49.3438H357.369V92Z" fill="white"/>
<path d="M372.955 77V92H364.342V49.3438H378.873C383.092 49.3438 386.451 50.6523 388.951 53.2695C391.471 55.8867 392.73 59.2852 392.73 63.4648C392.73 67.6445 391.49 70.9453 389.01 73.3672C386.529 75.7891 383.092 77 378.697 77H372.955ZM372.955 69.8223H378.873C380.514 69.8223 381.783 69.2852 382.682 68.2109C383.58 67.1367 384.029 65.5742 384.029 63.5234C384.029 61.3945 383.57 59.7051 382.652 58.4551C381.734 57.1855 380.504 56.541 378.961 56.5215H372.955V69.8223Z" fill="white"/>
<path d="M413.648 83.2695H401.9L399.615 92H390.504L403.834 49.3438H411.715L425.133 92H415.934L413.648 83.2695ZM403.775 76.0918H411.744L407.76 60.8867L403.775 76.0918Z" fill="white"/>
<path d="M429.146 92V49.3438H442.33C446.783 49.3438 450.162 50.3398 452.467 52.332C454.791 54.3047 455.953 57.2051 455.953 61.0332C455.953 63.2012 455.475 65.0664 454.518 66.6289C453.561 68.1914 452.252 69.334 450.592 70.0566C452.506 70.6035 453.98 71.707 455.016 73.3672C456.051 75.0078 456.568 77.0391 456.568 79.4609C456.568 83.6016 455.426 86.7266 453.141 88.8359C450.875 90.9453 447.584 92 443.268 92H429.146ZM437.76 73.4551V84.8516H443.268C444.811 84.8516 445.982 84.373 446.783 83.416C447.584 82.459 447.984 81.1016 447.984 79.3438C447.984 75.5156 446.598 73.5527 443.824 73.4551H437.76ZM437.76 67.1855H442.242C445.621 67.1855 447.311 65.4375 447.311 61.9414C447.311 60.0078 446.92 58.6211 446.139 57.7812C445.357 56.9414 444.088 56.5215 442.33 56.5215H437.76V67.1855Z" fill="white"/>
<path d="M483.727 49.3438H492.34V92H483.727V63.7578L471.158 92H462.516V49.3438H471.158V77.6152L483.727 49.3438Z" fill="white"/>
<path d="M525.973 56.5215H515.426V92H506.783V56.5215H496.412V49.3438H525.973V56.5215Z" fill="white"/>
<path d="M552.955 73.543H539.537V84.8516H555.416V92H530.924V49.3438H555.357V56.5215H539.537V66.5996H552.955V73.543Z" fill="white"/>
<path d="M590.309 49.3438V92H581.666V56.5215H573.756L573.17 71.6387C572.936 76.6191 572.369 80.5742 571.471 83.5039C570.592 86.4141 569.293 88.5527 567.574 89.9199C565.875 91.2871 563.58 91.9805 560.689 92H558.58V84.8516L559.576 84.7637C561.373 84.5488 562.662 83.377 563.443 81.248C564.244 79.0996 564.742 75.3105 564.938 69.8809L565.494 49.3438H590.309Z" fill="white"/>
<path d="M605.865 64.666H610.963C615.279 64.666 618.717 65.8965 621.275 68.3574C623.834 70.7988 625.113 74.0703 625.113 78.1719C625.113 82.2539 623.863 85.5645 621.363 88.1035C618.863 90.623 615.553 91.9219 611.432 92H597.223V49.3438H605.865V64.666ZM605.865 71.8145V84.8516H611.08C612.76 84.8516 614.078 84.2266 615.035 82.9766C616.012 81.707 616.5 80.0859 616.5 78.1133C616.5 76.2578 616.021 74.7539 615.064 73.6016C614.127 72.4297 612.818 71.834 611.139 71.8145H605.865Z" fill="white"/>
<path d="M659.156 77.791C658.941 82.6543 657.574 86.3359 655.055 88.8359C652.535 91.3359 648.98 92.5859 644.391 92.5859C639.566 92.5859 635.865 91.0039 633.287 87.8398C630.729 84.6562 629.449 80.125 629.449 74.2461V67.0684C629.449 61.209 630.777 56.6973 633.434 53.5332C636.09 50.3496 639.781 48.7578 644.508 48.7578C649.156 48.7578 652.682 50.0566 655.084 52.6543C657.506 55.252 658.883 58.9824 659.215 63.8457H650.572C650.494 60.8379 650.025 58.7676 649.166 57.6348C648.326 56.4824 646.773 55.9062 644.508 55.9062C642.203 55.9062 640.572 56.7168 639.615 58.3379C638.658 59.9395 638.15 62.5859 638.092 66.2773V74.334C638.092 78.5723 638.561 81.4824 639.498 83.0645C640.455 84.6465 642.086 85.4375 644.391 85.4375C646.656 85.4375 648.219 84.8906 649.078 83.7969C649.938 82.6836 650.426 80.6816 650.543 77.791H659.156Z" fill="white"/>
<path d="M691.207 56.5215H680.66V92H672.018V56.5215H661.646V49.3438H691.207V56.5215Z" fill="white"/>
<path d="M696.158 92V49.3438H709.342C713.795 49.3438 717.174 50.3398 719.479 52.332C721.803 54.3047 722.965 57.2051 722.965 61.0332C722.965 63.2012 722.486 65.0664 721.529 66.6289C720.572 68.1914 719.264 69.334 717.604 70.0566C719.518 70.6035 720.992 71.707 722.027 73.3672C723.062 75.0078 723.58 77.0391 723.58 79.4609C723.58 83.6016 722.438 86.7266 720.152 88.8359C717.887 90.9453 714.596 92 710.279 92H696.158ZM704.771 73.4551V84.8516H710.279C711.822 84.8516 712.994 84.373 713.795 83.416C714.596 82.459 714.996 81.1016 714.996 79.3438C714.996 75.5156 713.609 73.5527 710.836 73.4551H704.771ZM704.771 67.1855H709.254C712.633 67.1855 714.322 65.4375 714.322 61.9414C714.322 60.0078 713.932 58.6211 713.15 57.7812C712.369 56.9414 711.1 56.5215 709.342 56.5215H704.771V67.1855Z" fill="white"/>
<path d="M759.879 74.5098C759.879 80.2324 758.521 84.6758 755.807 87.8398C753.111 91.0039 749.361 92.5859 744.557 92.5859C739.771 92.5859 736.012 91.0234 733.277 87.8984C730.543 84.7539 729.156 80.3594 729.117 74.7148V67.4199C729.117 61.5605 730.475 56.9902 733.189 53.709C735.904 50.4082 739.674 48.7578 744.498 48.7578C749.244 48.7578 752.984 50.3789 755.719 53.6211C758.453 56.8438 759.84 61.375 759.879 67.2148V74.5098ZM751.236 67.3613C751.236 63.5137 750.689 60.6523 749.596 58.7773C748.502 56.9023 746.803 55.9648 744.498 55.9648C742.213 55.9648 740.523 56.873 739.43 58.6895C738.336 60.4863 737.77 63.2305 737.73 66.9219V74.5098C737.73 78.2402 738.287 80.9941 739.4 82.7715C740.514 84.5293 742.232 85.4082 744.557 85.4082C746.803 85.4082 748.473 84.5488 749.566 82.8301C750.66 81.0918 751.217 78.4062 751.236 74.7734V67.3613Z" fill="white"/>
<path d="M336.041 143V158H327.428V115.344H341.959C346.178 115.344 349.537 116.652 352.037 119.27C354.557 121.887 355.816 125.285 355.816 129.465C355.816 133.645 354.576 136.945 352.096 139.367C349.615 141.789 346.178 143 341.783 143H336.041ZM336.041 135.822H341.959C343.6 135.822 344.869 135.285 345.768 134.211C346.666 133.137 347.115 131.574 347.115 129.523C347.115 127.395 346.656 125.705 345.738 124.455C344.82 123.186 343.59 122.541 342.047 122.521H336.041V135.822Z" fill="white"/>
<path d="M383.619 139.543H370.201V150.852H386.08V158H361.588V115.344H386.021V122.521H370.201V132.6H383.619V139.543Z" fill="white"/>
<path d="M419.977 143.791C419.762 148.654 418.395 152.336 415.875 154.836C413.355 157.336 409.801 158.586 405.211 158.586C400.387 158.586 396.686 157.004 394.107 153.84C391.549 150.656 390.27 146.125 390.27 140.246V133.068C390.27 127.209 391.598 122.697 394.254 119.533C396.91 116.35 400.602 114.758 405.328 114.758C409.977 114.758 413.502 116.057 415.904 118.654C418.326 121.252 419.703 124.982 420.035 129.846H411.393C411.314 126.838 410.846 124.768 409.986 123.635C409.146 122.482 407.594 121.906 405.328 121.906C403.023 121.906 401.393 122.717 400.436 124.338C399.479 125.939 398.971 128.586 398.912 132.277V140.334C398.912 144.572 399.381 147.482 400.318 149.064C401.275 150.646 402.906 151.438 405.211 151.438C407.477 151.438 409.039 150.891 409.898 149.797C410.758 148.684 411.246 146.682 411.363 143.791H419.977Z" fill="white"/>
<path d="M455.221 158H446.607V122.521H433.951V158H425.338V115.344H455.221V158Z" fill="white"/>
<path d="M475.67 134.299L481.412 115.344H490.67L478.98 149.621C477.652 153.02 476.217 155.354 474.674 156.623C473.15 157.893 471.314 158.557 469.166 158.615H468.229L466.178 158.498L466.031 151.35C466.227 151.428 466.861 151.467 467.936 151.467C469.029 151.467 469.85 151.223 470.396 150.734C470.963 150.246 471.451 149.152 471.861 147.453L472.271 145.9L460.084 115.344H469.312L475.67 134.299Z" fill="white"/>
<path d="M519.146 122.521H503.854V130.666H508.951C513.268 130.666 516.705 131.896 519.264 134.357C521.822 136.799 523.102 140.07 523.102 144.172C523.102 148.254 521.852 151.564 519.352 154.104C516.852 156.623 513.541 157.922 509.42 158H495.211V115.344H519.146V122.521ZM503.854 137.814V150.852H509.068C510.748 150.852 512.066 150.227 513.023 148.977C514 147.707 514.488 146.086 514.488 144.113C514.488 142.258 514.01 140.754 513.053 139.602C512.115 138.43 510.807 137.834 509.127 137.814H503.854Z" fill="white"/>
<path d="M557.906 115.344V158H549.264V122.521H541.354L540.768 137.639C540.533 142.619 539.967 146.574 539.068 149.504C538.189 152.414 536.891 154.553 535.172 155.92C533.473 157.287 531.178 157.98 528.287 158H526.178V150.852L527.174 150.764C528.971 150.549 530.26 149.377 531.041 147.248C531.842 145.1 532.34 141.311 532.535 135.881L533.092 115.344H557.906Z" fill="white"/>
<path d="M585.738 115.344H594.352V158H585.738V129.758L573.17 158H564.527V115.344H573.17V143.615L585.738 115.344Z" fill="white"/>
<path d="M613.658 140.598H609.908V158H601.295V115.344H609.908V132.395H612.809L620.221 115.344H630.709L620.279 135.207L631.881 158H621.627L613.658 140.598Z" fill="white"/>
<path d="M655.992 115.344H664.605V158H655.992V129.758L643.424 158H634.781V115.344H643.424V143.615L655.992 115.344Z" fill="white"/>
<path d="M351.334 188.521H336.041V196.666H341.139C345.455 196.666 348.893 197.896 351.451 200.357C354.01 202.799 355.289 206.07 355.289 210.172C355.289 214.254 354.039 217.564 351.539 220.104C349.039 222.623 345.729 223.922 341.607 224H327.398V181.344H351.334V188.521ZM336.041 203.814V216.852H341.256C342.936 216.852 344.254 216.227 345.211 214.977C346.188 213.707 346.676 212.086 346.676 210.113C346.676 208.258 346.197 206.754 345.24 205.602C344.303 204.43 342.994 203.834 341.314 203.814H336.041Z" fill="white"/>
<path d="M380.543 215.27H368.795L366.51 224H357.398L370.729 181.344H378.609L392.027 224H382.828L380.543 215.27ZM370.67 208.092H378.639L374.654 192.887L370.67 208.092Z" fill="white"/>
<path d="M404.684 181.344V216.852H413.355V181.344H421.969V216.852H430.523V181.344H439.137V224H396.041V181.344H404.684Z" fill="white"/>
<path d="M458.443 206.598H454.693V224H446.08V181.344H454.693V198.395H457.594L465.006 181.344H475.494L465.064 201.207L476.666 224H466.412L458.443 206.598Z" fill="white"/>
<path d="M508.98 206.51C508.98 212.232 507.623 216.676 504.908 219.84C502.213 223.004 498.463 224.586 493.658 224.586C488.873 224.586 485.113 223.023 482.379 219.898C479.645 216.754 478.258 212.359 478.219 206.715V199.42C478.219 193.561 479.576 188.99 482.291 185.709C485.006 182.408 488.775 180.758 493.6 180.758C498.346 180.758 502.086 182.379 504.82 185.621C507.555 188.844 508.941 193.375 508.98 199.215V206.51ZM500.338 199.361C500.338 195.514 499.791 192.652 498.697 190.777C497.604 188.902 495.904 187.965 493.6 187.965C491.314 187.965 489.625 188.873 488.531 190.689C487.438 192.486 486.871 195.23 486.832 198.922V206.51C486.832 210.24 487.389 212.994 488.502 214.771C489.615 216.529 491.334 217.408 493.658 217.408C495.904 217.408 497.574 216.549 498.668 214.83C499.762 213.092 500.318 210.406 500.338 206.773V199.361Z" fill="white"/>
<path d="M523.775 209V224H515.162V181.344H529.693C533.912 181.344 537.271 182.652 539.771 185.27C542.291 187.887 543.551 191.285 543.551 195.465C543.551 199.645 542.311 202.945 539.83 205.367C537.35 207.789 533.912 209 529.518 209H523.775ZM523.775 201.822H529.693C531.334 201.822 532.604 201.285 533.502 200.211C534.4 199.137 534.85 197.574 534.85 195.523C534.85 193.395 534.391 191.705 533.473 190.455C532.555 189.186 531.324 188.541 529.781 188.521H523.775V201.822Z" fill="white"/>
<path d="M576.949 188.521H566.402V224H557.76V188.521H547.389V181.344H576.949V188.521Z" fill="white"/>
<path d="M611.109 206.51C611.109 212.232 609.752 216.676 607.037 219.84C604.342 223.004 600.592 224.586 595.787 224.586C591.002 224.586 587.242 223.023 584.508 219.898C581.773 216.754 580.387 212.359 580.348 206.715V199.42C580.348 193.561 581.705 188.99 584.42 185.709C587.135 182.408 590.904 180.758 595.729 180.758C600.475 180.758 604.215 182.379 606.949 185.621C609.684 188.844 611.07 193.375 611.109 199.215V206.51ZM602.467 199.361C602.467 195.514 601.92 192.652 600.826 190.777C599.732 188.902 598.033 187.965 595.729 187.965C593.443 187.965 591.754 188.873 590.66 190.689C589.566 192.486 589 195.23 588.961 198.922V206.51C588.961 210.24 589.518 212.994 590.631 214.771C591.744 216.529 593.463 217.408 595.787 217.408C598.033 217.408 599.703 216.549 600.797 214.83C601.891 213.092 602.447 210.406 602.467 206.773V199.361Z" fill="white"/>
<path d="M646.207 209.791C645.992 214.654 644.625 218.336 642.105 220.836C639.586 223.336 636.031 224.586 631.441 224.586C626.617 224.586 622.916 223.004 620.338 219.84C617.779 216.656 616.5 212.125 616.5 206.246V199.068C616.5 193.209 617.828 188.697 620.484 185.533C623.141 182.35 626.832 180.758 631.559 180.758C636.207 180.758 639.732 182.057 642.135 184.654C644.557 187.252 645.934 190.982 646.266 195.846H637.623C637.545 192.838 637.076 190.768 636.217 189.635C635.377 188.482 633.824 187.906 631.559 187.906C629.254 187.906 627.623 188.717 626.666 190.338C625.709 191.939 625.201 194.586 625.143 198.277V206.334C625.143 210.572 625.611 213.482 626.549 215.064C627.506 216.646 629.137 217.438 631.441 217.438C633.707 217.438 635.27 216.891 636.129 215.797C636.988 214.684 637.477 212.682 637.594 209.791H646.207Z" fill="white"/>
<path d="M678.258 188.521H667.711V224H659.068V188.521H648.697V181.344H678.258V188.521Z" fill="white"/>
<path d="M700.055 215.27H688.307L686.021 224H676.91L690.24 181.344H698.121L711.539 224H702.34L700.055 215.27ZM690.182 208.092H698.15L694.166 192.887L690.182 208.092Z" fill="white"/>
<path d="M745.465 224H736.881V205.748H724.166V224H715.553V181.344H724.166V198.6H736.881V181.344H745.465V224Z" fill="white"/>
<path d="M92.496 289.946L69.6331 256.325L51.4777 247.583L34.6666 228.083L4.40759 160.84L5.75196 112.425L38.0291 50.5608L69.6331 21.6461L101.91 8.87067L142.928 4.83572L169.825 6.85318L192.688 13.5775L213.533 28.3711L240.431 50.5608L257.241 76.7856L265.983 96.286L271.362 124.528L270.017 152.77L260.604 187.064L250.517 207.91L240.431 230.1L231.016 238.841L219.585 248.928L208.154 254.308L204.119 259.687L198.067 268.428L190.671 282.55L163.773 269.773L137.549 268.428L110.651 273.135L92.496 289.946Z" fill="white"/>
<path d="M118.581 256.297C116.026 273.215 87.3009 265.813 81.9699 282.555C79.8992 278.722 75.2291 273.832 74.3479 269.69C73.3346 251.494 121.181 239.334 118.581 256.297Z" fill="url(#paint0_linear)"/>
<path d="M105.1 235.722C94.4382 232.769 49.5875 231.845 48.4861 250.041C45.5342 247.397 41.2166 244.665 39.7186 241.097C43.023 218.979 95.1872 230.126 108.801 235.061C107.919 235.061 105.981 235.457 105.1 235.722Z" fill="url(#paint1_linear)"/>
<path d="M164.732 254.412C164.247 238.331 207.996 249.742 202.841 269.7C201.344 272.652 198.479 277.365 197.025 280.317C193.853 263.884 165.216 270.449 164.732 254.412Z" fill="url(#paint2_linear)"/>
<path d="M226.412 251.372C226.412 239.476 218.614 236.876 207.159 234.762C195.66 233.264 183.323 230.664 172.089 233.881C170.547 233.881 169.578 234.013 169.578 233.22L174.071 231.282C184.601 227.581 234.739 218.813 236.06 238.243C235.444 243.177 229.584 247.715 226.412 251.372Z" fill="url(#paint3_linear)"/>
<path fill-rule="evenodd" clip-rule="evenodd" d="M129.426 174.572C142.829 172.069 157.722 175.149 171.154 185.893L168.547 186.244H168.548L126.433 191.939L124.618 191.058L123.576 192.326L110.065 194.152L108.435 191.895L105.957 193.798L105.178 194.812L95.5115 196.119C103.551 185.316 116.023 177.074 129.426 174.572Z" fill="#FFF200"/>
<path fill-rule="evenodd" clip-rule="evenodd" d="M244.136 227.056C242.471 224.554 240.888 223.494 238.288 221.76C241.306 218.742 241.679 212.676 241.679 208.79C256.728 198.072 242.812 190.303 240.242 197.559C237.237 193.58 237.869 186.976 243.012 185.514C240.647 180.967 244.14 176.103 250.046 176.529C246.799 180.915 251.333 185.667 255.99 183.916C260.649 182.166 259.396 169.875 257.028 165.533C260.271 161.994 263.527 158.548 262.347 152.356C261.757 150.587 261.915 148.256 258.535 147.746C255.156 147.236 252.199 149.991 253.351 153.445C246.821 151.176 248.376 144.756 250.914 141.512C247.982 138.788 249.763 130.158 254.347 131.614C254.347 139.351 261.489 140.173 263.392 133.127C263.392 126.64 260.414 124.171 256.303 119.755C258.072 116.512 260.366 112.248 259.481 107.826C258.645 102.179 248.31 100.049 249.807 109.205C245.515 110.162 242.145 104.27 244.225 99.5181C242.855 100.167 237.875 91.428 244.71 88.172C243.963 93.4039 250.401 93.7588 252.76 89.0391C254.53 85.796 253.039 82.4849 250.975 80.1266C248.616 76.8823 244.844 74.9749 241.306 73.2059C242.191 66.7184 242.535 60.5014 237.818 57.5538C230.168 55.2389 226.702 62.3781 233.477 66.2497C233.183 67.1339 229.667 69.114 228.487 68.8191C224.949 68.2292 221.78 62.8236 221.081 60.5864C220.41 58.435 209.349 56.442 214.445 47.9927C218.093 50.3437 221.487 50.7389 222.495 44.9729C223.503 39.2062 214.139 38.1146 209.555 37.6055C208.081 32.4599 205.519 27.1558 199.624 25.2638C196.085 24.9682 194.488 26.9723 193.014 29.3306C192.158 33.6121 194.194 33.9536 197.142 35.4271C192.522 42.3888 186.702 35.383 185.236 33.3986C181.194 33.6158 174.183 34.2816 175.225 25.9822C181.488 28.0309 184.947 20.2498 179.033 17.0832C174.315 14.7243 169.554 17.5293 165.131 18.709C161.297 14.5804 156.868 9.9299 149.202 11.6996C143.427 14.2769 145.048 22.7501 151.317 21.4932C150.904 27.0426 144.278 27.6796 139.911 24.4316C136.882 27.46 127.936 27.6166 128.51 21.2656C133.661 21.2907 135.662 13.4331 130.859 12.6119C126.055 11.7914 120.2 15.9542 117.767 20.125C113.933 18.061 108.806 16.1231 103.498 17.0067C101.139 17.8915 98.5417 20.2669 99.358 24.0498C100.175 27.8326 103.414 25.9724 105.477 25.9932C106.401 32.4623 100.611 33.4867 95.8248 33.1618C93.7896 40.0195 86.8444 38.9125 84.5871 35.4932C88.0046 34.9235 90.4975 32.34 88.8699 29.0821C87.6895 27.0181 86.8579 26.1964 84.499 26.1964C78.3407 26.6681 75.0406 32.7493 74.2947 37.9904C68.3965 37.1055 60.6209 37.048 57.3772 41.4709C52.5516 46.4023 60.0139 53.1603 65.2806 47.33C70.3044 55.887 62.2651 56.6243 58.6659 57.8102C58.1604 63.3921 54.1891 70.2516 48.3001 64.5602C54.2081 59.7518 46.7856 53.484 42.2042 57.9179C37.6228 62.3524 38.4391 67.6779 38.4079 72.1008C34.1306 73.2818 29.1827 75.3763 26.8152 78.603C23.8205 85.5947 31.445 92.1305 35.4707 84.0747C40.672 86.4226 35.6831 95.9764 33.0347 95.9898C34.5718 99.6515 34.3105 108.204 26.9523 106.824C30.0015 98.8126 19.6504 94.1241 17.2107 102.762C15.4422 107.775 16.9292 112.925 19.2881 116.463C14.8156 120.571 10.1553 125.97 12.0896 132.89C12.9738 133.774 14.8848 135.04 16.0639 135.63C20.1497 136.569 21.3264 131.037 21.6954 128.276C30.2003 132.337 23.73 139.214 24.8785 141.078C27.5049 144.142 27.809 152.114 22.809 153.365C22.5153 151.3 22.1892 147.924 18.9742 147.472C15.7592 147.02 12.0804 149.541 13.3526 154.415C14.6247 159.287 15.4747 159.209 19.1406 162.535C18.0643 166.124 15.6007 169.423 16.5125 175.349C18.5765 177.413 18.8861 180.038 23.309 178.859C25.1839 177.978 27.0086 176.959 25.9996 171.997C28.3585 171.702 31.3556 174.885 32.2398 176.655C33.419 179.013 32.3218 180.578 35.3838 183.606C37.1529 185.081 38.3443 187.31 38.3443 189.964C38.3443 191.143 37.6363 193.599 37.3413 194.484C35.1678 193.413 32.1413 190.426 28.4613 194.368C24.7812 198.31 32.0495 207.276 38.4159 207.38C37.531 211.804 39.1141 217.22 40.2944 221.349C38.0383 222.702 33.5157 224.028 32.6009 226.773C20.1154 209.205 11.7249 198.868 4.61384 169.44C-4.47673 131.824 4.23262 94.9459 23.3402 64.2683C49.3238 22.5494 99.8084 -3.26965 152.291 1.7113C231.081 10.0027 284.39 77.1595 275.084 155.44C272.032 178.593 260.759 209.443 244.136 227.056Z" fill="#FBBD09"/>
<path fill-rule="evenodd" clip-rule="evenodd" d="M236.777 39.4167C275.994 77.455 288.968 140.556 267.442 191.273C262.135 204.246 255.058 215.746 246.212 226.951C245.623 227.246 245.328 228.425 244.739 228.425C244.443 227.54 244.149 226.951 243.853 226.066C244.739 225.182 245.623 224.002 246.507 223.118C260.956 204.246 270.981 182.131 274.52 155.299C279.532 113.134 265.969 79.2234 245.328 52.3905C229.7 32.0456 207.586 18.4814 183.406 9.34067C173.675 6.09692 163.355 3.73799 152.15 2.55884C138.292 1.37907 122.37 2.26389 109.985 5.21269C77.8444 12.8787 51.3064 29.981 31.8457 54.7506C28.0121 60.3521 23.5892 65.6598 20.3461 71.5574C5.89761 97.2112 -3.24314 134.069 5.60267 169.157C9.14074 186.849 16.8068 202.182 25.9487 216.336C28.0121 219.579 30.666 222.528 33.0249 226.066C32.2692 226.823 32.1474 227.829 31.5508 228.425C31.3005 226.825 24.2109 218.485 22.9999 216.336C9.14074 193.926 0 168.568 0 140.556C0 96.0315 21.2303 55.6349 51.3064 31.4552C76.6653 10.2249 112.639 -2.74887 151.56 0.494873C184.586 3.44307 213.187 17.3023 236.777 39.4167Z" fill="#E08517"/>
<path fill-rule="evenodd" clip-rule="evenodd" d="M239.296 221.606C238.705 221.312 238.129 221.324 237.538 221.029C239.95 216.21 239.808 213.369 240.315 207.784C243.558 206.016 248.27 204.208 247.853 198.939C247.438 193.669 241.585 194.569 241 199.45C238.7 198.525 234.586 189.85 241.401 185.037C240.306 178.439 247.066 173.335 251.575 176.016C249.161 178.003 249.471 183.841 255.137 183.092C260.802 182.343 258.542 168.436 255.431 164.933C257.6 162.626 262.727 160.422 260.956 151.465C259.744 145.346 252.042 148.728 254.557 154.144C247.392 153.678 246.109 144.369 249.862 142.048C245.361 133.706 252.86 128.46 256.048 130.079C254.021 136.747 259.853 138.97 262.02 134.133C264.188 129.297 258.466 122.349 254.763 120.21C256.699 116.825 259.959 111.057 257.961 107.008C255.963 102.959 248.524 103.038 251.626 110.131C244.764 111.036 241.987 104.455 242.875 100.316C239.079 96.2426 239.227 88.1806 245.84 86.1797C244.628 90.7329 250.632 93.8243 252.332 87.3863C254.031 80.949 243.013 74.8985 240.02 74.2113C239.797 71.8573 242.336 59.8815 236.751 58.1541C231.166 56.426 228.634 63.6044 235.303 65.1311C232.385 74.0883 220.264 68.693 220.264 61.0986C210.329 59.8564 209.907 47.3196 215.252 45.3143C215.252 50.291 222.038 49.8639 222.101 44.3139C222.162 38.7644 211.813 38.5025 208.175 39.7117C207.913 33.7437 205.057 28.5057 199.589 26.9355C194.122 25.3666 190.567 33.6874 198.879 34.1494C196.284 40.6375 189.579 40.4986 184.897 34.8207C178.893 35.1425 172.24 31.7703 175.096 24.0938C178.68 27.6429 183.452 23.3877 181.064 19.7132C178.676 16.0392 168.399 18.0567 164.846 20.4278C162.438 16.4822 154.191 11.005 149.559 13.0629C144.928 15.1201 147.039 22.8963 151.653 19.4733C154.598 26.315 146.697 29.3159 140.055 25.795C136.127 28.2597 125.93 27.8914 127.614 19.193C133.615 22.3364 135.794 11.8844 127.388 13.3627C123.973 13.963 121.075 17.848 118.126 21.976C114.968 20.1617 105.682 14.7034 101.093 20.1972C98.617 23.1613 101.926 27.8381 105.929 23.9568C109.182 29.3716 103.472 35.4442 96.6013 34.3507C95.1866 39.7955 85.3642 41.8429 83.3198 34.5728C91.0849 33.9554 88.5388 26.8034 84.0253 27.3321C79.5118 27.8614 75.5515 34.0331 75.0235 39.7166C70.8949 38.5515 65.7206 38.9003 61.4139 39.9436C57.1079 40.9863 55.7017 46.1704 58.5294 48.0343C61.3576 49.8982 63.8665 47.4107 64.7495 45.3633C67.3452 46.472 68.4216 50.5835 67.7093 53.5708C66.9866 56.6047 63.1707 57.9987 60.1528 58.5836C59.8578 61.5325 58.1537 65.5802 55.6889 67.0097C53.2241 68.4391 49.4241 67.96 47.0279 64.641C49.5514 63.1938 51.1644 58.5384 47.652 57.6315C44.1396 56.7247 42.4281 58.4967 41.1082 61.1212C39.7883 63.7457 38.4611 69.4879 39.8067 73.2689C36.7728 73.1068 29.7071 75.7827 28.1828 79.0338C26.6585 82.2854 27.7031 85.9906 30.5889 86.7346C33.4752 87.4781 34.3221 83.6158 34.6165 81.8467C40.5441 85.0238 39.721 91.3362 34.499 96.3258C35.9823 101.408 33.7378 110.101 25.5149 107.826C26.7026 105.373 27.3959 99.6185 23.044 99.586C18.6927 99.553 18.197 103.824 17.9871 106.941C17.7773 110.059 19.5689 115.159 21.2645 117.005C16.0064 119.638 9.19519 130.343 15.4918 133.838C20.0933 136.393 21.8355 129.099 19.1663 127.582C21.9701 126.923 24.8846 127.958 26.4682 130.798C28.0525 133.637 26.4309 138.45 25.6887 140.251C26.3673 141.845 28.0843 145.057 27.886 147.79C27.6878 150.524 25.5473 154.023 21.9358 155.003C22.7717 151.201 19.4172 146.874 15.9011 149.262C12.3845 151.649 15.1313 158.89 21.5252 161.786C19.0127 165.306 16.5406 170.956 18.3096 174.729C21.2505 181.003 29.0297 177.128 23.2949 170.631C25.6532 170.042 29.2078 170.868 31.6248 172.914C34.0419 174.96 34.562 177.558 34.562 181.391C39.3453 185.101 41.7042 190.478 36.9221 197.071C36.1426 193.09 28.9575 189.906 28.5396 197.741C29.6808 205.163 39.0198 205.678 40.3972 206.324C38.3326 210.747 40.0392 216.229 41.2184 220.652C40.5587 221.312 39.8911 221.237 39.2174 221.349C38.0377 217.22 36.8579 212.208 37.7433 207.784C32.6443 207.368 25.2193 204.108 26.4383 195.876C27.2007 190.724 34.4635 188.409 37.0011 193.686C38.9947 188.034 36.2717 185.104 32.2141 182.883C32.9172 179.831 32.4815 174.159 26.9327 172.795C29.7316 180.994 18.4136 183.214 15.9489 174.159C14.9514 170.493 17.814 163.304 18.8714 162.67C14.8951 160.628 10.2342 154.223 13.4253 149.227C16.6165 144.231 23.1541 145.829 23.5323 152.022C28.6999 147.964 24.1332 141.706 23.6333 140.456C24.0946 139.1 28.1645 131.58 22.0906 129.289C22.6138 131.759 21.1954 135.455 18.7771 136.006C14.468 136.987 10.6687 133.886 11.1447 128.43C11.5474 123.834 14.9196 119.211 18.5709 116.521C16.3503 112.845 15.5499 108.63 16.1808 104.456C16.8123 100.282 19.4466 97.8042 22.7643 97.6952C26.0815 97.5851 29.4531 100.181 27.7869 106.544C33.9519 106.068 33.7457 98.7361 32.0825 95.5572C33.616 95.25 39.4298 88.9216 35.6102 84.771C34.9353 87.1679 33.4722 89.1144 29.8894 88.5318C26.3073 87.9487 24.3021 81.9238 26.6224 78.2334C28.9422 74.5429 32.8566 72.7904 37.6216 71.4987C36.7337 67.0758 38.0572 62.3689 39.7425 59.414C41.4277 56.4597 45.4106 54.6307 49.1665 56.4377C52.923 58.2446 51.0377 63.5218 49.3574 64.8429C50.886 66.3084 53.0583 66.6603 55.1222 65.1911C57.1856 63.7213 58.1408 60.2419 58.4351 56.9988C60.5621 56.6194 64.6895 55.9432 65.7096 53.4742C66.729 51.0045 65.813 48.5623 65.2806 47.9682C63.306 51.5044 56.9665 51.0681 55.7299 47.9682C54.4926 44.8682 55.5065 41.7475 57.8967 39.6725C60.2874 37.5981 67.2809 36.537 73.717 37.4702C74.5162 32.8888 78.255 25.9241 84.4989 25.5581C90.7435 25.1934 92.7561 34.858 85.5692 35.8211C90.0875 40.378 94.97 35.2215 95.5941 32.4073C99.0783 33.77 105.795 30.9937 105.418 26.2832C100.663 29.2914 98.0583 24.4518 98.4346 21.9032C98.8109 19.3546 100.79 17.446 104.307 16.2522C107.822 15.0589 113.765 17.4374 117.651 19.6611C119.716 16.123 123.258 12.2258 126.676 11.5827C137.553 9.534 136.199 22.9422 128.973 21.4393C129.265 26.3665 137.139 26.058 139.968 23.6196C144.171 26.167 150.281 26.3475 150.443 22.1039C143.67 23.2543 143.062 12.4406 149.419 10.9457C155.61 9.48932 161.586 13.5292 165.419 17.6571C169.74 15.8324 179.096 14.0799 182.362 18.3315C185.628 22.5836 181.951 29.1409 176.059 26.6192C175.225 30.902 181.576 33.7822 185.703 32.6949C187.511 35.5427 192.003 39.7527 196.598 35.3487C188.841 34.087 192.358 23.805 199.079 24.8722C205.8 25.9399 208.469 31.4551 209.944 37.0578C213.726 36.8632 222.511 36.8999 223.82 43.1763C225.128 49.4527 218.587 53.1346 214.522 48.5397C211.373 55.9549 219.564 60.0247 222.328 59.258C220.673 63.9354 228.208 71.1425 232.699 66.2497C225.394 61.6891 231.038 53.7153 237.661 56.2247C242.379 59.1729 242.969 66.2497 242.085 72.7372C250.476 76.9092 255.281 82.9408 253.85 87.6329C251.475 95.4275 244.79 93.7013 244.319 88.7974C240.338 92.0473 242.246 98.1419 245.033 98.9796C243.712 102.99 245.14 108.093 249.456 108.551C247.95 100.27 258.002 101.308 259.793 106.341C261.583 111.373 259.332 115.477 257.712 119.621C262.075 124.084 265.323 129.092 264.066 134.46C262.81 139.829 253.2 140.94 253.879 132.005C249.205 132.858 249.407 139.286 252.393 141.982C249.271 144.185 247.905 149.127 252.46 151.802C252.134 145.529 260.932 144.007 262.422 150.587C263.913 157.167 262.286 162.301 258.223 165.264C260.72 170.08 262.21 181.785 256.604 184.411C250.997 187.037 245.957 180.614 249.111 176.999C244.122 177.268 242.57 181.718 243.403 186.139C240.937 186.946 237.355 190.286 240.27 196.248C243.133 190.774 249.382 193.414 249.751 198.644C250.12 203.874 246.212 207.195 242.379 209.259C242.18 212.672 241.606 218.416 239.296 221.606Z" fill="#E08517"/>
<path fill-rule="evenodd" clip-rule="evenodd" d="M101.729 85.4166C100.844 86.0059 99.9602 87.7749 98.4855 87.185C97.3063 81.8779 94.6525 77.1601 94.9474 71.5574C95.8316 69.4934 96.7158 72.7372 97.3063 73.6208C99.0747 77.455 98.7804 82.1729 101.729 85.4166ZM122.665 82.4678C120.6 83.0571 121.78 81.583 122.075 80.4032C124.434 78.0443 122.959 81.583 122.665 82.4678ZM117.357 83.9419C115.883 84.2362 115.883 86.3008 114.704 86.5957C114.408 86.0059 114.997 85.4166 114.113 85.4166C114.113 85.121 114.408 84.8261 114.408 84.5312C115.588 84.2362 116.177 83.352 117.357 83.0571C117.651 83.352 117.357 83.6469 117.357 83.9419ZM123.844 84.2362C123.549 85.121 122.075 84.5312 121.19 84.5312C120.895 84.2362 120.011 84.2362 120.6 83.6469C121.78 83.6469 123.254 83.6469 123.844 84.2362ZM121.78 86.0059C121.78 86.5958 120.6 86.3008 120.305 86.8907C120.895 87.7749 122.37 87.7749 121.78 89.5439C121.78 90.1338 119.716 89.5439 120.6 90.7243C120.305 91.0187 118.537 91.6085 119.716 92.1978C119.716 93.0826 118.241 91.6085 117.357 91.6085C116.472 91.6085 115.883 90.1338 116.177 89.2496C116.767 88.0705 117.062 90.4288 118.241 89.5439C118.241 88.0704 118.241 86.3008 119.421 85.121C120.305 84.8261 121.19 85.7109 121.78 86.0059ZM168.073 118.147C167.304 118.147 166.796 117.918 166.152 117.467C167.114 117.467 167.569 118.147 168.073 118.147ZM168.663 118.441C169.547 118.147 170.432 118.441 170.432 119.031C169.547 118.735 168.663 119.031 168.663 118.441ZM143.599 122.57C145.369 125.518 148.907 125.813 149.791 129.351C148.611 130.236 146.548 131.12 145.958 132.89C147.137 133.185 147.728 131.71 148.907 132.005H150.676C153.919 134.364 154.215 138.787 158.048 140.556C158.048 144.39 161.881 145.863 161.881 149.696C162.471 151.17 163.06 152.35 163.06 153.529C160.702 155.299 160.997 150.875 159.227 150.286C157.163 149.107 154.51 147.927 152.444 147.042C153.624 140.852 147.728 140.556 145.369 135.839C144.189 134.658 143.894 132.594 142.125 131.71C141.83 131.71 142.125 131.416 142.125 131.416C143.599 131.416 145.074 130.825 146.548 130.53C145.958 129.056 144.189 128.466 143.009 127.287C141.535 126.402 140.356 129.646 138.587 127.582C137.997 127.877 137.997 128.172 137.407 128.466C136.818 127.877 136.228 126.697 135.934 125.813C135.934 121.98 140.651 122.864 142.125 120.505C143.599 120.21 142.715 121.98 143.599 122.57ZM158.932 125.813C159.227 127.582 157.752 125.518 157.457 125.813C156.868 125.518 156.868 124.633 155.689 124.633C154.803 124.043 153.624 123.159 152.74 122.275C155.098 121.389 158.048 123.454 158.932 125.813Z" fill="#FFFFFA"/>
<path fill-rule="evenodd" clip-rule="evenodd" d="M225.867 91.313L226.751 93.0826L199.24 131.513L198.75 130.196L225.867 91.313ZM197.688 128.654L196.87 127.17L223.904 87.3747L224.815 89.5042L197.688 128.654ZM228.588 96.86L200.65 134.199L200.06 133.02L227.803 94.8866L228.588 96.86ZM226.455 111.072L198.834 146.747L198.45 144.872L225.772 109.095L226.455 111.072ZM228.424 117.163L200.014 151.376L199.824 149.593L227.444 115.187L228.424 117.163ZM229.799 123.46L198.245 159.427L197.265 157.953L229.211 121.384L229.799 123.46Z" fill="#FFF200"/>
<path fill-rule="evenodd" clip-rule="evenodd" d="M127.677 126.697C127.972 128.467 125.318 126.108 125.908 128.172C125.023 128.172 124.728 127.582 124.728 126.992C124.728 126.108 125.908 126.108 126.498 125.813C127.087 125.518 127.677 126.403 127.677 126.697ZM185.765 139.082C185.469 139.672 185.175 139.672 184.88 139.672C184.586 139.966 184.29 139.966 184.29 140.261C183.995 140.261 183.701 140.556 183.406 140.556C183.701 140.556 183.701 140.261 183.995 139.966C184.29 139.966 184.586 139.672 184.88 139.672C185.469 139.082 185.469 139.082 185.765 139.082ZM182.815 140.852C182.522 141.44 182.226 141.44 182.226 141.44V140.852C182.522 140.852 182.815 140.556 182.815 140.852ZM181.932 141.44C181.637 142.03 181.341 142.03 181.048 141.736C181.637 141.44 181.637 141.44 181.932 141.44ZM114.408 147.927C115.588 149.107 115.293 150.875 115.293 152.35C113.229 154.415 115.588 157.362 114.704 159.722C112.639 162.376 112.049 165.324 111.754 168.568C111.459 168.862 111.164 170.042 110.28 169.747C109.396 167.978 109.985 165.619 109.396 163.85C107.921 164.439 108.51 166.799 107.331 167.683C106.742 165.619 104.972 162.67 102.318 161.196C100.844 160.607 98.4854 160.016 97.8949 158.248H98.1904C99.9601 158.837 101.729 159.427 103.793 160.016C104.972 159.722 108.217 163.555 107.036 160.016C106.152 155.003 101.434 153.529 97.6012 151.761C96.7157 151.17 95.5366 150.286 95.2416 149.107C98.1904 150.581 102.318 150.581 105.267 152.645C106.447 151.17 104.382 149.696 104.382 148.221C103.793 147.337 103.203 147.042 102.613 146.158C102.318 146.158 102.023 146.158 101.729 145.863C101.729 145.863 101.434 145.274 101.729 145.274C102.318 144.98 102.318 145.863 102.908 145.863C103.203 146.158 103.793 146.453 104.088 146.747C109.985 147.633 108.51 154.708 111.164 158.543C112.639 155.889 113.818 153.235 112.639 149.991C111.164 147.633 110.28 144.684 109.101 142.326C111.459 143.8 112.049 146.453 114.408 147.927ZM193.431 154.708C193.137 155.594 192.842 156.478 192.252 157.069H191.957C191.957 156.183 191.662 155.299 191.662 154.119C192.252 154.415 193.431 153.825 193.431 154.708ZM190.777 159.132C190.483 160.016 190.483 160.607 190.188 161.491C189.893 162.376 189.009 162.67 188.124 162.67C188.419 161.491 189.893 160.607 190.483 159.132H190.777Z" fill="#FFFFFA"/>
<path fill-rule="evenodd" clip-rule="evenodd" d="M131.51 110.185C130.036 111.069 129.741 113.429 127.382 113.723C126.792 114.018 126.498 115.493 125.613 114.902C125.318 113.429 126.498 113.429 126.498 112.248C127.972 112.248 128.267 110.774 128.856 109.594C129.446 109.594 132.394 108.121 131.51 110.185ZM179.278 138.492C176.624 138.787 175.74 141.736 173.086 142.03C171.612 143.21 168.663 142.619 166.893 142.619V141.736C169.842 142.326 171.906 141.146 173.675 140.261C174.855 138.492 176.919 137.607 179.278 137.607C179.573 138.198 178.983 137.902 179.278 138.492Z" fill="#FBBD0B"/>
<path fill-rule="evenodd" clip-rule="evenodd" d="M132.917 36.7421L134.125 95.7365H132.06L130.654 37.0578L132.917 36.7421ZM138.097 36.9067L137.996 100.363L136.226 100.454L135.934 36.7237L138.097 36.9067ZM144.092 37.3405L141.93 100.175L140.162 100.259L141.83 37.0578L144.092 37.3405ZM149.595 38.2376L145.562 99.9642L144.088 99.862L147.728 37.6483L149.595 38.2376ZM98.092 48.164L104.382 76.2747L102.908 76.5696L96.1265 48.8524L98.092 48.164ZM183.702 49.1474L172.988 90.4257L171.216 90.6307L181.635 48.2632L183.702 49.1474ZM120.429 48.6376L122.554 72.9324L120.684 73.3271L118.069 48.8524L120.429 48.6376ZM159.227 49.4429L153.233 98.9797L151.462 98.8903L157.163 49.4429H159.227ZM114.238 49.4429L117.384 73.9164L115.314 74.3074L111.878 49.7372L114.238 49.4429ZM94.3575 55.6349L92.8827 55.9298L91.1131 50.0322L92.9813 49.5353L94.3575 55.6349ZM158.637 95.1466L156.57 95.4416L162.765 50.0322L164.83 50.3271L158.637 95.1466ZM177.412 89.4393L175.759 89.6248L186.257 49.8285L188.238 51.1753L177.412 89.4393ZM170.135 52.1641L162.765 92.7877L161.19 93.0949L168.168 51.9928L170.135 52.1641ZM90.0257 55.3711L88.7548 56.5191L87.0849 52.289L88.6881 51.3276L90.0257 55.3711ZM107.923 51.8985L111.754 74.5062L109.69 75.3904L105.659 52.3905L107.923 51.8985ZM192.747 54.3376L181.547 88.9572L180.066 88.8654L190.876 52.9712L192.747 54.3376ZM84.9156 53.7416L86.5972 58.8743L85.1255 59.7812L83.0505 55.0486L84.9156 53.7416ZM196.577 57.112L185.469 89.544L184.29 89.2496L194.611 56.2247L196.577 57.112ZM86.1009 85.7048L85.2192 87.8808L78.43 71.0734L80.0718 69.8453L86.1009 85.7048ZM202.381 73.5125L194.316 91.0187L192.839 90.0445L200.213 72.4416L202.381 73.5125ZM75.4414 74.0883L87.4416 102.036L86.3512 103.575L73.673 75.563L75.4414 74.0883ZM206.704 76.7654L199.329 92.1978L197.656 91.4189L205.032 75.2913L206.704 76.7654ZM211.123 79.814L203.849 93.9669L202.67 93.0827L209.353 78.9285L211.123 79.814ZM94.6548 129.258L93.1777 130.527L68.9986 80.6982L70.4764 78.4286L94.6548 129.258ZM88.1631 132.291L86.394 132.586L58.2198 86.2274L59.6657 83.9419L88.1631 132.291ZM222.623 85.711L209.06 105.761L208.362 104.3L221.149 84.5312L222.623 85.711ZM56.5131 88.2626L84.3319 133.479L82.8578 134.364L55.0433 90.3321L56.5131 88.2626ZM81.0881 135.839L79.6122 136.819L51.9917 96.3203L53.1819 93.9608L81.0881 135.839ZM50.7153 99.3682L77.8444 138.198L76.3709 139.376L49.6383 101.737L50.7153 99.3682ZM101.043 126.273L99.6664 126.869L97.4109 120.186L98.9021 119.244L101.043 126.273ZM94.8464 119.097L98.0968 127.658L96.5218 128.353L92.5878 119.709L94.8464 119.097ZM51.6968 120.991L71.0632 143.505L69.6901 144.588L51.0121 123.454L51.6968 120.991ZM68.4069 146.841L67.3275 148.517L49.4339 129.646L49.9271 127.281L68.4069 146.841ZM237.646 130.767L196.867 168.568L195.689 167.382L237.003 128.383L237.646 130.767ZM238.712 135.538L198.926 170.244L197.846 169.174L238.253 133.081L238.712 135.538ZM66.3447 150.581L65.6618 152.353L48.3545 135.834L48.4543 133.175L66.3447 150.581ZM239.422 140.387L200.897 172.013L199.809 170.945L239.086 137.879L239.422 140.387ZM240.024 145.098L202.857 173.689L201.772 172.516L239.793 142.625L240.024 145.098ZM41.4674 142.206L83.7451 177.612L83.2531 179.483L41.0795 144.969L41.4674 142.206ZM84.1348 183.013L83.4471 184.785L40.3972 151.761V149.1L84.1348 183.013ZM40.7693 157.533L84.5259 187.042L83.7432 188.917L41.2814 160.11L40.7693 157.533ZM142.419 162.68L141.83 168.74L140.65 168.44L140.945 162.543L142.419 162.68ZM137.205 162.464L137.247 168.542L136.168 168.566L135.934 162.478L137.205 162.464ZM144.982 163.37L144.189 169.095L143.051 168.942L143.599 162.975L144.982 163.37ZM126.779 162.96L127.986 169.394L126.458 169.795L124.892 163.221L126.779 162.96ZM132.385 162.628L132.909 168.851L131.551 168.855L130.837 162.761L132.385 162.628ZM129.481 162.726L130.446 168.992L129.022 169.233L128.099 162.965L129.481 162.726ZM134.78 162.577L135.176 168.583L133.997 168.623L133.407 162.548L134.78 162.577ZM123.583 163.59L125.406 170.166L123.684 170.604L121.736 163.85L123.583 163.59ZM147.829 164.56L146.833 169.585L145.358 169.238L146.253 163.85L147.829 164.56ZM160.746 173.599L164.831 163.78L166.383 164.487L162.311 174.383L160.746 173.599ZM163.409 163.085L159.396 173.351L157.862 172.681L162.084 162.414L163.409 163.085ZM163.696 175.068L167.997 165.349L169.482 166.485L164.897 175.73L163.696 175.068ZM122.706 171.008L121.236 171.517L118.667 165.324L120.227 164.537L122.706 171.008ZM150.442 165.871L149.417 170.015L147.951 169.675L148.925 165.201L150.442 165.871ZM225.277 167.093L209.741 178.599L208.556 177.528L224.47 165.488L225.277 167.093ZM42.4447 165.312L83.8399 190.583L83.1521 192.452L43.0511 168.273L42.4447 165.312ZM152.842 167.621L151.851 170.61L150.727 170.264L151.569 166.402L152.842 167.621ZM155.057 168.942L154.325 171.365L153.189 170.788L153.745 168.201L155.057 168.942ZM172.119 168.78L167.483 177.333L166.263 176.58L170.939 167.6L172.119 168.78ZM157.163 170.632L156.624 172.337L155.394 171.841L155.984 169.747L157.163 170.632ZM226.558 170.632L211.954 180.223L210.887 179.14L225.859 168.838L226.558 170.632ZM118.714 172.631L119.973 171.973L117.687 166.099L116.262 167.056L118.714 172.631ZM174.985 171.696L170.124 178.786L168.92 178.005L173.796 170.335L174.985 171.696ZM114.217 171.486L115.746 174.077L114.915 174.618L113.317 172.349L114.217 171.486ZM177.478 174.392L172.731 180.526L171.55 179.642L176.4 173.06L177.478 174.392ZM224.87 175.532L213.961 181.724L213.061 180.825L223.914 174.227L224.87 175.532ZM179.236 177.272L175.242 182.143L174.265 181.246L178.26 176.081L179.236 177.272ZM181.251 179.173L176.818 183.809L176.034 183.016L180.397 178.287L181.251 179.173ZM73.2948 195.61L72.6138 197.043L57.286 189.966L56.5352 187.315L73.2948 195.61ZM72.1542 198.855L71.6543 200.117L59.5788 195.276L58.3477 192.792L72.1542 198.855ZM71.0191 201.93L70.7266 203.067L61.6709 200.16L60.6093 197.805L71.0191 201.93Z" fill="#FFF200"/>
<path fill-rule="evenodd" clip-rule="evenodd" d="M175.444 234.322C188.124 236.682 199.034 240.516 207.29 248.476C209.353 251.13 209.944 254.668 209.649 258.797C209.944 254.668 209.353 251.13 207.29 248.476C199.034 240.516 188.124 236.682 175.444 234.322Z" fill="#6B6155"/>
<path fill-rule="evenodd" clip-rule="evenodd" d="M138.105 168.484L138.248 162.547L139.767 162.552L139.472 168.612L138.105 168.484ZM117.654 172.828L116.518 173.542L114.511 169.522L115.883 168.862L117.654 172.828Z" fill="#FFF200"/>
<path fill-rule="evenodd" clip-rule="evenodd" d="M181.242 258.116L183.698 259.019L182.695 262.123L184.29 262.71L186.622 255.488L185.026 254.902L184.15 257.615L181.695 256.713L182.57 254.001L180.975 253.415L178.644 260.635L180.24 261.221L181.242 258.116ZM174.013 256.676L175.544 254.063L175.826 257.123L174.013 256.676ZM175.127 251.912L170.905 258.709L172.64 259.138L173.38 257.853L175.911 258.476L176.057 259.979L177.802 260.408L176.792 252.322L175.127 251.912ZM167.739 251.838L166.836 257.916L168.504 258.197L169.405 252.12L171.537 252.48L171.753 251.015L165.816 250.011L165.599 251.477L167.739 251.838ZM162.693 254.376C162.605 254.728 162.466 255.009 162.259 255.227C161.949 255.554 161.555 255.686 161.057 255.63C160.468 255.564 160.044 255.263 159.788 254.73C159.558 254.255 159.481 253.675 159.551 252.971C159.615 252.319 159.76 251.787 159.985 251.374C160.335 250.743 160.835 250.471 161.506 250.546C161.871 250.598 162.16 250.696 162.37 250.862C162.694 251.118 162.851 251.509 162.861 252.036L164.508 252.221C164.585 251.439 164.403 250.783 163.964 250.23C163.443 249.568 162.649 249.182 161.57 249.061C160.309 248.931 159.359 249.274 158.703 250.1C158.162 250.774 157.848 251.682 157.734 252.832C157.603 254.266 157.876 255.35 158.565 256.085C159.106 256.65 159.864 256.989 160.84 257.099C162.011 257.219 162.901 256.955 163.521 256.3C163.944 255.866 164.216 255.292 164.36 254.563L162.693 254.376ZM152.678 254.858C152.167 254.829 151.777 254.643 151.498 254.3C151.13 253.853 150.97 253.156 151.016 252.208C151.073 251.293 151.267 250.649 151.614 250.253C151.939 249.889 152.377 249.728 152.929 249.758C153.439 249.798 153.83 249.974 154.11 250.305C154.487 250.752 154.647 251.45 154.6 252.408C154.54 253.432 154.28 254.139 153.8 254.527C153.502 254.772 153.127 254.883 152.678 254.858ZM152.605 256.341C153.852 256.401 154.801 256.046 155.465 255.264C156.051 254.575 156.361 253.666 156.418 252.51C156.465 251.345 156.244 250.403 155.74 249.665C155.136 248.801 154.227 248.345 153.001 248.276C151.664 248.202 150.671 248.626 150 249.552C149.505 250.233 149.239 251.082 149.188 252.106C149.148 253.131 149.33 254.004 149.756 254.738C150.341 255.733 151.288 256.267 152.605 256.341ZM144.439 249.568L144.338 255.72L146.026 255.752L146.127 249.599L148.283 249.639L148.307 248.156L142.296 248.043L142.271 249.527L144.439 249.568ZM137.06 249.588L138.379 249.564L138.522 249.561C138.819 249.567 139.045 249.605 139.199 249.691C139.468 249.838 139.594 250.12 139.602 250.535C139.597 250.927 139.499 251.201 139.288 251.37C139.085 251.527 138.801 251.597 138.412 251.605L137.094 251.628L137.06 249.588ZM135.349 248.137L135.474 255.772L137.161 255.74L137.118 253.112L138.722 253.082C139.643 253.055 140.324 252.833 140.767 252.399C141.22 251.955 141.434 251.319 141.421 250.489C141.41 249.836 141.259 249.325 140.966 248.937C140.516 248.335 139.755 248.054 138.682 248.074L135.349 248.137ZM130.289 254.877C129.779 254.916 129.37 254.782 129.053 254.477C128.637 254.082 128.399 253.41 128.338 252.464C128.288 251.55 128.409 250.884 128.707 250.446C128.988 250.042 129.404 249.825 129.956 249.784C130.466 249.756 130.873 249.879 131.19 250.173C131.616 250.567 131.855 251.239 131.918 252.196C131.974 253.219 131.796 253.956 131.365 254.403C131.096 254.686 130.737 254.844 130.289 254.877ZM130.386 256.359C131.63 256.256 132.531 255.782 133.101 254.919C133.604 254.159 133.809 253.215 133.733 252.061C133.647 250.898 133.32 249.992 132.734 249.325C132.037 248.546 131.083 248.213 129.859 248.303C128.522 248.404 127.584 248.955 127.025 249.959C126.613 250.7 126.444 251.577 126.512 252.6C126.588 253.622 126.869 254.464 127.374 255.138C128.07 256.049 129.071 256.457 130.386 256.359ZM119.991 257.225L121.666 257.005L121.261 253.3L124.203 256.674L126.254 256.404L122.766 252.685L125.219 248.846L123.249 249.104L121.16 252.609L120.794 249.426L117.78 249.821L117.949 251.293L119.289 251.118L119.991 257.225ZM109.467 257.756L108.366 251.716L106.7 252.062L108.066 259.558L117.441 257.614L116.074 250.117L114.409 250.462L115.51 256.504L113.321 256.957L112.22 250.917L110.554 251.263L111.655 257.303L109.467 257.756ZM102.142 258.725L102.243 255.644L103.921 258.144L102.142 258.725ZM100.874 254.004L100.403 262.143L102.106 261.587L102.145 260.08L104.629 259.271L105.461 260.493L107.172 259.936L102.507 253.472L100.874 254.004ZM94.5735 261.311L95.8634 260.728C96.2624 260.558 96.5732 260.501 96.807 260.56C97.0554 260.625 97.2286 260.809 97.3479 261.109C97.458 261.415 97.4391 261.673 97.2806 261.887C97.1343 262.082 96.8822 262.257 96.5059 262.427L95.2454 262.998L94.5735 261.311ZM93.5357 258.7L97.1019 257.084L96.5585 255.718L91.4387 258.038L94.2351 265.068L97.3797 263.643C97.9861 263.357 98.4548 263.026 98.7755 262.631C99.2944 261.981 99.3788 261.244 99.0398 260.39C98.7663 259.732 98.3986 259.283 97.917 259.05C97.2983 258.75 96.5334 258.812 95.6211 259.225L94.0307 259.946L93.5357 258.7Z" fill="#231F20"/>
<path d="M181.242 258.116L183.698 259.019L182.695 262.123L184.29 262.71L186.622 255.488L185.026 254.902L184.15 257.615L181.695 256.713L182.57 254.001L180.975 253.415L178.644 260.635L180.24 261.221L181.242 258.116V258.116ZM174.013 256.676L175.544 254.063L175.826 257.123L174.013 256.676V256.676ZM175.127 251.912L170.905 258.709L172.64 259.138L173.38 257.853L175.911 258.476L176.057 259.979L177.802 260.408L176.792 252.322L175.127 251.912V251.912ZM167.739 251.838L166.836 257.916L168.504 258.197L169.405 252.12L171.537 252.48L171.753 251.015L165.816 250.011L165.599 251.477L167.739 251.838V251.838ZM162.693 254.376C162.605 254.728 162.466 255.009 162.259 255.227C161.949 255.554 161.555 255.686 161.057 255.63C160.468 255.564 160.044 255.263 159.788 254.73C159.558 254.255 159.481 253.675 159.551 252.971C159.615 252.319 159.76 251.787 159.985 251.374C160.335 250.743 160.835 250.471 161.506 250.546C161.871 250.598 162.16 250.696 162.37 250.862C162.694 251.118 162.851 251.509 162.861 252.036L164.508 252.221C164.585 251.439 164.403 250.783 163.964 250.23C163.443 249.568 162.649 249.182 161.57 249.061C160.309 248.931 159.359 249.274 158.703 250.1C158.162 250.774 157.848 251.682 157.734 252.832C157.603 254.266 157.876 255.35 158.565 256.085C159.106 256.65 159.864 256.989 160.84 257.099C162.011 257.219 162.901 256.955 163.521 256.3C163.944 255.866 164.216 255.292 164.36 254.563L162.693 254.376V254.376ZM152.678 254.858C152.167 254.829 151.777 254.643 151.498 254.3C151.13 253.853 150.97 253.156 151.016 252.208C151.073 251.293 151.267 250.649 151.614 250.253C151.939 249.889 152.377 249.728 152.929 249.758C153.439 249.798 153.83 249.974 154.11 250.305C154.487 250.752 154.647 251.45 154.6 252.408C154.54 253.432 154.28 254.139 153.8 254.527C153.502 254.772 153.127 254.883 152.678 254.858ZM152.605 256.341C153.852 256.401 154.801 256.046 155.465 255.264C156.051 254.575 156.361 253.666 156.418 252.51C156.465 251.345 156.244 250.403 155.74 249.665C155.136 248.801 154.227 248.345 153.001 248.276C151.664 248.202 150.671 248.626 150 249.552C149.505 250.233 149.239 251.082 149.188 252.106C149.148 253.131 149.33 254.004 149.756 254.738C150.341 255.733 151.288 256.267 152.605 256.341ZM144.439 249.568L144.338 255.72L146.026 255.752L146.127 249.599L148.283 249.639L148.307 248.156L142.296 248.043L142.271 249.527L144.439 249.568V249.568ZM137.06 249.588L138.379 249.564L138.522 249.561C138.819 249.567 139.045 249.605 139.199 249.691C139.468 249.838 139.594 250.12 139.602 250.535C139.597 250.927 139.499 251.201 139.288 251.37C139.085 251.527 138.801 251.597 138.412 251.605L137.094 251.628L137.06 249.588V249.588ZM135.349 248.137L135.474 255.772L137.161 255.74L137.118 253.112L138.722 253.082C139.643 253.055 140.324 252.833 140.767 252.399C141.22 251.955 141.434 251.319 141.421 250.489C141.41 249.836 141.259 249.325 140.966 248.937C140.516 248.335 139.755 248.054 138.682 248.074L135.349 248.137V248.137ZM130.289 254.877C129.779 254.916 129.37 254.782 129.053 254.477C128.637 254.082 128.399 253.41 128.338 252.464C128.288 251.55 128.409 250.884 128.707 250.446C128.988 250.042 129.404 249.825 129.956 249.784C130.466 249.756 130.873 249.879 131.19 250.173C131.616 250.567 131.855 251.239 131.918 252.196C131.974 253.219 131.796 253.956 131.365 254.403C131.096 254.686 130.737 254.844 130.289 254.877V254.877ZM130.386 256.359C131.63 256.256 132.531 255.782 133.101 254.919C133.604 254.159 133.809 253.215 133.733 252.061C133.647 250.898 133.32 249.992 132.734 249.325C132.037 248.546 131.083 248.213 129.859 248.303C128.522 248.404 127.584 248.955 127.025 249.959C126.613 250.7 126.444 251.577 126.512 252.6C126.588 253.622 126.869 254.464 127.374 255.138C128.07 256.049 129.071 256.457 130.386 256.359V256.359ZM119.991 257.225L121.666 257.005L121.261 253.3L124.203 256.674L126.254 256.404L122.766 252.685L125.219 248.846L123.249 249.104L121.16 252.609L120.794 249.426L117.78 249.821L117.949 251.293L119.289 251.118L119.991 257.225V257.225ZM109.467 257.756L108.366 251.716L106.7 252.062L108.066 259.558L117.441 257.614L116.074 250.117L114.409 250.462L115.51 256.504L113.321 256.957L112.22 250.917L110.554 251.263L111.655 257.303L109.467 257.756V257.756ZM102.142 258.725L102.243 255.644L103.921 258.144L102.142 258.725V258.725ZM100.874 254.004L100.403 262.143L102.106 261.587L102.145 260.08L104.629 259.271L105.461 260.493L107.172 259.936L102.507 253.472L100.874 254.004V254.004ZM94.5735 261.311L95.8634 260.728C96.2624 260.558 96.5732 260.501 96.807 260.56C97.0554 260.625 97.2286 260.809 97.3479 261.109C97.458 261.415 97.4391 261.673 97.2806 261.887C97.1343 262.082 96.8822 262.257 96.5059 262.427L95.2454 262.998L94.5735 261.311V261.311ZM93.5357 258.7L97.1019 257.084L96.5585 255.718L91.4387 258.038L94.2351 265.068L97.3797 263.643C97.9861 263.357 98.4548 263.026 98.7755 262.631C99.2944 261.981 99.3788 261.244 99.0398 260.39C98.7663 259.732 98.3986 259.283 97.917 259.05C97.2983 258.75 96.5334 258.812 95.6211 259.225L94.0307 259.946L93.5357 258.7Z" stroke="white" stroke-width="0.145693" stroke-miterlimit="2.613"/>
<path fill-rule="evenodd" clip-rule="evenodd" d="M244.738 230.965C238.938 239.22 233.287 246.116 226.161 252.31C226.161 251.845 226.573 251.004 226.794 250.561C228.564 248.497 230.584 246.412 232.353 244.348C234.123 242.579 235.007 240.516 235.303 238.155C233.296 217.73 175.119 230.141 169.842 233.438C170.975 234.004 174.182 234.322 175.444 234.322C188.124 236.682 199.034 240.516 207.29 248.476C209.353 251.13 209.944 254.668 209.649 258.797C207.29 263.22 204.932 267.937 202.572 272.361C201.098 275.014 198.881 278.848 196.817 281.501C197.112 280.322 197.159 279.602 197.454 278.717C198.928 275.768 200.803 272.656 202.278 269.707C208.846 247.563 148.458 243.246 137.886 243.463C125.749 243.712 74.9066 250.49 75.9964 270.159C76.8812 274.288 80.0417 276.929 82.1051 280.762C82.1051 281.646 82.1767 282.373 82.1767 283.258C77.4913 277.133 69.9513 267.159 67.9185 256.207C67.7962 245.495 94.9002 236.414 108.51 234.912C103.498 232.554 97.3062 231.374 91.1131 230.489C79.7376 228.27 43.543 223.503 40.3972 240.809C40.5783 242.757 45.7043 246.707 48.6525 249.361C48.9474 249.951 48.9474 250.835 49.243 251.425C42.3174 246.232 36.8505 239.662 31.5508 232.848C28.6007 221.941 43.2371 218.673 52.1918 219.579C73.1265 221.349 92.5878 226.066 110.869 234.322C128.561 229.9 148.167 230.489 166.448 233.143C183.899 222.907 249.22 207.615 244.738 230.965Z" fill="#1082CF"/>
<path fill-rule="evenodd" clip-rule="evenodd" d="M198.11 279.624C195.896 284.009 193.594 288.006 189.303 290.937C183.306 276.519 160.706 271.109 139.621 271.068C118.537 271.029 85.0784 282.86 91.7036 293.885C88.2738 293.885 82.8106 285.177 81.8377 282.841C81.7037 266.714 125.45 259.153 139.246 259.175C153.042 259.196 191.558 262.312 198.11 279.624Z" fill="#00A870"/>
<path fill-rule="evenodd" clip-rule="evenodd" d="M166.714 274.532C174.765 274.772 194.595 283.404 189.77 290.219C184.945 297.034 169.153 276.759 166.714 274.532ZM90.9681 293.842C82.3799 285.697 106.515 276.336 111.547 275.89C106.414 282.736 100.287 295.569 90.9681 293.842Z" fill="#6B5F52"/>
<path fill-rule="evenodd" clip-rule="evenodd" d="M105.85 235.295C104.908 235.432 104.401 235.669 103.498 235.797C100.549 236.092 97.3062 236.387 94.3574 236.682C83.1521 238.155 73.1265 240.516 65.1655 246.117C63.1022 248.182 60.742 250.245 61.3325 253.784C62.8066 256.438 65.54 256.254 68.1933 257.434C66.7192 257.728 66.0498 257.912 64.5751 257.912C58.9736 257.322 52.7804 255.553 49.243 251.425C48.9474 250.835 48.9474 249.951 48.6525 249.361C48.0632 246.117 50.1272 243.463 52.4861 241.694C65.2647 232.343 91.0366 231.59 105.85 235.295Z" fill="#00A870"/>
<path fill-rule="evenodd" clip-rule="evenodd" d="M104.461 235.628C92.362 237.767 65.6483 246.838 68.1737 257.432C65.9433 257.013 61.1392 255.947 61.1281 253.038C60.4612 240.14 94.0245 235.88 104.461 235.628Z" fill="#6B5F52"/>
<path fill-rule="evenodd" clip-rule="evenodd" d="M226.162 252.31C222.707 257.488 215.676 259.113 209.649 258.797C209.944 254.668 209.354 251.13 207.29 248.476C199.034 240.516 188.169 237.031 175.491 234.671C174.113 234.495 172.146 234.128 170.965 233.833C182.121 230.943 237.183 231.478 226.162 252.31Z" fill="#00A870"/>
<path fill-rule="evenodd" clip-rule="evenodd" d="M175.007 234.63C181.455 236.464 191.032 237.808 198.811 242.549C204.488 246.009 210.07 247.764 209.63 258.581C211.72 258.581 215.921 257.648 216.82 254.936C220.718 241.429 184.335 234.759 175.007 234.63Z" fill="#6B5F52"/>
<path fill-rule="evenodd" clip-rule="evenodd" d="M140.496 221.193L145.731 212.127C145.979 212.185 146.24 212.212 146.505 212.212C148.385 212.212 149.922 210.676 149.922 208.795C149.922 206.914 148.385 205.378 146.505 205.378C145.599 205.38 144.731 205.741 144.091 206.381C143.45 207.022 143.09 207.89 143.088 208.795C143.088 209.572 143.348 210.292 143.789 210.868L138.525 219.987V209.664C139.84 209.187 140.787 207.926 140.787 206.45C140.787 204.569 139.25 203.034 137.369 203.034C135.489 203.034 133.952 204.569 133.952 206.45C133.952 207.925 134.899 209.186 136.213 209.664V220.241L130.873 210.99C131.497 210.352 131.846 209.496 131.846 208.604C131.844 207.698 131.483 206.83 130.843 206.19C130.203 205.55 129.335 205.189 128.429 205.187C126.549 205.187 125.012 206.723 125.012 208.604C125.012 210.484 126.549 212.021 128.429 212.021C128.55 212.021 128.671 212.015 128.789 212.003L134.125 221.245L125.315 216.158C125.383 215.889 125.418 215.606 125.418 215.315C125.418 213.435 123.882 211.898 122.001 211.898C120.12 211.898 118.584 213.435 118.584 215.315C118.586 216.221 118.947 217.089 119.587 217.729C120.228 218.369 121.096 218.73 122.001 218.732C122.751 218.732 123.449 218.489 124.014 218.076L132.757 223.124H122.974C122.756 222.428 122.322 221.82 121.735 221.388C121.148 220.956 120.438 220.722 119.709 220.72C117.829 220.72 116.292 222.257 116.292 224.137C116.292 226.018 117.829 227.554 119.709 227.554C121.13 227.554 122.355 226.675 122.87 225.435H136.213V228.67H138.525V225.435H152.001C152.515 226.675 153.74 227.554 155.161 227.554C157.042 227.554 158.578 226.018 158.578 224.137C158.578 222.257 157.042 220.72 155.161 220.72C154.432 220.721 153.723 220.955 153.135 221.387C152.548 221.82 152.114 222.428 151.897 223.124H141.774L150.854 217.882C151.439 218.31 152.146 218.541 152.871 218.54C154.752 218.54 156.288 217.004 156.288 215.124C156.286 214.218 155.925 213.35 155.285 212.71C154.645 212.069 153.777 211.709 152.871 211.707C150.991 211.707 149.454 213.242 149.454 215.124C149.454 215.411 149.488 215.693 149.556 215.962L140.496 221.193Z" fill="#00A870"/>
<path fill-rule="evenodd" clip-rule="evenodd" d="M108.479 90.8963C108.746 89.0146 110.135 86.7738 111.459 85.7109C113.229 84.8261 112.639 82.1729 114.704 81.288C117.062 80.6981 118.537 80.1089 120.305 78.9285C121.485 78.3392 123.844 77.455 125.023 78.9285C125.023 80.4032 123.254 82.4678 124.728 83.647C124.434 85.4166 124.434 86.5957 122.665 86.8907C122.075 87.7749 123.549 91.0187 121.485 91.0187C119.126 93.9668 122.665 95.1466 124.434 96.6207C127.972 97.8005 128.562 101.339 130.331 103.993C134.164 105.172 137.702 106.941 141.83 105.761C143.009 106.352 144.778 106.352 145.074 107.826C145.958 109.006 145.958 110.185 145.369 111.364C144.189 111.659 142.715 112.839 141.535 111.659C140.355 111.069 140.061 109.301 138.292 110.185C137.702 110.774 137.997 111.954 137.113 111.954C139.177 113.134 140.945 114.018 142.125 116.377C144.483 114.608 147.137 111.954 148.316 109.006C150.381 107.236 153.624 106.647 154.803 103.698C155.984 102.519 157.752 102.813 159.522 102.813C161.586 100.749 163.06 96.3258 166.599 97.2112C168.663 95.7365 171.021 94.2618 173.675 95.7365C174.265 94.5573 175.74 94.5574 176.624 94.5574C178.394 94.8523 181.341 93.3782 183.111 95.4416C184.29 94.5573 186.355 95.1466 187.829 95.1466C188.714 97.2112 190.777 96.3258 192.547 96.9156C194.021 97.2112 194.906 98.6853 195.79 99.8651C198.739 98.9796 201.687 98.9796 204.636 99.2746C204.932 101.339 202.278 101.633 201.393 103.108C202.278 105.172 204.636 106.352 204.636 108.415C203.751 108.711 202.278 108.121 201.983 109.301C202.572 110.48 203.457 112.543 202.278 113.429C200.508 114.018 199.329 116.082 198.149 117.556C197.559 117.852 196.675 117.852 196.38 116.967C196.085 119.031 194.316 120.505 192.252 121.685C191.072 123.454 190.188 125.813 188.124 126.992C187.998 127.749 181.066 131.921 180.752 128.466C180.162 126.108 183.406 126.992 183.406 124.928C182.815 124.339 181.932 124.633 181.341 124.633C180.162 125.518 180.162 128.466 178.098 126.992H178.085C177.803 126.272 177.417 125.246 177.771 124.716C179.052 122.809 183.87 120.114 181.637 116.967C178.688 117.262 180.162 122.864 176.329 121.389C176.034 121.98 176.919 121.98 177.214 122.275C177.803 123.159 176.919 123.454 176.329 123.159C176.56 123.85 176.939 125.863 177.237 126.992H177.214C177.508 129.056 177.508 130.825 177.508 132.89C181.629 133.919 192.211 130.699 193.726 131.71C194.906 132.89 195.79 134.069 196.38 135.248C196.38 137.018 196.38 139.082 195.496 140.261C194.611 144.98 196.38 149.107 197.265 153.529C193.726 156.478 194.316 163.26 188.714 163.85C188.419 164.439 187.534 164.439 186.649 164.439C186.355 161.196 186.649 158.543 186.649 155.594C187.534 154.415 189.893 154.708 190.188 152.94C187.24 150.286 190.483 147.633 190.188 144.684C190.188 142.619 190.188 140.852 189.893 138.787C188.714 139.966 186.649 139.672 186.355 141.147C181.932 143.21 179.573 145.863 175.149 148.517C172.496 149.107 171.612 150.581 168.957 151.17C169.842 153.529 172.201 154.708 173.97 156.478C174.265 155.889 174.265 155.299 174.265 155.003C175.74 154.708 175.74 157.068 177.803 156.183C177.508 153.529 174.855 152.35 173.38 150.581C172.79 149.401 174.56 149.991 174.855 150.286C176.329 151.465 174.56 148.221 176.329 148.811C177.803 152.054 179.868 155.299 181.932 158.248C182.815 161.196 185.469 162.67 185.765 165.619C188.419 170.042 191.957 173.285 195.496 176.529C197.559 178.888 201.983 176.529 203.457 179.478C204.379 180.215 204.601 182.245 204.745 183.076L206.905 182.772C207.79 184.541 206.7 186.849 206.995 188.914L187.534 192.747L211.418 191.567C213.483 194.811 215.547 198.054 217.02 201.297C215.252 205.72 214.367 210.144 212.598 214.271C195.495 217.811 179.278 222.823 164.534 231.669C163.65 231.374 162.765 231.374 162.176 231.08C164.534 222.823 161.586 213.977 155.689 207.784C148.907 200.708 139.177 198.054 129.741 201.002C121.19 203.067 114.704 211.912 112.934 219.874C112.049 223.708 112.344 228.13 112.934 231.669C112.639 231.963 112.344 231.963 111.754 231.963C96.4208 226.361 81.3837 218.99 64.2814 217.516C65.4605 213.977 67.8194 210.733 69.8828 207.195C73.4221 206.9 77.2551 206.605 80.7932 206.31C81.3837 204.246 80.8299 202.227 80.8299 199.869L102.597 196.925C101.982 196.434 101.846 194.931 101.577 193.918C101.223 192.485 100.644 191.345 98.1905 192.747C97.6012 191.862 97.0113 191.273 96.1265 190.388C94.9473 187.145 93.4726 183.606 90.5244 180.657C88.1569 178.792 87.1448 177.852 88.7548 175.349C90.3641 172.847 95.5366 170.042 96.4208 165.914C93.1777 161.196 89.6396 156.773 88.4599 150.875C87.3945 149.811 84.9456 151.048 84.6262 152.645C84.9212 154.708 84.6262 157.068 84.037 159.132C83.1521 160.016 81.6786 159.132 80.7932 160.016C82.2673 161.491 82.8578 163.555 82.5629 165.914C80.7932 166.209 78.4343 167.093 76.6653 166.209C75.7804 165.619 75.7804 167.388 74.8962 167.388C74.3063 167.388 73.7171 167.093 73.1266 167.093C71.6525 164.439 73.7171 162.965 74.8962 160.607C74.6013 160.607 74.6013 160.311 74.3063 160.311C73.1266 160.901 71.0632 160.607 69.5885 161.196C67.9724 160.388 70.253 156.773 70.7676 156.773C68.5127 151.138 76.3073 142.673 81.3837 145.568C82.2673 146.453 84.0369 146.453 85.5117 146.453C86.3959 144.98 89.934 147.042 89.0497 144.094C91.408 137.902 96.1265 134.658 102.023 132.299C102.318 132.005 102.318 132.005 102.613 132.005C103.793 131.71 104.677 131.416 105.857 131.12C111.459 130.53 116.472 129.941 120.895 127.287C120.895 126.402 119.421 126.697 119.126 126.108C116.472 125.518 114.997 125.813 112.344 126.108C112.049 126.108 111.754 126.108 111.459 125.813H110.575C110.28 124.928 110.28 123.454 109.101 123.749C107.921 122.57 107.036 121.389 107.036 120.21C110.575 119.031 111.754 114.902 113.818 111.954C113.523 111.364 112.639 112.248 112.049 111.659C110.869 108.415 117.357 110.48 114.408 107.531C112.589 106.752 109.606 103.993 108.384 103.319C108.089 103.909 107.331 104.582 107.036 105.172C105.267 106.647 104.382 109.006 103.203 110.48C102.613 110.48 102.023 110.185 102.023 109.594C102.023 108.121 103.498 107.531 103.793 106.057C104.382 103.993 105.857 101.928 105.857 99.8651C104.382 100.454 103.498 97.2112 102.318 99.2746C100.255 100.454 98.1905 101.633 96.1265 103.108C96.1265 103.403 96.1265 104.287 95.5366 103.993C94.9473 103.698 94.0619 102.813 94.6524 102.223C97.3063 100.749 98.7804 98.3904 101.729 96.9156C102.318 96.3258 102.023 95.7365 101.729 95.1466C99.6652 94.8523 98.1905 94.5573 97.0113 92.4928C98.1905 89.5439 95.2417 87.185 95.2417 84.2362C94.9473 82.1729 94.3575 80.1089 94.0619 78.3392C92.5878 79.8139 93.4726 82.1729 92.8827 84.2362C92.2929 86.5958 89.3447 84.8261 88.4599 87.185C88.4599 90.4288 91.408 92.4928 91.9985 95.4416C91.408 100.749 91.1131 106.352 94.3575 110.48C94.6524 111.364 94.6524 112.543 94.3575 113.134C93.767 113.723 92.5878 113.723 91.9985 113.134C91.408 112.543 91.408 111.069 91.9985 110.48C91.9985 110.185 92.2929 109.89 92.5878 109.89C90.2289 106.057 90.5244 101.044 90.8194 96.3258C90.2289 92.4928 84.6262 87.7749 89.6396 84.5312C89.9339 84.5312 90.8194 84.5312 91.1131 83.9419C91.408 79.519 91.408 75.0955 92.5878 71.2618C91.408 70.0827 89.6396 68.9035 89.3447 66.8396C89.6396 64.48 89.6396 62.1211 90.5244 60.3521C90.8194 60.3521 91.408 60.0578 91.7036 60.3521C92.8827 62.1211 92.8828 64.48 93.767 66.5446C94.0619 65.0705 94.9473 64.1863 94.6524 62.4166C95.5366 62.1211 95.8316 62.7116 96.7158 63.3009C96.4208 65.6598 96.1265 68.3143 97.3063 70.3783C96.7158 71.5574 98.1905 72.1473 98.1905 73.0321C100.255 77.1601 101.139 81.583 104.088 85.4166C104.254 85.8027 104.293 86.0793 104.254 86.2751C104.223 86.433 106.978 88.0068 107.324 88.6402C107.245 89.055 108.464 91.0083 108.479 90.8963ZM107.113 89.0575C106.571 89.5121 106.326 89.6088 106.152 90.1338C104.382 89.8389 103.793 91.0187 102.908 91.9035C102.908 92.1978 102.318 92.7877 102.908 93.0826C104.088 93.6719 105.562 91.313 105.857 93.3782C105.267 93.3782 104.972 93.6719 104.972 94.2618C105.562 94.8523 106.447 96.0314 107.331 95.7365C107.921 95.4415 107.331 93.9669 108.51 94.2618C110.28 95.4416 108.806 97.8005 109.69 99.5701C110.869 100.749 107.626 100.16 109.396 101.633C111.459 102.519 113.229 104.287 115.293 103.993C114.704 101.928 111.754 102.519 110.869 100.749C114.408 100.749 116.472 103.993 120.305 103.698C122.37 104.582 124.728 106.057 126.792 104.582C127.972 103.403 126.498 101.928 126.203 100.454C125.613 99.5701 124.138 99.2746 123.844 98.3904C120.895 97.8005 120.895 93.0826 117.062 93.3782C115.293 93.3782 115.293 88.6597 113.523 91.9035C113.818 92.7877 115.293 93.0826 116.177 93.9668C117.357 94.5573 118.83 95.4416 118.537 96.9156C119.126 97.5055 119.716 97.8005 119.421 98.6853C117.947 98.6853 117.651 96.9157 116.472 96.0314C113.818 94.2618 111.164 92.7877 108.51 91.313C108.393 91.2022 107.516 90.0041 107.113 89.0575ZM161.586 155.594C164.534 154.708 166.009 158.543 168.663 159.722C174.855 162.376 176.034 169.452 182.522 171.811C186.649 174.465 186.06 181.837 192.252 181.542C193.137 182.427 193.137 183.606 193.431 184.785L128.241 193.458C127.947 191.984 127.087 190.682 125.908 189.798C120.305 188.619 115.883 185.374 111.164 183.311C110.869 182.72 110.575 182.427 110.575 181.837C110.28 181.542 109.985 181.246 109.69 180.657V176.234C111.164 172.106 113.818 168.568 114.113 163.555C114.704 161.783 117.938 158.837 119.716 158.837C121.78 158.837 123.844 159.132 125.908 159.132C132.1 159.132 138.292 157.953 144.483 158.248C145.369 157.953 146.548 157.657 147.137 157.953C147.137 158.837 147.137 160.016 147.728 160.607C151.856 160.901 153.035 165.029 156.278 167.093C156.868 167.093 158.048 167.388 158.343 166.504C158.343 162.376 154.215 159.427 153.919 155.299C155.098 154.119 156.868 154.415 158.343 153.235C159.817 153.235 160.111 155.299 161.586 155.594ZM134.164 109.594C134.523 110.672 135.441 111.461 136.228 112.248C137.113 113.134 136.818 114.018 137.702 114.608C139.177 114.902 139.767 116.377 140.945 116.967C143.304 118.735 140.061 119.326 139.472 120.505C135.639 119.916 135.934 126.992 132.1 124.338C131.215 124.338 130.92 121.98 130.331 123.454C130.626 124.928 132.1 125.223 132.1 126.992C130.331 126.697 128.562 126.402 127.972 124.928C128.856 123.749 129.446 122.275 130.626 121.389C132.985 121.685 133.574 119.621 134.753 118.147C135.639 118.147 136.522 117.556 136.818 116.672C137.113 116.377 137.407 115.493 136.818 114.902C135.934 117.262 132.395 115.198 132.1 118.147C130.626 118.442 128.856 119.031 128.267 120.8C127.677 123.454 124.434 123.749 122.075 123.749C121.485 124.633 120.305 123.749 119.716 123.749C120.895 121.98 124.138 123.749 125.613 122.275C127.382 120.21 128.856 116.967 131.215 115.198C131.805 113.723 130.92 114.018 130.331 114.902C128.856 116.377 125.318 116.082 124.728 119.031L124.434 119.326C123.254 119.621 122.075 119.916 120.895 119.916C119.126 120.21 117.947 119.031 116.767 118.147C117.651 116.967 119.421 116.672 120.305 115.493C121.19 114.313 122.075 113.134 122.37 111.954C121.78 111.364 121.485 111.954 120.895 112.248C119.716 112.543 118.83 113.429 117.947 113.429C118.83 111.069 119.716 108.415 122.959 108.415C124.728 107.531 127.677 107.826 128.856 105.467C131.215 106.647 131.805 109.006 134.164 109.594ZM114.408 147.927C115.588 149.107 115.293 150.875 115.293 152.35C113.229 154.415 115.588 157.362 114.704 159.722C112.639 162.376 112.049 165.324 111.754 168.568C111.459 168.862 111.164 170.042 110.28 169.747C109.396 167.978 109.985 165.619 109.396 163.85C107.921 164.439 108.51 166.798 107.331 167.683C106.742 165.619 104.972 162.67 102.318 161.196C100.844 160.607 98.4854 160.016 97.8949 158.248H98.1905C99.9601 158.837 101.729 159.427 103.793 160.016C104.972 159.722 108.217 163.555 107.036 160.016C106.152 155.003 101.434 153.529 97.6012 151.761C96.7158 151.17 95.5366 150.286 95.2417 149.107C98.1905 150.581 102.318 150.581 105.267 152.645C106.447 151.17 104.382 149.696 104.382 148.221C104.103 147.802 101.315 145.274 101.729 145.274C102.003 145.136 103.808 146.468 104.088 146.747C109.985 147.633 108.51 154.708 111.164 158.543C112.639 155.889 113.818 153.235 112.639 149.991C111.164 147.633 110.28 144.684 109.101 142.326C111.459 143.8 112.049 146.453 114.408 147.927ZM174.56 156.773C176.034 157.953 177.508 159.427 179.573 159.722C181.637 161.196 183.995 163.26 183.702 165.914C187.24 170.337 190.777 174.465 194.906 178.299C196.38 179.182 197.854 179.478 199.918 179.182C199.624 180.953 196.97 179.773 195.79 180.362C194.021 180.067 192.547 177.708 190.483 179.182C189.598 173.58 183.995 169.747 180.162 165.914C180.162 163.555 177.508 162.67 176.624 160.901C176.624 159.427 174.56 158.543 174.56 156.773ZM185.175 96.9156C187.24 96.0314 187.24 98.6853 189.009 98.6853C190.483 98.3904 192.547 98.6853 193.137 100.16C194.611 104.877 198.444 99.8651 201.393 100.454C201.393 101.633 199.329 101.928 199.329 103.108C200.803 103.993 201.687 105.467 202.572 106.647C202.572 107.531 201.687 106.941 201.393 107.236C199.918 108.121 201.098 110.185 201.393 111.659C200.508 111.364 199.624 110.185 199.624 109.006C199.624 108.711 199.329 108.415 199.034 108.121C198.444 108.121 197.854 108.711 198.149 109.301C198.444 110.774 200.508 111.954 199.034 113.134C198.444 111.659 197.265 110.185 196.085 109.006C195.79 107.531 197.854 103.993 195.496 105.172C194.611 108.121 193.726 112.248 196.675 114.313C195.495 116.967 194.316 119.326 191.662 120.505C191.368 120.8 191.662 121.095 191.368 121.389C190.188 121.685 189.009 123.749 187.24 123.159C187.24 120.8 190.483 120.21 190.188 117.852C191.957 116.377 191.072 120.505 192.547 118.147C193.431 116.082 191.072 115.198 191.662 113.429C190.777 112.839 190.777 113.723 190.483 114.313C190.483 115.788 189.893 117.556 188.124 118.147C186.649 118.147 188.419 116.967 187.829 115.788C186.944 114.608 187.534 113.429 187.829 111.954C186.649 111.954 186.649 113.134 186.06 113.429C185.469 113.134 186.06 112.248 186.06 111.659C186.649 111.364 187.24 110.774 187.534 110.185C186.944 109.89 186.944 109.006 187.534 109.006C188.714 106.647 191.957 107.236 193.726 105.467C190.483 104.287 186.944 105.172 183.995 106.647C183.406 105.172 185.469 104.582 186.649 103.698C187.534 103.698 188.419 102.813 188.714 101.928C188.419 98.9796 186.944 102.519 185.469 101.928C183.406 103.108 181.637 103.108 179.573 104.287C179.278 102.519 182.522 100.454 181.341 98.3904C180.457 102.223 175.149 101.044 173.97 104.582C171.316 103.698 174.56 101.633 174.56 99.8651C174.265 99.5701 174.855 98.3904 173.97 98.6853C173.38 100.749 171.021 101.928 170.726 103.698C169.252 103.993 167.778 104.877 167.483 106.352C165.714 105.761 168.073 103.993 168.073 102.813C168.073 102.223 168.368 101.633 167.778 101.044C166.894 101.339 167.188 102.223 166.599 102.813C163.355 104.287 163.06 107.531 162.176 110.48C160.406 109.89 159.817 108.711 158.343 108.711C157.163 108.711 156.278 109.594 155.394 108.711C153.624 109.006 155.984 109.89 155.689 110.48C156.278 110.774 156.868 110.774 157.457 111.069C157.457 111.659 156.278 112.248 155.394 111.954C153.624 111.364 152.74 112.248 151.265 111.659C150.97 112.543 151.856 112.839 152.74 113.429C153.919 113.134 154.215 115.788 155.984 114.902C158.048 116.672 160.702 115.198 163.06 116.377C161.881 117.262 160.406 116.967 159.522 117.852C156.868 116.967 154.215 116.967 151.265 116.082C149.791 117.556 147.432 117.852 144.778 118.441C143.894 114.608 149.202 114.608 148.611 110.774C150.97 110.48 153.33 109.594 154.51 107.531C154.803 106.352 155.984 105.761 156.868 104.877C161.292 105.467 162.176 100.16 165.714 99.2746C166.599 99.5701 168.073 99.5701 168.957 98.6853C169.252 97.5055 170.137 97.2112 171.021 97.2112C172.791 96.3258 174.56 99.5701 176.034 96.9156C177.214 96.6207 178.687 98.0954 179.573 96.6207C181.932 95.4416 183.111 99.2746 185.175 96.9156ZM143.599 122.57C145.369 125.518 148.907 125.813 149.791 129.351C148.611 130.236 146.548 131.12 145.958 132.89C146.762 132.571 149.258 131.138 150.676 132.005C153.919 134.364 154.215 138.787 158.048 140.556C158.048 144.39 161.881 145.863 161.881 149.696C162.471 151.17 163.06 152.35 163.06 153.529C160.702 155.299 160.997 150.875 159.227 150.286C157.163 149.107 154.51 147.927 152.444 147.042C153.624 140.852 147.728 140.556 145.369 135.839C144.189 134.658 143.894 132.594 142.125 131.71C141.83 131.71 142.125 131.416 142.125 131.416C143.599 131.416 145.074 130.825 146.548 130.53C145.958 129.056 144.189 128.466 143.009 127.287C141.535 126.402 140.355 129.646 138.587 127.582C137.997 127.877 137.997 128.172 137.407 128.466C136.818 127.877 136.228 126.697 135.934 125.813C135.934 121.98 140.65 122.864 142.125 120.505C143.599 120.21 142.715 121.98 143.599 122.57ZM143.599 142.915C142.715 144.98 141.83 147.337 139.767 148.221C139.472 148.517 139.472 148.811 139.177 148.811C138.587 149.107 138.881 148.517 138.881 148.517C138.881 148.221 139.177 148.221 139.472 148.221C140.061 147.042 140.65 146.157 141.535 144.98C142.125 143.505 142.419 142.03 143.009 140.556C143.894 140.852 143.894 142.03 143.599 142.915ZM144.189 148.517C142.715 151.17 140.061 153.529 136.522 153.825C137.113 152.645 138.881 152.054 140.061 151.17C141.24 148.811 142.715 146.453 144.483 144.39C145.074 145.568 144.778 147.337 144.189 148.517ZM158.932 125.813C159.227 127.582 157.752 125.518 157.457 125.813C156.868 125.518 156.868 124.633 155.689 124.633C154.803 124.043 153.624 123.159 152.74 122.275C155.098 121.389 158.048 123.454 158.932 125.813ZM168.663 118.441C169.547 118.147 170.432 118.442 170.432 119.031C169.547 118.735 168.663 119.031 168.663 118.441ZM127.677 126.697C127.972 128.466 125.318 126.108 125.908 128.172C125.023 128.172 124.728 127.582 124.728 126.992C124.728 126.108 125.908 126.108 126.498 125.813C127.087 125.518 127.677 126.402 127.677 126.697ZM117.357 83.9419C115.883 84.2362 115.883 86.3008 114.704 86.5957C114.408 86.0059 114.997 85.4166 114.113 85.4166C114.113 85.121 114.408 84.8261 114.408 84.5312C115.588 84.2362 116.177 83.352 117.357 83.0571C117.651 83.352 117.357 83.6469 117.357 83.9419ZM101.729 85.4166C100.844 86.0059 99.9601 87.7749 98.4854 87.185C97.3063 81.8779 94.6524 77.1601 94.9473 71.5574C95.8316 69.4934 96.7158 72.7372 97.3063 73.6208C99.0747 77.455 98.7804 82.1729 101.729 85.4166ZM121.78 86.0059C121.78 86.5958 120.6 86.3008 120.305 86.8907C120.895 87.7749 122.37 87.7749 121.78 89.5439C121.78 90.1338 119.716 89.544 120.6 90.7243C120.305 91.0187 118.537 91.6085 119.716 92.1978C119.716 93.0826 118.241 91.6086 117.357 91.6086C116.472 91.6086 115.883 90.1338 116.177 89.2496C116.767 88.0705 117.062 90.4288 118.241 89.5439C118.241 88.0705 118.241 86.3008 119.421 85.121C120.305 84.8261 121.19 85.7109 121.78 86.0059ZM122.665 82.4678C120.6 83.0571 121.78 81.583 122.075 80.4032C124.434 78.0443 122.959 81.583 122.665 82.4678ZM123.844 84.2362C123.549 85.121 122.075 84.5312 121.19 84.5312C120.895 84.2362 120.011 84.2362 120.6 83.647C121.78 83.647 123.254 83.647 123.844 84.2362ZM101.729 172.991C100.844 171.517 101.434 169.452 99.9601 168.273C99.6652 167.683 99.9601 166.504 100.549 167.683C102.023 168.862 102.023 170.926 101.729 172.991ZM109.396 193.926C109.101 195.106 107.036 194.811 105.857 194.811C105.857 193.926 107.331 193.336 108.217 193.042C108.806 192.747 109.101 193.336 109.396 193.926ZM126.409 193.057C125.996 194.15 123.557 193.63 122.37 193.926C122.075 193.042 124.434 193.336 124.728 191.567C125.318 191.567 126.114 192.467 126.409 193.057ZM101.139 183.9C102.908 184.491 104.677 184.196 106.152 185.374C108.92 186.612 115.2 192.916 115.96 192.103C116.55 192.989 117.706 193.783 117.118 194.962L111.888 195.67C111.003 193.016 109.396 190.978 107.626 189.503C106.152 188.914 103.498 189.798 102.908 188.619C102.613 188.324 102.318 188.324 101.729 188.324C99.6652 185.081 95.5366 181.542 97.8949 177.413C98.7804 177.708 98.7804 175.939 99.6652 176.529C99.6652 177.924 97.6655 184.672 101.139 183.9ZM109.396 181.837C109.69 182.131 109.985 182.427 109.985 182.72C108.51 183.016 107.921 181.837 107.331 180.953C106.742 179.182 107.036 178.003 107.036 176.234C108.806 175.054 108.217 176.824 108.217 177.708C108.217 180.41 109.396 179.929 109.396 181.837ZM99.6652 173.285C97.0113 175.349 93.4726 176.234 92.5878 179.773C91.9985 178.592 91.7036 177.413 91.7036 176.234C94.3575 175.054 96.7158 173.875 98.4854 171.811C99.6652 170.042 99.9601 172.696 99.6652 173.285ZM171.906 126.402C172.496 129.056 173.675 131.71 173.38 134.658C172.79 135.248 171.906 134.364 171.316 134.953C170.432 135.248 169.547 134.953 168.663 135.839C169.547 137.312 171.612 136.428 173.086 136.722C178.394 133.479 185.469 136.133 191.072 132.89C193.726 132.005 193.726 135.248 194.906 136.722C193.726 142.03 193.431 147.337 194.611 152.645C194.316 153.235 194.021 153.825 193.137 153.529C191.662 153.235 193.431 152.645 193.137 151.761C192.252 150.581 191.072 149.696 191.957 148.221C193.137 145.274 192.547 141.44 191.957 138.492C190.777 137.018 189.303 137.902 188.419 137.312C183.111 138.198 178.098 139.672 174.56 143.505C173.086 145.274 170.726 145.863 168.368 145.863C166.304 144.39 166.599 141.736 164.534 140.556C162.765 140.556 161.292 139.082 160.111 138.198C160.111 137.312 159.817 136.722 159.522 136.133C161.881 136.722 164.83 136.428 166.599 138.198C166.894 138.492 167.188 137.902 167.188 137.607C166.894 133.774 163.355 132.89 161.292 130.53C164.534 130.825 167.483 132.299 170.137 134.364C171.316 132.005 171.612 129.351 171.316 126.402H171.906ZM202.278 183.016V183.606C200.803 183.606 199.329 184.196 197.854 184.196C198.149 182.72 200.213 182.72 201.098 181.837C201.983 181.837 201.687 182.72 202.278 183.016ZM106.155 87.8899C105.54 87.4536 104.551 86.649 104.105 86.5523C103.22 87.4365 99.9601 89.2496 99.6652 90.4288C99.6652 90.7243 99.6652 91.313 99.9601 91.313C101.434 88.6597 103.94 88.5967 106.155 87.8899Z" fill="#FBBD09"/>
<defs>
<linearGradient id="paint0_linear" x1="70.8543" y1="275.423" x2="119.655" y2="249.476" gradientUnits="userSpaceOnUse">
<stop stop-color="#A4D3E8"/>
<stop offset="0.2" stop-color="#A9D4E8"/>
<stop offset="0.3" stop-color="white"/>
<stop offset="1" stop-color="white"/>
</linearGradient>
<linearGradient id="paint1_linear" x1="44.5142" y1="259.151" x2="100.668" y2="215.278" gradientUnits="userSpaceOnUse">
<stop stop-color="#A4D3E8"/>
<stop offset="0.13" stop-color="#B0D9E9"/>
<stop offset="0.28" stop-color="white"/>
<stop offset="1" stop-color="white"/>
</linearGradient>
<linearGradient id="paint2_linear" x1="163.236" y1="251.196" x2="206.7" y2="271.463" gradientUnits="userSpaceOnUse">
<stop stop-color="white"/>
<stop offset="0.8" stop-color="#ABD7EB"/>
<stop offset="1" stop-color="#A4D3E8"/>
</linearGradient>
<linearGradient id="paint3_linear" x1="177.281" y1="213.851" x2="233.117" y2="257.475" gradientUnits="userSpaceOnUse">
<stop stop-color="white"/>
<stop offset="0.83" stop-color="#AED8EB"/>
<stop offset="1" stop-color="#A4D3E8"/>
</linearGradient>
</defs>
</svg>
