<svg width="610" height="233" viewBox="0 0 610 233" fill="none" xmlns="http://www.w3.org/2000/svg">
<path d="M0 232.529V86.5698H145.372L0 232.529Z" fill="#2790D4"/>
<path d="M0 232.529L145.372 86.5698V232.529H0Z" fill="#69D0A5"/>
<path d="M231.531 0H57.8043L0 58.2893H173.256L231.531 0Z" fill="#2790D4"/>
<path d="M231.374 0.157104V174.396L173.256 232.372V58.2893L231.374 0.157104Z" fill="#69D0A5"/>
<path d="M325.991 47.9197H320.352L319.569 40.6925H291.215V0.314209H299.047V33.6224H312.989V0.314209H320.822V33.6224H325.991V47.9197Z" fill="white"/>
<path d="M342.44 15.2401C340.246 15.2401 338.367 15.8685 336.957 16.9683C335.547 18.2252 334.764 20.2677 334.45 23.0958H348.706C348.706 20.1106 348.079 18.0681 346.982 16.9683C346.043 15.7114 344.476 15.2401 342.44 15.2401ZM352.465 38.3358C351.369 39.2785 349.802 40.0641 348.079 40.5354C346.356 41.0068 344.476 41.321 342.596 41.321C340.403 41.321 338.523 41.0068 336.957 40.2212C335.39 39.4356 333.98 38.4929 333.04 37.236C331.944 35.9791 331.161 34.2509 330.691 32.5226C330.221 30.6372 329.907 28.5948 329.907 26.238C329.907 21.3675 331.004 17.5968 333.197 14.9258C335.39 12.412 338.523 10.998 342.596 10.998C343.849 10.998 345.259 11.1551 346.513 11.4693C347.766 11.7836 349.019 12.2549 349.959 13.0405C351.055 13.826 351.839 14.9258 352.465 16.497C353.092 17.911 353.405 19.9535 353.405 22.3102C353.405 23.5671 353.249 24.9811 353.092 26.5523H334.607C334.607 28.2805 334.764 29.6945 335.077 31.1086C335.39 32.3655 336.017 33.4653 336.643 34.408C337.427 35.3507 338.367 35.9791 339.463 36.4505C340.56 36.9218 342.126 37.236 343.693 37.236C344.946 37.236 346.356 37.0789 347.609 36.6076C348.862 36.1362 349.959 35.6649 350.585 35.0364L352.465 38.3358Z" fill="white"/>
<path d="M378.313 27.9663H365.154V40.6925H360.611V11.7836H365.154V23.8813H378.313V11.7836H382.856V40.6925H378.313V27.9663Z" fill="white"/>
<path d="M410.113 15.8685H401.027V40.6925H396.484V15.8685H387.399V11.7836H410.113V15.8685Z" fill="white"/>
<path d="M426.248 15.2401C424.368 15.2401 422.802 15.7114 421.549 16.8112C420.452 17.7539 419.669 19.325 419.199 21.5246V35.822C419.825 36.2933 420.609 36.7647 421.549 37.0789C422.488 37.3931 423.585 37.5502 424.995 37.5502C427.658 37.5502 429.694 36.6076 431.261 34.5651C432.827 32.5226 433.611 29.6945 433.611 25.7667C433.611 24.1956 433.454 22.7815 433.141 21.5246C432.827 20.2677 432.514 19.1679 431.888 18.2252C431.261 17.2825 430.478 16.6541 429.538 16.1827C428.754 15.3972 427.658 15.2401 426.248 15.2401ZM414.656 11.7836H417.789L418.572 15.2401H418.885C419.825 13.826 420.922 12.8834 422.332 12.0978C423.742 11.3122 425.308 10.998 427.188 10.998C430.948 10.998 433.924 12.0978 435.804 14.4545C437.684 16.6541 438.624 20.4248 438.624 25.6096C438.624 27.9663 438.31 30.1659 437.684 32.2084C437.057 34.0937 436.117 35.822 435.021 37.0789C433.924 38.4929 432.514 39.4356 430.791 40.2212C429.224 41.0068 427.345 41.321 425.308 41.321C423.898 41.321 422.802 41.1639 421.862 41.0068C420.922 40.8496 420.139 40.5354 419.199 40.0641V52.0047H414.656V11.7836Z" fill="white"/>
<path d="M304.687 70.0729L305.783 75.2576H306.097L307.037 69.7586L313.146 52.1619H321.292L310.483 80.1281C309.7 82.3277 308.76 84.2131 307.976 85.7842C307.193 87.3554 306.41 88.7694 305.47 89.8692C304.53 90.969 303.59 91.7546 302.494 92.2259C301.397 92.6973 300.144 93.0115 298.577 93.0115C297.324 93.0115 296.228 92.8544 295.444 92.6973C294.661 92.5401 293.878 92.2259 292.938 91.5975L294.974 85.1558C295.601 85.47 296.228 85.7842 296.698 85.7842C297.168 85.9414 297.794 85.9414 298.421 85.9414C300.301 85.9414 301.554 84.5273 302.18 81.6993L287.142 52.1619H296.384L304.687 70.0729Z" fill="white"/>
<path d="M342.126 67.8732H329.438V92.6972H324.895V63.7883H346.826V92.6972H342.126V67.8732Z" fill="white"/>
<path d="M367.191 67.0877C365.311 67.0877 363.744 67.559 362.491 68.6588C361.394 69.6015 360.611 71.1726 360.141 73.3722V87.6696C360.768 88.1409 361.551 88.6123 362.491 88.9265C363.431 89.2407 364.528 89.3978 365.937 89.3978C368.6 89.3978 370.637 88.4551 372.203 86.4127C373.77 84.3702 374.553 81.5421 374.553 77.6143C374.553 76.0431 374.397 74.6291 374.083 73.3722C373.77 72.1153 373.457 71.0155 372.83 70.0728C372.203 69.1301 371.42 68.5017 370.48 68.0303C369.854 67.4019 368.6 67.0877 367.191 67.0877ZM355.598 63.7883H358.731L359.515 67.2448H359.671C360.611 65.8307 361.708 64.8881 363.118 64.1025C364.528 63.3169 366.094 63.0027 367.974 63.0027C371.733 63.0027 374.71 64.1025 376.59 66.4592C378.469 68.6588 379.409 72.4295 379.409 77.6143C379.409 79.971 379.096 82.1706 378.469 84.2131C377.843 86.0984 376.903 87.8267 375.806 89.0836C374.71 90.4976 373.3 91.4403 371.577 92.2259C370.01 93.0115 368.13 93.3257 366.094 93.3257C364.684 93.3257 363.588 93.1686 362.648 93.0115C361.864 92.8543 360.925 92.5401 359.985 92.0688V104.009H355.598V63.7883Z" fill="white"/>
<path d="M394.448 89.0836C395.544 89.0836 396.484 88.9265 397.268 88.6123C398.051 88.2981 398.834 87.9838 399.461 87.5125C400.087 87.0411 400.557 86.5698 401.027 86.0985C401.497 85.6271 401.654 84.9987 401.967 84.5273V79.6568C401.497 79.6568 400.871 79.6568 400.401 79.4997C399.774 79.4997 399.304 79.4997 398.834 79.4997C397.581 79.4997 396.484 79.4997 395.388 79.6568C394.291 79.8139 393.195 79.971 392.411 80.4424C391.628 80.7566 390.845 81.2279 390.375 82.0135C389.905 82.642 389.592 83.4275 389.592 84.3702C389.592 85.7842 390.062 86.884 391.002 87.6696C391.785 88.6123 393.038 89.0836 394.448 89.0836ZM386.302 65.9879C387.712 65.0452 389.435 64.4167 391.471 64.1025C393.351 63.6312 395.388 63.4741 397.581 63.4741C399.617 63.4741 401.184 63.7883 402.437 64.2596C403.69 64.731 404.63 65.5165 405.257 66.3021C405.883 67.0877 406.353 68.1875 406.51 69.1302C406.667 70.23 406.823 71.1726 406.823 72.2724C406.823 74.6291 406.823 76.8287 406.667 79.0283C406.51 81.2279 406.51 83.2704 406.51 85.3129C406.51 86.7269 406.51 88.1409 406.667 89.3979C406.823 90.6548 406.98 91.9117 407.293 92.8543H403.847L402.594 88.7694H402.28C401.967 89.2407 401.497 89.8692 401.027 90.3405C400.557 90.8119 399.931 91.2832 399.147 91.7546C398.364 92.2259 397.581 92.5401 396.641 92.6972C395.701 93.0115 394.604 93.1686 393.351 93.1686C392.098 93.1686 391.001 93.0115 389.905 92.5401C388.808 92.2259 387.868 91.5974 387.242 90.969C386.459 90.1834 385.832 89.3978 385.362 88.4552C384.892 87.5125 384.735 86.2556 384.735 84.9987C384.735 83.2704 385.049 81.8564 385.832 80.7566C386.459 79.6568 387.555 78.7141 388.808 78.0856C390.062 77.4572 391.628 76.9858 393.351 76.6716C395.074 76.3574 396.954 76.2003 399.147 76.2003C399.617 76.2003 400.244 76.2003 400.714 76.2003C401.184 76.2003 401.81 76.2003 402.28 76.3574C402.437 75.2576 402.437 74.1578 402.437 73.2151C402.437 71.1726 401.967 69.6015 401.184 68.8159C400.401 68.0304 398.834 67.559 396.641 67.559C396.014 67.559 395.231 67.559 394.604 67.7161C393.821 67.8732 393.038 68.0304 392.255 68.1875C391.471 68.3446 390.688 68.6588 390.062 68.8159C389.278 69.1302 388.652 69.2873 388.182 69.6015L386.302 65.9879Z" fill="white"/>
<path d="M419.982 88.7694C420.765 88.9265 421.392 88.9265 422.175 88.9265C422.958 88.9265 423.742 88.9265 424.682 88.9265C427.188 88.9265 429.224 88.6123 430.478 87.8267C431.731 87.0411 432.357 85.7842 432.357 84.056C432.357 82.642 431.888 81.5422 430.791 80.5995C429.694 79.8139 427.815 79.3426 425.152 79.3426H420.139V88.7694H419.982ZM425.621 76.0432C426.248 76.0432 427.031 75.8861 427.658 75.7289C428.285 75.5718 428.911 75.2576 429.381 74.7863C429.851 74.3149 430.321 73.8436 430.634 73.3722C430.948 72.9009 431.104 72.2724 431.104 71.644C431.104 70.0728 430.634 68.973 429.694 68.5017C428.754 67.8732 427.188 67.559 424.838 67.559C423.585 67.559 422.645 67.559 421.862 67.559C421.079 67.559 420.452 67.7161 419.825 67.7161V76.0432H425.621ZM415.283 63.9454C416.692 63.7883 418.102 63.7883 419.512 63.6312C420.922 63.4741 422.802 63.4741 424.995 63.4741C428.754 63.4741 431.574 64.1025 433.141 65.2023C434.864 66.3021 435.647 68.1875 435.647 70.5442C435.647 71.9582 435.177 73.2151 434.394 74.472C433.611 75.7289 432.357 76.6716 430.478 77.3001V77.4572C432.671 77.9285 434.394 78.7141 435.334 79.8139C436.274 80.9137 436.744 82.4848 436.744 84.3702C436.744 87.3554 435.647 89.555 433.454 90.969C431.261 92.383 428.128 93.0115 423.742 93.0115C422.175 93.0115 420.609 93.0115 419.199 92.8544C417.789 92.6972 416.379 92.6972 415.126 92.5401V63.9454H415.283Z" fill="white"/>
<path d="M459.458 67.8732H451.156C450.999 69.4444 450.999 71.1726 450.842 73.058C450.686 74.9434 450.529 76.8287 450.372 78.7141C450.216 80.5995 449.902 82.3277 449.432 84.056C449.119 85.7842 448.493 87.1983 448.023 88.6123C447.396 89.8692 446.769 90.969 445.829 91.7546C445.046 92.5401 443.95 93.0115 442.696 93.0115C441.913 93.0115 441.287 93.0115 440.817 92.8544C440.347 92.6972 439.877 92.6972 439.407 92.383L440.033 88.4552C440.503 88.6123 440.973 88.6123 441.6 88.6123C442.383 88.6123 443.01 88.298 443.636 87.6696C444.263 87.0411 444.733 85.7842 445.203 83.8989C445.673 82.0135 445.986 79.4997 446.299 76.3574C446.613 73.058 446.769 68.973 446.926 63.7883H464.001V92.6972H459.458V67.8732Z" fill="white"/>
<path d="M484.052 67.0877C481.859 67.0877 479.979 67.7161 478.57 68.8159C477.16 70.0728 476.376 72.1153 476.063 74.9433H490.318C490.318 71.9582 489.692 69.9157 488.595 68.8159C487.655 67.7161 486.089 67.0877 484.052 67.0877ZM493.921 90.3405C492.825 91.2832 491.258 92.0688 489.535 92.5401C487.812 93.0115 485.932 93.3257 484.052 93.3257C481.859 93.3257 479.979 93.0115 478.413 92.2259C476.846 91.4403 475.437 90.4976 474.497 89.2407C473.4 87.9838 472.617 86.2556 472.147 84.5273C471.677 82.6419 471.364 80.5994 471.364 78.2427C471.364 73.3722 472.46 69.6015 474.653 66.9305C476.846 64.4167 479.979 63.0027 484.052 63.0027C485.306 63.0027 486.715 63.1598 487.969 63.474C489.222 63.7883 490.475 64.2596 491.415 65.0452C492.512 65.8307 493.295 66.9305 493.921 68.5017C494.548 69.9157 494.861 71.9582 494.861 74.3149C494.861 75.5718 494.705 76.9858 494.548 78.557H476.22C476.22 80.2852 476.376 81.6993 476.69 83.1133C477.003 84.3702 477.63 85.47 478.256 86.4127C479.04 87.3554 479.979 87.9838 481.076 88.4551C482.173 88.9265 483.739 89.2407 485.306 89.2407C486.559 89.2407 487.969 89.0836 489.222 88.6123C490.475 88.1409 491.572 87.6696 492.198 87.0411L493.921 90.3405Z" fill="white"/>
<path d="M519.769 79.971H506.767V92.6972H502.224V63.7883H506.767V75.886H519.769V63.7883H524.468V92.6972H519.769V79.971Z" fill="white"/>
<path d="M551.256 75.5718L551.412 71.9582H551.256L548.906 75.7289L535.904 92.6972H533.241V63.7883H537.94V81.385L537.784 84.8415H537.94L540.29 81.2279L553.136 63.7883H555.799V92.6972H551.256V75.5718Z" fill="white"/>
<path d="M579.14 67.7161C578.67 67.559 578.043 67.4019 577.417 67.2447C576.79 67.0876 576.32 67.0876 575.85 67.0876C573.344 67.0876 571.464 67.559 570.211 68.3445C568.957 69.2872 568.331 70.7013 568.331 72.5866C568.331 74.3149 568.957 75.7289 570.367 76.6716C571.777 77.6143 573.5 78.0856 575.693 78.0856H575.85C576.007 78.0856 576.007 78.0856 576.32 78.0856C576.477 78.0856 576.947 78.0856 577.26 78.0856C577.73 78.0856 578.2 78.0856 578.983 77.9285V67.7161H579.14ZM579.14 80.7566L574.753 81.385L567.078 92.6972H561.438L568.331 82.799L570.681 80.5994C568.644 80.2852 566.921 79.4996 565.511 78.2427C564.101 76.9858 563.475 75.1004 563.475 72.9009C563.475 71.1726 563.788 69.7586 564.414 68.5017C565.041 67.2447 565.824 66.3021 566.921 65.5165C568.017 64.7309 569.427 64.1025 570.837 63.7882C572.404 63.474 574.127 63.3169 576.007 63.3169C577.417 63.3169 578.826 63.474 579.923 63.6311C581.176 63.7882 582.429 64.1025 583.526 64.2596V92.6972H578.983V80.7566H579.14Z" fill="white"/>
<path d="M302.963 110.451C302.18 110.451 301.397 110.451 300.77 110.608C300.144 110.608 299.517 110.765 299.047 110.765V123.806C299.204 123.806 299.36 123.963 299.674 123.963C299.987 123.963 300.3 123.963 300.614 124.12C300.927 124.12 301.24 124.12 301.554 124.12C301.867 124.12 302.18 124.12 302.337 124.12C303.433 124.12 304.373 123.963 305.47 123.806C306.41 123.649 307.35 123.334 308.133 122.706C308.916 122.235 309.543 121.449 310.013 120.506C310.483 119.564 310.796 118.307 310.796 116.893C310.796 115.636 310.639 114.536 310.169 113.75C309.699 112.965 309.073 112.336 308.29 111.708C307.506 111.237 306.723 110.922 305.783 110.608C304.843 110.608 303.903 110.451 302.963 110.451ZM291.215 104.638C292.781 104.324 294.661 104.167 296.541 103.852C298.421 103.695 300.457 103.538 302.337 103.538C304.373 103.538 306.41 103.695 308.29 104.009C310.326 104.324 312.049 104.952 313.772 105.895C315.339 106.837 316.749 108.252 317.689 109.98C318.629 111.708 319.255 114.065 319.255 116.893C319.255 119.407 318.785 121.606 318.002 123.334C317.062 125.063 315.966 126.477 314.556 127.577C313.146 128.676 311.423 129.462 309.543 129.933C307.663 130.405 305.783 130.719 303.747 130.719C303.59 130.719 303.277 130.719 302.807 130.719C302.337 130.719 302.024 130.719 301.554 130.719C301.084 130.719 300.614 130.719 300.144 130.562C299.674 130.562 299.36 130.405 299.204 130.405V144.388H291.371V104.638H291.215Z" fill="white"/>
<path d="M336.174 119.092C333.981 119.092 332.101 119.721 330.691 120.821C329.281 122.078 328.498 124.12 328.184 126.948H342.44C342.44 123.963 341.813 121.92 340.716 120.821C339.62 119.721 338.21 119.092 336.174 119.092ZM346.043 142.345C344.946 143.288 343.38 144.074 341.656 144.545C339.933 145.016 338.053 145.33 336.174 145.33C333.981 145.33 332.101 145.016 330.534 144.231C328.968 143.445 327.558 142.502 326.618 141.246C325.521 139.989 324.738 138.26 324.268 136.532C323.798 134.647 323.485 132.604 323.485 130.248C323.485 125.377 324.581 121.606 326.775 118.935C328.968 116.421 332.101 115.007 336.174 115.007C337.427 115.007 338.837 115.165 340.09 115.479C341.343 115.793 342.596 116.264 343.536 117.05C344.633 117.836 345.416 118.935 346.043 120.506C346.669 121.92 346.983 123.963 346.983 126.32C346.983 127.577 346.826 128.991 346.669 130.562H328.184C328.184 132.29 328.341 133.704 328.654 135.118C328.968 136.375 329.594 137.475 330.221 138.417C331.004 139.36 331.944 139.989 333.041 140.46C334.137 140.931 335.704 141.246 337.27 141.246C338.523 141.246 339.933 141.088 341.186 140.617C342.44 140.146 343.536 139.674 344.163 139.046L346.043 142.345Z" fill="white"/>
<path d="M373.927 142.659C372.83 143.445 371.42 144.074 369.854 144.545C368.287 145.016 366.564 145.173 364.841 145.173C362.648 145.173 360.768 144.859 359.201 144.074C357.635 143.288 356.382 142.345 355.442 141.088C354.502 139.831 353.718 138.103 353.249 136.218C352.779 134.332 352.622 132.29 352.622 130.09C352.622 125.22 353.718 121.449 355.912 118.935C358.105 116.264 361.081 115.007 365.154 115.007C367.034 115.007 368.6 115.165 369.854 115.479C371.107 115.793 372.36 116.107 373.3 116.736L372.047 120.664C371.107 120.192 370.167 119.721 369.07 119.407C367.974 119.092 366.877 118.935 365.624 118.935C360.141 118.935 357.478 122.706 357.478 130.09C357.478 131.504 357.635 132.918 357.948 134.332C358.261 135.589 358.731 136.846 359.358 137.789C359.985 138.732 360.924 139.674 362.021 140.303C363.118 140.931 364.527 141.245 366.094 141.245C367.504 141.245 368.757 141.088 369.854 140.617C370.95 140.146 371.89 139.674 372.517 139.203L373.927 142.659Z" fill="white"/>
<path d="M397.581 119.878H384.892V144.702H380.193V115.793H402.124V144.702H397.581V119.878Z" fill="white"/>
<path d="M419.512 134.49L421.078 139.989H421.392L422.645 134.332L428.284 115.636H432.827L424.368 141.56C423.742 143.445 423.115 145.33 422.488 147.059C421.862 148.787 421.079 150.358 420.452 151.772C419.825 153.186 418.885 154.286 417.789 155.071C416.849 155.857 415.752 156.328 414.499 156.328C413.089 156.328 411.993 156.171 411.053 155.7L411.836 151.772C412.306 151.929 412.776 152.086 413.246 152.086C414.342 152.086 415.282 151.458 416.379 150.358C417.319 149.258 418.259 147.216 418.885 144.545L407.293 115.793H412.619L419.512 134.49Z" fill="white"/>
<path d="M440.973 130.247C440.973 131.661 441.13 133.076 441.443 134.49C441.756 135.904 442.226 137.003 442.853 138.103C443.48 139.046 444.263 139.989 445.359 140.46C446.299 141.088 447.553 141.245 448.806 141.245C451.469 141.245 453.349 140.303 454.759 138.417C456.012 136.532 456.638 133.704 456.638 129.933C456.638 128.519 456.482 127.105 456.168 125.848C455.855 124.591 455.542 123.492 454.915 122.706C454.289 121.763 453.662 121.135 452.722 120.664C451.782 120.192 450.842 119.878 449.589 119.878C446.613 119.878 444.42 120.664 443.01 122.549C441.756 124.277 440.973 126.948 440.973 130.247ZM440.503 120.978C441.757 119.092 443.166 117.835 444.733 117.05C446.299 116.264 448.179 115.95 450.529 115.95C454.132 115.95 456.795 117.05 458.675 119.407C460.555 121.763 461.495 125.063 461.495 129.619C461.495 134.804 460.398 138.732 458.205 141.403C456.012 144.073 452.879 145.33 448.962 145.33C444.733 145.33 441.6 143.916 439.407 140.931C437.37 137.946 436.274 133.39 436.274 127.105C436.274 123.806 436.43 120.978 436.744 118.621C437.057 116.264 437.527 114.222 438.154 112.651C438.78 111.08 439.563 109.823 440.503 108.723C441.443 107.78 442.383 106.995 443.48 106.366C444.576 105.738 445.829 105.423 447.239 105.109C448.649 104.952 450.059 104.638 451.626 104.481C453.662 104.324 455.228 104.009 456.325 103.852C457.422 103.538 458.362 103.224 458.988 102.438L459.458 106.523C459.145 106.837 458.675 107.152 458.205 107.309C457.735 107.466 457.265 107.78 456.482 107.937C455.855 108.094 455.072 108.252 454.132 108.409C453.192 108.566 452.252 108.566 450.999 108.723C449.276 108.88 447.866 109.037 446.613 109.351C445.359 109.666 444.263 110.137 443.323 111.08C442.383 111.865 441.756 113.122 441.13 114.536C440.66 116.107 440.19 117.993 440.033 120.506L440.503 120.978Z" fill="white"/>
<path d="M484.209 119.878H475.907C475.75 121.449 475.75 123.177 475.593 125.063C475.437 126.948 475.28 128.833 475.123 130.719C474.967 132.604 474.653 134.332 474.183 136.061C473.87 137.789 473.243 139.203 472.774 140.617C472.147 141.874 471.52 142.974 470.58 143.759C469.641 144.545 468.701 145.016 467.447 145.016C466.664 145.016 466.038 145.016 465.568 144.859C465.098 144.702 464.628 144.702 464.158 144.388L464.784 140.46C465.254 140.617 465.724 140.617 466.351 140.617C467.134 140.617 467.761 140.303 468.387 139.674C469.014 139.046 469.484 137.789 469.954 135.904C470.424 134.018 470.737 131.504 471.05 128.362C471.364 125.063 471.52 120.978 471.677 115.793H488.752V144.702H484.209V119.878Z" fill="white"/>
<path d="M515.696 127.577L515.853 123.963H515.696L513.346 127.734L500.344 144.702H497.681V115.793H502.224V133.39L502.067 136.846H502.381L504.574 133.233L517.576 115.793H520.239V144.702H515.696V127.577Z" fill="white"/>
<path d="M536.374 131.661H533.711V144.702H529.168V115.793H533.711V128.833L536.217 128.048L545.46 115.793H550.473L541.543 127.419L539.037 129.305L542.013 131.661L551.726 144.702H545.93L536.374 131.661Z" fill="white"/>
<path d="M559.715 130.247C559.715 131.662 559.872 133.076 560.185 134.49C560.498 135.904 560.968 137.003 561.595 137.946C562.221 138.889 563.005 139.831 563.945 140.303C564.884 140.931 566.138 141.245 567.548 141.245C572.717 141.245 575.38 137.632 575.38 130.09C575.38 128.519 575.223 127.105 574.91 125.848C574.597 124.434 574.127 123.334 573.5 122.392C572.874 121.449 572.09 120.664 571.151 120.035C570.211 119.407 568.957 119.092 567.548 119.092C562.378 119.092 559.715 122.706 559.715 130.247ZM555.015 130.247C555.015 125.377 556.112 121.606 558.305 119.092C560.498 116.421 563.631 115.165 567.704 115.165C569.897 115.165 571.777 115.479 573.344 116.264C574.91 117.05 576.32 117.993 577.26 119.25C578.356 120.506 579.14 122.235 579.61 124.12C580.08 126.005 580.393 128.048 580.393 130.247C580.393 135.118 579.296 138.889 577.103 141.403C574.91 143.916 571.777 145.33 567.704 145.33C565.511 145.33 563.631 145.016 562.065 144.231C560.498 143.445 559.088 142.502 558.148 141.245C557.052 139.989 556.269 138.26 555.799 136.375C555.329 134.49 555.015 132.447 555.015 130.247Z" fill="white"/>
<path d="M594.022 104.167C594.335 105.895 595.118 107.152 596.058 107.937C596.998 108.566 598.095 109.037 599.348 109.037C600.601 109.037 601.697 108.723 602.637 107.937C603.577 107.152 604.204 106.052 604.517 104.324L607.963 105.423C607.65 107.623 606.554 109.351 604.987 110.608C603.421 111.865 601.384 112.336 599.191 112.336C598.094 112.336 597.155 112.179 596.058 111.865C595.118 111.551 594.178 111.237 593.395 110.608C592.612 110.137 591.828 109.351 591.359 108.566C590.732 107.78 590.419 106.68 590.262 105.581L594.022 104.167ZM605.457 127.577L605.614 123.963H605.457L603.107 127.734L590.105 144.702H587.442V115.793H591.985V133.39L591.828 136.846H591.985L594.178 133.233L607.18 115.793H609.843V144.702H605.3V127.577H605.457Z" fill="white"/>
<path d="M123.755 137.318C123.598 137.475 123.598 137.475 123.441 137.632V137.789C123.128 139.203 122.501 140.46 122.501 141.717V141.874C122.501 142.188 122.345 142.502 122.345 142.817C122.188 143.131 122.031 143.445 121.875 143.759C121.561 143.916 121.561 144.074 121.248 144.231C121.091 144.388 120.935 144.545 120.622 144.702C120.622 144.702 120.622 144.702 120.622 144.859V145.016V145.173C120.465 145.802 120.308 146.587 119.838 147.216C119.838 147.216 119.995 147.216 120.152 147.216C120.152 147.216 120.308 147.216 120.465 147.216C120.622 147.216 120.778 147.216 120.778 147.216C120.935 147.216 121.091 147.216 121.091 147.373C121.091 147.373 121.091 147.687 120.935 148.158C120.935 148.473 120.778 148.944 120.778 149.258C120.778 149.415 120.778 149.415 120.622 149.415C120.308 149.887 120.152 150.201 120.152 150.358C120.152 150.515 120.152 150.515 120.152 150.515C120.152 150.515 120.308 150.672 120.465 150.672C120.778 150.829 121.091 150.987 121.405 151.301C121.561 151.458 121.718 151.772 121.718 151.929L121.875 152.243V152.401C121.875 152.715 121.718 152.872 121.561 153.029C121.405 153.186 121.248 153.343 121.091 153.5C120.935 153.5 120.935 153.657 120.778 153.657C120.778 153.815 120.778 153.815 120.778 153.972C120.778 154.286 120.935 154.757 120.935 155.071C120.935 155.229 120.935 155.386 120.935 155.386C120.778 155.386 120.778 155.386 120.622 155.386C120.308 155.386 119.838 155.229 119.368 154.914C118.898 154.757 118.428 154.443 118.115 154.286C117.802 154.129 117.645 154.129 117.488 154.129C117.332 154.129 117.332 154.129 117.175 154.286C117.019 154.443 116.549 154.757 116.235 154.914C116.079 154.914 115.922 155.071 115.922 155.071C115.922 155.071 115.922 155.071 115.765 155.071C115.765 154.914 115.765 154.914 115.765 154.757C115.765 154.757 115.765 154.757 115.765 154.6C115.609 154.6 115.609 154.6 115.609 154.6C115.452 154.6 115.452 154.6 115.452 154.6C114.982 155.386 114.825 156.171 114.512 157.114C114.355 157.585 114.199 158.371 113.885 158.999C113.572 159.628 113.259 160.256 112.789 160.57C112.632 160.728 112.476 160.728 112.319 160.728C112.162 160.728 112.006 160.728 111.849 160.728C111.692 160.728 111.692 160.728 111.536 160.885L111.066 161.042H110.909C110.752 160.885 110.596 160.885 110.439 160.728C110.283 160.728 110.126 160.57 109.969 160.57C109.813 160.57 109.813 160.57 109.656 160.728C109.656 160.885 109.499 160.885 109.499 161.042C109.499 161.356 109.656 161.67 109.656 161.985C109.656 162.142 109.656 162.456 109.499 162.613C109.343 163.084 109.186 163.399 109.186 163.87C109.186 164.027 109.186 164.184 109.186 164.341C109.343 164.498 109.343 164.655 109.343 164.813C109.343 165.127 109.186 165.441 109.029 165.598C108.873 165.912 108.873 166.069 108.873 166.227V166.384L109.029 166.541L108.873 166.698V166.855C108.873 167.012 108.873 167.012 108.873 167.169C108.873 167.326 108.873 167.326 108.873 167.326C109.029 167.641 109.029 167.955 109.029 168.112C109.029 168.426 109.029 168.74 108.873 168.898C108.716 169.055 108.559 169.055 108.403 169.212C108.246 169.369 108.089 169.369 107.933 169.526C107.776 169.526 107.776 169.683 107.776 169.683L107.463 169.997V170.626L107.776 170.94C107.933 170.94 108.246 170.94 108.403 170.94C108.559 170.94 108.716 170.94 108.873 171.097H109.029V171.254C109.029 171.411 109.029 171.568 109.029 171.568C109.029 172.197 109.029 172.825 109.029 173.454C109.029 174.239 108.873 174.868 108.559 175.496C108.559 176.125 108.716 176.439 108.716 176.91C108.873 177.225 109.029 177.539 109.029 177.853C109.029 178.167 109.029 178.324 108.873 178.639C108.873 178.796 108.716 179.11 108.716 179.424C108.873 179.738 108.873 180.21 108.873 180.524C108.873 180.524 108.873 180.524 109.029 180.524C109.029 180.21 109.029 180.053 109.186 180.053C109.186 180.053 109.186 179.896 109.343 179.896C109.343 179.896 109.343 179.896 109.499 179.896H109.656C109.656 179.896 109.656 179.896 109.656 180.053C109.656 180.053 109.656 180.21 109.813 180.21C109.813 180.367 109.969 180.524 110.126 180.838L110.909 181.31V182.095L111.222 183.195C111.222 183.509 111.222 183.666 111.066 183.98C111.066 184.295 110.909 184.609 110.909 184.766L110.752 184.923C110.596 185.08 110.596 185.08 110.439 185.237L110.283 185.394H110.126C109.969 185.394 109.813 185.237 109.656 185.08C109.499 184.923 109.499 184.923 109.499 184.766H109.343C109.343 184.766 109.343 184.766 109.186 184.766C109.029 184.766 108.873 184.766 108.873 184.923C108.873 185.08 108.716 185.08 108.716 185.237C108.716 185.394 108.716 185.552 108.873 185.709C108.873 186.18 108.716 186.337 108.716 186.651C108.559 186.809 108.403 186.966 108.246 187.28H108.089C108.089 187.28 108.089 187.28 107.933 187.28L107.776 187.437C107.776 187.594 107.619 187.751 107.619 188.065C107.619 188.223 107.619 188.223 107.619 188.38V188.537C107.619 188.694 107.619 188.851 107.463 188.851C107.463 189.008 107.463 189.008 107.463 189.008C107.463 189.008 107.463 189.165 107.619 189.322C107.619 189.794 107.619 190.265 107.776 190.736C107.776 191.365 107.933 191.993 107.933 192.622C107.933 192.936 107.933 193.407 107.776 193.722C107.463 194.036 107.306 194.193 107.306 194.507C107.306 194.664 107.306 194.821 107.463 194.978C107.463 194.978 107.463 195.136 107.619 195.136H107.776C107.933 195.136 108.089 195.136 108.246 195.136C108.403 195.136 108.559 195.136 108.559 195.293C108.716 195.45 108.716 195.607 108.873 195.921C109.029 196.078 109.029 196.392 109.029 196.707C109.029 196.864 109.029 197.021 108.873 197.178C108.559 197.178 108.403 197.178 108.403 197.335C108.246 197.335 108.246 197.492 108.246 197.492C108.246 197.649 108.246 197.964 108.089 198.278L108.246 198.592C108.403 198.592 108.403 198.749 108.403 198.749L108.559 198.906C108.559 199.063 108.559 199.221 108.716 199.378C108.716 199.692 108.716 199.849 108.873 200.006C108.873 200.006 108.873 200.006 109.029 200.006C109.029 200.006 109.186 200.006 109.343 200.163H109.499V200.32C109.499 200.477 109.499 200.949 109.499 201.263C109.499 201.42 109.499 201.577 109.499 201.734C109.499 201.891 109.656 202.049 109.656 202.049H109.813C109.969 202.049 110.126 202.049 110.283 202.049C110.439 202.049 110.596 202.049 110.752 202.049C110.909 202.049 110.909 202.206 110.909 202.206C110.909 202.363 110.909 202.363 110.909 202.363C110.909 202.52 110.909 202.677 110.909 202.677V202.834V202.991L110.126 203.777V204.405C109.813 204.72 109.499 204.72 109.186 204.72C108.873 204.72 108.559 204.72 108.246 204.72C108.089 204.72 108.089 204.72 107.933 204.72H107.776L107.306 203.934C107.149 203.934 107.15 203.934 107.15 203.934H106.993L106.836 204.091C106.68 204.248 106.68 204.405 106.68 204.72C106.523 205.191 106.523 205.662 106.523 205.976C106.21 206.291 106.053 206.762 105.74 207.076L105.583 207.233C105.583 207.233 105.583 207.233 105.74 207.233C105.896 207.39 105.896 207.705 106.053 207.862C106.21 208.019 106.21 208.176 106.366 208.333C106.523 208.333 106.68 208.49 106.836 208.647C106.993 208.804 107.15 208.962 107.15 209.276C107.15 209.433 107.15 209.59 107.15 209.747C107.15 209.904 107.15 209.904 107.15 210.061C107.15 210.218 106.993 210.218 106.993 210.376C106.836 210.533 106.68 210.533 106.523 210.69V212.104C106.68 212.418 106.836 212.732 106.836 213.047C106.836 213.518 106.68 213.832 106.68 214.146C106.68 214.303 106.68 214.461 106.836 214.618C106.836 214.775 106.68 214.932 106.68 214.932C106.68 215.089 106.68 215.089 106.68 215.089C106.68 215.089 106.68 215.246 106.68 215.403C106.68 215.56 106.523 215.717 106.523 215.717C106.366 215.875 106.366 215.875 106.21 215.875C106.053 216.032 105.74 216.032 105.583 216.032C105.426 216.032 105.426 216.189 105.27 216.189L104.8 216.817L103.233 217.132C103.077 217.289 102.92 217.446 102.92 217.603C102.763 217.76 102.607 217.76 102.45 217.76C102.293 217.76 102.137 217.603 101.98 217.603C101.823 217.446 101.667 217.289 101.667 217.132L101.353 216.817C101.353 216.974 101.353 216.974 101.353 217.132C101.353 217.446 101.353 217.603 101.197 217.917C101.04 218.074 101.04 218.231 100.727 218.388H100.57C100.257 218.388 100.1 218.546 99.7869 218.546C99.4736 218.703 99.3169 218.86 99.0036 218.86C98.847 218.86 98.6903 218.703 98.5337 218.546C98.377 218.388 98.377 218.388 98.2204 218.231C98.2204 218.231 98.2204 218.231 98.2204 218.074V217.917C98.377 217.76 98.377 217.76 98.377 217.76C98.377 217.76 98.377 217.603 98.2204 217.603L98.0637 217.446C97.9071 217.446 97.9071 217.446 97.7504 217.446C97.4371 217.446 96.9672 217.603 96.4972 217.603C96.3406 217.603 96.1839 217.603 96.0273 217.603V217.446C96.0273 217.289 96.0273 217.289 96.0273 217.132V216.974C96.0273 216.974 96.0273 216.974 95.8706 216.817V216.66L95.714 216.503C95.5573 216.346 95.4007 216.346 95.4007 216.346C95.244 216.346 95.0874 216.346 94.9307 216.503C94.774 216.66 94.6174 216.66 94.4607 216.817L92.5809 217.446V217.289C92.4243 217.132 92.4243 216.974 92.4243 216.974C92.4243 216.817 92.4243 216.817 92.4243 216.817V216.66L92.2676 216.503C92.111 216.346 91.9543 216.346 91.7977 216.346C91.641 216.346 91.641 216.346 91.641 216.346C91.641 216.346 91.641 216.346 91.4844 216.346C91.4844 216.346 91.3277 216.503 91.1711 216.503C91.1711 216.817 91.3277 217.289 91.3277 217.603C91.1711 217.76 91.1711 217.917 91.0144 217.917C90.8578 218.074 90.8578 218.074 90.8578 218.231C90.8578 218.388 90.8578 218.388 91.0144 218.546V218.703C91.0144 218.86 91.0144 218.86 90.8578 219.017C90.7011 219.174 90.7011 219.174 90.7011 219.174C90.5445 219.174 90.3878 219.331 90.3878 219.331L90.2312 219.488C90.0745 219.645 89.9179 219.645 89.9179 219.802C89.7612 219.96 89.7612 219.96 89.6046 220.117C89.4479 220.117 89.2913 220.274 89.1346 220.274C88.8213 219.96 88.6647 219.96 88.508 219.96C88.3513 219.96 88.1947 219.96 88.038 220.117C87.8814 220.274 87.7247 220.431 87.5681 220.588C87.5681 220.902 87.2548 221.216 87.0981 221.531C86.7848 221.845 86.4715 222.002 86.1582 222.002C86.1582 222.002 86.1582 222.002 86.0016 222.002H85.8449H85.6883C85.6883 222.002 85.6883 222.002 85.5316 222.159C85.5316 222.316 85.375 222.473 85.375 222.631C85.375 222.788 85.2183 222.945 85.0617 222.945H84.905L84.7484 223.102C84.5917 223.259 84.4351 223.416 84.4351 223.73C84.2784 223.887 84.2784 224.045 84.1218 224.045H83.9651L82.7119 223.102C82.7119 222.945 82.7119 222.788 82.7119 222.788C82.7119 222.788 82.7119 222.631 82.5553 222.631C82.5553 222.473 82.5553 222.159 82.5553 222.002C82.5553 221.845 82.5553 221.531 82.3986 221.374L82.242 221.216C82.0853 221.374 82.0853 221.374 81.9286 221.374C81.772 221.531 81.772 221.531 81.6153 221.531C81.4587 221.531 81.302 221.374 80.9887 221.374C80.8321 221.216 80.8321 221.216 80.8321 221.059C80.8321 220.902 80.8321 220.902 80.8321 220.745C80.8321 220.588 80.8321 220.431 80.8321 220.117L80.3621 219.645V219.017L79.8922 218.86V219.017C79.8922 219.174 79.7355 219.174 79.7355 219.331C79.7355 219.331 79.5789 219.488 79.4222 219.488C79.2656 219.488 79.1089 219.331 78.9523 219.174C78.7956 219.017 78.639 219.017 78.4823 219.017L78.0124 219.331C78.0124 219.488 77.8557 219.488 77.8557 219.488C77.8557 219.488 78.0124 219.645 78.169 219.802C78.3257 219.802 78.4823 219.96 78.639 219.96C78.7956 220.117 79.1089 220.274 79.2656 220.431C79.4222 220.588 79.4222 220.745 79.4222 220.902C79.4222 221.059 79.4222 221.059 79.2656 221.216C79.2656 221.374 79.2656 221.531 79.4222 221.845C79.4222 222.002 79.5789 222.316 79.5789 222.473C79.5789 222.631 79.5789 222.788 79.4222 222.945C79.2656 223.102 79.1089 223.259 78.9523 223.416C78.639 223.573 78.4823 223.573 78.169 223.573C78.0124 223.573 77.6991 223.73 77.5424 223.887C77.5424 223.887 77.5424 223.887 77.3858 224.045C77.3858 224.045 77.2291 224.045 77.2291 224.202C77.0725 224.202 77.0725 224.202 76.9158 224.045C76.9158 223.887 76.7592 223.887 76.7592 223.73C76.7592 223.573 76.7592 223.259 76.7592 223.102C76.7592 222.945 76.7592 222.788 76.7592 222.788C76.9158 222.316 77.0725 222.002 77.0725 221.688C77.0725 221.374 76.9158 220.902 76.7592 220.431C76.6025 220.274 76.6025 220.117 76.6025 220.117C76.6025 219.96 76.6025 219.645 76.6025 219.488C76.6025 219.331 76.6025 219.331 76.6025 219.174L75.1926 219.96C75.036 219.96 75.036 219.802 75.036 219.802V219.645C75.036 219.488 75.036 219.331 75.036 219.331V219.174L74.4094 218.703C74.4094 218.546 74.4094 218.388 74.2527 218.231V216.974C74.4094 216.974 74.4094 216.817 74.566 216.817C74.7227 216.66 74.7227 216.66 74.8793 216.503V216.346V216.189L75.6626 215.875C75.6626 215.875 75.6626 215.875 75.6626 215.717C75.6626 215.717 75.6626 215.56 75.6626 215.403C75.6626 215.246 75.6626 214.932 75.6626 214.775C75.6626 214.618 75.506 214.461 75.506 214.461C75.3493 214.303 75.1926 214.303 75.036 214.146C74.8793 213.989 74.8793 213.832 74.8793 213.518V213.361H75.036C75.036 213.361 75.036 213.361 75.036 213.204C75.036 213.047 75.1926 212.889 75.1926 212.889V212.732C75.3493 212.418 75.3493 212.261 75.3493 212.261C75.3493 212.104 75.3493 212.104 75.3493 212.104L75.1926 211.947C75.036 211.79 74.7227 211.79 74.4094 211.475V211.318C74.4094 211.161 74.4094 211.161 74.4094 211.004C74.4094 210.847 74.2527 210.847 74.2527 210.847C74.0961 210.69 73.9394 210.69 73.6261 210.533H73.4695C73.3128 210.533 73.3128 210.533 73.1562 210.533C72.9995 210.533 72.9995 210.533 72.8429 210.533C72.6862 210.533 72.5296 210.533 72.5296 210.376C72.5296 210.218 72.3729 210.218 72.3729 210.061C72.3729 209.904 72.2163 209.904 72.2163 209.904C72.2163 209.904 72.2163 209.904 72.0596 209.904C72.0596 209.904 71.903 209.904 71.903 210.061C71.7463 210.061 71.7463 210.061 71.5897 210.061C71.433 210.061 71.433 209.904 71.433 209.904C71.433 209.904 71.433 209.747 71.2764 209.747V209.59C71.2764 209.433 71.433 209.276 71.5897 209.119C71.7463 208.962 71.7463 208.804 71.7463 208.804C71.5897 208.804 71.5897 208.962 71.433 209.119C71.2764 209.276 71.2764 209.433 71.2764 209.433L70.6498 209.904C70.6498 210.219 70.4931 210.376 70.4931 210.69C70.3365 210.847 70.1798 211.004 69.8665 211.161C69.5532 211.004 69.2399 211.004 68.9266 210.847C68.6133 210.69 68.6133 210.69 68.4566 210.533C68.4566 210.376 68.3 210.376 68.3 210.219C68.3 210.061 68.3 209.904 68.3 209.747C68.3 209.59 68.3 209.59 68.3 209.433C68.3 209.276 68.3 209.119 68.3 208.804L68.4566 208.647H68.6133C68.7699 208.647 68.7699 208.647 68.7699 208.647C68.7699 208.647 68.7699 208.647 68.9266 208.647C69.0832 208.647 69.0832 208.49 69.2399 208.49C69.3966 208.333 69.7099 208.176 69.8665 208.019C70.0232 207.862 70.0232 207.862 70.0232 207.862L70.3365 207.233L71.2764 206.919L71.433 205.976V205.819C71.433 205.662 71.433 205.505 71.433 205.348C71.433 204.877 71.2764 204.405 71.1197 203.934C70.9631 203.463 70.8064 202.991 70.8064 202.363C70.6498 202.049 70.4931 201.734 70.3365 201.42L70.4931 200.949C70.6498 200.949 70.8064 200.792 70.8064 200.635C70.8064 200.477 70.9631 200.32 70.9631 200.163C71.1197 200.163 71.1197 200.006 71.2764 200.006L71.433 199.849C71.433 199.849 71.433 199.849 71.433 199.692V199.535C71.5897 199.378 71.5897 199.221 71.5897 199.063C71.5897 198.906 71.5897 198.906 71.433 198.749C71.433 198.749 71.2764 198.592 71.1197 198.592C70.9631 198.592 70.8064 198.749 70.6498 198.906C70.4931 199.063 70.3365 199.221 70.1798 199.221C70.0232 199.378 70.0232 199.378 70.0232 199.378C69.8665 199.378 69.8665 199.535 69.8665 199.535C69.8665 199.692 69.7099 199.692 69.5532 199.849C69.5532 199.849 69.3966 200.006 69.2399 200.006C68.7699 199.692 68.1433 199.378 67.6734 199.221C67.5167 199.063 67.5167 198.906 67.5167 198.749C67.5167 198.592 67.5167 198.435 67.5167 198.435L67.0468 198.592C66.8901 198.749 66.7335 198.749 66.5768 198.906C66.4202 198.906 66.2635 199.063 66.1069 199.063L65.9502 200.006H65.7936V200.163C65.7936 200.163 65.7936 200.32 65.6369 200.32H65.4803C65.3236 200.32 65.3236 200.32 65.167 200.32C65.0103 200.32 64.8537 200.32 64.697 200.32C64.5404 200.32 64.5404 200.32 64.3837 200.32C64.3837 200.32 64.3837 200.477 64.2271 200.477C64.0704 200.949 63.9138 201.263 63.7571 201.577H63.6005C63.6005 201.577 63.6005 201.577 63.6005 201.42V201.263C63.6005 201.106 63.6005 200.949 63.6005 200.635C63.6005 200.477 63.6005 200.477 63.6005 200.32C63.6005 200.32 63.6005 200.163 63.4438 200.163H63.2872C63.1305 200.163 63.1305 200.163 62.9739 200.32C62.9739 200.32 62.9739 200.32 62.9739 200.477C62.9739 200.477 62.9739 200.477 62.9739 200.635C62.9739 200.792 62.9739 200.792 62.9739 200.949C62.8172 201.263 62.6605 201.734 62.6605 202.206C62.6605 202.363 62.6605 202.363 62.6605 202.363C62.6605 202.363 62.6605 202.52 62.8172 202.52V202.677C62.8172 203.305 62.5039 204.091 62.3472 204.72V204.877H61.564C61.564 205.034 61.4073 205.034 61.4073 205.191C61.2507 205.348 61.2507 205.348 61.094 205.348C60.9374 205.348 60.7807 205.348 60.6241 205.191C60.4674 205.191 60.3108 205.034 60.1541 205.034C59.9975 204.877 59.8408 204.877 59.6842 204.877C59.5275 204.877 59.2142 205.034 58.9009 205.034C58.7443 205.034 58.7443 205.034 58.5876 205.034C58.431 204.72 58.2743 204.72 58.1177 204.562C57.961 204.405 57.6477 204.562 57.4911 204.405C57.3344 204.405 57.1778 204.248 57.0211 204.248V204.091C57.0211 203.934 57.1778 203.777 57.1778 203.62C57.1778 203.463 57.3344 203.305 57.3344 203.305V203.148C57.3344 203.148 57.1778 203.148 57.1778 202.991L57.0211 202.834C57.0211 202.677 57.0211 202.677 57.0211 202.677C57.0211 202.677 57.0211 202.52 57.1778 202.52C57.1778 202.363 57.3344 202.206 57.3344 202.206C57.3344 202.049 57.3344 202.049 57.1778 201.891V201.734V201.577C57.3344 201.42 57.3344 201.42 57.4911 201.42C57.4911 201.42 57.4911 201.42 57.4911 201.263C57.4911 201.263 57.4911 201.263 57.4911 201.106C57.4911 201.106 57.4911 200.949 57.4911 200.792C57.3344 200.792 57.3344 200.792 57.3344 200.635C57.1778 200.635 57.1778 200.477 57.0211 200.477V200.32V200.163H57.1778C57.3344 200.163 57.3344 200.006 57.4911 200.006C57.4911 200.006 57.6477 200.006 57.6477 199.849C57.6477 199.849 57.6477 199.849 57.6477 199.692C57.6477 199.692 57.6477 199.535 57.6477 199.378C57.4911 199.221 57.4911 199.221 57.3344 199.063C57.1778 199.063 57.1778 199.063 57.0211 199.063C56.8645 199.063 56.5512 199.221 56.2379 199.221H56.0812V199.063C55.9245 198.906 55.9245 198.749 55.9245 198.435C55.9245 198.121 55.9245 197.807 55.9245 197.649C55.9245 197.492 55.9245 197.335 55.9245 197.335C55.6112 197.178 55.4546 197.021 55.2979 197.021C55.1413 197.021 55.1413 197.021 55.1413 197.178C55.1413 197.178 54.9846 197.335 54.9846 197.492C54.828 197.806 54.828 198.121 54.5147 198.435C54.358 198.435 54.2014 198.435 54.0447 198.278C53.8881 198.278 53.7314 198.121 53.7314 197.964C53.7314 197.807 53.7314 197.649 53.7314 197.492C53.7314 197.335 53.7314 197.178 53.5748 197.021C53.4181 196.864 53.4181 196.707 53.2615 196.55C53.1048 196.392 53.1048 196.078 53.1048 196.078C53.1048 195.921 53.1048 195.921 53.1048 195.921C53.1048 195.921 53.1048 195.764 53.2615 195.764C53.4181 195.607 53.5748 195.607 53.5748 195.607C53.5748 195.607 53.8881 195.607 54.0447 195.607C54.2014 195.764 54.2014 195.921 54.358 196.078C54.5147 196.235 54.5147 196.235 54.6713 196.235C54.6713 196.235 54.6713 196.235 54.828 196.235L54.9846 196.078V195.921C54.9846 195.764 54.9846 195.607 54.828 195.45C54.6713 195.293 54.6713 195.293 54.5147 195.136C54.5147 194.978 54.358 194.978 54.358 194.821C54.358 194.664 54.5147 194.507 54.5147 194.193L55.2979 193.879C55.2979 193.564 55.2979 193.407 55.1413 193.407C55.1413 193.25 54.9846 193.25 54.9846 193.093C54.9846 193.093 54.9846 193.093 54.828 193.093C54.6713 193.093 54.5147 193.093 54.358 193.093C54.2014 193.093 54.2014 193.093 54.0447 193.093C53.7314 192.936 53.7314 192.936 53.5748 192.779C53.4181 192.622 53.4181 192.622 53.2615 192.622H53.1048C52.9482 192.622 52.7915 192.622 52.6349 192.779V192.936C52.6349 193.093 52.4782 193.25 52.4782 193.407C52.4782 193.564 52.3216 193.564 52.1649 193.564C52.0083 193.564 51.8516 193.564 51.695 193.564C51.5383 193.564 51.5383 193.564 51.3817 193.564C51.3817 193.407 51.225 193.093 51.225 192.936C51.225 192.622 51.225 192.308 51.225 192.15C51.225 191.993 51.225 191.679 51.0684 191.522L50.4418 190.736C50.2851 190.579 50.2851 190.579 50.1284 190.422C50.1284 190.265 49.9718 190.108 49.9718 189.951C49.9718 189.637 49.9718 189.322 49.8151 189.165C49.8151 189.008 49.6585 188.694 49.3452 188.38C49.1885 188.065 49.0319 187.751 48.8752 187.594L48.5619 186.494C48.4053 186.337 48.4053 186.337 48.4053 186.18C48.4053 186.023 48.4053 185.866 48.4053 185.866C48.4053 185.709 48.4053 185.552 48.4053 185.237C48.4053 185.08 48.4053 184.923 48.2486 184.766C48.2486 184.609 48.2486 184.452 48.2486 184.295C48.2486 183.98 48.2486 183.823 48.2486 183.509C48.2486 183.352 48.2486 183.195 48.2486 183.038C47.9353 182.881 47.622 182.881 47.3087 182.566V182.095C47.1521 181.938 47.1521 181.781 47.1521 181.624C47.1521 181.467 46.9954 181.467 46.9954 181.467H46.8388C46.6821 181.467 46.6821 181.624 46.5255 181.624L45.7422 182.724C45.5856 182.724 45.5856 182.724 45.4289 182.724C45.2723 182.724 45.1156 182.724 44.959 182.566C44.8023 182.566 44.6457 182.409 44.6457 182.409H44.489L44.3323 182.566C44.1757 182.566 44.019 182.724 43.8624 182.724C43.7057 182.724 43.5491 182.724 43.3924 182.566V182.409C43.3924 182.252 43.3924 182.252 43.5491 182.095L43.7057 181.938C43.8624 181.781 43.8624 181.781 44.019 181.624V181.467C44.019 181.467 44.019 181.467 44.019 181.31C44.019 181.31 44.019 181.31 43.8624 181.31H43.7057C43.5491 181.31 43.3924 181.31 43.0791 181.152C42.9225 181.152 42.7658 180.995 42.7658 180.995C42.7658 180.995 42.7658 180.838 42.7658 180.681C42.7658 180.524 42.7658 180.367 42.9225 180.21V179.267H42.7658C42.6092 179.267 42.4525 179.11 42.2959 179.11C41.9826 178.953 41.8259 178.796 41.6693 178.796H41.5126C41.356 178.796 41.1993 178.796 41.0427 178.639C40.886 178.481 40.7294 178.481 40.5727 178.324C40.2594 178.167 39.9461 177.853 39.7895 177.696C39.4762 177.696 39.3195 177.539 39.1629 177.539C39.0062 177.539 39.0062 177.539 39.0062 177.539C39.0062 177.539 38.8496 177.539 38.8496 177.696C38.6929 177.853 38.6929 178.01 38.5363 178.324C38.5363 178.324 38.5363 178.324 38.3796 178.324V178.481H38.223C37.9096 178.481 37.5963 178.167 37.4397 178.01C37.1264 177.853 36.9697 177.539 36.8131 177.382C36.4998 177.067 36.1865 176.91 35.7165 176.439C35.7165 175.968 35.5599 175.653 35.5599 175.339C35.4032 175.025 35.4032 174.711 35.0899 174.397C34.62 174.082 34.3067 173.768 33.9934 173.297C33.6801 172.825 33.5234 172.354 33.3668 171.883C33.2101 171.726 33.2101 171.568 33.2101 171.568C33.2101 171.411 33.0535 171.411 33.0535 171.254C33.0535 171.097 33.0535 170.94 33.0535 170.626C33.0535 170.469 33.0535 170.154 32.8968 169.997C32.8968 169.84 32.7402 169.84 32.7402 169.84C32.7402 169.84 32.7402 169.84 32.5835 169.84C32.2702 169.84 31.9569 169.683 31.6436 169.526C31.3303 169.369 31.1736 169.055 31.1736 168.74L31.017 168.583L30.8603 168.426L29.4505 167.798C29.1372 166.698 28.9805 165.755 28.9805 164.655C28.8239 164.341 28.6672 164.027 28.6672 163.713C28.6672 163.399 28.5106 163.084 28.3539 162.927C28.1973 162.77 28.1973 162.456 28.1973 162.299C28.1973 162.142 28.1973 161.985 28.0406 161.827C27.884 161.513 27.7273 161.356 27.5707 161.042C27.414 160.728 27.2574 160.256 27.2574 159.785C27.1007 159.471 27.1007 159.156 27.1007 158.842C27.1007 158.528 27.1007 158.214 26.9441 157.9C26.9441 157.585 26.7874 157.428 26.7874 157.114C26.7874 156.957 26.7874 156.8 26.7874 156.486C26.7874 156.171 26.7874 155.857 26.4741 155.543V153.5C26.4741 153.343 26.4741 153.343 26.4741 153.186C26.4741 153.029 26.4741 152.872 26.4741 152.872C26.4741 152.715 26.4741 152.715 26.4741 152.558C26.4741 152.401 26.4741 152.401 26.3175 152.243C26.3175 152.243 26.3175 152.243 26.3175 152.086C26.3175 152.086 26.3175 151.929 26.3175 151.772C26.3175 151.615 26.3175 151.301 26.3175 151.144C26.3175 150.987 26.3175 150.987 26.3175 150.829L26.1608 150.672L26.0042 150.515L26.3175 150.044C26.4741 149.887 26.6308 149.887 26.7874 149.887C26.9441 149.887 26.9441 149.73 26.9441 149.73C26.9441 149.73 26.9441 149.573 26.9441 149.415C26.9441 149.258 26.9441 149.258 26.9441 149.101C26.9441 148.944 26.9441 148.63 26.9441 148.473V148.316V148.158H27.1007C27.1007 148.158 27.1007 148.158 27.1007 148.001C27.1007 147.844 27.1007 147.844 27.1007 147.687C27.1007 147.53 27.1007 147.53 27.1007 147.373V147.216V147.059C27.1007 146.902 27.1007 146.744 27.1007 146.587C27.1007 146.43 27.1007 146.273 27.1007 146.116C27.1007 145.959 27.1007 145.959 27.1007 145.802V145.645H27.2574C27.2574 145.645 27.2574 145.645 27.414 145.645C27.5707 145.645 27.5707 145.645 27.7273 145.645H27.884H28.0406C28.0406 145.645 28.0406 145.488 28.1973 145.488L28.5106 145.016L28.6672 144.859C28.8239 144.702 28.8239 144.545 28.9805 144.388C29.1372 144.074 29.2938 143.602 29.2938 143.445C29.4505 143.288 29.6071 143.131 29.7638 143.131C29.9204 142.974 30.0771 142.817 30.0771 142.66L30.2337 142.502C30.2337 142.345 30.2337 142.345 30.2337 142.188V142.031C30.2337 141.874 30.2337 141.874 30.2337 141.717C30.2337 141.56 30.2337 141.56 30.3904 141.56L30.0771 140.617C30.0771 140.617 30.0771 140.303 30.2337 140.146C30.2337 139.831 30.3904 139.674 30.3904 139.517C30.3904 139.517 30.3904 139.517 30.3904 139.36V139.203C30.3904 139.046 30.2337 139.046 30.2337 138.889C30.0771 138.732 29.7638 138.575 29.6071 138.417L29.4505 138.26C29.4505 138.103 29.2938 138.103 29.2938 137.946C29.1372 137.789 28.9805 137.475 28.9805 137.161C28.8239 136.689 28.5106 136.061 28.5106 135.904C28.5106 135.746 28.5106 135.589 28.3539 135.432C28.1973 135.275 28.1973 135.118 28.0406 134.961C25.6909 133.704 25.3775 133.547 25.0642 133.547C24.7509 133.547 24.5943 133.547 24.281 133.547C24.1243 133.547 23.9677 133.547 23.811 133.39C23.811 133.39 23.811 133.39 23.6544 133.233C23.6544 133.233 23.4977 133.233 23.4977 133.076L23.1844 133.233H23.0278V133.076C23.0278 132.918 23.0278 132.918 23.0278 132.761C23.0278 132.447 23.0278 131.976 23.0278 131.504C23.0278 131.347 23.0278 131.19 23.0278 131.19C23.0278 131.033 23.0278 131.033 22.8711 131.033H22.7145C22.5578 131.033 22.5578 131.033 22.4012 131.19C22.2445 131.19 22.0879 131.347 22.0879 131.347C21.9312 131.347 21.9312 131.347 21.7746 131.347C21.6179 131.19 21.6179 131.033 21.6179 131.033C21.6179 130.876 21.6179 130.719 21.7746 130.562C21.9312 130.405 21.9312 130.248 21.9312 130.09C21.9312 130.09 22.0879 130.09 22.0879 129.933H22.2445C22.4012 129.933 22.5578 129.933 22.7145 129.933H22.8711C22.8711 129.776 23.0278 129.776 23.0278 129.619C23.0278 129.462 23.1844 129.462 23.3411 129.462H23.4977C23.6544 129.462 23.6544 129.462 23.811 129.462C23.811 129.462 23.811 129.462 23.9677 129.462L25.2209 129.619L25.5342 128.676C25.5342 128.676 25.6909 128.519 25.8475 128.519C26.0042 128.519 26.1608 128.519 26.1608 128.519C26.3175 128.519 26.3175 128.519 26.4741 128.676C26.6308 128.833 27.1007 128.991 27.414 128.991C27.884 128.991 28.5106 128.833 28.8239 128.676H28.9805C28.9805 128.362 28.9805 128.048 29.1372 127.734C29.2938 127.419 29.2938 127.262 29.6071 126.948H30.2337V126.791C30.2337 126.634 30.2337 126.634 30.2337 126.477C30.2337 126.32 30.2337 126.163 30.2337 126.163V126.005H30.3904C30.3904 126.005 30.3904 126.005 30.547 126.005C30.7037 125.691 30.8603 125.377 31.1736 125.377C31.3303 125.22 31.6436 125.22 31.8002 125.22C31.9569 125.22 31.9569 125.063 32.1136 124.906H32.2702C32.4269 124.906 32.4269 124.906 32.5835 124.906C32.7402 124.591 32.8968 124.12 32.8968 123.649C32.8968 123.492 32.8968 123.334 32.7402 123.177C32.7402 123.02 32.5835 123.02 32.4269 122.863H32.2702V122.706C32.2702 122.549 32.4269 122.392 32.5835 122.392C32.7402 122.392 32.7402 122.235 32.8968 122.235C33.0535 121.92 33.3668 121.606 33.5234 121.449C33.8367 121.135 34.15 120.978 34.4633 120.978C34.62 120.821 34.7766 120.664 34.9333 120.506C35.0899 120.349 35.2466 120.035 35.4032 119.878C35.5599 119.564 35.5599 119.407 35.7165 119.25C35.8732 119.092 36.0298 118.778 36.1865 118.621H36.3431C36.4998 118.621 36.6564 118.621 36.8131 118.464C36.9697 118.307 37.1264 118.307 37.283 118.15C37.283 118.15 37.283 118.15 37.283 117.993C37.283 117.835 37.283 117.835 37.4397 117.678C37.4397 117.678 37.4397 117.521 37.5963 117.521C38.0663 117.05 38.223 116.736 38.6929 116.264C38.6929 116.107 38.6929 116.107 38.8496 115.95C38.8496 115.793 38.8496 115.636 39.0062 115.636C39.0062 115.479 39.1629 115.322 39.1629 115.165C39.1629 115.007 39.3195 114.85 39.3195 114.85C39.3195 114.85 39.3195 114.85 39.3195 114.693C39.3195 114.693 39.1629 114.536 38.8496 114.536C38.5363 114.693 38.3796 115.007 38.0663 115.165C37.9096 115.165 37.9097 115.165 37.753 115.165C37.5963 115.165 37.5963 115.007 37.5963 115.007V114.85C37.5963 114.693 37.5963 114.536 37.753 114.379C37.753 114.222 37.9097 114.065 37.9097 113.908C37.9097 113.751 37.9097 113.751 37.753 113.593C37.5963 113.436 37.5963 113.436 37.5963 113.436C37.5963 113.436 37.4397 113.436 37.4397 113.593C37.4397 113.593 37.283 113.751 37.283 113.908C37.1264 114.222 36.9697 114.536 36.8131 114.693C36.6564 114.85 36.6564 115.007 36.4998 115.165C36.4998 115.165 36.3431 115.322 36.1865 115.322C36.0298 115.322 35.8732 115.322 35.8732 115.165C35.7165 115.165 35.7165 115.007 35.7165 114.85V114.693V114.536V114.379H35.0899C34.9333 114.222 34.9333 113.908 34.9333 113.751C34.9333 113.436 34.9333 113.122 34.9333 112.965V112.808C34.7766 112.808 34.62 112.808 34.4633 112.808C34.3067 112.808 33.9934 112.651 33.8367 112.494C33.6801 112.179 33.6801 112.022 33.6801 111.865C33.6801 111.708 33.6801 111.551 33.5234 111.394C33.5234 111.237 33.3668 111.237 33.2101 111.08C32.7402 111.08 32.5835 111.08 32.2702 111.08C32.1136 111.08 32.1136 111.08 31.9569 111.08C31.8003 111.08 31.8002 110.922 31.8002 110.922V110.765C31.8002 110.608 31.8002 110.608 31.8002 110.451C31.8002 110.294 31.8002 110.137 31.8002 109.98C31.8002 109.98 31.8002 109.98 31.8002 109.823C31.8002 109.666 31.8002 109.666 31.8002 109.666C31.8002 109.666 31.8003 109.666 31.9569 109.508C31.9569 109.508 31.9569 109.508 32.1136 109.351C32.2702 109.351 32.2702 109.351 32.4269 109.351C32.5835 109.351 32.8968 109.351 32.8968 109.351H33.0535C33.0535 109.351 33.2101 109.351 33.2101 109.194C33.2101 109.194 33.3668 109.037 33.3668 108.88C33.3668 108.723 33.3668 108.566 33.3668 108.409C33.3668 108.252 33.3668 108.094 33.3668 108.094C33.3668 108.094 33.5234 107.78 33.6801 107.78C33.8367 107.78 33.8367 107.78 33.9934 107.78H34.15C34.62 107.937 35.0899 108.252 35.5599 108.252H35.7165C36.0298 108.094 36.1865 108.094 36.4998 107.937C36.6564 107.623 37.1264 107.152 37.283 106.838C37.283 106.68 37.4397 106.68 37.4397 106.523C37.4397 106.523 37.4397 106.523 37.4397 106.366C37.5963 105.895 37.753 105.423 38.0663 104.952C38.3796 104.481 38.6929 103.852 39.0062 103.695H39.1629H39.3195H39.4762C39.4762 103.695 39.6328 103.695 39.6328 103.538C39.7895 103.381 39.7895 103.224 39.9461 103.224C40.1028 103.067 40.1028 103.067 40.2594 103.067C40.4161 102.91 40.7294 102.91 41.0427 102.91C41.356 102.438 41.6693 101.967 41.8259 101.496C41.9826 101.339 41.9826 101.181 41.9826 101.024C41.9826 100.867 41.9826 100.867 41.8259 100.71C41.8259 100.553 41.6693 100.553 41.5126 100.396L40.7294 98.9818V98.8247C40.7294 98.6676 40.7294 98.5105 40.7294 98.3534C40.7294 98.1962 40.7294 98.0391 40.7294 98.0391C40.7294 97.882 40.886 97.882 40.886 97.882C41.0427 97.7249 41.0427 97.7249 41.1993 97.7249H41.356V97.882C41.5126 98.0391 41.5126 98.1962 41.6693 98.3534C41.6693 98.5105 41.6693 98.5105 41.8259 98.5105C41.8259 98.5105 41.9826 98.5105 41.9826 98.6676L42.1392 98.5105C42.1392 98.3534 42.1392 98.3534 42.2959 98.1962C42.2959 97.882 42.2959 97.7249 42.2959 97.4107C42.6092 96.6251 42.9225 95.9966 43.0791 95.2111C43.3924 94.8969 43.5491 94.4255 43.7057 93.9542V93.7971H43.8624C44.019 93.7971 44.1757 93.7971 44.1757 93.7971C44.3324 93.9542 44.489 94.1113 44.489 94.1113C44.489 94.1113 44.8023 94.1113 44.959 94.2684C45.1156 94.2684 45.1156 94.4255 45.2723 94.4255C45.5856 95.054 45.8989 95.6824 46.0555 96.468C46.2122 96.6251 46.2122 96.6251 46.3688 96.7822C46.5255 96.7822 46.6821 96.9393 46.8388 96.9393C47.1521 96.9393 47.622 96.9393 47.9353 97.0964C48.092 97.2536 48.4053 97.4107 48.4053 97.5678C48.4053 97.5678 48.4053 97.5678 48.5619 97.7249L48.7186 97.882C48.8752 98.0391 48.8752 98.1962 48.8752 98.3534C48.8752 98.5105 49.0319 98.5105 49.0319 98.5105C49.0319 98.5105 49.0319 98.5105 49.1885 98.5105C49.3452 98.5105 49.5018 98.5105 49.5018 98.3534C49.6585 98.3534 49.8151 98.1962 49.9718 98.1962C50.1284 98.1962 50.2851 98.1962 50.4418 98.3534C50.5984 98.5105 50.5984 98.5105 50.7551 98.6676C50.9117 98.6676 50.9117 98.6676 51.0684 98.6676C51.225 98.6676 51.225 98.6676 51.3817 98.6676C51.5383 98.6676 51.5383 98.6676 51.695 98.6676C51.695 98.6676 51.695 98.5105 51.8516 98.5105C51.8516 98.3534 52.0083 98.1962 52.0083 98.0391C52.0083 97.882 52.1649 97.882 52.1649 97.7249C52.3216 97.5678 52.4782 97.5678 52.4782 97.5678C52.6349 97.5678 52.7915 97.5678 52.7915 97.7249C52.9482 97.7249 52.9482 97.882 53.1048 98.0391C53.2615 98.1962 53.5748 98.5105 53.7314 98.5105C53.8881 98.6676 54.0447 98.6676 54.0447 98.6676H54.2014C54.2014 98.6676 54.2014 98.6676 54.358 98.6676C54.358 98.6676 54.5147 98.6676 54.5147 98.5105C54.6713 98.5105 54.828 98.3534 54.9846 98.3534C55.1413 98.3534 55.1413 98.3534 55.2979 98.1962C55.2979 98.1962 55.4546 98.1962 55.6112 98.1962C55.7679 98.1962 55.9245 98.1962 55.9245 98.1962C56.2378 98.1962 56.5511 98.0391 56.5511 98.0391H56.7078C57.0211 97.882 57.1778 97.5678 57.4911 97.2536C57.6477 96.9393 57.961 96.6251 58.2743 96.468C58.431 96.3109 58.7443 96.3109 59.0576 96.3109C59.9975 96.1538 60.7807 96.1538 61.7206 95.9966H62.1906C62.3472 95.9966 62.3472 95.9967 62.3472 96.1538C62.3472 96.1538 62.3472 96.3109 62.5039 96.3109C62.5039 96.468 62.5039 96.6251 62.5039 96.7822C62.5039 97.0964 62.5039 97.2536 62.3472 97.4107C62.3472 97.4107 62.3472 97.4107 62.3472 97.5678C62.3472 97.5678 62.3472 97.7249 62.3472 97.882C62.3472 98.0391 62.5039 98.3534 62.5039 98.3534C62.5039 98.5105 62.6605 98.6676 62.8172 98.8247C62.9738 98.9818 63.1305 99.1389 63.2872 99.296C63.4438 99.4532 63.6005 99.7674 63.7571 99.7674C63.9138 99.9245 64.0704 99.9245 64.3837 99.9245C64.5404 99.9245 64.5404 99.9245 64.697 99.9245C64.8537 99.7674 65.0103 99.7674 65.167 99.7674C65.4803 99.7674 65.6369 99.9245 65.7936 99.9245C65.7936 99.9245 65.7936 99.9245 65.9502 99.9245H66.1069C66.2635 99.9245 66.2635 99.9245 66.4202 99.9245C66.7335 99.7674 67.0468 99.4532 67.3601 99.1389C67.6734 98.8247 67.9867 98.5105 68.3 98.3534C68.4566 98.1962 68.6133 98.1962 68.7699 98.1962C69.0833 98.1962 69.2399 98.3534 69.3965 98.3534C69.5532 98.3534 69.5532 98.3534 69.5532 98.3534C69.8665 98.3534 70.0232 98.1962 70.3365 98.1962C70.4931 98.1962 70.6498 98.1962 70.8064 98.3534C70.9631 98.3534 71.1197 98.5105 71.2764 98.6676L71.1197 99.296C71.1197 99.4532 70.9631 99.4532 70.9631 99.6103C70.9631 99.7674 70.9631 99.7674 71.1197 99.7674C71.1197 99.7674 71.2764 99.9245 71.433 99.9245C71.5897 99.9245 71.5897 100.082 71.7463 100.082V100.239C72.2163 100.867 72.5296 101.653 72.8429 102.281C73.1562 102.281 73.3128 102.438 73.4695 102.753C73.6261 102.91 73.7828 103.224 73.7828 103.381C74.0961 103.695 74.4094 103.852 74.7227 104.167C74.8793 104.481 75.036 104.638 75.1926 104.795C75.3493 104.952 75.6626 104.952 75.8193 105.109C76.2892 105.266 76.7592 105.266 77.3858 105.266C77.3858 105.266 77.3858 105.109 77.5424 104.952C77.6991 104.795 77.6991 104.481 78.0124 104.324C78.169 104.167 78.3257 104.009 78.4823 104.009C78.7956 104.009 79.2656 104.009 79.5789 103.852C79.8922 103.852 80.2055 103.695 80.3621 103.381C80.5188 103.224 80.5188 103.224 80.5188 103.067C80.5188 103.067 80.5188 103.067 80.5188 102.91C80.5188 102.753 80.5188 102.753 80.3621 102.753C80.2055 102.595 80.2055 102.595 80.0488 102.438C80.0488 102.438 79.8922 102.281 79.8922 102.124C79.8922 101.967 79.8922 101.81 80.0488 101.81C80.0488 101.81 80.0488 101.81 80.0488 101.653C80.0488 101.496 80.2055 101.496 80.2055 101.339C80.3621 101.024 80.5188 100.71 80.6754 100.396C80.6754 100.239 80.8321 100.082 80.8321 100.082C80.9887 100.082 81.1454 99.9245 81.302 99.9245C81.4587 99.7674 81.6153 99.7674 81.772 99.7674C81.772 99.7674 81.9286 99.7674 81.9286 99.6103C82.0853 99.4532 82.0853 99.4532 82.242 99.296C82.3986 99.1389 82.3986 99.1389 82.5553 99.1389H82.7119C82.8686 99.1389 83.0252 99.1389 83.1819 99.296V99.4532C83.1819 99.6103 83.1819 99.7674 83.1819 99.9245C83.1819 100.082 83.1819 100.239 83.3385 100.239C83.3385 100.396 83.3385 100.553 83.3385 100.553C83.3385 100.71 83.3385 101.024 83.3385 101.181C83.3385 101.339 83.3385 101.496 83.3385 101.653C83.3385 101.81 83.4952 101.81 83.4952 101.967L84.1218 102.438L84.4351 103.067V103.224C84.4351 103.538 84.4351 103.852 84.4351 104.167C84.4351 104.324 84.4351 104.481 84.5917 104.481C84.5917 104.638 84.7484 104.638 84.905 104.795C84.905 104.795 84.905 104.795 85.0617 104.795C85.2183 104.795 85.2183 104.952 85.375 104.952C85.6883 105.109 86.0016 105.109 86.1582 105.109H86.3149C86.4715 104.952 86.6282 104.952 86.6282 104.952C86.6282 104.952 86.7848 104.795 86.9415 104.638C87.2548 104.167 87.5681 104.009 87.8814 103.852C88.1947 103.695 88.6647 103.538 89.1346 103.538C89.6046 103.695 90.0745 104.009 90.5445 104.167C91.0144 104.481 91.3277 104.638 91.7977 104.638C92.111 104.638 92.2676 104.638 92.5809 104.324C92.7376 104.324 92.7376 104.167 92.8942 104.167C93.0509 104.167 93.2075 104.167 93.3642 104.167C93.5208 104.167 93.8341 104.167 93.9908 104.167C94.1474 104.167 94.3041 104.324 94.4607 104.324C94.4607 104.324 94.4608 104.324 94.6174 104.324C94.7741 104.324 94.9307 104.324 95.244 104.167C95.4007 104.167 95.714 104.009 95.8706 104.009C96.0273 104.009 96.1839 104.009 96.4972 104.167C96.8105 104.324 96.8105 104.638 96.9672 104.795C97.1238 104.795 97.1238 104.952 97.2805 104.952C97.4371 104.952 97.5938 104.952 97.7504 104.795C97.9071 104.638 98.0637 104.638 98.377 104.481C98.5337 104.481 98.5337 104.324 98.6903 104.324C98.6903 104.167 98.847 104.167 98.847 104.009C99.0036 103.695 99.0036 103.381 99.3169 103.224C99.4736 103.067 99.6302 102.91 99.9435 102.91H100.1C100.413 102.91 100.57 103.067 100.883 103.067C101.197 103.224 101.51 103.381 101.667 103.538C101.823 103.695 101.823 103.852 101.98 103.852C102.137 104.167 102.45 104.324 102.763 104.324C103.077 104.481 103.39 104.481 103.703 104.638C103.86 104.795 104.016 104.795 104.173 104.952C104.643 105.109 105.113 105.266 105.27 105.266C105.583 105.266 105.74 105.109 105.896 104.952C106.21 104.795 106.366 104.481 106.836 104.167C106.993 104.009 107.15 103.695 107.15 103.381C107.306 103.067 107.306 102.753 107.619 102.595H107.776H107.933C108.089 102.753 108.246 102.91 108.246 102.91C108.403 103.067 108.403 103.067 108.559 103.067C108.716 103.067 108.716 103.067 108.873 103.067C109.029 103.067 109.186 103.224 109.343 103.224C109.499 103.381 109.499 103.381 109.656 103.381C109.813 103.538 109.969 103.538 109.969 103.538C110.126 103.538 110.439 103.381 110.752 103.381H110.909C111.222 103.695 111.222 104.009 111.222 104.324C111.222 104.638 111.066 105.109 111.066 105.423C110.752 105.895 110.439 106.209 109.969 106.523C109.813 106.68 109.813 106.838 109.656 106.995C109.656 107.152 109.499 107.309 109.499 107.309C109.499 107.466 109.499 107.466 109.656 107.623C109.656 107.78 109.813 107.78 109.969 107.937C110.126 108.094 110.126 108.252 110.126 108.252C110.126 108.566 109.969 108.723 109.969 108.88C109.813 109.037 109.813 109.351 109.813 109.508C109.813 109.666 109.813 109.823 110.126 109.98C110.126 110.294 110.126 110.608 109.969 110.922C109.813 111.237 109.813 111.551 109.499 111.708C109.499 111.708 109.499 111.865 109.343 111.865L109.186 112.022C109.186 112.022 109.186 112.022 109.186 112.179C109.186 112.337 109.186 112.337 109.343 112.494C109.499 112.494 109.499 112.651 109.813 112.651C110.126 112.651 110.596 112.651 111.066 112.808C111.379 112.808 111.692 112.965 111.849 112.965C111.849 113.122 111.849 113.122 111.849 113.279C111.849 113.593 111.692 113.751 111.692 113.908C111.536 114.065 111.536 114.222 111.536 114.379C111.536 114.693 111.692 115.007 111.692 115.479C111.692 115.636 111.692 115.636 111.692 115.793L111.849 115.95C112.006 116.107 112.162 116.264 112.319 116.264H112.476L112.946 115.793C113.102 115.793 113.102 115.636 113.259 115.636C113.416 115.636 113.572 115.636 113.572 115.793C113.729 115.793 113.729 115.95 113.885 116.107C114.042 116.264 114.355 116.579 114.512 116.579C114.669 116.736 114.825 116.736 114.982 116.736C115.139 116.736 115.452 116.736 115.765 116.421C115.922 116.421 115.922 116.421 116.079 116.421C116.235 116.421 116.392 116.421 116.549 116.579V117.364C116.235 117.835 115.765 118.307 115.139 118.621C114.982 118.778 114.982 118.778 114.825 118.935C114.669 119.092 114.669 119.092 114.669 119.25L114.512 119.407C114.512 119.564 114.355 119.564 114.199 119.721C114.199 119.721 114.042 119.878 113.885 119.878C113.729 119.878 113.416 119.878 113.259 119.878C113.102 119.878 112.789 119.878 112.789 120.035C112.789 120.035 112.632 120.192 112.632 120.349C112.476 120.506 112.319 120.506 112.006 120.506C111.692 120.506 111.536 120.506 111.222 120.349C110.909 120.349 110.752 120.192 110.596 120.192H110.439C110.283 120.192 110.283 120.192 110.126 120.192C109.969 120.192 109.813 120.192 109.656 120.349C109.499 120.349 109.499 120.506 109.499 120.506C109.343 120.664 109.343 120.978 109.343 121.449C109.343 121.449 109.343 121.449 109.343 121.606C109.343 121.606 109.343 121.763 109.499 121.92C109.499 122.078 109.656 122.235 109.813 122.235C109.969 122.549 110.283 122.706 110.439 123.02C110.596 123.177 110.596 123.334 110.596 123.492C110.596 123.649 110.439 123.649 110.439 123.649C110.439 123.649 110.283 123.649 110.283 123.806C110.126 123.806 109.969 123.806 109.969 123.963L109.813 124.12C109.343 124.591 109.029 125.063 108.716 125.691C108.559 125.691 108.559 125.691 108.403 125.691C108.089 125.691 107.933 125.534 107.776 125.534C107.619 125.377 107.463 125.377 107.306 125.377H107.15L106.68 126.005H106.523H106.366C105.896 125.534 105.27 125.377 104.486 125.377C104.33 125.377 104.173 125.377 103.86 125.377C103.703 125.534 103.703 125.534 103.547 125.691V125.848C103.547 125.848 103.547 125.848 103.547 126.005L103.703 126.163C103.86 126.32 104.016 126.32 104.173 126.477C104.33 126.634 104.33 126.791 104.33 126.948C104.33 127.105 104.33 127.105 104.33 127.105C104.33 127.262 104.33 127.419 104.486 127.577C104.486 127.734 104.643 127.891 104.8 128.048C104.8 128.205 104.956 128.205 104.956 128.362C104.956 128.519 104.956 128.676 104.8 128.833C104.8 128.991 104.643 129.148 104.643 129.305C104.643 129.462 104.643 129.462 104.643 129.462L106.523 131.976C106.68 131.976 106.68 131.976 106.68 132.133C106.836 132.133 106.836 132.29 106.836 132.29C106.993 132.447 106.993 132.761 106.993 132.918C106.993 133.076 106.993 133.076 106.993 133.233C106.993 133.39 106.836 133.39 106.836 133.39C106.523 133.547 106.366 133.704 106.21 133.861C106.053 134.018 105.896 134.332 105.583 134.49L104.486 135.746L104.33 135.589C104.173 135.432 104.173 135.432 104.016 135.275C103.86 135.275 103.39 135.118 103.077 135.118C102.763 135.118 102.293 135.118 101.823 134.961C101.51 134.804 101.353 134.647 101.197 134.49C100.883 134.332 100.57 134.175 100.413 134.018C100.257 133.861 100.1 133.704 99.9435 133.547C99.7869 133.39 99.7869 133.233 99.6302 132.918C99.6302 132.918 99.6302 132.918 99.6302 132.761V132.604L99.4736 132.447C99.3169 132.29 99.1603 132.133 99.0036 131.976C99.0036 131.819 99.0036 131.662 99.0036 131.504C99.0036 131.19 99.0036 131.033 99.0036 130.719C99.0036 130.562 98.847 130.248 98.6903 130.09H98.5337C98.0637 130.09 97.4371 130.247 96.9672 130.405C96.8105 130.405 96.8105 130.562 96.8105 130.562L96.3406 131.504C96.3406 131.662 96.3406 131.662 96.4972 131.819C96.4972 131.976 96.6539 132.133 96.6539 132.29C96.6539 132.447 96.8105 132.761 96.8105 132.918C96.8105 133.39 96.6539 133.861 96.3406 134.332C96.1839 134.49 96.1839 134.647 96.0273 134.961C96.0273 135.118 95.8706 135.432 95.8706 135.589L95.5573 136.218C95.4007 136.375 95.244 136.375 95.0874 136.532C94.9307 136.689 94.7741 136.846 94.4607 136.846C94.3041 136.846 94.1474 136.689 93.9908 136.532C93.9908 136.532 93.9908 136.532 93.8341 136.375C93.8341 136.375 93.6775 136.218 93.5208 136.061C93.3642 135.904 93.0509 135.746 93.0509 135.589V134.804C93.0509 134.804 93.0509 134.804 93.2075 134.647C93.2075 134.49 93.3642 134.49 93.3642 134.332C93.5208 134.175 93.5208 133.861 93.6775 133.704V133.547L93.8341 132.447V132.29C93.8341 132.29 93.6775 132.29 93.6775 132.133V131.976V131.819C93.6775 131.662 93.6775 131.504 93.6775 131.347C93.6775 131.033 93.6775 130.719 93.6775 130.405C93.6775 130.09 93.8341 129.776 93.9908 129.619C94.1474 129.462 94.1474 129.462 94.4607 129.462C94.6174 129.619 94.7741 129.619 95.0874 129.619C95.714 129.619 96.0273 129.148 96.0273 128.519C96.0273 128.519 96.0273 128.519 95.8706 128.519H95.714C95.5573 128.519 95.4007 128.519 95.244 128.519C95.0874 128.519 95.0874 128.519 94.9307 128.519L94.6174 127.577L93.9908 127.262C93.6775 126.791 93.2075 126.477 92.5809 126.477C91.7977 126.948 90.8578 126.791 90.0745 126.948C89.9179 126.948 89.6046 127.105 89.4479 127.262C89.2913 127.419 88.978 127.419 88.6646 127.419C88.508 127.419 88.508 127.419 88.3514 127.262C88.1947 127.262 88.1947 127.105 88.038 126.948C87.8814 126.791 87.8814 126.634 87.7247 126.634C87.5681 126.477 87.4114 126.477 87.2548 126.477C86.9415 126.32 86.4715 126.32 86.1582 126.163C86.0016 126.163 86.0016 126.163 85.8449 126.163C85.6883 126.163 85.5316 126.163 85.375 126.163C85.2183 126.32 85.2183 126.634 85.0617 126.948C84.905 127.262 84.905 127.734 84.7484 128.048C84.5917 128.205 84.4351 128.362 84.2784 128.519C84.1218 128.676 84.1218 128.676 83.9651 128.833C83.8085 128.991 83.8085 129.148 83.8085 129.305C83.9651 129.619 84.1218 129.933 84.1218 130.247C84.1218 130.405 84.1218 130.562 83.9651 130.719C83.8085 130.876 83.6518 131.033 83.4952 131.347C83.1819 131.662 83.0252 131.819 82.7119 131.976C82.5553 132.133 82.3986 132.133 82.0853 132.133C82.0853 132.133 82.0853 132.133 81.9286 132.133C81.9286 132.29 81.772 132.604 81.772 132.761C81.4587 132.918 81.4587 133.076 81.4587 133.233C81.6153 133.547 81.772 133.861 81.772 134.018C81.9287 134.332 81.9287 134.49 82.0853 134.804C82.3986 134.961 82.5553 134.961 82.7119 135.118C82.8686 135.275 82.8686 135.432 82.8686 135.589C82.8686 135.746 82.8686 136.061 82.7119 136.375C82.3986 136.532 82.242 136.846 81.9286 137.003C81.6153 137.161 81.4587 137.475 81.4587 137.789C81.4587 137.946 81.302 138.103 81.302 138.26C81.302 138.417 81.1454 138.417 81.1454 138.575C81.1454 138.575 81.1454 138.575 81.302 138.732C81.302 138.732 81.4587 138.732 81.4587 138.889C81.6153 138.889 81.772 139.046 81.9286 139.203C82.0853 139.36 82.242 139.517 82.3986 139.831C82.5553 139.989 82.7119 140.146 82.8686 140.46C83.6518 140.931 84.5917 141.245 85.375 141.56C85.5316 141.56 85.6883 141.56 85.8449 141.717C86.0016 141.874 86.0016 141.874 86.1582 142.031C86.3149 142.188 86.3149 142.502 86.4715 142.66C86.6282 142.817 86.6282 142.817 86.9415 142.817H87.0981L87.2548 142.66C87.4114 142.66 87.5681 142.66 87.7247 142.817C87.8814 142.974 87.8814 142.974 88.038 143.131C88.1947 143.445 88.1947 143.759 88.1947 143.916C88.1947 144.074 88.3514 144.231 88.3514 144.388C88.508 144.545 88.6646 144.702 88.978 144.859C89.2913 145.016 89.6046 145.016 89.7612 145.173C90.2312 145.645 90.3878 145.959 90.5445 146.43C90.7011 146.902 90.5445 147.216 90.7011 147.844C90.8578 147.844 90.8578 147.844 91.0144 147.844C91.3277 147.844 91.4844 147.844 91.7977 148.001C91.9543 148.158 92.2676 148.316 92.4243 148.473C92.5809 148.787 92.7376 149.101 93.0509 149.415C93.3642 149.573 93.6775 149.73 93.9908 149.73C94.1474 149.73 94.4608 149.73 94.6174 149.573L94.7741 149.415C94.7741 149.415 94.774 149.415 94.9307 149.415C95.714 148.63 96.4972 147.687 97.4371 146.902C97.4371 146.902 97.5938 146.744 97.7504 146.744C97.9071 146.744 97.9071 146.744 98.0637 146.744C98.2204 146.744 98.2204 146.744 98.377 146.902C98.5337 146.902 98.6903 147.059 98.847 147.059C98.847 147.059 98.847 147.059 99.0036 147.059C99.1603 146.902 99.1603 146.744 99.3169 146.587C99.4736 146.43 99.6302 146.273 99.7869 146.273C99.9435 146.273 100.1 146.273 100.257 146.273C101.04 146.273 101.667 146.587 102.293 147.059C102.92 147.53 103.39 147.844 104.016 148.001C104.173 148.158 104.173 148.158 104.33 148.158C104.486 148.158 104.643 148.158 104.643 148.001C104.8 148.001 104.956 147.844 104.956 147.844C104.956 147.687 104.956 147.687 105.113 147.53C105.113 147.373 105.27 147.216 105.27 147.216C105.27 147.059 105.426 146.902 105.426 146.744C105.583 146.587 105.583 146.43 105.74 146.43C106.053 146.273 106.21 146.116 106.523 145.959H106.68H106.836C107.306 145.488 107.933 145.33 108.403 145.173C108.716 145.016 108.873 145.016 109.029 144.859C109.343 144.702 109.499 144.545 109.813 144.388C110.126 144.231 110.439 143.916 110.596 143.759C110.752 143.602 110.909 143.602 111.222 143.445C111.379 143.445 111.692 143.602 112.006 143.759C112.319 143.916 112.632 144.074 112.789 144.074H112.946C113.259 144.074 113.416 144.074 113.572 144.074C113.729 144.074 113.886 144.074 114.042 143.916C114.042 143.916 114.199 143.759 114.355 143.602C114.355 143.131 114.669 142.659 114.825 142.345C115.139 142.031 115.452 141.717 115.609 141.403C115.765 141.245 115.922 140.931 116.079 140.774C116.235 140.617 116.549 140.46 116.705 140.303C116.862 140.303 117.019 140.146 117.175 139.989C117.332 139.831 117.332 139.674 117.332 139.517C117.488 139.203 117.488 138.732 117.488 138.417V138.26L118.272 137.789C118.428 137.632 118.585 137.475 118.585 137.318C118.742 137.161 118.742 136.846 118.898 136.689C119.055 136.532 119.055 136.532 119.212 136.375H119.368C119.525 136.375 119.525 136.375 119.682 136.532L119.838 136.689C119.995 136.846 119.995 137.003 119.995 137.003C120.152 137.161 120.152 137.161 120.308 137.161C120.465 137.161 120.622 137.161 120.778 137.161C120.935 137.161 120.935 137.161 121.091 137.161C121.248 137.318 121.405 137.475 121.561 137.475C121.718 137.475 122.031 137.318 122.345 137.318C122.658 137.161 122.815 137.161 123.128 137.003C123.285 137.003 123.441 136.846 123.598 136.846C123.755 136.846 123.755 136.846 123.911 136.846C124.068 136.846 124.068 137.003 124.068 137.161V137.318C123.911 137.003 123.755 137.161 123.755 137.318Z" fill="white"/>
<path d="M298.577 224.987V208.962H302.807C305.157 208.962 306.41 210.061 306.41 213.675V220.117C306.41 223.73 305 224.83 302.807 224.83H298.577V224.987ZM302.65 232.214C309.856 232.214 313.616 227.815 313.616 219.645V214.146C313.616 205.976 310.013 201.577 302.65 201.577H298.421V188.694H311.423V181.467H291.215V232.057H302.65V232.214Z" fill="white"/>
<path d="M328.811 190.579L332.257 216.189H325.365L328.811 190.579ZM334.45 181.624H323.955L316.592 232.214H323.172L324.425 223.102H333.354L334.607 232.214H341.813L334.45 181.624Z" fill="white"/>
<path d="M379.253 232.214V181.624H372.047V224.987H365.781V181.624H358.575V224.987H352.465V181.624H345.103V232.214H379.253Z" fill="white"/>
<path d="M401.027 232.214H408.39L398.364 204.091L408.39 181.624H401.184L391.785 203.62V181.624H384.579V232.214H391.785V216.66L393.978 212.104L401.027 232.214Z" fill="white"/>
<path d="M411.053 220.117C411.053 228.287 414.969 232.843 422.018 232.843C429.068 232.843 432.984 228.287 432.984 220.117V193.722C432.984 185.552 429.068 180.995 422.018 180.995C414.969 180.995 411.053 185.552 411.053 193.722V220.117ZM418.259 193.25C418.259 189.637 419.669 188.223 422.018 188.223C424.368 188.223 425.778 189.637 425.778 193.25V220.588C425.778 224.202 424.368 225.616 422.018 225.616C419.669 225.616 418.259 224.202 418.259 220.588V193.25Z" fill="white"/>
<path d="M448.336 188.851C450.686 188.851 451.939 189.951 451.939 193.564V201.106C451.939 204.719 450.686 205.819 448.336 205.819H444.89V188.694H448.336V188.851ZM448.336 181.624H437.684V232.214H444.89V213.204H448.336C455.542 213.204 459.145 208.804 459.145 200.634V194.036C459.145 186.023 455.542 181.624 448.336 181.624Z" fill="white"/>
<path d="M460.398 188.851H467.917V232.214H475.123V188.851H482.643V181.624H460.398V188.851Z" fill="white"/>
<path d="M485.306 220.117C485.306 228.287 489.222 232.843 496.271 232.843C503.321 232.843 507.237 228.287 507.237 220.117V193.722C507.237 185.552 503.321 180.995 496.271 180.995C489.222 180.995 485.306 185.552 485.306 193.722V220.117ZM492.512 193.25C492.512 189.637 493.921 188.223 496.271 188.223C498.621 188.223 500.031 189.637 500.031 193.25V220.588C500.031 224.202 498.621 225.616 496.271 225.616C493.921 225.616 492.512 224.202 492.512 220.588V193.25Z" fill="white"/>
<path d="M525.878 213.361V220.588C525.878 224.202 524.468 225.459 522.119 225.459C519.769 225.459 518.359 224.202 518.359 220.588V193.25C518.359 189.637 519.769 188.223 522.119 188.223C524.468 188.223 525.878 189.637 525.878 193.25V198.749H532.771V193.879C532.771 185.709 529.168 181.152 521.962 181.152C514.756 181.152 511.153 185.709 511.153 193.879V220.274C511.153 228.444 514.756 233 521.962 233C529.168 233 532.771 228.444 532.771 220.274V213.518H525.878V213.361Z" fill="white"/>
<path d="M535.121 188.851H542.64V232.214H549.846V188.851H557.365V181.624H535.121V188.851Z" fill="white"/>
<path d="M570.837 190.579L574.284 216.189H567.391L570.837 190.579ZM576.477 181.624H565.981L558.618 232.214H565.198L566.451 223.102H575.38L576.633 232.214H583.839L576.477 181.624Z" fill="white"/>
<path d="M594.492 210.533H602.637V232.214H610V181.624H602.637V203.305H594.492V181.624H587.286V232.214H594.492V210.533Z" fill="white"/>
</svg>
