<svg width="715" height="271" viewBox="0 0 715 271" fill="none" xmlns="http://www.w3.org/2000/svg">
<path d="M0 270.698V100.72H170.424L0 270.698Z" fill="#169BD8"/>
<path d="M0 270.698L170.424 100.72V270.698H0Z" fill="#009640"/>
<path d="M271.324 0H67.6652L0 67.9172H203.143L271.324 0Z" fill="#169BD8"/>
<path d="M271.137 0.185486V203.1L203.151 270.504V67.8913L271.137 0.185486Z" fill="#009640"/>
<path d="M382.069 55.8023H375.53L374.516 47.4022H341.26V0.35376H350.503V39.2049H366.754V0.35376H376.007V39.2049H382.078V55.8023H382.069Z" fill="#169BD8"/>
<path d="M413.046 44.7187C411.694 45.793 409.995 46.6429 407.95 47.2685C405.904 47.8941 403.738 48.2133 401.436 48.2133C398.875 48.2133 396.652 47.8035 394.763 46.9708C392.873 46.1381 391.317 44.9517 390.108 43.4114C388.899 41.8582 387.989 40.0203 387.404 37.8674C386.823 35.7188 386.52 33.2985 386.52 30.6063C386.52 24.8681 387.807 20.502 390.368 17.4992C392.929 14.4963 396.6 12.9949 401.367 12.9949C402.897 12.9949 404.427 13.1632 405.956 13.4997C407.486 13.8362 408.856 14.4705 410.078 15.4153C411.287 16.3602 412.283 17.6847 413.042 19.4148C413.813 21.1362 414.186 23.4142 414.186 26.2401C414.186 27.7156 414.047 29.3508 413.783 31.1456H392.128C392.128 33.1173 392.336 34.8646 392.739 36.3876C393.142 37.9106 393.77 39.2006 394.624 40.2576C395.478 41.306 396.596 42.1171 397.965 42.678C399.335 43.2388 401.007 43.5193 402.996 43.5193C404.526 43.5193 406.056 43.2475 407.586 42.7082C409.116 42.1775 410.26 41.5476 411.031 40.8314L413.046 44.7187ZM401.445 17.6933C398.789 17.6933 396.669 18.3836 395.075 19.7772C393.48 21.1707 392.522 23.5436 392.214 26.9002H408.947C408.947 23.4875 408.288 21.106 406.983 19.7383C405.67 18.3793 403.829 17.6933 401.445 17.6933Z" fill="#169BD8"/>
<path d="M443.325 32.5391H428.075V47.3893H422.68V13.7802H428.075V27.8278H443.325V13.7802H448.721V47.3893H443.325V32.5391Z" fill="#169BD8"/>
<path d="M480.642 18.5001H470.05V47.4022H464.655V18.5001H454.059V13.7974H480.642V18.5001Z" fill="#169BD8"/>
<path d="M485.955 13.7974H489.66L490.666 17.8357H490.947C491.979 16.2652 493.313 15.0701 494.965 14.2461C496.607 13.4134 498.484 13.0035 500.594 13.0035C505.088 13.0035 508.447 14.3324 510.644 16.9685C512.85 19.6132 513.955 23.9319 513.955 29.9418C513.955 32.7635 513.591 35.3176 512.845 37.5697C512.104 39.8304 511.064 41.746 509.712 43.3165C508.36 44.8869 506.739 46.1036 504.824 46.9449C502.908 47.7862 500.78 48.2262 498.453 48.2262C496.793 48.2262 495.48 48.1227 494.501 47.9199C493.534 47.7128 492.481 47.3677 491.368 46.8845V60.8588H485.972L485.955 13.7974ZM499.589 17.6933C497.3 17.6933 495.48 18.293 494.163 19.4708C492.832 20.6573 491.909 22.4607 491.359 24.8724V41.5389C492.174 42.1645 493.084 42.6434 494.128 42.9886C495.16 43.3165 496.529 43.4934 498.25 43.4934C501.357 43.4934 503.814 42.3457 505.634 40.0246C507.454 37.725 508.373 34.321 508.373 29.8469C508.373 28.0133 508.213 26.3436 507.905 24.8379C507.584 23.3322 507.077 22.0508 506.384 21.0067C505.69 19.9583 504.789 19.1386 503.68 18.5562C502.561 17.9823 501.205 17.6933 499.589 17.6933Z" fill="#169BD8"/>
<path d="M357.043 81.6111L358.395 87.7246H358.798L359.877 81.404L366.962 60.8329H376.479L363.933 93.3635C362.949 95.9133 361.992 98.1309 361.073 100.021C360.146 101.897 359.157 103.459 358.109 104.693C357.056 105.927 355.877 106.842 354.572 107.45C353.268 108.058 351.738 108.356 349.983 108.356C348.501 108.356 347.292 108.252 346.382 108.05C345.455 107.843 344.458 107.415 343.379 106.742L345.732 99.2828C346.503 99.6841 347.197 99.9386 347.825 100.021C348.453 100.115 349.129 100.159 349.853 100.159C351.972 100.159 353.446 98.5062 354.312 95.1841L336.636 60.8416H347.5L357.043 81.6111Z" fill="#169BD8"/>
<path d="M401.025 78.9836H386.121V107.886H380.717V74.2852H406.429V107.886H401.025V78.9836Z" fill="#169BD8"/>
<path d="M416.817 74.2809H420.522L421.527 78.3192H421.8C422.832 76.7487 424.166 75.5537 425.817 74.7296C427.46 73.8969 429.336 73.4871 431.447 73.4871C435.941 73.4871 439.299 74.8159 441.497 77.452C443.702 80.0967 444.807 84.4154 444.807 90.4254C444.807 93.247 444.443 95.8011 443.698 98.0532C442.957 100.314 441.917 102.23 440.565 103.8C439.213 105.37 437.592 106.587 435.676 107.428C433.761 108.278 431.633 108.71 429.306 108.71C427.646 108.71 426.333 108.606 425.354 108.403C424.387 108.196 423.334 107.851 422.221 107.368V121.351H416.825V74.2809H416.817ZM430.433 78.1811C428.145 78.1811 426.324 78.7808 425.007 79.9587C423.677 81.1451 422.754 82.9485 422.203 85.3603V102.027C423.018 102.652 423.928 103.131 424.972 103.476C426.004 103.804 427.373 103.981 429.094 103.981C432.201 103.981 434.658 102.834 436.478 100.512C438.298 98.2129 439.217 94.8088 439.217 90.3348C439.217 88.5012 439.057 86.8315 438.749 85.3258C438.428 83.82 437.921 82.5387 437.228 81.4946C436.535 80.4462 435.633 79.6264 434.524 79.044C433.427 78.4702 432.067 78.1811 430.433 78.1811Z" fill="#169BD8"/>
<path d="M452.773 76.7703C454.48 75.7435 456.469 74.9842 458.749 74.488C461.019 74.0005 463.394 73.7502 465.869 73.7502C468.205 73.7502 470.081 74.0695 471.498 74.6951C472.915 75.3207 473.994 76.1447 474.735 77.1457C475.476 78.1466 475.975 79.2684 476.217 80.4721C476.469 81.6758 476.581 82.8924 476.581 84.1005C476.581 86.7927 476.516 89.4115 476.373 91.9699C476.23 94.5284 476.165 96.9444 476.165 99.2311C476.165 100.883 476.23 102.454 476.373 103.942C476.512 105.427 476.75 106.794 477.114 108.045H473.136L471.719 103.334H471.39C470.987 103.96 470.48 104.577 469.869 105.185C469.258 105.793 468.525 106.324 467.672 106.794C466.818 107.26 465.834 107.661 464.707 107.972C463.581 108.291 462.307 108.438 460.859 108.438C459.412 108.438 458.081 108.214 456.842 107.765C455.602 107.316 454.545 106.682 453.631 105.849C452.729 105.017 452.027 104.029 451.499 102.859C450.983 101.699 450.719 100.374 450.719 98.8945C450.719 96.9229 451.121 95.2791 451.928 93.9589C452.742 92.643 453.869 91.586 455.334 90.8007C456.799 90.0155 458.554 89.4546 460.599 89.1267C462.645 88.7989 464.907 88.622 467.373 88.622C468.001 88.622 468.621 88.622 469.232 88.622C469.843 88.622 470.449 88.6694 471.091 88.76C471.229 87.4139 471.299 86.2102 471.299 85.1316C471.299 82.6724 470.8 80.9423 469.817 79.9543C468.833 78.975 467.022 78.4788 464.421 78.4788C463.65 78.4788 462.835 78.5349 461.964 78.6557C461.08 78.7765 460.192 78.9361 459.26 79.1432C458.333 79.3503 457.457 79.6006 456.625 79.9112C455.789 80.2089 455.056 80.5454 454.428 80.9121L452.773 76.7703ZM462.354 103.718C463.611 103.718 464.738 103.55 465.734 103.213C466.718 102.885 467.572 102.445 468.296 101.932C469.019 101.418 469.609 100.849 470.077 100.223C470.545 99.5978 470.904 98.9895 471.117 98.4113V92.8199C470.488 92.7724 469.843 92.7465 469.193 92.7163C468.534 92.6991 467.897 92.6775 467.269 92.6775C465.869 92.6775 464.508 92.7638 463.186 92.9191C461.856 93.0787 460.69 93.3678 459.685 93.7992C458.679 94.2177 457.865 94.8002 457.254 95.5466C456.643 96.293 456.344 97.2119 456.344 98.3423C456.344 99.9127 456.907 101.203 458.025 102.212C459.165 103.213 460.599 103.718 462.354 103.718Z" fill="#169BD8"/>
<path d="M486.761 74.35C488.339 74.2551 489.99 74.1429 491.714 74.0221C493.439 73.884 495.597 73.815 498.163 73.815C502.622 73.815 505.812 74.4967 507.744 75.873C509.677 77.2363 510.644 79.3115 510.644 82.09C510.644 83.6605 510.184 85.1921 509.257 86.6978C508.329 88.2035 506.817 89.3037 504.707 90.0242V90.296C507.363 90.7921 509.231 91.7068 510.31 93.0529C511.389 94.399 511.922 96.1851 511.922 98.4373C511.922 101.932 510.665 104.464 508.139 106.026C505.625 107.597 501.842 108.373 496.802 108.373C494.917 108.373 493.162 108.317 491.537 108.205C489.925 108.093 488.317 107.963 486.752 107.843V74.35H486.761ZM498.774 88.4624C499.589 88.4624 500.369 88.3243 501.127 88.0611C501.898 87.7893 502.583 87.4269 503.19 86.9567C503.801 86.4907 504.286 85.9385 504.672 85.3129C505.058 84.6873 505.244 84.0142 505.244 83.2937C505.244 81.5076 504.711 80.265 503.632 79.5661C502.553 78.8758 500.668 78.5306 497.963 78.5306C496.52 78.5306 495.385 78.5608 494.557 78.5954C493.721 78.6428 492.932 78.6903 492.165 78.7334V88.4839H498.77V88.4624H498.774ZM492.165 103.382C493.019 103.476 493.864 103.541 494.7 103.589C495.537 103.636 496.512 103.653 497.63 103.653C500.642 103.653 502.886 103.235 504.338 102.372C505.803 101.522 506.535 100.072 506.535 98.0058C506.535 96.3965 505.916 95.0893 504.676 94.0711C503.437 93.0701 501.244 92.5567 498.098 92.5567H492.156V103.382H492.165Z" fill="#169BD8"/>
<path d="M538.578 78.9966H528.793C528.654 80.8733 528.52 82.9054 528.39 85.0712C528.26 87.2371 528.06 89.4158 527.779 91.5946C527.506 93.7734 527.15 95.8486 526.7 97.8462C526.249 99.848 525.677 101.595 524.984 103.127C524.29 104.65 523.428 105.875 522.422 106.79C521.417 107.713 520.208 108.175 518.821 108.175C517.967 108.175 517.226 108.127 516.598 108.037C515.97 107.942 515.406 107.787 514.917 107.571L515.731 103.067C516.264 103.243 516.858 103.338 517.486 103.338C518.388 103.338 519.194 102.963 519.918 102.199C520.641 101.431 521.27 99.9861 521.803 97.8634C522.336 95.7321 522.786 92.7897 523.155 89.0319C523.51 85.2654 523.766 80.3686 523.896 74.3112H543.995V107.916H538.6V78.9966H538.578Z" fill="#169BD8"/>
<path d="M578.994 105.194C577.642 106.268 575.943 107.118 573.897 107.743C571.852 108.369 569.685 108.688 567.384 108.688C564.823 108.688 562.6 108.278 560.71 107.446C558.825 106.613 557.265 105.427 556.056 103.886C554.847 102.333 553.937 100.495 553.352 98.3423C552.771 96.1938 552.468 93.7734 552.468 91.0812C552.468 85.3431 553.755 80.9769 556.316 77.9741C558.877 74.9756 562.548 73.4698 567.315 73.4698C568.844 73.4698 570.374 73.6381 571.904 73.9746C573.434 74.3112 574.803 74.9454 576.025 75.8902C577.234 76.8351 578.231 78.1596 578.989 79.8897C579.761 81.6111 580.133 83.8891 580.133 86.715C580.133 88.1906 579.995 89.8257 579.73 91.6205H558.075C558.075 93.5922 558.283 95.3395 558.686 96.8625C559.089 98.3855 559.718 99.6755 560.571 100.733C561.425 101.781 562.543 102.592 563.913 103.153C565.282 103.714 566.955 103.994 568.944 103.994C570.474 103.994 572.003 103.722 573.533 103.183C575.063 102.652 576.207 102.023 576.979 101.306L578.994 105.194ZM567.393 78.1812C564.736 78.1812 562.617 78.8715 561.022 80.265C559.427 81.6586 558.47 84.0315 558.162 87.3881H574.894C574.894 83.9754 574.235 81.5939 572.931 80.2262C571.618 78.8715 569.776 78.1812 567.393 78.1812Z" fill="#169BD8"/>
<path d="M609.281 93.0356H594.044V107.886H588.64V74.2852H594.044V88.3243H609.281V74.2852H614.689V107.886H609.281V93.0356Z" fill="#169BD8"/>
<path d="M646.113 87.9964L646.321 83.8373H646.113L643.352 88.1387L628.18 107.886H625.073V74.2852H630.473V94.7743L630.273 98.7349H630.538L633.172 94.5758L648.357 74.2852H651.525V107.886H646.121V87.9964H646.113Z" fill="#169BD8"/>
<path d="M678.701 93.9761L673.501 94.7872L664.595 107.894H658.047L666.147 96.3965L668.851 93.9114C666.515 93.5576 664.526 92.6127 662.875 91.0898C661.233 89.5668 660.418 87.5088 660.418 84.9116C660.418 82.8924 660.765 81.171 661.458 79.7343C662.151 78.2933 663.157 77.1068 664.461 76.1749C665.766 75.2301 667.313 74.557 669.115 74.1169C670.91 73.6984 672.933 73.4827 675.187 73.4827C676.847 73.4827 678.407 73.5949 679.841 73.8106C681.284 74.035 682.693 74.2766 684.092 74.5484V107.89H678.697V93.9804H678.701V93.9761ZM678.701 78.8541C678.121 78.6298 677.462 78.4615 676.738 78.3494C676.015 78.2372 675.386 78.1811 674.853 78.1811C671.98 78.1811 669.787 78.6945 668.275 79.7343C666.762 80.7611 666.021 82.3963 666.021 84.6397C666.021 86.6589 666.819 88.2121 668.413 89.3122C670.008 90.4038 672.11 90.956 674.719 90.956C674.766 90.956 674.832 90.956 674.927 90.956C675.022 90.956 675.2 90.956 675.46 90.956C675.724 90.956 676.106 90.9474 676.604 90.9172C677.094 90.8999 677.796 90.8611 678.697 90.8136V78.8541H678.701Z" fill="#169BD8"/>
<path d="M341.26 121.804C343.145 121.45 345.229 121.17 347.5 120.963C349.771 120.756 352.033 120.656 354.274 120.656C356.609 120.656 358.967 120.855 361.32 121.226C363.673 121.601 365.805 122.365 367.699 123.508C369.593 124.647 371.131 126.248 372.323 128.276C373.515 130.303 374.104 132.978 374.104 136.24C374.104 139.195 373.589 141.689 372.548 143.725C371.517 145.762 370.148 147.436 368.427 148.734C366.72 150.033 364.778 150.969 362.59 151.556C360.401 152.134 358.152 152.436 355.816 152.436C355.591 152.436 355.236 152.436 354.737 152.436C354.239 152.436 353.732 152.428 353.182 152.397C352.649 152.38 352.111 152.341 351.595 152.294C351.08 152.246 350.703 152.199 350.486 152.156V168.356H341.242V121.804H341.26ZM355.028 128.582C354.126 128.582 353.273 128.621 352.467 128.685C351.652 128.75 351.002 128.836 350.503 128.927V144.183C350.681 144.23 350.954 144.278 351.318 144.321C351.673 144.368 352.059 144.407 352.462 144.424C352.865 144.455 353.26 144.463 353.645 144.463C354.022 144.463 354.313 144.463 354.49 144.463C355.699 144.463 356.9 144.351 358.092 144.127C359.283 143.902 360.345 143.492 361.303 142.884C362.252 142.276 363.002 141.434 363.556 140.36C364.12 139.286 364.401 137.875 364.401 136.128C364.401 134.644 364.128 133.427 363.587 132.465C363.054 131.503 362.338 130.735 361.454 130.148C360.57 129.57 359.578 129.169 358.451 128.944C357.333 128.703 356.189 128.582 355.028 128.582Z" fill="#169BD8"/>
<path d="M405.623 165.69C404.27 166.764 402.572 167.614 400.526 168.24C398.481 168.865 396.314 169.185 394.013 169.185C391.452 169.185 389.228 168.775 387.339 167.942C385.454 167.109 383.894 165.923 382.685 164.383C381.476 162.83 380.566 160.992 379.98 158.839C379.4 156.69 379.096 154.27 379.096 151.578C379.096 145.839 380.383 141.473 382.945 138.47C385.506 135.472 389.176 133.966 393.943 133.966C395.473 133.966 397.003 134.135 398.533 134.471C400.063 134.808 401.432 135.442 402.654 136.387C403.863 137.331 404.86 138.656 405.618 140.386C406.39 142.108 406.762 144.385 406.762 147.211C406.762 148.696 406.624 150.322 406.359 152.117H384.704C384.704 154.089 384.912 155.836 385.315 157.359C385.718 158.882 386.347 160.172 387.2 161.229C388.054 162.277 389.172 163.088 390.542 163.649C391.911 164.21 393.584 164.491 395.573 164.491C397.103 164.491 398.632 164.219 400.162 163.679C401.692 163.149 402.836 162.519 403.607 161.803L405.623 165.69ZM394.013 138.669C391.356 138.669 389.237 139.359 387.642 140.753C386.048 142.146 385.09 144.519 384.782 147.876H401.514C401.514 144.463 400.856 142.082 399.551 140.714C398.247 139.351 396.396 138.669 394.013 138.669Z" fill="#169BD8"/>
<path d="M438.268 166.16C436.916 167.14 435.321 167.89 433.484 168.404C431.633 168.917 429.7 169.18 427.685 169.18C425.076 169.18 422.871 168.77 421.068 167.938C419.265 167.105 417.792 165.919 416.648 164.378C415.503 162.825 414.667 160.966 414.151 158.8C413.636 156.621 413.371 154.218 413.371 151.573C413.371 145.883 414.628 141.525 417.155 138.505C419.668 135.485 423.291 133.971 428.019 133.971C430.177 133.971 432.015 134.139 433.518 134.475C435.031 134.812 436.379 135.299 437.601 135.925L436.045 140.563C435.013 139.985 433.856 139.528 432.6 139.178C431.343 138.842 429.991 138.673 428.548 138.673C422.156 138.673 418.966 142.975 418.966 151.582C418.966 153.282 419.135 154.908 419.473 156.453C419.811 158.006 420.374 159.361 421.155 160.556C421.943 161.742 422.975 162.696 424.262 163.416C425.549 164.137 427.122 164.491 429.011 164.491C430.623 164.491 432.08 164.24 433.367 163.753C434.654 163.257 435.694 162.704 436.5 162.079L438.268 166.16Z" fill="#169BD8"/>
<path d="M465.985 139.48H451.087V168.374H445.691V134.769H471.389V168.374H465.985V139.48Z" fill="#169BD8"/>
<path d="M491.728 156.561L493.621 163.011H493.959L495.45 156.487L502.02 134.773H507.415L497.431 164.965C496.659 167.161 495.91 169.284 495.177 171.35C494.436 173.417 493.608 175.246 492.72 176.856C491.819 178.465 490.805 179.755 489.691 180.726C488.564 181.679 487.26 182.175 485.778 182.175C484.165 182.175 482.831 181.951 481.799 181.502L482.748 176.864C483.329 177.089 483.892 177.192 484.43 177.192C485.687 177.192 486.896 176.528 488.07 175.212C489.236 173.883 490.211 171.622 490.969 168.387L477.401 134.782H483.602L491.728 156.561Z" fill="#169BD8"/>
<path d="M516.321 140.753C517.803 138.604 519.445 137.09 521.248 136.218C523.042 135.338 525.3 134.911 527.996 134.911C532.126 134.911 535.315 136.257 537.538 138.949C539.761 141.642 540.879 145.606 540.879 150.84C540.879 156.889 539.584 161.458 536.996 164.542C534.405 167.636 530.804 169.189 526.167 169.189C521.222 169.189 517.517 167.489 515.038 164.076C512.559 160.664 511.333 155.318 511.333 148.01C511.333 144.157 511.528 140.861 511.905 138.13C512.282 135.39 512.854 133.09 513.586 131.214C514.327 129.337 515.229 127.831 516.291 126.709C517.344 125.596 518.531 124.699 519.866 124.056C521.187 123.413 522.644 122.952 524.221 122.671C525.798 122.399 527.489 122.184 529.278 121.998C531.614 121.774 533.443 121.524 534.778 121.222C536.099 120.924 537.17 120.397 537.989 119.642L538.6 124.475C538.149 124.876 537.651 125.212 537.118 125.476C536.585 125.747 535.926 125.972 535.155 126.149C534.383 126.334 533.486 126.485 532.416 126.615C531.363 126.753 530.136 126.865 528.737 126.951C526.804 127.089 525.105 127.313 523.64 127.663C522.176 127.999 520.919 128.642 519.857 129.617C518.804 130.579 517.972 131.943 517.361 133.72C516.75 135.485 516.338 137.832 516.113 140.748L516.321 140.753ZM516.932 151.642C516.932 153.342 517.11 154.977 517.465 156.548C517.82 158.118 518.375 159.49 519.116 160.681C519.857 161.872 520.815 162.804 521.976 163.477C523.138 164.15 524.52 164.478 526.097 164.478C529.205 164.478 531.501 163.373 533.014 161.151C534.526 158.925 535.267 155.655 535.267 151.297C535.267 149.597 535.107 148.027 534.799 146.586C534.479 145.145 533.985 143.902 533.309 142.858C532.633 141.81 531.779 140.999 530.747 140.438C529.716 139.877 528.477 139.597 527.042 139.597C523.541 139.549 520.971 140.567 519.346 142.651C517.738 144.752 516.932 147.746 516.932 151.642Z" fill="#169BD8"/>
<path d="M567.536 139.471H557.75C557.612 141.348 557.477 143.38 557.347 145.546C557.209 147.725 557.018 149.891 556.736 152.069C556.463 154.248 556.108 156.323 555.657 158.321C555.207 160.323 554.635 162.07 553.941 163.602C553.248 165.125 552.385 166.35 551.38 167.265C550.375 168.188 549.166 168.65 547.779 168.65C546.925 168.65 546.184 168.602 545.556 168.512C544.927 168.417 544.364 168.261 543.874 168.046L544.689 163.541C545.222 163.718 545.816 163.813 546.444 163.813C547.345 163.813 548.151 163.438 548.875 162.674C549.599 161.906 550.227 160.461 550.76 158.338C551.293 156.207 551.744 153.265 552.112 149.507C552.468 145.74 552.723 140.843 552.853 134.786H572.953V168.391H567.557V139.48H567.536V139.471Z" fill="#169BD8"/>
<path d="M604.358 148.484L604.553 144.325H604.358L601.589 148.622L586.404 168.382H583.301V134.782H588.697V155.279L588.497 159.231H588.762L591.397 155.072L606.582 134.782H609.754V168.382H604.358V148.484Z" fill="#169BD8"/>
<path d="M628.648 153.26H625.545V168.382H620.141V134.782H625.545V149.968L628.444 149.023L639.235 134.782H645.107L634.646 148.294L631.82 150.512L635.322 153.204L646.594 168.391H639.911L628.648 153.26Z" fill="#169BD8"/>
<path d="M650.516 151.578C650.516 145.887 651.781 141.529 654.325 138.509C656.869 135.489 660.518 133.975 665.293 133.975C667.807 133.975 670.004 134.385 671.872 135.217C673.74 136.05 675.278 137.237 676.496 138.777C677.705 140.33 678.615 142.189 679.2 144.355C679.781 146.534 680.084 148.937 680.084 151.582C680.084 157.273 678.819 161.63 676.275 164.65C673.731 167.67 670.082 169.185 665.306 169.185C662.793 169.185 660.587 168.775 658.728 167.942C656.86 167.109 655.322 165.923 654.104 164.383C652.895 162.829 651.985 160.97 651.4 158.804C650.797 156.625 650.516 154.222 650.516 151.578ZM656.106 151.578C656.106 153.277 656.275 154.913 656.613 156.483C656.951 158.053 657.484 159.417 658.191 160.586C658.914 161.747 659.85 162.7 661.025 163.408C662.186 164.128 663.616 164.482 665.276 164.482C671.386 164.529 674.455 160.228 674.455 151.573C674.455 149.826 674.286 148.161 673.948 146.599C673.61 145.028 673.076 143.665 672.361 142.496C671.638 141.335 670.702 140.403 669.527 139.7C668.366 139.001 666.936 138.665 665.276 138.665C659.166 138.621 656.106 142.932 656.106 151.578Z" fill="#169BD8"/>
<path d="M709.592 148.484L709.8 144.325H709.592L706.822 148.627L691.642 168.386H688.534V134.782H693.93V155.279L693.722 159.244H693.995L696.63 155.085L711.81 134.79H714.983V168.395H709.587V148.484H709.592ZM696.305 121.2C696.755 123.267 697.522 124.695 698.632 125.501C699.728 126.313 701.007 126.705 702.441 126.705C703.876 126.705 705.163 126.287 706.289 125.424C707.407 124.574 708.174 123.189 708.578 121.265L712.63 122.546C712.226 125.143 711.061 127.145 709.15 128.53C707.234 129.924 704.955 130.614 702.298 130.614C701.089 130.614 699.876 130.454 698.697 130.148C697.505 129.829 696.443 129.363 695.486 128.737C694.537 128.112 693.73 127.296 693.054 126.317C692.378 125.337 691.928 124.168 691.702 122.822L696.305 121.2Z" fill="#169BD8"/>
<path d="M145.011 159.857C144.907 159.978 144.795 160.09 144.73 160.185C144.691 160.25 144.665 160.306 144.665 160.379L144.673 160.444L144.682 160.474L144.673 160.504C144.344 162.066 143.529 163.615 143.482 165.073V165.168L143.408 165.215L143.391 165.224C143.373 165.543 143.278 165.888 143.157 166.242C143.018 166.626 142.836 166.989 142.667 167.291L142.658 167.316L142.641 167.334C142.359 167.567 142.19 167.752 141.974 167.942C141.766 168.119 141.532 168.279 141.159 168.43L141.142 168.447C141.142 168.455 141.133 168.477 141.133 168.533C141.133 168.563 141.133 168.606 141.133 168.645C141.133 168.693 141.133 168.757 141.116 168.822C141.107 168.87 141.077 168.917 141.042 168.96C140.903 169.698 140.687 170.669 140.093 171.307C140.093 171.316 140.102 171.325 140.102 171.325L140.149 171.363C140.214 171.394 140.344 171.402 140.496 171.402C140.578 171.402 140.674 171.402 140.778 171.402C140.916 171.402 141.077 171.402 141.22 171.428C141.358 171.458 141.519 171.514 141.631 171.635L141.696 171.7L141.688 171.782C141.679 171.829 141.64 172.213 141.575 172.632C141.51 173.063 141.423 173.546 141.324 173.836C141.298 173.93 141.259 174.004 141.211 174.06C141.202 174.077 141.185 174.099 141.163 174.107C140.825 174.742 140.695 175.108 140.704 175.294C140.704 175.397 140.721 175.423 140.778 175.492C140.825 175.54 140.929 175.604 141.077 175.669C141.367 175.799 141.792 175.967 142.251 176.351L142.268 176.368L142.277 176.385C142.429 176.636 142.576 176.899 142.71 177.153L142.862 177.451V177.481V177.576C142.862 177.882 142.71 178.137 142.541 178.361C142.372 178.586 142.186 178.78 142.043 178.939L142.017 178.978L141.978 178.996C141.8 179.069 141.714 179.147 141.657 179.246C141.592 179.349 141.575 179.47 141.575 179.63C141.575 179.984 141.714 180.462 141.714 180.89C141.714 181.028 141.696 181.187 141.64 181.321L141.614 181.394L141.54 181.425C141.428 181.472 141.298 181.498 141.155 181.498C140.713 181.498 140.214 181.282 139.69 181.032C139.165 180.782 138.628 180.471 138.16 180.277C137.839 180.147 137.549 180.061 137.345 180.061C137.194 180.061 137.081 180.1 136.999 180.173C136.791 180.389 136.323 180.782 135.863 180.967C135.712 181.041 135.564 181.079 135.413 181.079C135.387 181.079 135.348 181.079 135.317 181.071L135.235 181.062L135.196 180.989C135.122 180.868 135.148 180.756 135.131 180.67C135.131 180.631 135.122 180.596 135.122 180.566C135.027 180.549 134.953 180.519 134.888 180.48C134.793 180.441 134.71 180.406 134.663 180.406L134.615 180.424C134.156 181.368 133.891 182.244 133.601 183.293C133.423 183.862 133.189 184.665 132.877 185.424C132.57 186.17 132.193 186.882 131.677 187.275C131.677 187.275 131.668 187.275 131.668 187.283C131.491 187.435 131.283 187.478 131.105 187.478C130.88 187.478 130.663 187.43 130.485 187.439C130.316 187.439 130.221 187.469 130.121 187.56L130.104 187.577L129.636 187.827L129.54 187.762C129.402 187.667 129.22 187.555 129.042 187.473C128.864 187.391 128.687 187.331 128.526 187.331C128.388 187.331 128.275 187.37 128.162 187.499C128.08 187.629 128.058 187.762 128.05 187.931C128.05 188.267 128.18 188.668 128.188 189.091C128.188 189.333 128.123 189.605 127.946 189.829C127.72 190.39 127.625 190.8 127.625 191.305C127.625 191.473 127.634 191.65 127.651 191.848C127.764 192.016 127.82 192.193 127.803 192.37C127.803 192.707 127.664 193.035 127.521 193.324C127.391 193.613 127.278 193.885 127.278 194.036C127.278 194.117 127.296 194.148 127.352 194.204L127.504 194.325L127.374 194.454L127.365 194.471C127.356 194.489 127.348 194.519 127.348 194.553C127.339 194.627 127.33 194.722 127.33 194.816C127.33 194.92 127.339 195.032 127.361 195.123C127.382 195.213 127.4 195.291 127.426 195.308L127.434 195.326L127.443 195.356C127.538 195.684 127.573 196.012 127.573 196.335C127.573 196.659 127.534 197 127.478 197.336L127.469 197.383L127.43 197.422C127.309 197.543 127.122 197.655 126.923 197.785C126.728 197.906 126.52 198.035 126.39 198.147C126.295 198.22 126.238 198.285 126.238 198.315L126.23 198.341L125.779 198.79V199.446L126.173 199.743C126.407 199.735 126.663 199.661 126.932 199.661C127.109 199.661 127.287 199.687 127.478 199.8L127.573 199.847L127.564 199.951C127.556 200.093 127.556 200.24 127.556 200.391C127.556 201.072 127.638 201.888 127.638 202.673C127.638 203.506 127.543 204.317 127.122 204.998C127.131 205.641 127.244 206.025 127.365 206.707C127.573 207.108 127.647 207.453 127.647 207.773C127.647 208.092 127.573 208.381 127.508 208.653C127.443 208.916 127.387 209.183 127.378 209.503C127.564 209.865 127.603 210.335 127.603 210.737C127.629 210.745 127.677 210.767 127.716 210.784C127.725 210.784 127.725 210.793 127.733 210.793H127.742C127.781 210.486 127.816 210.288 127.863 210.158C127.881 210.111 127.902 210.063 127.967 210.02C127.993 210.003 128.05 209.973 128.097 209.973C128.18 209.973 128.227 210.012 128.266 210.046C128.305 210.085 128.331 210.111 128.349 210.15C128.388 210.223 128.431 210.301 128.47 210.413C128.552 210.607 128.648 210.853 128.752 211.125L129.605 211.677L129.644 212.51L130.087 213.77V213.8C130.087 214.089 130.022 214.425 129.965 214.753C129.892 215.081 129.826 215.418 129.787 215.698L129.779 215.746L129.753 215.784C129.727 215.815 129.649 215.914 129.558 216.026C129.467 216.138 129.35 216.276 129.25 216.388C129.176 216.462 129.12 216.526 129.042 216.574C129.003 216.604 128.947 216.621 128.864 216.639H128.847H128.838C128.613 216.6 128.474 216.462 128.349 216.341C128.245 216.22 128.162 216.108 128.084 216.052C128.037 216.013 127.98 216.004 127.898 215.987C127.872 215.987 127.824 215.987 127.777 215.996H127.759H127.742C127.525 215.996 127.434 216.061 127.356 216.164C127.283 216.259 127.244 216.414 127.244 216.604C127.244 216.811 127.283 217.036 127.348 217.221L127.356 217.251V217.277C127.356 217.773 127.252 218.071 127.114 218.326C126.975 218.567 126.793 218.757 126.624 219.081L126.585 219.167L126.49 219.176C126.451 219.184 126.407 219.206 126.368 219.257C126.329 219.305 126.273 219.378 126.247 219.482C126.173 219.68 126.126 219.922 126.095 220.138C126.078 220.25 126.056 220.345 126.03 220.435C126.048 220.509 126.061 220.565 126.061 220.629C126.061 220.798 125.996 220.919 125.957 221.013C125.918 221.108 125.883 221.182 125.883 221.246C125.883 221.311 125.9 221.397 125.987 221.535L126.004 221.566V221.605C126.052 222.183 126.069 222.791 126.23 223.287L126.238 223.304V223.322C126.312 224.021 126.464 224.797 126.464 225.582C126.464 226.031 126.416 226.497 126.256 226.937L126.238 226.976L126.199 227.006C125.879 227.287 125.684 227.606 125.684 227.968C125.684 228.111 125.71 228.275 125.779 228.434C125.796 228.499 125.827 228.529 125.874 228.555C125.913 228.585 125.987 228.602 126.069 228.628C126.238 228.659 126.464 228.659 126.68 228.702C126.819 228.728 126.979 228.775 127.101 228.887L127.118 228.904L127.127 228.922C127.239 229.116 127.391 229.362 127.521 229.634C127.651 229.897 127.755 230.194 127.755 230.492C127.755 230.708 127.69 230.932 127.538 231.126L127.491 231.191L127.417 231.2C127.109 231.217 126.919 231.286 126.836 231.329C126.741 231.394 126.724 231.433 126.698 231.523C126.65 231.692 126.672 232.028 126.481 232.403L126.659 232.684C126.754 232.731 126.828 232.796 126.884 232.861C126.958 232.934 126.997 233.012 127.023 233.094C127.088 233.262 127.088 233.391 127.153 233.56L127.161 233.577V233.594C127.209 233.957 127.226 234.172 127.257 234.259L127.283 234.306C127.291 234.315 127.322 234.336 127.387 234.371C127.469 234.401 127.603 234.436 127.807 234.483L127.937 234.513V234.656C127.937 234.897 127.889 235.311 127.889 235.713C127.889 235.937 127.907 236.161 127.954 236.338C127.993 236.524 128.067 236.644 128.149 236.722C128.197 236.761 128.271 236.795 128.375 236.795H128.401L128.427 236.804C128.613 236.869 128.791 236.89 128.981 236.89C129.189 236.89 129.393 236.86 129.592 236.843L129.657 236.834L129.705 236.865C129.8 236.929 129.857 237.007 129.9 237.097C129.926 237.192 129.939 237.274 129.939 237.348C129.939 237.486 129.913 237.637 129.922 237.74C129.922 237.788 129.931 237.844 129.939 237.87L129.978 237.973L129.124 238.806L129.077 239.479L129.038 239.518C128.708 239.854 128.297 239.936 127.902 239.928C127.538 239.928 127.153 239.863 126.806 239.863C126.702 239.863 126.598 239.872 126.498 239.88L126.386 239.898L125.84 238.944C125.736 238.905 125.645 238.871 125.588 238.871C125.515 238.871 125.458 238.888 125.402 238.918C125.354 238.948 125.289 239.013 125.233 239.095C125.129 239.246 125.047 239.488 124.99 239.738C124.878 240.251 124.86 240.842 124.821 241.131L124.813 241.196L124.774 241.235C124.409 241.597 124.154 242.068 123.846 242.534L123.837 242.542L123.829 242.551C123.764 242.616 123.716 242.663 123.677 242.719C123.651 242.758 123.629 242.793 123.629 242.805C123.647 242.814 123.703 242.844 123.781 242.87L123.846 242.887L123.885 242.935C124.024 243.151 124.149 243.401 124.288 243.647C124.409 243.871 124.531 244.078 124.652 244.199C124.878 244.272 125.103 244.384 125.289 244.536C125.484 244.704 125.636 244.928 125.723 245.209L125.731 245.226V245.243C125.74 245.437 125.749 245.588 125.749 245.731C125.749 245.86 125.74 245.981 125.71 246.084C125.684 246.188 125.614 246.291 125.541 246.365C125.402 246.503 125.22 246.598 124.96 246.749L124.895 248.319C125.112 248.682 125.177 249.074 125.177 249.432C125.177 249.898 125.081 250.347 125.081 250.714C125.081 250.947 125.107 251.145 125.211 251.331L125.25 251.413L125.211 251.499C125.129 251.667 125.06 251.779 125.016 251.853C124.977 251.948 124.969 251.991 124.969 252.068C124.969 252.142 124.986 252.219 125.034 252.366L125.051 252.414L125.042 252.461C125.003 252.612 124.93 252.741 124.834 252.845C124.739 252.949 124.626 253.013 124.513 253.069C124.288 253.182 124.045 253.246 123.855 253.32C123.733 253.384 123.638 253.44 123.573 253.527L123.057 254.351L121.19 254.687C121.038 254.92 120.899 255.106 120.756 255.24C120.605 255.378 120.427 255.481 120.232 255.481C120.046 255.481 119.877 255.386 119.716 255.248C119.577 255.119 119.426 254.92 119.274 254.687L118.871 254.39C118.862 254.407 118.854 254.428 118.854 254.463C118.836 254.558 118.828 254.687 118.828 254.817C118.819 255.097 118.819 255.434 118.676 255.753C118.581 255.969 118.412 256.163 118.152 256.305L118.104 256.335L118.039 256.327C117.965 256.318 117.909 256.309 117.844 256.309C117.545 256.309 117.272 256.43 116.973 256.564C116.674 256.698 116.362 256.862 116.007 256.892H115.968L115.929 256.875C115.721 256.788 115.582 256.659 115.439 256.53C115.309 256.4 115.188 256.266 115.045 256.146L114.98 256.098V256.012C114.98 255.995 114.98 255.947 114.997 255.917C115.006 255.887 115.036 255.852 115.062 255.844L115.088 255.611L115.127 255.572C115.248 255.442 115.279 255.356 115.279 255.309C115.279 255.261 115.261 255.196 115.183 255.11C115.118 255.037 115.032 254.972 114.941 254.894C114.819 254.856 114.707 254.83 114.576 254.83C114.156 254.83 113.675 255.037 113.12 255.037C112.943 255.037 112.765 255.019 112.574 254.95L112.501 254.933L112.475 254.86C112.449 254.786 112.436 254.709 112.436 254.644C112.436 254.502 112.462 254.381 112.462 254.282C112.462 254.234 112.453 254.178 112.444 254.152C112.427 254.113 112.405 254.079 112.34 254.04L112.275 253.993L112.267 253.911C112.267 253.863 112.241 253.816 112.184 253.76C112.145 253.712 112.072 253.639 112.015 253.535C111.864 253.44 111.725 253.415 111.595 253.415C111.4 253.415 111.201 253.488 111.014 253.6C110.819 253.712 110.62 253.863 110.434 254.001L110.416 254.019L108.128 254.683L108.054 254.571C107.959 254.428 107.933 254.282 107.933 254.161C107.933 254.049 107.95 253.967 107.942 253.898C107.942 253.833 107.933 253.786 107.903 253.729C107.877 253.682 107.799 253.609 107.66 253.522C107.435 253.41 107.296 253.307 107.17 253.259C107.058 253.195 107.001 253.186 106.975 253.186C106.949 253.186 106.893 253.194 106.789 253.251C106.707 253.289 106.594 253.363 106.451 253.458C106.516 253.859 106.629 254.372 106.637 254.765V254.83L106.598 254.877C106.468 255.015 106.347 255.166 106.252 255.309C106.156 255.438 106.113 255.572 106.113 255.693C106.113 255.805 106.152 255.926 106.308 256.094L106.334 256.124L106.343 256.163C106.36 256.236 106.369 256.292 106.369 256.361C106.369 256.465 106.33 256.568 106.265 256.642C106.2 256.715 106.135 256.745 106.057 256.771C105.918 256.819 105.775 256.866 105.671 256.922C105.597 256.961 105.55 257.017 105.493 257.099L105.467 257.146L105.42 257.164C105.225 257.259 105.099 257.371 104.986 257.492C104.874 257.612 104.752 257.755 104.553 257.845C104.423 257.91 104.262 257.94 104.054 257.94H103.981L103.933 257.893C103.643 257.604 103.426 257.53 103.257 257.53C103.079 257.53 102.91 257.617 102.702 257.763C102.507 257.902 102.299 258.1 102.065 258.294C102 258.678 101.784 259.049 101.502 259.368C101.194 259.696 100.787 259.947 100.367 259.968C100.341 259.968 100.302 259.968 100.271 259.968H100.263H100.254C100.189 259.951 100.141 259.951 100.102 259.951C100.02 259.951 99.9809 259.968 99.9505 259.998C99.9115 260.029 99.8682 260.085 99.8292 260.149C99.7468 260.3 99.6905 260.533 99.5648 260.749C99.4825 260.887 99.3568 261.029 99.1705 261.111L99.1315 261.129H99.0925C99.0275 261.129 98.9798 261.146 98.9148 261.202C98.8498 261.249 98.7848 261.323 98.7068 261.418C98.5681 261.612 98.4251 261.866 98.2561 262.091C98.1434 262.242 98.0221 262.38 97.8531 262.475L97.749 262.539L96.3493 261.362V261.288C96.3406 261.137 96.3493 260.999 96.3406 260.904C96.3319 260.809 96.3146 260.753 96.2453 260.689L96.1976 260.641V260.568C96.1976 260.361 96.1976 260.102 96.1716 259.821C96.1456 259.558 96.0893 259.278 95.9853 259.092C95.9463 259.006 95.8899 258.954 95.8466 258.898C95.7252 259.002 95.6212 259.092 95.5172 259.161C95.3959 259.256 95.2659 259.33 95.0969 259.33C94.8802 259.33 94.6852 259.226 94.3732 259.066L94.3472 259.058L94.3298 259.04C94.2085 258.911 94.1348 258.79 94.0785 258.678C94.0308 258.566 94.0048 258.445 94.0048 258.342C94.0048 258.126 94.0525 257.949 94.0698 257.677L93.5801 257.211L93.4978 256.491L92.9821 256.305C92.9647 256.353 92.9344 256.417 92.9084 256.482C92.8434 256.611 92.787 256.745 92.6744 256.866C92.6007 256.939 92.4967 257.008 92.3667 257.008H92.3493L92.332 257C92.0893 256.926 91.8813 256.806 91.695 256.711C91.5173 256.616 91.3656 256.56 91.1966 256.542L90.6159 256.832C90.5682 256.935 90.5119 257.017 90.4772 257.065C90.4599 257.082 90.4512 257.09 90.4382 257.112C90.4469 257.121 90.4469 257.121 90.4556 257.129C90.5379 257.194 90.6896 257.28 90.9063 257.436C91.0189 257.466 91.2139 257.548 91.4393 257.66C91.682 257.781 91.955 257.949 92.1543 258.147C92.2757 258.277 92.3797 258.436 92.3884 258.644C92.3884 258.764 92.3493 258.877 92.267 258.98C92.2757 259.196 92.3147 259.42 92.371 259.645C92.4187 259.886 92.4837 260.149 92.4837 260.4C92.4837 260.607 92.4447 260.818 92.3147 261.016C92.1933 261.211 91.9853 261.362 91.695 261.482C91.3873 261.612 91.0753 261.621 90.8239 261.668C90.5596 261.707 90.3342 261.772 90.1565 261.966L90.1175 262.005L90.0785 262.013C90.0612 262.03 90.0395 262.099 89.9745 262.156C89.9355 262.194 89.8792 262.237 89.7968 262.259L89.7795 262.268H89.7622C89.6322 262.268 89.4978 262.203 89.4242 262.117C89.3418 262.022 89.3028 261.923 89.2725 261.797C89.2075 261.573 89.1988 261.301 89.1988 261.086C89.1988 260.917 89.2075 260.788 89.2075 260.723V260.684L89.2248 260.645C89.4675 260.188 89.5542 259.804 89.5542 259.429C89.5542 258.98 89.4241 258.514 89.2638 257.962C89.1685 257.82 89.1511 257.664 89.1511 257.53C89.1511 257.28 89.2248 257.034 89.2248 256.849C89.2248 256.737 89.2075 256.642 89.1425 256.551L88.2801 256.038C88.1847 255.99 88.1111 255.917 88.0634 255.831C88.0157 255.744 87.9897 255.654 87.9811 255.58C87.9637 255.412 87.9724 255.261 87.9551 255.14C87.9464 255.067 87.9291 255.02 87.8814 254.963L87.123 254.506L87.1143 254.424C87.0753 254.208 87.0667 254.118 87.0103 253.919L87.0017 253.902V252.444L87.0753 252.396C87.188 252.31 87.318 252.219 87.461 252.133C87.5824 252.038 87.695 251.948 87.76 251.853C87.799 251.788 87.8251 251.741 87.8251 251.702L87.8164 251.628L87.7687 251.49L88.7178 251.042C88.7264 251.024 88.7351 250.977 88.7438 250.929C88.7524 250.843 88.7611 250.735 88.7611 250.623C88.7611 250.407 88.7438 250.166 88.6874 249.95C88.6484 249.752 88.5921 249.583 88.5488 249.501C88.3407 249.363 88.1631 249.251 88.0244 249.083C87.8727 248.906 87.7904 248.673 87.799 248.371V248.194H87.8944C87.9031 248.164 87.9204 248.121 87.9421 248.073C87.9897 247.952 88.0374 247.784 88.0721 247.663C88.0894 247.577 88.1111 247.534 88.1197 247.487C88.2237 247.206 88.2584 247.021 88.2497 246.887C88.2497 246.775 88.2324 246.736 88.1847 246.68C88.1457 246.641 88.0721 246.585 87.9681 246.537C87.7514 246.434 87.4134 246.33 87.0667 246.05L87.0017 246.002V245.916C87.0017 245.886 87.0017 245.869 87.0103 245.834L87.0277 245.748C87.0363 245.683 87.0537 245.627 87.0667 245.58C87.0667 245.45 87.0407 245.338 87.0017 245.252C86.9627 245.157 86.8977 245.101 86.8153 245.036C86.6463 244.915 86.395 244.829 86.0829 244.73H86.0743H86.0656C86.0006 244.712 85.9443 244.699 85.8792 244.699C85.7839 244.699 85.6712 244.717 85.5586 244.738C85.4459 244.76 85.3245 244.786 85.1945 244.786C85.0559 244.786 84.8869 244.747 84.7612 244.609L84.7525 244.6L84.7438 244.583C84.6702 244.454 84.6052 244.32 84.5272 244.199C84.4535 244.087 84.3885 243.992 84.3192 243.957C84.2801 243.927 84.2455 243.919 84.2065 243.919C84.1588 243.919 84.0765 243.936 83.9638 244.022L83.9161 244.061L83.8511 244.052C83.7298 244.044 83.6561 244.035 83.5608 244.005C83.4654 243.975 83.3918 243.91 83.3441 243.837C83.3051 243.798 83.2704 243.742 83.2227 243.668L83.1751 243.595L83.2011 243.5C83.2747 243.293 83.4091 243.107 83.5218 242.939C83.6344 242.771 83.7081 242.603 83.7081 242.521C83.7081 242.49 83.6994 242.473 83.6908 242.439C83.6821 242.421 83.6518 242.4 83.6171 242.374C83.5218 242.421 83.3918 242.525 83.2877 242.654C83.1577 242.805 83.0451 242.991 83.0364 243.086L83.0277 243.151L82.304 243.759C82.2303 244.121 82.174 244.385 82.0397 244.609C81.901 244.842 81.6843 245.01 81.3159 245.217L81.2423 245.256L81.1686 245.226C80.7266 245.075 80.3972 244.984 80.1545 244.889C79.9119 244.794 79.7342 244.712 79.5998 244.57C79.5175 244.475 79.4612 244.354 79.4308 244.234C79.3918 244.057 79.3918 243.871 79.3918 243.608C79.3918 243.504 79.3918 243.401 79.3918 243.28C79.3918 243.082 79.3918 242.849 79.3832 242.581V242.542L79.4005 242.503C79.4265 242.43 79.4958 242.374 79.5522 242.335C79.6172 242.305 79.6648 242.288 79.7212 242.27C79.8252 242.253 79.9292 242.253 79.9855 242.232C80.0245 242.223 80.0505 242.214 80.0505 242.214L80.0982 242.167H80.1719H80.1805L80.2065 242.158C80.2325 242.15 80.2715 242.132 80.3192 242.094C80.4146 242.029 80.5142 241.951 80.6399 241.861C80.8739 241.662 81.1383 241.421 81.3159 241.226C81.4286 241.114 81.511 241.032 81.5673 240.985L81.979 240.191L83.0407 239.829L83.2834 238.771C83.2834 238.771 83.2834 238.771 83.2747 238.763C83.2487 238.733 83.2097 238.668 83.2097 238.612V238.603V238.595C83.2357 238.418 83.2487 238.267 83.2487 238.098C83.2487 237.49 83.0711 236.959 82.8631 236.407C82.668 235.864 82.4687 235.316 82.4297 234.668C82.2997 234.306 82.0353 233.922 81.8013 233.577L81.7536 233.504L81.9487 232.96L82.0223 232.93C82.2087 232.848 82.304 232.736 82.369 232.585C82.4427 232.434 82.4904 232.239 82.5857 232.032L82.603 231.994L82.629 231.968C82.7244 231.894 82.8241 231.838 82.9107 231.752C82.9931 231.679 83.0321 231.623 83.0494 231.545V231.528C83.0407 231.497 83.0407 231.454 83.0321 231.415C83.0147 231.329 83.0061 231.247 83.0061 231.247L82.9887 231.161L83.0364 231.096C83.1881 230.911 83.2617 230.734 83.2617 230.583C83.2617 230.471 83.2357 230.376 83.1491 230.294C83.0754 230.212 82.9714 230.143 82.8197 230.087C82.6897 230.173 82.5207 230.272 82.3517 230.384C82.135 230.514 81.9183 230.665 81.7796 230.794C81.6756 230.889 81.628 230.971 81.602 231.01L81.5846 231.075L81.5196 231.105C81.4156 231.152 81.3419 231.243 81.2683 231.346C81.1859 231.459 81.0993 231.579 80.9779 231.692C80.8956 231.765 80.7916 231.834 80.6702 231.868L80.5879 231.886L80.5142 231.838C80.0245 231.446 79.2661 231.126 78.6768 230.902L78.6118 230.885L78.5858 230.837C78.4731 230.622 78.4731 230.419 78.4644 230.229C78.4558 230.087 78.4471 229.949 78.3821 229.81L77.8361 230.035C77.6844 230.212 77.472 230.298 77.2553 230.389C77.0473 230.475 76.8437 230.54 76.6833 230.613L76.5316 231.774H76.4363C76.4363 231.782 76.4276 231.791 76.4276 231.804C76.4103 231.877 76.4016 231.972 76.3886 232.019V232.028V232.037C76.3713 232.11 76.315 232.158 76.2673 232.205C76.2196 232.252 76.1633 232.27 76.0983 232.291C75.9856 232.321 75.8643 232.33 75.7429 232.33C75.5739 232.33 75.3962 232.313 75.2359 232.291C75.1145 232.283 75.0105 232.261 74.9455 232.252L74.9282 232.283C74.9109 232.321 74.8632 232.395 74.7982 232.46C74.6465 232.99 74.5165 233.34 74.1611 233.806L74.1135 233.879H74.0311C73.9921 233.879 73.9271 233.87 73.8925 233.831C73.8535 233.801 73.8275 233.758 73.8101 233.728C73.7841 233.655 73.7841 233.607 73.7841 233.542C73.7841 233.357 73.8231 233.124 73.8231 232.9C73.8231 232.787 73.8144 232.684 73.7841 232.602C73.7581 232.529 73.7191 232.49 73.6628 232.46C73.6238 232.442 73.5674 232.429 73.4938 232.429C73.3421 232.46 73.2424 232.503 73.1861 232.533C73.1384 232.572 73.1211 232.58 73.1037 232.636C73.0951 232.667 73.0864 232.723 73.0864 232.787C73.0777 232.882 73.0777 233.003 73.0691 233.141V233.171L73.0604 233.202C72.9217 233.491 72.6574 234.155 72.6574 234.595C72.6574 234.699 72.666 234.789 72.6964 234.845C72.7137 234.91 72.7614 234.958 72.8004 234.983L72.8827 235.048L72.8741 235.152C72.8264 235.963 72.5664 236.739 72.328 237.477L72.289 237.598L71.3876 237.615C71.34 237.736 71.2749 237.848 71.1926 237.922C71.0886 238.025 70.9499 238.06 70.8286 238.06C70.6509 238.06 70.4992 237.995 70.3302 237.939C70.1612 237.883 70.0009 237.818 69.8319 237.788L69.8059 237.779L69.7885 237.771C69.6022 237.667 69.4592 237.641 69.3205 237.641C69.0865 237.641 68.8134 237.745 68.4754 237.745C68.3628 237.745 68.2501 237.736 68.1287 237.706L68.0551 237.689L68.0161 237.624C67.8384 237.343 67.652 237.231 67.4137 237.167C67.1883 237.093 66.924 237.08 66.6813 237.028C66.5123 236.99 66.352 236.925 66.2219 236.795L66.1959 236.765L66.1873 236.718C66.1786 236.653 66.1699 236.597 66.1699 236.532C66.1699 236.308 66.2653 236.131 66.3216 235.971C66.3953 235.803 66.4516 235.665 66.4516 235.523C66.4516 235.449 66.4343 235.372 66.404 235.29C66.339 235.26 66.2913 235.225 66.2523 235.186C66.1873 235.113 66.1569 235.018 66.1569 234.953C66.1569 234.85 66.1829 234.768 66.2306 234.69C66.2696 234.608 66.313 234.522 66.352 234.457C66.4343 234.306 66.5036 234.138 66.5036 234.017C66.5036 233.905 66.4776 233.801 66.2956 233.672L66.2306 233.624V233.538C66.2306 233.512 66.2133 233.443 66.2133 233.331C66.2133 233.284 66.222 233.21 66.2523 233.146L66.2696 233.107L66.2956 233.089C66.4256 232.995 66.5296 232.921 66.5946 232.874C66.6596 232.826 66.677 232.8 66.677 232.779C66.6856 232.762 66.6856 232.74 66.6856 232.684C66.6856 232.619 66.677 232.533 66.6596 232.395C66.5643 232.347 66.482 232.309 66.4083 232.274C66.3043 232.235 66.1829 232.179 66.0529 232.088L65.9793 232.041V231.946V231.696L66.0833 231.648C66.2046 231.584 66.3086 231.545 66.3736 231.506C66.4473 231.467 66.469 231.433 66.4863 231.394C66.495 231.377 66.5036 231.346 66.5036 231.29C66.5036 231.217 66.4863 231.113 66.4386 230.984C66.3433 230.855 66.2436 230.768 66.1483 230.704C66.0443 230.656 65.9316 230.617 65.8103 230.617C65.5676 230.617 65.2642 230.721 64.9262 230.842L64.8049 230.889L64.7225 230.777C64.5925 230.583 64.5708 230.358 64.5708 230.134C64.5708 229.806 64.6358 229.461 64.6358 229.142C64.6358 228.965 64.6185 228.814 64.5622 228.693C64.1981 228.43 63.9338 228.339 63.8125 228.339C63.7171 228.339 63.6824 228.369 63.6174 228.443C63.5524 228.516 63.4961 228.637 63.4398 228.788C63.3271 229.094 63.2144 229.5 62.9154 229.815L62.8677 229.862H62.7941C62.599 229.862 62.3997 229.845 62.2307 229.767C62.053 229.694 61.8927 229.543 61.7973 229.336L61.78 229.288L61.7887 229.224C61.8277 229.03 61.8537 228.879 61.8537 228.736C61.8537 228.495 61.7887 228.326 61.6846 228.158C61.5806 227.981 61.4203 227.804 61.234 227.55L61.2166 227.532L61.208 227.502C61.1126 227.252 61.0779 227.045 61.0779 226.868C61.0779 226.773 61.0866 226.691 61.1169 226.626C61.1429 226.562 61.1906 226.484 61.247 226.428C61.3683 226.324 61.5286 226.307 61.6803 226.307C61.832 226.307 62.001 226.324 62.1873 226.372L62.2523 226.381L62.2914 226.428C62.43 226.614 62.5557 226.79 62.6944 226.924C62.8157 227.036 62.9371 227.101 63.1147 227.11C63.1407 227.092 63.1797 227.071 63.2188 227.023C63.3011 226.959 63.4051 226.885 63.4701 226.816C63.5091 226.786 63.5438 226.752 63.5524 226.743C63.5914 226.704 63.6001 226.648 63.6001 226.557C63.6001 226.415 63.5351 226.212 63.4961 226.014C63.3748 225.884 63.2708 225.764 63.2057 225.63C63.1321 225.5 63.1017 225.38 63.1017 225.237C63.1017 224.996 63.2057 224.797 63.2968 224.525L63.3141 224.452L64.1851 224.09C64.1375 223.809 64.1028 223.602 64.0638 223.464C64.0248 223.287 63.9685 223.222 63.9338 223.175C63.9078 223.158 63.8601 223.136 63.7648 223.11C63.6521 223.093 63.4744 223.093 63.2318 223.093C63.1277 223.093 63.0151 223.093 62.8851 223.093H62.8591L62.8331 223.084C62.5514 222.972 62.3824 222.86 62.2307 222.756C62.1007 222.653 62.0053 222.58 61.923 222.549C61.8753 222.532 61.819 222.511 61.7367 222.511C61.624 222.511 61.455 222.536 61.221 222.614L61.195 222.679C61.1776 222.726 61.1473 222.8 61.1213 222.886C61.0736 223.054 61.0086 223.24 60.8959 223.408C60.8136 223.52 60.7009 223.624 60.5406 223.662H60.5232H60.5059C60.3196 223.662 60.1419 223.727 59.9035 223.736C59.7995 223.736 59.6955 223.719 59.5828 223.662L59.5092 223.632L59.4918 223.559C59.4182 223.326 59.3532 223.093 59.2578 222.895L59.2492 222.877V222.86C59.1668 222.523 59.1841 222.187 59.1755 221.881C59.1668 221.574 59.1495 221.303 59.0238 221.07L58.2741 220.099C58.1224 219.987 58.0097 219.857 57.9274 219.706C57.8451 219.555 57.7974 219.378 57.7757 219.21C57.7281 218.882 57.7367 218.554 57.6717 218.274C57.598 218.024 57.4204 217.674 57.2037 217.351C56.987 217.014 56.753 216.686 56.5926 216.414L56.584 216.397L56.1809 215.193C56.0683 215.098 55.9859 214.986 55.9469 214.865C55.8993 214.727 55.8819 214.568 55.8819 214.425C55.8819 214.201 55.9079 213.977 55.9079 213.783C55.9079 213.575 55.8819 213.42 55.7866 213.286L55.7693 213.26L55.7606 213.23C55.7129 213.062 55.6956 212.902 55.6956 212.734C55.6956 212.428 55.7433 212.126 55.7433 211.867C55.7433 211.69 55.7259 211.539 55.6609 211.401C55.2492 211.263 54.9589 211.138 54.5818 210.896L54.5082 210.857L54.4345 210.24C54.3218 210.046 54.2395 209.895 54.1701 209.783C54.0965 209.671 54.0401 209.615 54.0011 209.598L53.9535 209.589C53.9275 209.589 53.8581 209.606 53.7585 209.654C53.6631 209.692 53.5504 209.757 53.4031 209.831L52.4367 211.103L52.3977 211.121C52.2764 211.168 52.155 211.202 52.0337 211.202C51.817 211.202 51.6306 211.121 51.479 211.064C51.3273 210.991 51.1886 210.944 51.0933 210.952C51.0456 210.952 50.9893 210.961 50.9243 211C50.8593 211.039 50.7943 211.103 50.6989 211.215L50.6729 211.254L50.6339 211.272C50.4562 211.345 50.2482 211.401 50.0315 211.401C49.8452 211.401 49.6458 211.362 49.4768 211.233L49.4032 211.185V211.09C49.4032 210.978 49.4422 210.883 49.4985 210.801C49.5462 210.715 49.6112 210.65 49.6762 210.586C49.7975 210.456 49.9405 210.344 50.0142 210.24C50.0619 210.167 50.0879 210.12 50.0879 210.072C50.0879 210.042 50.0792 209.999 50.0229 209.93V209.921C50.0142 209.904 49.9839 209.882 49.9102 209.848C49.8452 209.818 49.7585 209.8 49.6588 209.774C49.4508 209.736 49.2081 209.701 48.9828 209.623C48.8441 209.576 48.6924 209.503 48.5971 209.36C48.5494 209.274 48.5148 209.175 48.5148 209.071C48.5148 208.894 48.5884 208.717 48.7098 208.502L48.6621 207.445C48.6231 207.427 48.5668 207.406 48.5104 207.38C48.3804 207.315 48.2027 207.251 48.0424 207.164C47.7521 207.035 47.4617 206.884 47.3274 206.828C47.2884 206.836 47.232 206.836 47.1974 206.836C47.0023 206.836 46.803 206.763 46.595 206.668C46.387 206.573 46.1919 206.444 45.9839 206.306C45.6199 206.042 45.2689 205.728 45.0565 205.512C44.7489 205.426 44.5235 205.4 44.3718 205.4C44.2678 205.4 44.1941 205.417 44.1378 205.438C44.0728 205.469 44.0251 205.503 43.9688 205.568C43.8561 205.697 43.7521 205.952 43.6134 206.306L43.6048 206.336L43.5874 206.353C43.5484 206.392 43.5138 206.418 43.4748 206.439C43.4574 206.448 43.4358 206.457 43.4098 206.457L43.3924 206.495L43.3274 206.616L43.1974 206.599C42.8334 206.526 42.5214 206.31 42.2484 206.077C41.9667 205.844 41.724 205.581 41.49 205.421L41.4813 205.413L41.4726 205.404C41.1086 205.042 40.6579 204.778 40.2636 204.368L40.2246 204.33L40.2159 204.282C40.1335 203.713 40.0945 203.311 39.9905 202.936C39.8952 202.582 39.7479 202.254 39.4575 201.806C38.8465 201.478 38.4824 201.029 38.2008 200.533C37.9104 200.028 37.6937 199.476 37.386 198.937C37.282 198.799 37.2084 198.648 37.1607 198.518C37.113 198.38 37.0567 198.268 37.009 198.19L36.983 198.151L36.9743 198.113C36.957 197.975 36.9483 197.729 36.9267 197.47C36.9093 197.22 36.853 196.939 36.788 196.741C36.7403 196.611 36.6753 196.516 36.6103 196.49C36.5843 196.473 36.5366 196.46 36.4976 196.46H36.4716H36.4456H36.437C36.0903 196.46 35.7219 196.283 35.4229 196.05C35.1239 195.817 34.8682 195.507 34.7859 195.183L34.7772 195.175L34.7035 195.101C34.6385 195.036 34.5648 194.972 34.4868 194.894C34.4392 194.847 34.3915 194.791 34.3568 194.726C34.3482 194.717 34.3482 194.7 34.3395 194.687L32.6407 193.975L32.6234 193.893C32.2854 192.577 32.06 191.568 32.0123 190.183C31.7957 189.838 31.7133 189.484 31.6267 189.156C31.5443 188.811 31.4576 188.483 31.2713 188.164C31.1023 187.913 31.0849 187.642 31.0633 187.417C31.0459 187.184 31.0243 186.986 30.9116 186.818C30.7339 186.511 30.5562 186.265 30.3569 185.95V185.942C30.1316 185.493 30.0362 185.027 29.9365 184.557C29.7979 184.156 29.7502 183.802 29.7199 183.474C29.6939 183.137 29.6549 182.809 29.5335 182.447V182.438V182.43C29.4512 182.132 29.4295 181.86 29.4295 181.597C29.4295 181.364 29.4468 181.148 29.4468 180.941C29.4468 180.557 29.3992 180.229 29.1175 179.867L29.0915 179.82L29.0741 177.503C29.0741 177.382 29.0655 177.27 29.0655 177.175C29.0655 176.998 29.0741 176.877 29.0741 176.774C29.0741 176.661 29.0655 176.588 29.0351 176.476C29.0091 176.372 28.9528 176.234 28.8575 176.027L28.8185 175.98C28.8011 175.941 28.7925 175.898 28.7795 175.868C28.7621 175.781 28.7535 175.699 28.7405 175.587C28.7231 175.38 28.7015 175.13 28.6668 174.923C28.6495 174.793 28.6191 174.681 28.5931 174.625L28.4154 174.483L28.3201 174.388L28.6018 173.857L28.6495 173.84C28.8661 173.728 29.0351 173.663 29.1478 173.607C29.2605 173.542 29.2995 173.503 29.3428 173.4C29.3602 173.326 29.3818 173.223 29.3818 173.072C29.3732 172.977 29.3645 172.886 29.3645 172.791C29.3645 172.528 29.3905 172.269 29.3905 172.036C29.3905 171.95 29.3905 171.868 29.3818 171.795L29.3645 171.652L29.4945 171.605L29.5118 171.588C29.5205 171.57 29.5292 171.54 29.5378 171.493C29.5552 171.398 29.5638 171.268 29.5638 171.13C29.5638 171.035 29.5638 170.945 29.5638 170.85C29.5638 170.777 29.5638 170.721 29.5725 170.656C29.5812 170.591 29.5812 170.544 29.6115 170.47C29.6115 170.462 29.6202 170.453 29.6202 170.453C29.6115 170.285 29.5942 170.134 29.5552 169.966C29.5292 169.789 29.4815 169.612 29.4815 169.396C29.4815 169.275 29.4902 169.154 29.5205 169.003L29.5378 168.891L29.6505 168.874C29.6895 168.865 29.7242 168.865 29.7632 168.865C29.8759 168.865 29.9799 168.896 30.0535 168.939C30.1012 168.969 30.1576 168.986 30.1922 169.021C30.2659 169.012 30.3222 168.995 30.3699 168.982C30.3872 168.973 30.4089 168.973 30.4176 168.973L30.4262 168.934C30.4436 168.87 30.4739 168.783 30.5389 168.684V168.676L30.9723 168.097L31.0199 168.08C31.0676 168.071 31.189 167.977 31.2843 167.83C31.3883 167.692 31.501 167.493 31.592 167.286C31.787 166.876 31.9473 166.454 32.034 166.268L32.0427 166.251L32.06 166.234C32.229 166.057 32.398 165.927 32.5584 165.785C32.7101 165.647 32.8574 165.487 32.9614 165.271L32.9701 165.254L32.9874 165.237C33.0697 165.155 33.1001 165.069 33.1261 164.974C33.1434 164.879 33.1521 164.78 33.1521 164.655C33.1521 164.607 33.1521 164.542 33.1521 164.478C33.1521 164.365 33.1521 164.245 33.1781 164.124C33.1954 164.029 33.2518 163.938 33.2994 163.861L32.9701 162.713L32.9787 162.674C32.9874 162.609 33.0264 162.355 33.0741 162.074C33.1217 161.794 33.1781 161.505 33.2518 161.319C33.2691 161.281 33.2778 161.246 33.2994 161.216C33.2908 161.143 33.2734 161.078 33.2171 160.992C33.1521 160.888 33.0654 160.784 32.9527 160.685C32.7361 160.478 32.4544 160.293 32.268 160.133C32.1857 160.086 32.138 160.029 32.073 159.947C31.9993 159.853 31.943 159.753 31.865 159.628C31.735 159.387 31.5833 159.076 31.462 158.761C31.2106 158.127 30.9636 157.462 30.8986 157.247L30.8899 157.208V157.169V157.13C30.8899 156.979 30.8163 156.738 30.7036 156.522C30.5909 156.306 30.4522 156.103 30.3092 155.97L30.3006 155.961L30.2919 155.952C30.0752 155.655 29.8022 155.534 29.5032 155.465C29.1955 155.4 28.8661 155.426 28.5541 155.379C28.3461 155.348 28.1511 155.297 27.9994 155.146L27.9734 155.115L27.9647 155.077C27.9561 155.038 27.9474 155.029 27.8694 154.982C27.8304 154.951 27.7654 154.917 27.7004 154.869L27.202 154.982H27.176C27.1023 154.982 27.0373 154.951 26.9897 154.9C26.942 154.844 26.9247 154.805 26.9073 154.757C26.8813 154.662 26.8813 154.563 26.8813 154.438C26.8813 154.045 26.9637 153.476 26.9637 153.019C26.9637 152.85 26.955 152.712 26.9377 152.6C26.9203 152.488 26.8727 152.423 26.8423 152.406C26.825 152.397 26.8163 152.389 26.7773 152.389C26.7383 152.389 26.6733 152.397 26.5823 152.453L26.565 152.462H26.5476C26.4436 152.479 26.3223 152.535 26.1923 152.583C26.0623 152.63 25.9019 152.686 25.7416 152.686C25.6463 152.686 25.5466 152.669 25.4512 152.622L25.4122 152.604L25.3862 152.574C25.2736 152.453 25.2476 152.294 25.2476 152.143C25.2476 151.936 25.3126 151.742 25.3689 151.565C25.4339 151.379 25.5076 151.219 25.5552 151.107L25.5639 151.09L25.5726 151.073C25.6116 151.025 25.6766 150.991 25.7113 150.969C25.7589 150.961 25.8066 150.952 25.8413 150.952C25.9929 150.952 26.149 150.991 26.3006 151.034C26.3743 151.051 26.4306 151.073 26.487 151.099C26.552 150.995 26.6083 150.892 26.6647 150.818C26.7383 150.715 26.8337 150.633 26.9463 150.585C27.02 150.555 27.098 150.538 27.1804 150.521C27.293 150.512 27.4144 150.512 27.5834 150.512C27.6094 150.512 27.6571 150.512 27.6961 150.512H27.7047L29.2518 150.736L29.6939 149.653L29.7589 149.623C29.8412 149.584 29.9669 149.528 30.0969 149.485C30.2269 149.438 30.3786 149.403 30.5172 149.403C30.6299 149.403 30.7513 149.42 30.8553 149.515H30.8639L30.8726 149.524C31.0979 149.757 31.5313 149.86 32.0167 149.86C32.645 149.86 33.3211 149.692 33.6851 149.563C33.7328 149.545 33.7805 149.524 33.8065 149.515C33.7978 149.498 33.7891 149.485 33.7805 149.468L33.7718 149.438V149.407C33.7718 149.015 33.7891 148.687 33.8845 148.372C33.9798 148.057 34.1358 147.746 34.4175 147.427L34.4652 147.362H35.1889C35.2149 147.315 35.2366 147.25 35.2539 147.155C35.2539 147.043 35.2279 146.914 35.1889 146.763C35.1629 146.625 35.1152 146.474 35.1065 146.344L35.1022 146.202L35.1976 146.137C35.2149 146.128 35.2366 146.111 35.2712 146.064C35.2886 146.047 35.3362 146.016 35.3839 145.977C35.5616 145.546 35.8173 145.313 36.0686 145.201C36.333 145.08 36.5756 145.05 36.736 144.951C36.8487 144.877 36.944 144.8 37.0263 144.614C37.035 144.588 37.0437 144.567 37.0523 144.528C37.0783 144.489 37.1173 144.463 37.1347 144.446C37.1997 144.416 37.2474 144.398 37.3124 144.381C37.425 144.364 37.5464 144.364 37.659 144.364C37.6851 144.364 37.7241 144.364 37.7414 144.364C37.8801 144.01 38.0491 143.449 38.0491 142.992C38.0491 142.776 38.0231 142.582 37.9364 142.44C37.8627 142.302 37.7587 142.207 37.581 142.151L37.3947 142.103L37.4684 141.918C37.542 141.723 37.6634 141.59 37.7977 141.499C37.9104 141.413 38.0317 141.37 38.1444 141.305C38.3958 140.986 38.6428 140.623 38.9591 140.313C39.2668 140.006 39.6438 139.769 40.1509 139.752C40.3286 139.601 40.5062 139.359 40.6969 139.118C40.8833 138.876 41.0826 138.604 41.3166 138.397C41.438 138.117 41.5333 137.845 41.6546 137.586C41.7847 137.323 41.9753 137.064 42.2917 136.857L42.3567 136.818L42.4304 136.827C42.4954 136.835 42.5517 136.844 42.608 136.844C42.8031 136.844 42.9937 136.779 43.1714 136.693C43.3578 136.598 43.5354 136.477 43.7348 136.365L43.7435 136.356H43.7521L43.7781 136.326C43.7955 136.3 43.8171 136.253 43.8431 136.205C43.8821 136.102 43.9255 135.964 43.9558 135.821C43.9731 135.739 44.0035 135.653 44.0511 135.588L44.0598 135.571L44.0685 135.563C44.5582 135.002 44.8399 134.583 45.4292 134.065C45.4552 133.962 45.5116 133.832 45.5506 133.681C45.5896 133.53 45.6329 133.375 45.6459 133.289V133.272L45.6546 133.254C45.7283 133.06 45.7933 132.87 45.8626 132.711C45.9276 132.542 45.9579 132.413 45.9579 132.318C45.9579 132.271 45.9493 132.232 45.9406 132.206C45.9319 132.176 45.9146 132.158 45.8669 132.133C45.7933 132.085 45.6242 132.038 45.3426 132.038C45.0609 132.301 44.7879 132.495 44.4715 132.711L44.4325 132.741H44.3848C44.2462 132.741 44.1205 132.724 44.0208 132.668C43.9168 132.62 43.8345 132.53 43.8041 132.426C43.7868 132.361 43.7781 132.297 43.7781 132.228C43.7781 132.042 43.8431 131.844 43.8908 131.667C43.9385 131.472 43.9861 131.283 43.9861 131.136C43.9861 130.968 43.9471 130.873 43.8345 130.782L43.8258 130.774L43.8171 130.765C43.7045 130.653 43.6221 130.636 43.5744 130.636C43.5268 130.636 43.4704 130.653 43.3881 130.73C43.3144 130.804 43.2364 130.916 43.1541 131.05C42.9851 131.33 42.8464 131.693 42.6861 132.012C42.582 132.228 42.4694 132.422 42.3394 132.564C42.257 132.65 42.1703 132.715 42.049 132.75L42.0317 132.758H42.0143C41.828 132.758 41.685 132.741 41.5723 132.663C41.4596 132.599 41.386 132.478 41.3643 132.374C41.3556 132.301 41.347 132.245 41.347 132.189C41.347 132.102 41.347 132.051 41.3383 131.982C41.3296 131.917 41.2993 131.869 41.2646 131.805L40.5496 131.835L40.5019 131.77C40.3156 131.554 40.2679 131.283 40.2679 131.05C40.2679 130.722 40.3502 130.394 40.3502 130.191C40.3502 130.118 40.3416 130.07 40.3329 130.053C40.3242 130.036 40.3242 130.036 40.2939 130.014C40.1162 129.967 39.8909 129.967 39.6568 129.941C39.4228 129.924 39.1498 129.846 38.9331 129.635L38.9158 129.617L38.9071 129.6C38.7771 129.32 38.7295 129.078 38.6991 128.871C38.6731 128.664 38.6254 128.509 38.5301 128.34C38.4651 128.245 38.3784 128.146 38.2311 128.034C37.7327 128.034 37.4034 128.06 37.1693 128.073C37.0567 128.073 36.9613 128.064 36.8703 128.034C36.775 128.004 36.684 127.93 36.645 127.835C36.619 127.771 36.5973 127.715 36.58 127.65C36.5626 127.555 36.5626 127.456 36.554 127.344C36.5453 127.206 36.5453 127.016 36.5366 126.813C36.5193 126.796 36.4976 126.774 36.4716 126.74C36.4456 126.701 36.424 126.653 36.424 126.602C36.424 126.537 36.45 126.481 36.489 126.433C36.528 126.394 36.5713 126.36 36.6103 126.338L36.6753 126.291C36.6927 126.274 36.7143 126.226 36.7707 126.179L36.788 126.161L36.814 126.153C36.9353 126.105 37.0567 126.08 37.178 126.08C37.412 126.08 37.6374 126.127 37.8151 126.127C37.8974 126.127 37.9667 126.118 38.0317 126.097C38.0794 126.079 38.1357 126.032 38.1704 125.967L38.1791 125.959L38.1878 125.95C38.2528 125.885 38.2918 125.743 38.2918 125.549C38.2918 125.363 38.2744 125.148 38.2744 124.932C38.2744 124.781 38.2831 124.634 38.3394 124.492C38.3871 124.349 38.5084 124.211 38.6688 124.147C38.7815 124.099 38.9028 124.073 39.0545 124.073C39.1281 124.073 39.1932 124.082 39.2798 124.091H39.3058L39.3232 124.099C39.8779 124.362 40.4196 124.677 40.9483 124.677C40.9959 124.677 41.0436 124.677 41.0869 124.669C41.3946 124.483 41.7153 124.427 41.958 124.349C42.2224 124.013 42.66 123.508 42.8767 123.107C42.9504 122.977 42.9894 122.857 42.9981 122.77C42.9981 122.744 43.0067 122.706 43.0154 122.667C43.0327 122.628 43.0631 122.593 43.0891 122.581C43.0977 122.572 43.0977 122.572 43.1064 122.572C43.2581 122.115 43.5008 121.48 43.8085 120.872C44.1291 120.246 44.5235 119.655 44.9915 119.349L45.0739 119.302L45.1692 119.34C45.2169 119.366 45.2732 119.379 45.3079 119.379C45.3729 119.379 45.4206 119.362 45.4942 119.332C45.5592 119.302 45.6242 119.245 45.7109 119.194C45.8496 119 45.9753 118.857 46.1053 118.754C46.2266 118.641 46.3566 118.568 46.4996 118.521C46.751 118.426 47.0067 118.426 47.401 118.344C47.7651 117.8 48.0771 117.295 48.2851 116.7C48.2938 116.683 48.2938 116.661 48.3024 116.635L48.3501 116.571L48.3761 116.553C48.4801 116.303 48.5148 116.105 48.5148 115.975C48.5148 115.846 48.4888 115.751 48.4021 115.647C48.3198 115.544 48.1767 115.44 47.9601 115.319L47.8561 115.272L47.8647 115.16C47.8734 114.966 47.8734 114.806 47.8734 114.646C47.8734 114.487 47.8821 114.357 47.9384 114.215C47.9644 114.12 48.0337 114.038 48.1161 113.965C48.2201 113.861 48.3588 113.779 48.5494 113.714L48.6621 113.667L48.7445 113.762C48.9135 113.956 48.9698 114.124 49.0261 114.258C49.0651 114.387 49.0911 114.444 49.1561 114.508C49.1951 114.547 49.2602 114.595 49.3642 114.638C49.4378 114.599 49.4855 114.543 49.5332 114.469C49.5808 114.375 49.6155 114.262 49.6372 114.124C49.6762 113.844 49.6545 113.507 49.6848 113.188V113.171L49.6935 113.154C50.0315 112.273 50.4086 111.518 50.6339 110.63L50.6426 110.591L50.6686 110.561C50.9893 110.224 51.297 109.624 51.3143 109.189L51.323 109.02H51.492C51.6436 109.02 51.7823 109.059 51.895 109.068L51.9773 109.076L52.0163 109.15C52.1853 109.413 52.324 109.504 52.4584 109.56C52.5884 109.616 52.7487 109.624 52.9177 109.672C53.0391 109.702 53.1691 109.767 53.2818 109.888L53.3078 109.913L53.3164 109.939C53.6241 110.733 54.0661 111.436 54.2568 112.334C54.3782 112.476 54.5212 112.567 54.6988 112.632C54.8765 112.696 55.0845 112.726 55.3099 112.744C55.7519 112.774 56.2373 112.744 56.662 112.912C56.9133 113.016 57.1603 113.21 57.299 113.52C57.3164 113.529 57.325 113.529 57.3467 113.538C57.3944 113.568 57.429 113.602 57.4594 113.641C57.5244 113.714 57.572 113.809 57.611 113.891C57.7064 114.077 57.7887 114.301 57.8754 114.461C57.9404 114.564 57.9967 114.646 58.0531 114.694C58.0921 114.711 58.1354 114.72 58.1831 114.72C58.2958 114.72 58.4648 114.672 58.6251 114.599C58.8028 114.534 58.9891 114.461 59.2058 114.461C59.4008 114.461 59.6262 114.534 59.8082 114.724L59.8255 114.741L59.8342 114.759C59.9382 114.944 60.0422 115.022 60.1419 115.078C60.2459 115.125 60.3586 115.143 60.4886 115.143C60.6099 115.143 60.7529 115.134 60.9219 115.134C61.0173 115.134 61.1083 115.143 61.2123 115.164L61.221 115.155C61.247 115.108 61.2946 115.026 61.325 114.94C61.4073 114.763 61.494 114.547 61.5676 114.37C61.6153 114.249 61.663 114.146 61.7063 114.073L61.7236 114.042L61.7497 114.025C61.8883 113.922 62.0487 113.874 62.2003 113.874C62.3694 113.874 62.508 113.939 62.6424 114.004C62.7724 114.09 62.8937 114.189 63.0281 114.293C63.2621 114.508 63.4961 114.75 63.7431 114.91C63.8948 115.013 64.0421 115.061 64.1938 115.061C64.2762 115.061 64.3455 115.052 64.4365 115.013L64.4625 115.004H64.4885C64.4972 115.004 64.5535 114.996 64.6012 114.974C64.6662 114.957 64.7312 114.91 64.8179 114.879C64.9869 114.793 65.1559 114.702 65.3336 114.638C65.4376 114.599 65.5416 114.556 65.6412 114.543C65.7062 114.534 65.7929 114.513 65.9229 114.495C66.0529 114.478 66.2046 114.457 66.3563 114.422C66.664 114.375 67.015 114.301 67.184 114.228C67.2013 114.219 67.223 114.211 67.2317 114.211V114.163L67.327 114.116C67.7127 113.922 67.9554 113.611 68.1981 113.274C68.4408 112.938 68.6878 112.563 69.0821 112.321C69.3335 112.153 69.6628 112.071 70.0875 112.058C71.2316 111.889 72.094 111.963 73.1644 111.665V111.648L73.7191 111.721C73.8231 111.73 73.9055 111.795 73.9531 111.851C74.0008 111.924 74.0355 112.002 74.0571 112.084C74.1048 112.26 74.1221 112.468 74.1221 112.683C74.1221 112.981 74.0961 113.283 74.0268 113.469C74.0181 113.499 74.0095 113.542 73.9878 113.572C73.9965 113.589 73.9965 113.611 74.0051 113.645C74.0225 113.732 74.0528 113.831 74.0875 113.943C74.1525 114.167 74.2175 114.409 74.2651 114.521C74.2738 114.547 74.2825 114.586 74.2825 114.586C74.3648 114.81 74.5165 114.987 74.6942 115.164C74.8719 115.341 75.0799 115.509 75.2402 115.725C75.4352 115.988 75.6259 116.191 75.8209 116.333C76.0289 116.463 76.2543 116.54 76.5533 116.54C76.6486 116.54 76.7396 116.532 76.8437 116.523C77.0127 116.394 77.199 116.338 77.3984 116.338C77.6974 116.338 77.9704 116.441 78.2261 116.532C78.2521 116.523 78.2911 116.514 78.3214 116.506C78.3951 116.489 78.4601 116.467 78.5468 116.458C78.6768 116.441 78.7981 116.433 78.9108 116.42C79.2965 116.156 79.6258 115.803 79.9639 115.457C80.3106 115.104 80.6789 114.746 81.1253 114.495C81.3116 114.318 81.537 114.271 81.7363 114.271C82.0353 114.271 82.317 114.366 82.525 114.366C82.629 114.366 82.7027 114.349 82.759 114.301L82.785 114.284L82.811 114.275C83.1317 114.211 83.4308 114.146 83.7298 114.146C83.9161 114.146 84.0938 114.176 84.2758 114.258C84.4535 114.34 84.6138 114.482 84.7742 114.677L84.8218 114.75L84.5965 115.574L84.5792 115.591C84.4968 115.712 84.4665 115.816 84.4665 115.889C84.4665 115.984 84.4925 116.027 84.5705 116.096C84.6442 116.143 84.7785 116.2 84.9649 116.2H84.9822H84.9995C85.1512 116.23 85.2422 116.329 85.2985 116.424C85.3462 116.506 85.3722 116.592 85.3809 116.601C85.9443 117.395 86.2259 118.188 86.668 119.03C87.006 119.095 87.2703 119.28 87.448 119.517C87.643 119.75 87.7774 120.039 87.8987 120.285C88.3407 120.605 88.6138 120.816 88.9778 121.247L88.9951 121.265L89.0038 121.282C89.1338 121.58 89.3115 121.778 89.5282 121.925C89.7448 122.071 89.9962 122.166 90.2779 122.231C90.8239 122.352 91.461 122.335 92.0417 122.36C92.0503 122.352 92.0503 122.343 92.059 122.335C92.098 122.27 92.1413 122.166 92.1977 122.054C92.3103 121.83 92.462 121.541 92.657 121.316C92.787 121.165 92.9474 121.036 93.1554 120.989H93.1727H93.1901C93.5844 120.971 94.0265 120.958 94.4078 120.885C94.8108 120.812 95.1489 120.669 95.3742 120.428C95.4782 120.298 95.5042 120.203 95.4956 120.139C95.4956 120.1 95.4869 120.052 95.4566 120.018C95.4306 119.979 95.3829 119.923 95.3265 119.888C95.2139 119.785 95.0622 119.694 94.9235 119.569C94.8412 119.487 94.7545 119.375 94.7545 119.224C94.7545 119.073 94.8368 118.926 94.9712 118.792L95.0189 118.745H95.0665C95.0839 118.728 95.1142 118.698 95.1489 118.641C95.2225 118.547 95.3005 118.4 95.3829 118.232C95.5606 117.895 95.7296 117.477 95.8509 117.166C95.9333 116.959 95.9896 116.812 96.0286 116.747L96.0459 116.709L96.0849 116.678C96.1976 116.605 96.3839 116.527 96.592 116.437C96.8 116.342 97.0123 116.251 97.1727 116.174C97.2463 116.135 97.3113 116.092 97.3503 116.07V116.04L97.4153 115.992C97.5367 115.889 97.632 115.785 97.723 115.695C97.8184 115.6 97.9007 115.518 98.0134 115.462C98.0871 115.423 98.1824 115.397 98.2777 115.397C98.4294 115.397 98.5984 115.445 98.8021 115.548L98.8844 115.587L98.8931 115.682C98.9321 115.906 98.9408 116.1 98.9755 116.251C99.0015 116.42 99.0491 116.549 99.1531 116.7L99.1705 116.73L99.1791 116.76C99.2051 116.898 99.2181 117.058 99.2181 117.209C99.2181 117.442 99.2008 117.675 99.2008 117.908C99.2008 118.076 99.2095 118.236 99.2485 118.365C99.2875 118.495 99.3438 118.607 99.4348 118.711L100.167 119.345L100.466 120.026V120.057C100.475 120.13 100.475 120.195 100.475 120.272C100.475 120.682 100.401 121.01 100.401 121.291C100.401 121.459 100.419 121.588 100.497 121.709C100.562 121.838 100.674 121.959 100.882 122.11L100.891 122.119L100.9 122.128L100.908 122.136L100.947 122.153C100.973 122.171 101.03 122.192 101.077 122.218C101.181 122.266 101.32 122.322 101.48 122.369C101.779 122.473 102.126 122.546 102.351 122.546C102.416 122.546 102.455 122.546 102.481 122.537C102.507 122.529 102.52 122.52 102.529 122.52L102.546 122.455L102.611 122.43C102.828 122.317 102.91 122.244 103.006 122.166C103.088 122.08 103.183 121.968 103.344 121.821C103.634 121.334 104.028 121.053 104.462 120.868C104.904 120.682 105.381 120.579 105.849 120.428L105.888 120.419L105.927 120.428C106.481 120.548 107.006 120.885 107.521 121.165C108.037 121.454 108.527 121.696 109.003 121.687C109.294 121.687 109.567 121.605 109.875 121.39C109.979 121.308 110.1 121.269 110.239 121.239C110.377 121.209 110.538 121.2 110.698 121.2C110.932 121.2 111.188 121.217 111.413 121.273C111.608 121.312 111.777 121.377 111.92 121.45C111.959 121.45 112.002 121.459 112.041 121.459C112.249 121.459 112.475 121.394 112.7 121.329C112.934 121.256 113.19 121.187 113.441 121.187C113.658 121.187 113.883 121.234 114.1 121.394L114.108 121.403L114.117 121.411C114.399 121.644 114.559 121.907 114.745 122.14C114.876 122.214 114.988 122.244 115.092 122.244C115.27 122.244 115.43 122.162 115.647 122.037C115.855 121.925 116.08 121.774 116.371 121.674C116.492 121.61 116.579 121.536 116.661 121.411C116.743 121.299 116.8 121.161 116.869 121.001C116.99 120.695 117.103 120.337 117.367 120.048C117.545 119.862 117.788 119.72 118.108 119.664C118.182 119.647 118.247 119.634 118.325 119.634C118.615 119.634 118.962 119.737 119.291 119.897C119.629 120.048 119.95 120.251 120.184 120.497C120.323 120.635 120.436 120.786 120.492 120.945C120.687 121.234 120.999 121.403 121.346 121.545C121.701 121.675 122.095 121.778 122.442 121.946C122.659 122.05 122.854 122.179 123.005 122.365C123.616 122.615 124.037 122.727 124.336 122.727C124.643 122.727 124.86 122.632 125.151 122.438C125.432 122.24 125.731 121.942 126.182 121.571C126.39 121.338 126.464 121.027 126.568 120.691C126.663 120.354 126.784 119.979 127.131 119.711L127.235 119.625L127.339 119.699C127.547 119.837 127.668 119.988 127.759 120.091C127.855 120.195 127.911 120.259 128.067 120.298C128.171 120.324 128.31 120.346 128.518 120.346C128.752 120.346 128.921 120.466 129.051 120.57C129.181 120.674 129.276 120.747 129.371 120.764L129.41 120.773L129.436 120.79C129.575 120.894 129.718 120.919 129.857 120.919C130.121 120.919 130.438 120.799 130.823 120.79C130.906 120.79 131.001 120.799 131.075 120.82L131.122 120.829L131.148 120.855C131.486 121.161 131.599 121.536 131.599 121.903C131.599 122.352 131.46 122.792 131.391 123.193V123.232L131.374 123.262C131.036 123.806 130.559 124.185 130.143 124.626C130.004 124.867 129.892 125.057 129.813 125.204C129.74 125.372 129.709 125.484 129.709 125.57C129.709 125.665 129.727 125.747 129.805 125.868C129.879 125.98 130 126.118 130.169 126.3C130.299 126.42 130.364 126.597 130.364 126.748C130.364 127.029 130.225 127.262 130.1 127.495C129.978 127.728 129.866 127.982 129.874 128.194C129.874 128.379 129.939 128.556 130.165 128.772L130.212 128.819V128.892C130.212 129.19 130.147 129.604 130.043 129.975C129.931 130.359 129.792 130.713 129.575 130.938C129.549 130.976 129.501 131.058 129.462 131.162C129.423 131.248 129.367 131.33 129.293 131.412C129.285 131.451 129.285 131.494 129.285 131.533C129.285 131.71 129.332 131.796 129.436 131.887C129.54 131.973 129.701 132.025 129.905 132.072C130.325 132.158 130.901 132.146 131.417 132.184C131.755 132.215 132.084 132.279 132.344 132.435L132.383 132.46L132.401 132.508C132.448 132.62 132.466 132.724 132.466 132.836C132.466 133.134 132.344 133.388 132.327 133.612V133.66L132.301 133.699C132.18 133.867 132.149 134.035 132.149 134.242C132.149 134.596 132.279 135.028 132.288 135.476C132.288 135.606 132.271 135.739 132.24 135.877L132.279 135.942C132.318 135.99 132.383 136.054 132.457 136.128C132.609 136.257 132.804 136.408 132.964 136.512C133.012 136.542 133.059 136.559 133.085 136.585L133.722 136.041L133.731 136.033C133.852 135.959 133.974 135.929 134.095 135.929C134.264 135.929 134.403 135.994 134.537 136.059C134.667 136.141 134.788 136.244 134.923 136.348C135.166 136.563 135.421 136.805 135.681 136.965C135.868 137.068 136.045 137.133 136.284 137.133C136.535 137.133 136.838 137.051 137.224 136.796L137.241 136.788L137.259 136.779C137.371 136.74 137.493 136.714 137.623 136.714C137.818 136.714 138.034 136.779 138.186 136.947L138.234 136.995L138.216 137.853L138.177 137.901C137.757 138.406 137.276 139.062 136.496 139.359C136.375 139.48 136.245 139.584 136.141 139.678C136.019 139.782 135.924 139.886 135.876 140.024L135.868 140.062L135.842 140.093C135.794 140.14 135.729 140.244 135.655 140.356C135.582 140.468 135.504 140.589 135.365 140.684C135.283 140.731 135.17 140.779 135.057 140.779C134.849 140.817 134.567 140.796 134.307 140.817C134.043 140.826 133.792 140.882 133.67 140.986C133.588 141.05 133.549 141.128 133.549 141.283V141.357L133.501 141.404C133.324 141.581 133.09 141.629 132.856 141.629C132.574 141.629 132.284 141.564 131.985 141.508C131.694 141.443 131.413 141.396 131.187 141.396C131.122 141.396 131.066 141.396 131.01 141.404H130.984H130.958C130.828 141.387 130.715 141.378 130.611 141.378C130.394 141.378 130.256 141.417 130.152 141.473C130.056 141.538 130 141.603 129.944 141.715C129.84 141.948 129.805 142.349 129.718 142.819L129.709 142.884L129.662 142.923C129.614 142.97 129.597 142.996 129.588 143.052C129.588 143.126 129.614 143.229 129.692 143.359C129.766 143.488 129.87 143.639 129.983 143.79C130.217 144.096 130.498 144.424 130.706 144.735C130.836 144.942 130.94 145.145 130.94 145.361V145.408L130.914 145.447C130.849 145.542 130.763 145.598 130.68 145.654C130.598 145.693 130.503 145.727 130.429 145.749C130.26 145.788 130.1 145.822 129.996 145.878C129.922 145.917 129.874 145.973 129.826 146.055L129.818 146.085L129.8 146.103C129.302 146.599 128.916 147.289 128.544 147.923L128.518 147.988L128.444 148.005C128.331 148.035 128.219 148.053 128.115 148.053C127.824 148.053 127.608 147.949 127.413 147.859C127.226 147.764 127.075 147.69 126.914 147.69C126.875 147.69 126.819 147.699 126.776 147.708L126.269 148.532L126.156 148.523L125.939 148.506L125.9 148.476C125.263 147.962 124.531 147.651 123.759 147.651C123.534 147.651 123.309 147.682 123.083 147.738C122.932 147.85 122.832 147.953 122.776 148.035C122.711 148.117 122.702 148.174 122.702 148.212C122.702 148.251 122.711 148.299 122.75 148.342C122.789 148.389 122.854 148.454 122.936 148.519C123.088 148.648 123.3 148.782 123.469 148.967C123.582 149.088 123.664 149.256 123.686 149.433V149.464L123.677 149.489C123.66 149.584 123.651 149.666 123.651 149.74C123.651 149.947 123.716 150.141 123.79 150.348C123.872 150.542 123.985 150.749 124.071 150.965C124.145 151.06 124.167 151.172 124.167 151.263C124.167 151.457 124.093 151.672 124.028 151.888C123.946 152.104 123.859 152.32 123.803 152.497C123.764 152.609 123.738 152.712 123.738 152.747V152.755L124.734 153.597C124.839 153.614 124.93 153.644 124.999 153.7C125.103 153.774 125.185 153.869 125.25 153.963C125.389 154.179 125.484 154.429 125.484 154.684C125.484 154.779 125.476 154.869 125.437 154.964C125.398 155.059 125.333 155.141 125.25 155.197H125.242H125.233C124.904 155.391 124.661 155.599 124.435 155.832C124.21 156.065 123.993 156.328 123.703 156.6L122.446 158.14L122.316 158.036C122.165 157.924 122.052 157.795 121.931 157.635C121.61 157.411 121.198 157.346 120.748 157.316C120.297 157.286 119.799 157.298 119.361 157.139C119.07 157.035 118.815 156.858 118.611 156.578C118.208 156.315 117.944 156.159 117.727 155.978C117.51 155.797 117.363 155.624 117.22 155.344C117.125 155.159 117.042 154.934 116.938 154.632L116.921 154.585L116.93 154.537C116.938 154.498 116.938 154.451 116.938 154.416C116.938 154.334 116.921 154.265 116.873 154.192C116.826 154.119 116.769 154.054 116.687 153.985C116.535 153.847 116.323 153.705 116.171 153.519L116.145 153.472V153.407C116.145 153.239 116.145 153.079 116.145 152.911C116.145 152.604 116.137 152.311 116.072 152.052C116.007 151.811 115.92 151.586 115.742 151.388C115.695 151.379 115.612 151.37 115.5 151.37C115.01 151.37 114.178 151.556 113.736 151.772C113.597 151.836 113.502 151.901 113.471 151.94L112.947 152.975C112.956 153.07 113.012 153.208 113.077 153.368C113.159 153.545 113.255 153.722 113.32 153.864V153.873V153.881C113.393 154.114 113.432 154.369 113.432 154.611C113.432 155.189 113.237 155.771 112.878 156.19C112.726 156.423 112.635 156.621 112.57 156.845C112.505 157.061 112.475 157.303 112.418 157.6V157.618L112.072 158.386L112.046 158.403C111.924 158.506 111.747 158.666 111.53 158.813C111.322 158.951 111.079 159.093 110.806 159.093C110.611 159.093 110.403 158.998 110.252 158.813L110.213 158.765V158.727L110.204 158.718C110.187 158.701 110.156 158.653 110.109 158.614C110.026 158.528 109.914 158.42 109.788 158.317C109.545 158.11 109.263 157.898 109.177 157.851L109.094 157.803V156.914L109.159 156.867C109.168 156.867 109.224 156.794 109.263 156.699C109.311 156.604 109.367 156.483 109.415 156.354C109.519 156.103 109.623 155.81 109.705 155.624C109.723 155.577 109.745 155.53 109.779 155.495C109.779 155.486 109.788 155.486 109.797 155.478L110.013 154.171C109.996 154.106 109.974 154.067 109.966 154.041C109.948 154.011 109.948 154.002 109.94 153.994C109.922 153.976 109.836 153.92 109.723 153.808L109.714 153.799L109.705 153.791C109.666 153.726 109.658 153.687 109.64 153.623C109.623 153.558 109.623 153.502 109.614 153.416C109.597 153.264 109.588 153.07 109.588 152.855C109.588 152.535 109.606 152.173 109.671 151.828C109.736 151.491 109.81 151.185 109.979 150.961C110.083 150.818 110.243 150.697 110.447 150.697H110.486L110.525 150.715C110.75 150.827 110.967 150.883 111.17 150.883C111.816 150.883 112.332 150.361 112.362 149.649C112.336 149.632 112.297 149.61 112.267 149.602C112.202 149.584 112.145 149.571 112.059 149.571C111.929 149.571 111.76 149.589 111.591 149.589C111.461 149.589 111.326 149.58 111.188 149.515L111.114 149.485L110.728 148.45L109.97 148.031L109.953 147.992C109.597 147.44 108.947 147.039 108.228 147.03C107.261 147.496 106.256 147.423 105.346 147.496C105.112 147.535 104.839 147.673 104.574 147.802C104.31 147.932 104.028 148.066 103.729 148.066C103.599 148.066 103.465 148.035 103.335 147.962C103.214 147.889 103.101 147.785 102.997 147.643L102.988 147.634L102.98 147.626C102.884 147.44 102.754 147.319 102.568 147.224C102.39 147.129 102.165 147.056 101.931 147.009C101.498 146.905 101.03 146.858 100.644 146.655C100.531 146.72 100.401 146.728 100.289 146.728C100.072 146.728 99.8465 146.681 99.7078 146.681C99.5865 146.931 99.4738 147.298 99.3611 147.682C99.2398 148.113 99.1098 148.562 98.9105 148.924C98.7891 149.149 98.6288 149.334 98.4208 149.446C98.3081 149.558 98.1781 149.696 98.0741 149.856C97.9701 150.007 97.8964 150.184 97.8964 150.313L97.9051 150.395C98.0351 150.732 98.2041 151.142 98.2041 151.565C98.2041 151.75 98.1781 151.918 98.0914 152.095L98.0827 152.113L98.0741 152.13C97.9787 152.242 97.7534 152.514 97.4717 152.794C97.19 153.083 96.8606 153.403 96.5313 153.618C96.3146 153.756 96.0979 153.86 95.8726 153.86C95.8466 153.86 95.8076 153.851 95.7772 153.851C95.7772 153.86 95.7772 153.877 95.7772 153.89C95.7772 154.132 95.6559 154.347 95.5519 154.572C95.4566 154.766 95.3742 154.956 95.3655 155.068C95.5909 155.396 95.7036 155.711 95.7989 156.013C95.8942 156.319 95.9766 156.591 96.1283 156.88C96.436 156.984 96.644 157.096 96.7956 157.225C96.9647 157.363 97.021 157.57 97.021 157.769C97.021 158.019 96.9473 158.299 96.8997 158.666L96.891 158.739L96.826 158.778C96.5183 159.003 96.1889 159.236 95.8986 159.507C95.6082 159.771 95.3742 160.068 95.2702 160.396C95.2052 160.59 95.0925 160.741 95.0275 160.892C94.9539 161.013 94.9148 161.117 94.9062 161.237C94.9322 161.268 94.9712 161.302 95.0189 161.332C95.0925 161.371 95.1879 161.419 95.2702 161.445C95.4652 161.518 95.7036 161.574 95.8986 161.742L95.9072 161.751L95.9159 161.768C96.0676 161.984 96.2799 162.187 96.488 162.411C96.6743 162.618 96.8433 162.842 96.9473 163.11C97.7924 163.662 98.9191 163.969 99.8855 164.473C100.081 164.482 100.25 164.538 100.384 164.642C100.523 164.745 100.618 164.875 100.705 165.004C100.856 165.267 100.956 165.548 101.147 165.703C101.268 165.806 101.411 165.88 101.68 165.88C101.719 165.88 101.775 165.88 101.831 165.871L101.879 165.806C101.927 165.759 102.009 165.677 102.13 165.638L102.148 165.63H102.165C102.408 165.63 102.616 165.677 102.776 165.781C102.928 165.884 103.027 166.022 103.105 166.182C103.227 166.488 103.244 166.825 103.322 167.135C103.37 167.342 103.435 167.519 103.556 167.649L103.565 167.657V167.666C103.734 167.899 104.007 168.067 104.323 168.21C104.639 168.352 104.999 168.46 105.329 168.602L105.355 168.611L105.372 168.628C105.879 169.094 106.104 169.543 106.208 170.022C106.312 170.509 106.291 171.001 106.321 171.687V171.713C106.33 171.721 106.347 171.73 106.369 171.743C106.473 171.734 106.564 171.734 106.65 171.734C106.988 171.734 107.27 171.808 107.513 171.929C107.755 172.049 108.002 172.218 108.301 172.395L108.34 172.425L108.358 172.472C108.535 172.882 108.791 173.257 109.099 173.529C109.406 173.792 109.745 173.961 110.13 173.961C110.373 173.961 110.646 173.887 110.928 173.728C110.993 173.663 111.049 173.615 111.114 173.598C111.153 173.581 111.196 173.581 111.227 173.568C112.184 172.615 113.047 171.501 114.078 170.557C114.16 170.47 114.264 170.444 114.36 170.453C114.472 170.453 114.568 170.483 114.667 170.518C114.772 170.548 114.876 170.604 114.975 170.639C115.183 170.721 115.396 170.807 115.539 170.807C115.578 170.807 115.612 170.798 115.643 170.79C115.794 170.557 115.894 170.358 116.007 170.181C116.128 169.996 116.297 169.853 116.54 169.78C116.709 169.733 116.886 169.707 117.142 169.707C118.082 169.707 118.81 170.147 119.486 170.621C120.163 171.096 120.808 171.583 121.549 171.782L121.575 171.791L121.601 171.808C121.723 171.903 121.827 171.929 121.939 171.929C122.069 171.929 122.221 171.881 122.373 171.808C122.503 171.743 122.654 171.67 122.784 171.583C122.81 171.48 122.832 171.359 122.88 171.238C122.919 171.109 122.975 170.958 123.057 170.837C123.075 170.643 123.153 170.475 123.244 170.332C123.348 170.181 123.478 170.043 123.629 169.94C123.92 169.724 124.258 169.547 124.513 169.37L124.596 169.305L124.691 169.344L124.821 169.409C125.376 168.921 126.022 168.753 126.576 168.447L126.585 168.438H126.602C126.893 168.343 127.101 168.27 127.261 168.102L127.278 168.071L127.304 168.063C127.586 167.942 127.915 167.709 128.245 167.437C128.574 167.165 128.912 166.885 129.228 166.682C129.445 166.553 129.662 166.441 129.874 166.402L129.922 166.393L129.961 166.41C130.1 166.475 130.459 166.618 130.823 166.756C131.187 166.894 131.582 167.036 131.79 167.083C131.837 167.092 131.885 167.101 131.894 167.101C132.184 167.071 132.427 167.075 132.626 167.062C132.821 167.045 132.973 167.014 133.116 166.924C133.198 166.859 133.293 166.781 133.397 166.643C133.415 166.009 133.696 165.569 134.017 165.215C134.346 164.831 134.702 164.503 134.91 164.076C135.023 163.835 135.248 163.572 135.491 163.33C135.733 163.097 136.015 162.881 136.262 162.73L136.271 162.722L136.288 162.713C136.522 162.627 136.691 162.519 136.812 162.376C136.934 162.234 137.02 162.057 137.064 161.863C137.176 161.47 137.168 160.996 137.185 160.547V160.452L138.069 159.9C138.221 159.779 138.351 159.555 138.463 159.292C138.576 159.041 138.689 158.761 138.849 158.545C138.953 158.407 139.083 158.295 139.269 158.239H139.278H139.287C139.326 158.23 139.382 158.222 139.417 158.222C139.547 158.222 139.651 158.269 139.746 158.343C139.828 158.416 139.898 158.494 139.963 158.576C140.076 158.744 140.171 158.912 140.227 158.994C140.34 159.098 140.444 159.115 140.574 159.115C140.726 159.115 140.912 159.076 141.129 159.076C141.241 159.076 141.371 159.093 141.493 159.149L141.532 159.167L141.558 159.205C141.709 159.413 141.896 159.486 142.138 159.486C142.39 159.486 142.702 159.391 143.022 159.27C143.343 159.149 143.659 159.007 143.95 158.908C144.145 158.834 144.314 158.787 144.496 158.787C144.6 158.787 144.712 158.804 144.816 158.869C144.912 158.934 144.985 159.037 145.024 159.149V159.158V159.167C145.033 159.214 145.033 159.262 145.033 159.305C145.228 159.559 145.116 159.719 145.011 159.857Z" fill="white"/>
<path d="M354.794 270.327C363.257 270.327 367.556 265.184 367.556 255.753V249.432C367.556 240.001 363.249 234.858 354.794 234.858H349.866V219.78H365.095V211.362H341.411V270.327H354.794ZM349.875 261.905V243.293H354.802C357.494 243.293 359.11 244.639 359.11 248.854V256.353C359.11 260.568 357.498 261.914 354.802 261.914H349.875V261.905Z" fill="#009640"/>
<path d="M392.015 211.362H379.63L371.014 270.327H378.785L380.249 259.632H390.628L392.093 270.327H400.63L392.015 211.362ZM385.411 221.803L389.484 251.62H381.328L385.411 221.803Z" fill="#009640"/>
<path d="M444.565 270.327V211.362H436.101V261.905H428.799V211.362H420.336V261.905H413.033V211.362H404.57V270.327H444.565Z" fill="#009640"/>
<path d="M469.994 270.327H478.683L466.918 237.637L478.683 211.362H470.22L459.147 237.05V211.362H450.684V270.327H459.147V252.211L461.765 246.826L469.994 270.327Z" fill="#009640"/>
<path d="M490.302 224.927C490.302 220.711 491.992 219.111 494.683 219.111C497.374 219.111 499.064 220.707 499.064 224.927V256.762C499.064 260.978 497.374 262.578 494.683 262.578C491.992 262.578 490.302 260.982 490.302 256.762V224.927ZM481.834 256.176C481.834 265.607 486.375 271 494.679 271C502.982 271 507.523 265.607 507.523 256.176V225.513C507.523 216.082 502.982 210.689 494.679 210.689C486.375 210.689 481.834 216.082 481.834 225.513V256.176Z" fill="#009640"/>
<path d="M525.478 211.362H513.019V270.327H521.482V248.173H525.478C533.941 248.173 538.089 243.03 538.089 233.599V225.932C538.089 216.505 533.941 211.362 525.478 211.362ZM525.478 219.784C528.169 219.784 529.634 221.13 529.634 225.345V234.19C529.634 238.405 528.169 239.751 525.478 239.751H521.482V219.784H525.478Z" fill="#009640"/>
<path d="M539.553 219.784H548.394V270.327H556.857V219.784H565.698V211.362H539.553V219.784Z" fill="#009640"/>
<path d="M577.191 224.927C577.191 220.711 578.881 219.111 581.572 219.111C584.263 219.111 585.953 220.707 585.953 224.927V256.762C585.953 260.978 584.263 262.578 581.572 262.578C578.881 262.578 577.191 260.982 577.191 256.762V224.927ZM568.727 256.176C568.727 265.607 573.269 271 581.572 271C589.875 271 594.417 265.607 594.417 256.176V225.513C594.417 216.082 589.875 210.689 581.572 210.689C573.269 210.689 568.727 216.082 568.727 225.513V256.176Z" fill="#009640"/>
<path d="M616.453 248.341V256.763C616.453 260.978 614.763 262.492 612.072 262.492C609.381 262.492 607.691 260.978 607.691 256.763V224.927C607.691 220.711 609.381 219.111 612.072 219.111C614.763 219.111 616.453 220.707 616.453 224.927V231.247H624.449V225.513C624.449 216.082 620.141 210.689 611.838 210.689C603.535 210.689 599.227 216.082 599.227 225.513V256.171C599.227 265.603 603.535 270.996 611.838 270.996C620.141 270.996 624.449 265.603 624.449 256.171V248.336H616.453V248.341Z" fill="#009640"/>
<path d="M627.119 219.784H635.959V270.327H644.423V219.784H653.263V211.362H627.119V219.784Z" fill="#009640"/>
<path d="M675.755 211.362H663.369L654.754 270.327H662.524L663.989 259.632H674.368L675.833 270.327H684.37L675.755 211.362ZM669.142 221.803L673.215 251.62H665.06L669.142 221.803Z" fill="#009640"/>
<path d="M696.777 245.049H706.385V270.327H715V211.362H706.385V236.627H696.777V211.362H688.309V270.327H696.777V245.049Z" fill="#009640"/>
</svg>
