<svg width="387" height="387" viewBox="0 0 387 387" fill="none" xmlns="http://www.w3.org/2000/svg">
<path fill-rule="evenodd" clip-rule="evenodd" d="M387 193.5C387 300.367 300.367 387 193.5 387C86.6329 387 0 300.367 0 193.5C0 86.6329 86.6329 0 193.5 0C300.367 0 387 86.6329 387 193.5ZM168.693 132.441C169.94 132.441 171.188 132.16 172.354 131.556C178.752 128.257 185.672 126.527 192.874 126.406H194.282H194.363C219.71 126.768 240.27 147.69 240.27 173.078V185.148C240.27 197.903 244.454 206.714 248.357 213.916C249.805 216.612 252.582 218.141 255.438 218.141C256.726 218.141 258.054 217.819 259.261 217.175C263.163 215.043 264.612 210.174 262.52 206.271C258.617 199.07 256.364 193.316 256.364 185.148V173.078C256.364 156.502 249.966 140.891 238.298 129.021C228.32 118.882 215.486 112.525 201.645 110.795V99.0469C201.645 94.6211 198.024 91 193.598 91C189.172 91 185.551 94.6211 185.551 99.0469V110.836C178.389 111.761 171.509 113.893 164.991 117.273C161.048 119.325 159.479 124.153 161.531 128.096C162.98 130.872 165.796 132.441 168.693 132.441ZM104.721 93.3734L294.627 283.28C297.806 286.418 297.806 291.487 294.627 294.626C293.058 296.195 291.006 297 288.954 297C286.902 297 284.85 296.195 283.281 294.626L260.75 272.094C258.778 272.618 256.807 272.859 254.755 272.859H217.9C217.9 286.177 207.077 297 193.76 297C180.442 297 169.619 286.177 169.619 272.859H132.603C125.401 272.859 118.602 269.68 114.015 264.128C109.428 258.576 107.537 251.334 108.865 244.252C111.681 229.406 117.153 219.79 122.022 211.3L122.03 211.286C126.935 202.683 130.833 195.844 130.833 185.148V173.078C130.833 164.226 132.644 155.656 136.265 147.65L93.3748 104.76C90.2365 101.621 90.2365 96.5519 93.3748 93.3734C96.5131 90.1949 101.583 90.1949 104.721 93.3734ZM185.713 272.859C185.713 277.285 189.334 280.906 193.76 280.906C198.185 280.906 201.806 277.285 201.806 272.859H185.713ZM126.407 253.868C127.333 254.955 129.304 256.765 132.603 256.765H245.38L148.778 160.162C147.53 164.347 146.927 168.692 146.927 173.118V185.188C146.927 200.155 141.374 209.892 135.983 219.307C131.557 227.032 126.971 235.039 124.677 247.23C124.074 250.489 125.522 252.782 126.407 253.868Z" fill="#08E193"/>
</svg>
