<svg width="50" height="51" viewBox="0 0 50 51" fill="none" xmlns="http://www.w3.org/2000/svg">
<path d="M44.9463 5.07117V0H39.8479V5.07117H27.5939V0H22.4955V5.07117H10.2415V0H5.18784V5.07117H0V10.1423V15.2135V50.0445H50V5.11566H44.9463V5.07117ZM5.14311 44.8843V15.169H44.8569V44.8843H5.14311Z" fill="white"/>
<path d="M18.2909 29.137H19.7668C20.3482 29.137 20.7507 28.9591 21.019 28.5587C21.2874 28.1584 21.4215 27.6245 21.4215 26.9573C21.4215 26.3345 21.2874 25.8452 21.019 25.4893C20.7507 25.1334 20.3929 24.9555 19.901 24.9555C19.4537 24.9555 19.1407 25.1334 18.8276 25.4448C18.5593 25.8007 18.4251 26.2011 18.4251 26.7349H15.3392C15.3392 25.8897 15.5181 25.1779 15.9206 24.5107C16.3231 23.8434 16.8598 23.3541 17.5307 22.9537C18.2015 22.5979 18.9618 22.4199 19.8115 22.4199C21.2874 22.4199 22.4054 22.8203 23.2552 23.621C24.1049 24.4217 24.5074 25.5338 24.5074 26.9128C24.5074 27.6245 24.3285 28.2918 23.926 28.9146C23.5682 29.5374 23.0763 29.9822 22.4502 30.3381C23.2104 30.6495 23.7471 31.1388 24.1049 31.7616C24.4627 32.3843 24.6416 33.1406 24.6416 34.0302C24.6416 35.4537 24.1943 36.5658 23.2999 37.411C22.4054 38.2562 21.1979 38.7011 19.7668 38.7011C18.4251 38.7011 17.307 38.3007 16.4573 37.4555C15.6076 36.6103 15.2051 35.5427 15.2051 34.1637H18.3357C18.3357 34.742 18.4698 35.2313 18.7829 35.5872C19.096 35.9875 19.4537 36.1655 19.901 36.1655C20.4376 36.1655 20.8401 35.9875 21.1532 35.5872C21.4663 35.1868 21.6004 34.653 21.6004 34.0302C21.6004 32.4733 20.9743 31.6726 19.7668 31.6726H18.2462V29.137H18.2909Z" fill="white"/>
<path d="M32.5137 38.4784H29.4279V26.3788L26.3867 27.5354V24.9553L32.2007 22.5977H32.5137V38.4784Z" fill="white"/>
</svg>
