<svg width="74" height="76" viewBox="0 0 74 76" fill="none" xmlns="http://www.w3.org/2000/svg">
<g clip-path="url(#clip0_177_11966)">
<path d="M8.11914 73.7822C8.11914 75.0093 9.10686 76.0187 10.3316 76.0187H63.6685C64.8933 76.0187 65.9008 75.0291 65.9008 73.7822V66.9541H8.11914V73.7822Z" fill="white"/>
<path d="M37.001 17.8125C24.7533 17.8125 14.7773 27.8073 14.7773 40.0781V62.5021H59.2247V40.0781C59.2247 27.8073 49.2685 17.8125 37.001 17.8125Z" fill="white"/>
<path d="M36.8626 13.3587C38.0874 13.3587 39.0751 12.3691 39.0751 11.1222V2.21595C39.0751 0.988867 38.0874 -0.0205078 36.8626 -0.0205078C35.6378 -0.0205078 34.6304 0.969076 34.6304 2.21595V11.1222C34.6304 12.3691 35.6378 13.3587 36.8626 13.3587Z" fill="white"/>
<path d="M19.3597 16.5067C19.9721 17.5754 21.3352 17.9317 22.4019 17.3181C23.4686 16.7046 23.8242 15.339 23.2118 14.2702L18.7671 6.57124C18.1547 5.50249 16.7916 5.14624 15.7249 5.75978C14.6582 6.37333 14.3026 7.73895 14.915 8.8077L19.3597 16.5067Z" fill="white"/>
<path d="M11.8531 28.005C12.4655 26.9362 12.11 25.5706 11.0432 24.957L3.339 20.5039C2.27226 19.8904 0.909204 20.2466 0.296818 21.3154C-0.315569 22.3841 0.0400104 23.7498 1.10675 24.3633L8.81097 28.8164C9.87771 29.43 11.221 29.0737 11.8531 28.005Z" fill="white"/>
<path d="M51.6194 17.3174C52.6862 17.9309 54.0295 17.5747 54.6616 16.5059L59.1064 8.78719C59.7188 7.71844 59.3632 6.35282 58.2964 5.73928C57.2297 5.12574 55.8667 5.48198 55.2543 6.55073L50.8095 14.2695C50.1971 15.3382 50.5527 16.7039 51.6194 17.3174Z" fill="white"/>
<path d="M73.7047 21.3154C73.0923 20.2466 71.7293 19.8904 70.6625 20.5039L62.9583 24.957C61.8916 25.5706 61.536 26.9362 62.1484 28.005C62.7608 29.0737 64.1238 29.43 65.1906 28.8164L72.8948 24.3633C73.9615 23.7498 74.3171 22.3841 73.7047 21.3154Z" fill="white"/>
</g>
<defs>
<clipPath id="clip0_177_11966">
<rect width="74" height="76" fill="white"/>
</clipPath>
</defs>
</svg>
