<svg width="71" height="71" viewBox="0 0 71 71" fill="none" xmlns="http://www.w3.org/2000/svg">
<path d="M35.5 0C15.9283 0 0 15.9283 0 35.5C0 55.0717 15.9283 71 35.5 71C55.0717 71 71 55.0717 71 35.5C71 15.9283 55.0717 0 35.5 0ZM35.5 12.0046C39.7974 12.0046 43.8378 13.1724 47.3178 15.2043L15.2043 47.3178C13.1724 43.8378 12.0046 39.7974 12.0046 35.5C12.0046 22.5378 22.5378 12.0046 35.5 12.0046ZM35.5 58.9954C31.2026 58.9954 27.1622 57.8276 23.6822 55.7957L55.7957 23.6822C57.8276 27.1622 58.9954 31.2026 58.9954 35.5C58.9954 48.4622 48.4622 58.9954 35.5 58.9954Z" fill="white"/>
</svg>
