<svg width="50" height="51" viewBox="0 0 50 51" fill="none" xmlns="http://www.w3.org/2000/svg">
<path d="M44.9463 5.07117V0H39.8479V5.07117H27.5939V0H22.4955V5.07117H10.2415V0H5.18784V5.07117H0V10.1423V15.2135V50.0445H50V5.11566H44.9463V5.07117ZM5.14311 44.8843V15.169H44.8569V44.8843H5.14311Z" fill="white"/>
<path d="M12.9502 29.4766H14.3037C14.9482 29.4766 15.4258 29.3154 15.7363 28.9932C16.0469 28.6709 16.2021 28.2432 16.2021 27.71C16.2021 27.1943 16.0469 26.793 15.7363 26.5059C15.4316 26.2188 15.0098 26.0752 14.4707 26.0752C13.9844 26.0752 13.5771 26.21 13.249 26.4795C12.9209 26.7432 12.7568 27.0889 12.7568 27.5166H10.2168C10.2168 26.8486 10.3955 26.251 10.7529 25.7236C11.1162 25.1904 11.6201 24.7744 12.2646 24.4756C12.915 24.1768 13.6299 24.0273 14.4092 24.0273C15.7627 24.0273 16.8232 24.3525 17.5908 25.0029C18.3584 25.6475 18.7422 26.5381 18.7422 27.6748C18.7422 28.2607 18.5635 28.7998 18.2061 29.292C17.8486 29.7842 17.3799 30.1621 16.7998 30.4258C17.5205 30.6836 18.0566 31.0703 18.4082 31.5859C18.7656 32.1016 18.9443 32.7109 18.9443 33.4141C18.9443 34.5508 18.5283 35.4619 17.6963 36.1475C16.8701 36.833 15.7744 37.1758 14.4092 37.1758C13.1318 37.1758 12.0859 36.8389 11.2715 36.165C10.4629 35.4912 10.0586 34.6006 10.0586 33.4932H12.5986C12.5986 33.9736 12.7773 34.3662 13.1348 34.6709C13.498 34.9756 13.9434 35.1279 14.4707 35.1279C15.0742 35.1279 15.5459 34.9697 15.8857 34.6533C16.2314 34.3311 16.4043 33.9062 16.4043 33.3789C16.4043 32.1016 15.7012 31.4629 14.2949 31.4629H12.9502V29.4766Z" fill="white"/>
<path d="M27.5928 24.0713V26.1631H27.3467C26.1982 26.1807 25.2725 26.4795 24.5693 27.0596C23.8721 27.6396 23.4531 28.4453 23.3125 29.4766C23.9922 28.7852 24.8506 28.4395 25.8877 28.4395C27.001 28.4395 27.8857 28.8379 28.542 29.6348C29.1982 30.4316 29.5264 31.4805 29.5264 32.7812C29.5264 33.6133 29.3447 34.3662 28.9814 35.04C28.624 35.7139 28.1143 36.2383 27.4521 36.6133C26.7959 36.9883 26.0518 37.1758 25.2197 37.1758C23.8721 37.1758 22.7822 36.707 21.9502 35.7695C21.124 34.832 20.7109 33.5811 20.7109 32.0166V31.1025C20.7109 29.7139 20.9717 28.4893 21.4932 27.4287C22.0205 26.3623 22.7734 25.5391 23.752 24.959C24.7363 24.373 25.876 24.0771 27.1709 24.0713H27.5928ZM25.1143 30.4785C24.7041 30.4785 24.332 30.5869 23.998 30.8037C23.6641 31.0146 23.418 31.2959 23.2598 31.6475V32.4209C23.2598 33.2705 23.4268 33.9355 23.7607 34.416C24.0947 34.8906 24.5635 35.1279 25.167 35.1279C25.7119 35.1279 26.1514 34.9141 26.4854 34.4863C26.8252 34.0527 26.9951 33.4932 26.9951 32.8076C26.9951 32.1104 26.8252 31.5479 26.4854 31.1201C26.1455 30.6924 25.6885 30.4785 25.1143 30.4785Z" fill="white"/>
<path d="M31.416 30.707L32.1543 24.2031H39.3262V26.3213H34.2373L33.9209 29.0723C34.5244 28.75 35.166 28.5889 35.8457 28.5889C37.0645 28.5889 38.0195 28.9668 38.7109 29.7227C39.4023 30.4785 39.748 31.5361 39.748 32.8955C39.748 33.7217 39.5723 34.4629 39.2207 35.1191C38.875 35.7695 38.377 36.2764 37.7266 36.6396C37.0762 36.9971 36.3086 37.1758 35.4238 37.1758C34.6504 37.1758 33.9326 37.0205 33.2705 36.71C32.6084 36.3936 32.084 35.9512 31.6973 35.3828C31.3164 34.8145 31.1143 34.167 31.0908 33.4404H33.6045C33.6572 33.9736 33.8418 34.3896 34.1582 34.6885C34.4805 34.9814 34.8994 35.1279 35.415 35.1279C35.9893 35.1279 36.4316 34.9229 36.7422 34.5127C37.0527 34.0967 37.208 33.5107 37.208 32.7549C37.208 32.0283 37.0293 31.4717 36.6719 31.085C36.3145 30.6982 35.8076 30.5049 35.1514 30.5049C34.5479 30.5049 34.0586 30.6631 33.6836 30.9795L33.4375 31.208L31.416 30.707Z" fill="white"/>
</svg>
